# https://github.com/mikedh/trimesh
v 0.04040050 -0.02126802 -0.01762941
v 0.04040050 -0.03140713 -0.01416466
v 0.04040050 -0.04165691 -0.01762941
v 0.00021404 -0.04788081 -0.01762941
v 0.00021404 -0.04846847 -0.01708841
v 0.00021404 -0.05171589 -0.01416466
v 0.04040050 -0.04517145 -0.01416466
v 0.04040050 -0.04178284 -0.01753919
v 0.04027462 -0.04190114 -0.01756089
v 0.04023135 -0.04185534 -0.01762941
v 0.00021404 -0.05677972 -0.01762941
v 0.00021404 -0.06024465 -0.01416466
v 0.04035329 -0.04522105 -0.01416466
v 0.04040050 -0.04508368 -0.01425488
v 0.04040050 -0.04183626 -0.01749950
v 0.03849660 -0.04707181 -0.01416466
v 0.03863821 -0.04352293 -0.01756089
v 0.04040050 -0.04202325 -0.01731397
v 0.03859494 -0.04347714 -0.01762941
v 0.00021404 -0.05962646 -0.01478570
v 0.00101651 -0.05677972 -0.01762941
v 0.00081196 -0.06024846 -0.01416466
v 0.00021404 -0.05992410 -0.01448688
v 0.04012514 -0.04545001 -0.01416466
v 0.03707654 -0.04846465 -0.01416466
v 0.03699394 -0.04838452 -0.01431661
v 0.03776493 -0.04423271 -0.01762941
v 0.00730646 -0.05677590 -0.01762941
v 0.00405724 -0.05992410 -0.01448722
v 0.00243657 -0.06024465 -0.01416466
v 0.03685232 -0.04865927 -0.01416466
v 0.03591217 -0.04886152 -0.01474670
v 0.03674218 -0.04501499 -0.01762941
v 0.00892714 -0.05676446 -0.01762941
v 0.00568185 -0.05992410 -0.01448112
v 0.00405724 -0.06022938 -0.01416466
v 0.03621507 -0.04919351 -0.01416466
v 0.03498776 -0.05003303 -0.01416466
v 0.03488942 -0.04999105 -0.01427625
v 0.03298158 -0.04752592 -0.01762941
v 0.03454719 -0.04648796 -0.01762941
v 0.03545586 -0.04588122 -0.01762941
v 0.03586104 -0.04561028 -0.01762941
v 0.01055175 -0.05662708 -0.01762941
v 0.00730646 -0.05988594 -0.01441192
v 0.00730646 -0.05907313 -0.01528803
v 0.00568185 -0.06019122 -0.01416466
v 0.03488942 -0.05009409 -0.01416466
v 0.03396500 -0.05024673 -0.01454929
v 0.03164413 -0.04830820 -0.01762941
v 0.01055175 -0.05879075 -0.01504416
v 0.00892714 -0.05976383 -0.01425047
v 0.00892714 -0.05895102 -0.01521613
v 0.01217242 -0.05626074 -0.01762941
v 0.01217242 -0.05644391 -0.01742454
v 0.01446576 -0.05839007 -0.01456965
v 0.01338400 -0.05850455 -0.01470091
v 0.00730646 -0.06007293 -0.01416466
v 0.03429150 -0.05042226 -0.01416466
v 0.03364244 -0.05077715 -0.01416466
v 0.03164413 -0.05179602 -0.01416466
v 0.02832017 -0.04999868 -0.01762941
v 0.03058597 -0.04886152 -0.01762941
v 0.03086920 -0.04871651 -0.01762941
v 0.00892714 -0.05982871 -0.01416466
v 0.01055175 -0.05950816 -0.01416466
v 0.00963127 -0.05969133 -0.01416466
v 0.00906482 -0.05980199 -0.01416466
v 0.01508334 -0.05545175 -0.01762941
v 0.01541771 -0.05826796 -0.01443804
v 0.01541771 -0.05849310 -0.01416466
v 0.01487486 -0.05862285 -0.01416466
v 0.01408812 -0.05879457 -0.01416466
v 0.01372623 -0.05887088 -0.01416466
v 0.03106195 -0.05208604 -0.01416466
v 0.02507489 -0.05162048 -0.01762941
v 0.01583861 -0.05523805 -0.01762941
v 0.01704232 -0.05802755 -0.01417111
v 0.01583074 -0.05838626 -0.01416466
v 0.03001165 -0.05260883 -0.01416466
v 0.02489787 -0.05170826 -0.01762941
v 0.01704232 -0.05487554 -0.01762941
v 0.01704232 -0.05803137 -0.01416466
v 0.01866299 -0.05435656 -0.01762941
v 0.01997684 -0.05391772 -0.01762941
v 0.02077538 -0.05364678 -0.01762941
v 0.01908783 -0.05730632 -0.01416466
v 0.01707772 -0.05801992 -0.01416466
v 0.02976383 -0.05273094 -0.01416466
v 0.02338734 -0.05245237 -0.01762941
v 0.02104287 -0.05355138 -0.01762941
v 0.02028760 -0.05686367 -0.01416466
v 0.02855619 -0.05331479 -0.01416466
v 0.02416621 -0.05510449 -0.01452860
v 0.02190828 -0.05316596 -0.01762941
v 0.02151097 -0.05334532 -0.01762941
v 0.02149524 -0.05641338 -0.01416466
v 0.02449270 -0.05524950 -0.01416466
v 0.02383971 -0.05553189 -0.01416466
v 0.02190828 -0.05325755 -0.01753546
f 1 2 7
f 1 7 14
f 1 14 18
f 1 18 15
f 1 15 8
f 1 8 3
f 1 3 10
f 1 10 19
f 1 19 27
f 1 27 33
f 1 33 43
f 1 43 42
f 1 42 41
f 1 41 40
f 1 40 50
f 1 50 64
f 1 64 63
f 1 63 62
f 1 62 76
f 1 76 81
f 1 81 90
f 1 90 95
f 1 95 96
f 1 96 91
f 1 91 86
f 1 86 85
f 1 85 84
f 1 84 82
f 1 82 77
f 1 77 69
f 1 69 54
f 1 54 44
f 1 44 34
f 1 34 28
f 1 28 21
f 1 21 11
f 1 11 4
f 1 4 5
f 1 5 6
f 1 6 2
f 2 6 12
f 2 12 22
f 2 22 30
f 2 30 36
f 2 36 47
f 2 47 58
f 2 58 65
f 2 65 68
f 2 68 67
f 2 67 66
f 2 66 74
f 2 74 73
f 2 73 72
f 2 72 71
f 2 71 79
f 2 79 83
f 2 83 88
f 2 88 87
f 2 87 92
f 2 92 97
f 2 97 99
f 2 99 98
f 2 98 93
f 2 93 89
f 2 89 80
f 2 80 75
f 2 75 61
f 2 61 60
f 2 60 59
f 2 59 48
f 2 48 38
f 2 38 37
f 2 37 31
f 2 31 25
f 2 25 16
f 2 16 24
f 2 24 13
f 2 13 7
f 3 8 9
f 3 9 10
f 4 11 20
f 4 20 23
f 4 23 12
f 4 12 6
f 4 6 5
f 7 13 14
f 8 15 9
f 9 16 17
f 9 17 19
f 9 19 10
f 9 15 18
f 9 18 16
f 11 21 22
f 11 22 20
f 12 23 22
f 13 24 14
f 14 24 18
f 16 25 17
f 16 18 24
f 17 25 26
f 17 26 27
f 17 27 19
f 20 22 23
f 21 28 29
f 21 29 22
f 22 29 30
f 25 31 26
f 26 31 32
f 26 32 27
f 27 32 33
f 28 34 35
f 28 35 29
f 29 35 30
f 30 35 36
f 31 37 32
f 32 37 38
f 32 38 39
f 32 39 40
f 32 40 41
f 32 41 42
f 32 42 43
f 32 43 33
f 34 44 45
f 34 45 46
f 34 46 35
f 35 47 36
f 35 46 45
f 35 45 47
f 38 48 39
f 39 48 49
f 39 49 40
f 40 49 50
f 44 51 52
f 44 52 53
f 44 53 45
f 44 54 55
f 44 55 56
f 44 56 57
f 44 57 51
f 45 53 52
f 45 52 58
f 45 58 47
f 48 59 49
f 49 59 60
f 49 60 61
f 49 61 62
f 49 62 63
f 49 63 64
f 49 64 50
f 51 57 52
f 52 65 58
f 52 57 66
f 52 66 67
f 52 67 68
f 52 68 65
f 54 69 70
f 54 70 55
f 55 70 56
f 56 70 71
f 56 71 72
f 56 72 73
f 56 73 74
f 56 74 57
f 57 74 66
f 61 75 76
f 61 76 62
f 69 77 70
f 70 77 78
f 70 78 79
f 70 79 71
f 75 80 76
f 76 80 81
f 77 82 78
f 78 83 79
f 78 82 84
f 78 84 85
f 78 85 86
f 78 86 87
f 78 87 88
f 78 88 83
f 80 89 81
f 81 89 90
f 86 91 87
f 87 91 92
f 89 93 94
f 89 94 90
f 90 94 95
f 91 96 94
f 91 94 92
f 92 94 97
f 93 98 94
f 94 98 99
f 94 99 97
f 94 96 100
f 94 100 95
f 95 100 96

