# https://github.com/mikedh/trimesh
v 0.02406026 0.07913867 0.02352739
v 0.02406026 0.07854464 0.02200391
v 0.02406026 0.07865945 0.02519102
v 0.02678023 0.07819521 0.02482485
v 0.02793767 0.07802049 0.02455812
v 0.02793767 0.07802049 0.02384385
v 0.02752730 0.07787573 0.02276339
v 0.02406026 0.07668268 0.01876706
v 0.02840590 0.07718186 0.02190445
v 0.02840590 0.07650297 0.02068385
v 0.02406026 0.07816027 0.02569735
v 0.02515456 0.07774095 0.02585105
v 0.02678023 0.07755625 0.02563406
v 0.02844799 0.07734659 0.02511869
v 0.03123110 0.07646303 0.02463950
v 0.03002631 0.07713194 0.02352739
v 0.02844799 0.07774095 0.02339177
v 0.03106801 0.07637817 0.02251927
v 0.02994214 0.07660280 0.02194966
v 0.02406026 0.07475083 0.01543527
v 0.02722216 0.07620845 0.01956723
v 0.02934238 0.07632825 0.02098674
v 0.02840590 0.07602375 0.01987012
v 0.02406026 0.07009342 0.00747425
v 0.02406026 0.07243460 0.01147511
v 0.02427597 0.07784078 0.02593695
v 0.02406026 0.07761615 0.02606805
v 0.02678023 0.07674757 0.02623532
v 0.02840590 0.07645305 0.02608613
v 0.02922137 0.07626835 0.02595955
v 0.03029989 0.07599879 0.02571995
v 0.02986848 0.07666271 0.02516842
v 0.03211496 0.07609363 0.02352739
v 0.03130475 0.07649798 0.02352739
v 0.04096934 0.07159597 0.02463950
v 0.03867551 0.07281898 0.02352739
v 0.04080625 0.07151610 0.02252379
v 0.03318822 0.07405196 0.02037644
v 0.03162568 0.07382234 0.01867212
v 0.03090491 0.06980889 0.01129880
v 0.03222018 0.06156234 -0.00144969
v 0.03065764 0.06807671 0.00823374
v 0.02908984 0.07459608 0.01792620
v 0.02772197 0.07306857 0.01451756
v 0.02800606 0.07480074 0.01758262
v 0.02406026 0.06904513 0.00570212
v 0.02406026 0.07713694 0.02629861
v 0.02678023 0.07545468 0.02660602
v 0.02840590 0.07545468 0.02646135
v 0.02986848 0.07545468 0.02621271
v 0.03164672 0.07485066 0.02608613
v 0.03867551 0.07147118 0.02600928
v 0.03895961 0.07140129 0.02596407
v 0.04003813 0.07113173 0.02571995
v 0.04328947 0.06950439 0.02571995
v 0.04420490 0.06997362 0.02463950
v 0.04301063 0.07064752 0.02352739
v 0.04124291 0.07002853 0.02038096
v 0.04396289 0.06988876 0.02253283
v 0.04292120 0.07011339 0.02195418
v 0.03327239 0.06792696 0.01011436
v 0.03867551 0.07094204 0.01975710
v 0.03266211 0.06501171 0.00469400
v 0.03246219 0.06328453 0.00161990
v 0.03289886 0.06188182 -0.00036923
v 0.03265685 0.06014465 -0.00340264
v 0.03085756 0.06004981 -0.00488093
v 0.03114166 0.06178698 -0.00182491
v 0.02991583 0.06685371 0.00569760
v 0.02829542 0.06756754 0.00580158
v 0.02831647 0.07246456 0.01389822
v 0.02601738 0.06492685 -0.00002565
v 0.02406026 0.06421801 -0.00240808
v 0.02406026 0.06526131 -0.00067212
v 0.02406026 0.06761247 0.00328805
v 0.02406026 0.07545468 0.02665574
v 0.03002631 0.07383232 0.02664670
v 0.05761010 0.05274173 0.02834198
v 0.05598443 0.05435909 0.02819280
v 0.05761010 0.05435909 0.02809334
v 0.05274361 0.05877688 0.02765935
v 0.03867551 0.07058762 0.02637094
v 0.03960672 0.07058762 0.02621271
v 0.05373269 0.05852729 0.02761414
v 0.04949753 0.06247585 0.02714851
v 0.04787712 0.06409820 0.02694055
v 0.04625671 0.06572056 0.02671451
v 0.04138496 0.06896526 0.02646135
v 0.04138496 0.06998360 0.02609065
v 0.04544651 0.06815658 0.02596407
v 0.04653029 0.06788203 0.02563406
v 0.04723527 0.06826141 0.02455360
v 0.04421542 0.07000856 0.02352739
v 0.04040114 0.06806673 0.01637107
v 0.03611337 0.06511155 0.00776810
v 0.04220569 0.06491687 0.01296695
v 0.04187950 0.06633955 0.01490183
v 0.04211099 0.06810666 0.01792620
v 0.04340521 0.06953932 0.02144785
v 0.04723527 0.06826141 0.02401563
v 0.04781925 0.06770731 0.02349575
v 0.04886094 0.06665404 0.02253735
v 0.03719189 0.06483700 0.00822469
v 0.03321978 0.06245089 0.00085589
v 0.03589241 0.06338936 0.00469852
v 0.03397738 0.06160727 0.00009189
v 0.03337235 0.06133271 -0.00087103
v 0.03373537 0.05984514 -0.00293701
v 0.03336183 0.05927607 -0.00413048
v 0.03298829 0.05870700 -0.00529683
v 0.03231488 0.05834259 -0.00638181
v 0.03123636 0.05861715 -0.00678416
v 0.02943181 0.05852230 -0.00826244
v 0.02896884 0.05993999 -0.00632304
v 0.03002631 0.06021953 -0.00516121
v 0.02953703 0.06341931 -0.00021552
v 0.02840590 0.06185187 -0.00355183
v 0.02679602 0.06214140 -0.00412144
v 0.02571224 0.06318968 -0.00308167
v 0.02406026 0.06393847 -0.00286920
v 0.02406026 0.07383232 0.02670999
v 0.05923051 0.05111938 0.02842787
v 0.05923051 0.05274173 0.02821540
v 0.05920946 0.05438405 0.02779949
v 0.05761010 0.05568193 0.02773620
v 0.05568981 0.05711459 0.02767743
v 0.05431141 0.05763874 0.02774072
v 0.04609362 0.06734291 0.02620367
v 0.05481121 0.05819783 0.02751921
v 0.05274361 0.05959055 0.02746948
v 0.04949753 0.06409820 0.02666479
v 0.04796130 0.06582538 0.02639354
v 0.04463104 0.06835626 0.02608161
v 0.04748254 0.06680379 0.02612682
v 0.04856632 0.06643939 0.02587818
v 0.04789817 0.06735789 0.02521815
v 0.04911874 0.06682875 0.02479772
v 0.04994998 0.06623472 0.02352739
v 0.04913452 0.06684372 0.02352739
v 0.03867551 0.06669397 0.01260077
v 0.03885965 0.05673521 -0.00314948
v 0.04064841 0.06171210 0.00641188
v 0.04031696 0.06313478 0.00835128
v 0.04079572 0.06665903 0.01440002
v 0.05053922 0.06513651 0.02240173
v 0.04949753 0.06571058 0.02193157
v 0.04880307 0.06337938 0.01771372
v 0.03910692 0.05529257 -0.00503915
v 0.03433513 0.06018459 -0.00185203
v 0.03888595 0.06487194 0.00979339
v 0.03502433 0.06139262 0.00070671
v 0.03576088 0.05845241 -0.00329415
v 0.03718663 0.05671525 -0.00473626
v 0.03610811 0.05702474 -0.00521546
v 0.03406681 0.05840749 -0.00485380
v 0.03323030 0.05724438 -0.00729500
v 0.03265685 0.05690494 -0.00826244
v 0.03172564 0.05801812 -0.00731308
v 0.03051559 0.05825274 -0.00786913
v 0.03164672 0.05715952 -0.00860602
v 0.03011575 0.05764872 -0.00898576
v 0.02971591 0.05704471 -0.01006621
v 0.02782193 0.05690494 -0.01150381
v 0.02840590 0.05816788 -0.00939262
v 0.02747996 0.05837254 -0.00967291
v 0.02840590 0.05873196 -0.00858341
v 0.02842169 0.05958556 -0.00724979
v 0.02789032 0.06015464 -0.00667114
v 0.02842169 0.06051405 -0.00574439
v 0.02679602 0.06121790 -0.00562685
v 0.02626465 0.06177699 -0.00504819
v 0.02406026 0.06335941 -0.00382307
v 0.02406026 0.07220997 0.02667835
v 0.06085092 0.04787966 0.02849116
v 0.05923051 0.04949702 0.02841883
v 0.06085092 0.04949702 0.02846856
v 0.06085092 0.05111938 0.02824253
v 0.06088774 0.05278166 0.02783566
v 0.06037742 0.05385991 0.02767743
v 0.05865179 0.05532751 0.02764127
v 0.05677359 0.05678014 0.02758250
v 0.04949753 0.06526131 0.02614942
v 0.05973031 0.05494314 0.02745139
v 0.05034456 0.06493184 0.02597763
v 0.04959749 0.06611491 0.02526336
v 0.05072336 0.06527129 0.02515034
v 0.05153356 0.06458241 0.02515034
v 0.05243847 0.06376874 0.02515034
v 0.05087593 0.06542105 0.02352739
v 0.03867551 0.05679012 -0.00323538
v 0.03859134 0.05491818 -0.00612413
v 0.03808627 0.05558709 -0.00562233
v 0.03750755 0.05528258 -0.00663949
v 0.03867551 0.06244590 0.00573829
v 0.03777587 0.05705469 -0.00365581
v 0.05043926 0.06179197 0.01767304
v 0.04886620 0.05859219 0.01112249
v 0.04871363 0.06006478 0.01294434
v 0.05013412 0.06474215 0.02132127
v 0.05168087 0.06465729 0.02352739
v 0.06513869 0.05054531 0.02240173
v 0.04852423 0.06153738 0.01477524
v 0.04351043 0.05329583 -0.00286920
v 0.04242665 0.05373011 -0.00349306
v 0.03974351 0.05434910 -0.00565397
v 0.03867551 0.05478839 -0.00621454
v 0.03684466 0.05813793 -0.00279687
v 0.03547678 0.05666533 -0.00629592
v 0.03491911 0.05735920 -0.00572178
v 0.03439300 0.05696484 -0.00674799
v 0.03374063 0.05659544 -0.00782845
v 0.03572931 0.05518774 -0.00813134
v 0.03329344 0.05599642 -0.00893603
v 0.03284625 0.05540239 -0.01002101
v 0.03104170 0.05528758 -0.01149929
v 0.03079969 0.05677515 -0.00970455
v 0.02890044 0.05664037 -0.01114667
v 0.03016310 0.05643570 -0.01058158
v 0.02678023 0.05651557 -0.01262947
v 0.02584376 0.05674021 -0.01290976
v 0.02678023 0.05712957 -0.01182026
v 0.03002631 0.05554715 -0.01182478
v 0.02846904 0.05601639 -0.01220904
v 0.02475998 0.05695486 -0.01320361
v 0.02640144 0.05857721 -0.00997128
v 0.02687493 0.05900651 -0.00904453
v 0.02678023 0.05984514 -0.00780584
v 0.02678023 0.06036430 -0.00699211
v 0.02515456 0.06198665 -0.00536917
v 0.02406026 0.06273543 -0.00481312
v 0.02406026 0.07058762 0.02644327
v 0.07220956 0.02840144 0.02849116
v 0.06734308 0.03651820 0.02849569
v 0.06571741 0.03976290 0.02851829
v 0.06247659 0.04463496 0.02847760
v 0.06409700 0.04301260 0.02852733
v 0.06247659 0.04625731 0.02853185
v 0.06247659 0.04787966 0.02847760
v 0.06247659 0.04949702 0.02823800
v 0.06251342 0.05115432 0.02783566
v 0.06199783 0.05226251 0.02767743
v 0.06145594 0.05334574 0.02746948
v 0.05546358 0.06032436 0.02619463
v 0.05379056 0.06188681 0.02612230
v 0.05208598 0.06341432 0.02604997
v 0.05324341 0.06302995 0.02515034
v 0.05412201 0.06222127 0.02515034
v 0.05493221 0.06145751 0.02515034
v 0.03867551 0.05350548 -0.00785557
v 0.03867551 0.05343060 -0.00795051
v 0.03765486 0.05377505 -0.00838450
v 0.03681309 0.05485827 -0.00772447
v 0.04708270 0.04870332 -0.00488545
v 0.04732997 0.05057526 -0.00197861
v 0.04702483 0.05352545 0.00166962
v 0.05611069 0.04962681 0.00875814
v 0.05577925 0.06064384 0.02515034
v 0.05742070 0.05903646 0.02515034
v 0.06465993 0.05168345 0.02352739
v 0.06474411 0.05013598 0.02132127
v 0.06338675 0.04880315 0.01770016
v 0.06005650 0.04870831 0.01295791
v 0.05672098 0.04860847 0.00822017
v 0.05524788 0.04875823 0.00639380
v 0.06541227 0.05086978 0.02352739
v 0.06622247 0.04993630 0.02352739
v 0.06665388 0.04885807 0.02253283
v 0.06571741 0.04949702 0.02192705
v 0.06521235 0.04905774 0.02063864
v 0.04557277 0.04879317 -0.00663045
v 0.04367879 0.05180825 -0.00470010
v 0.04305272 0.05277667 -0.00409432
v 0.04194790 0.05334075 -0.00457804
v 0.04038010 0.05339067 -0.00626427
v 0.03929632 0.05383494 -0.00683841
v 0.03590293 0.05367022 -0.00988538
v 0.03489280 0.05478839 -0.00925700
v 0.03393003 0.05507792 -0.00961866
v 0.03212022 0.05496810 -0.01110598
v 0.03002631 0.05487325 -0.01263399
v 0.02911615 0.05511786 -0.01291880
v 0.03408786 0.05356539 -0.01135914
v 0.03224122 0.05343060 -0.01283291
v 0.02803237 0.05539240 -0.01323525
v 0.02524400 0.05628095 -0.01376418
v 0.02406026 0.05647065 -0.01414844
v 0.02406026 0.05707965 -0.01337991
v 0.02406026 0.05827271 -0.01163943
v 0.02515456 0.05824774 -0.01110598
v 0.02515456 0.05879186 -0.01029677
v 0.02406026 0.05953066 -0.00974976
v 0.02479155 0.06019956 -0.00835285
v 0.02526505 0.06062886 -0.00743062
v 0.02406026 0.06218133 -0.00568562
v 0.02406026 0.06939956 0.02609517
v 0.07058916 0.02840144 0.02817471
v 0.03867551 0.02814186 -0.01762941
v 0.07383523 0.02840144 0.02845952
v 0.07220956 0.03002878 0.02851377
v 0.07058916 0.03327349 0.02855446
v 0.06896875 0.03489584 0.02854089
v 0.06571741 0.04138526 0.02854541
v 0.06409700 0.04463496 0.02852281
v 0.06896875 0.03814055 0.02847760
v 0.06409700 0.04625731 0.02840527
v 0.06409700 0.04787966 0.02814759
v 0.06408121 0.04943213 0.02780401
v 0.06353406 0.05064515 0.02767743
v 0.06308161 0.05172339 0.02746948
v 0.06197152 0.05385491 0.02638902
v 0.06034586 0.05547726 0.02637094
v 0.05710504 0.05872198 0.02624888
v 0.04053793 0.05189810 -0.00806805
v 0.04066946 0.05039057 -0.00982209
v 0.03867551 0.05214271 -0.00946496
v 0.03824937 0.05282659 -0.00901740
v 0.03698145 0.05333077 -0.00946948
v 0.04721423 0.04722074 -0.00668018
v 0.04665129 0.04830397 -0.00596590
v 0.04691961 0.05018091 -0.00305907
v 0.05042874 0.04880814 -0.00015223
v 0.05003416 0.04840380 -0.00123721
v 0.05229642 0.04905774 0.00275008
v 0.06359194 0.05223755 0.02638902
v 0.06390234 0.05254705 0.02515034
v 0.06471780 0.05171840 0.02515034
v 0.06015119 0.04720077 0.01119030
v 0.05966718 0.04828400 0.01187745
v 0.06484407 0.04860348 0.01955819
v 0.05016042 0.04690126 -0.00302290
v 0.06682749 0.04912263 0.02352739
v 0.06540700 0.05090473 0.02515034
v 0.06622247 0.04985144 0.02515034
v 0.06824272 0.04720576 0.02456716
v 0.06629612 0.04833392 0.02145237
v 0.06809541 0.04698113 0.02291257
v 0.06988943 0.04400099 0.02253283
v 0.06845842 0.04589789 0.02226159
v 0.04573060 0.04732557 -0.00840258
v 0.04507823 0.04840880 -0.00771091
v 0.04619358 0.04780978 -0.00719554
v 0.04227408 0.05037559 -0.00818559
v 0.03517164 0.05322594 -0.01096584
v 0.03115744 0.05374010 -0.01318100
v 0.03002631 0.05405958 -0.01352910
v 0.02918980 0.05354542 -0.01458695
v 0.02861109 0.05447390 -0.01391336
v 0.03002631 0.05331579 -0.01434283
v 0.03327239 0.05311112 -0.01246673
v 0.03468762 0.05261693 -0.01201917
v 0.03429830 0.05045546 -0.01475874
v 0.03232014 0.05185817 -0.01451462
v 0.02705381 0.05490820 -0.01431571
v 0.02661714 0.05559707 -0.01378226
v 0.02515456 0.05537743 -0.01480847
v 0.02406026 0.05618112 -0.01447393
v 0.02597003 0.05517276 -0.01460051
v 0.02406026 0.05863711 -0.01109242
v 0.02406026 0.06032436 -0.00854272
v 0.02406026 0.06089842 -0.00766570
v 0.02406026 0.06152240 -0.00670730
v 0.02406026 0.06863580 0.02559789
v 0.06847947 0.02840144 0.02744235
v 0.06929494 0.02840144 0.02774976
v 0.07780208 0.02840144 0.02352739
v 0.07768107 0.02840144 0.02518199
v 0.07766004 0.02840144 0.02524075
v 0.07676565 0.02840144 0.02682753
v 0.07667095 0.02840144 0.02693151
v 0.07558717 0.02840144 0.02785374
v 0.07548195 0.02840144 0.02791703
v 0.06726416 0.02840144 0.02651108
v 0.06712211 0.02840144 0.02637998
v 0.06615934 0.02840144 0.02536281
v 0.06604359 0.02840144 0.02522267
v 0.06512817 0.02840144 0.02400659
v 0.02406026 0.03896920 -0.01762941
v 0.05088119 0.02840144 -0.01762941
v 0.05372217 0.02840144 -0.01477230
v 0.05426932 0.02840144 -0.01417556
v 0.05469020 0.02840144 -0.01370993
v 0.05525314 0.02840144 -0.01308155
v 0.05600021 0.02840144 -0.01214123
v 0.05716817 0.02840144 -0.01064035
v 0.05813621 0.02840144 -0.00937454
v 0.05871492 0.02840144 -0.00854272
v 0.05956196 0.02840144 -0.00724979
v 0.06004072 0.02840144 -0.00648579
v 0.06494403 0.02840144 0.00157921
v 0.06983682 0.02840144 0.00964421
v 0.07472436 0.02840144 0.01771824
v 0.07649208 0.02840144 0.02070645
v 0.07718128 0.02840144 0.02191349
v 0.07724967 0.02840144 0.02205816
v 0.07774947 0.02840144 0.02331944
v 0.07383523 0.02840643 0.02845952
v 0.07058916 0.03489584 0.02849569
v 0.06896875 0.03651820 0.02854541
v 0.07220956 0.03165113 0.02849116
v 0.06734308 0.03976290 0.02852281
v 0.06734308 0.04138526 0.02840527
v 0.07058916 0.03651820 0.02836458
v 0.06571741 0.04463496 0.02828773
v 0.06896875 0.03976290 0.02828773
v 0.06734308 0.04301260 0.02814759
v 0.06585419 0.04637212 0.02791703
v 0.06533861 0.04787966 0.02774072
v 0.06648026 0.04699111 0.02755989
v 0.06499138 0.04884309 0.02762770
v 0.06461784 0.04992632 0.02737002
v 0.06512817 0.05059024 0.02629409
v 0.04351043 0.04842877 -0.00939262
v 0.04242665 0.04887803 -0.00996224
v 0.04079046 0.04884808 -0.01153093
v 0.04186898 0.04843875 -0.01104269
v 0.03835985 0.05127911 -0.01072172
v 0.03776535 0.05224754 -0.01008882
v 0.03976455 0.05002616 -0.01101557
v 0.03709193 0.05177331 -0.01117379
v 0.03601341 0.05214271 -0.01159422
v 0.04681439 0.04677646 -0.00776064
v 0.05065496 0.04581802 -0.00371006
v 0.05026038 0.04538373 -0.00479051
v 0.05691564 0.04558840 0.00469400
v 0.05270678 0.04460001 -0.00238096
v 0.05682620 0.04710093 0.00644804
v 0.05835717 0.04535878 0.00657462
v 0.05367482 0.04397103 -0.00179778
v 0.06824272 0.04720576 0.02399303
v 0.06770609 0.04779979 0.02348219
v 0.06657496 0.04875324 0.02602736
v 0.06801649 0.04686132 0.02564762
v 0.06861099 0.04629225 0.02512321
v 0.06981578 0.04388118 0.02602736
v 0.06946855 0.04496442 0.02515034
v 0.06995783 0.04415074 0.02515034
v 0.07001044 0.04424559 0.02352739
v 0.06953168 0.04505427 0.02352739
v 0.06305005 0.04671157 0.01496059
v 0.06845842 0.04427554 0.02063864
v 0.05485856 0.03987771 -0.00416213
v 0.07064703 0.04301260 0.02352739
v 0.07151510 0.04080620 0.02252831
v 0.07011040 0.04291776 0.02195870
v 0.06809541 0.04209410 0.01793524
v 0.06664335 0.04076127 0.01441811
v 0.06783236 0.04312242 0.01855006
v 0.04360513 0.04684634 -0.01113311
v 0.04252662 0.04735551 -0.01167560
v 0.04301589 0.04788964 -0.01054541
v 0.04685121 0.04522898 -0.00948304
v 0.03002631 0.05169344 -0.01598386
v 0.02918980 0.05192307 -0.01620990
v 0.02864791 0.05287651 -0.01554535
v 0.02811128 0.05382496 -0.01487628
v 0.03124162 0.05216267 -0.01483107
v 0.03234119 0.05024081 -0.01616017
v 0.03419834 0.05200793 -0.01306346
v 0.03528212 0.05166349 -0.01267468
v 0.03327239 0.04996127 -0.01588892
v 0.03327239 0.05076995 -0.01507519
v 0.03538208 0.05009605 -0.01436091
v 0.03616598 0.04901780 -0.01492601
v 0.03483493 0.04946707 -0.01538260
v 0.02661714 0.05436408 -0.01509327
v 0.02579641 0.05226251 -0.01762941
v 0.02406026 0.05312610 -0.01762941
v 0.02406026 0.05481335 -0.01592057
v 0.02406026 0.05553717 -0.01518369
v 0.02406026 0.06775724 0.02477964
v 0.07769686 0.02867100 0.02352739
v 0.07765477 0.02844137 0.02521815
v 0.07703923 0.03002878 0.02515034
v 0.07635003 0.03102216 0.02611326
v 0.07655521 0.03002878 0.02637094
v 0.07469805 0.03260458 0.02761866
v 0.07607645 0.02882574 0.02743331
v 0.07383523 0.03165113 0.02813403
v 0.07383523 0.03002878 0.02832390
v 0.05053922 0.02899547 -0.01762941
v 0.05372217 0.03109704 -0.01314484
v 0.05483225 0.03002878 -0.01259783
v 0.05445872 0.02855119 -0.01388172
v 0.05528471 0.03104213 -0.01149477
v 0.05815199 0.02840643 -0.00935194
v 0.05871492 0.02840643 -0.00854272
v 0.05956196 0.02841142 -0.00724527
v 0.05992497 0.02895553 -0.00629140
v 0.06970003 0.02904039 0.00986572
v 0.07458757 0.02908033 0.01795332
v 0.07632372 0.02929997 0.02100030
v 0.07649208 0.02840643 0.02070645
v 0.07475593 0.03431179 0.02252831
v 0.07220956 0.03327349 0.02836458
v 0.07058916 0.03814055 0.02812951
v 0.07220956 0.03489584 0.02814759
v 0.06909501 0.04150006 0.02791703
v 0.06972634 0.04212405 0.02755989
v 0.06837951 0.04577809 0.02629409
v 0.04135866 0.04785470 -0.01214575
v 0.04011178 0.04835389 -0.01261591
v 0.03964881 0.04914260 -0.01210959
v 0.03894909 0.05031070 -0.01135462
v 0.04193737 0.04685134 -0.01276057
v 0.03867551 0.05041053 -0.01145860
v 0.03867551 0.05016094 -0.01173889
v 0.03659213 0.05117928 -0.01222713
v 0.03609233 0.05058026 -0.01328046
v 0.04877677 0.04554347 -0.00659881
v 0.04728788 0.04569822 -0.00839806
v 0.05221224 0.04414076 -0.00361964
v 0.04993420 0.04500934 -0.00567206
v 0.05399048 0.04295769 -0.00237644
v 0.05329602 0.04346187 -0.00288276
v 0.07007883 0.04301260 0.02639806
v 0.07150458 0.04078623 0.02621271
v 0.07057863 0.04301260 0.02515034
v 0.07120996 0.04183951 0.02515034
v 0.06305005 0.03859481 0.00684587
v 0.06340780 0.03913892 0.00792633
v 0.05723656 0.03484592 -0.00562233
v 0.05602126 0.03494576 -0.00734473
v 0.05399048 0.03646828 -0.00886822
v 0.07162559 0.04103083 0.02515034
v 0.07325125 0.03778613 0.02515034
v 0.07447709 0.03536507 0.02352739
v 0.07089430 0.04136529 0.02195418
v 0.07414038 0.03487088 0.02195418
v 0.06951590 0.04166979 0.01991080
v 0.06686958 0.03967305 0.01384397
v 0.06361824 0.03642834 0.00572925
v 0.06160325 0.03559969 0.00171935
v 0.06339727 0.03751656 0.00630790
v 0.04306324 0.04630723 -0.01221808
v 0.04685121 0.04360663 -0.01113763
v 0.04786134 0.04460999 -0.00889534
v 0.04735102 0.04414575 -0.01005717
v 0.02835855 0.05092969 -0.01762941
v 0.02715377 0.05157363 -0.01762941
v 0.02687493 0.05171840 -0.01762941
v 0.02616469 0.05207781 -0.01762941
v 0.03428778 0.04883311 -0.01633648
v 0.03136263 0.04915758 -0.01762941
v 0.03002631 0.04996626 -0.01762941
v 0.03666578 0.04961183 -0.01390884
v 0.03724450 0.04862844 -0.01453722
v 0.03867551 0.04728064 -0.01479491
v 0.03537156 0.04844374 -0.01601099
v 0.07550300 0.03327349 0.02352739
v 0.07647629 0.03127175 0.02515034
v 0.07608697 0.03208543 0.02515034
v 0.07475066 0.03429183 0.02623984
v 0.07496637 0.03319861 0.02677781
v 0.07442974 0.03368781 0.02732029
v 0.07307765 0.03585428 0.02761866
v 0.07386681 0.03319861 0.02784470
v 0.05008677 0.02974924 -0.01762941
v 0.05388526 0.03299394 -0.01170724
v 0.05434298 0.03161120 -0.01214123
v 0.04991841 0.03002878 -0.01762941
v 0.05048135 0.03109704 -0.01639073
v 0.05111268 0.03164115 -0.01540068
v 0.05336442 0.03218027 -0.01278770
v 0.05354856 0.03407219 -0.01134558
v 0.05496904 0.03212536 -0.01110598
v 0.05540571 0.03284918 -0.01002101
v 0.05689986 0.03263453 -0.00825792
v 0.05849396 0.02933990 -0.00821723
v 0.06014067 0.03425688 -0.00178874
v 0.06329205 0.03409215 0.00324284
v 0.07303029 0.03409714 0.01946325
v 0.06502295 0.03431678 0.00629886
v 0.07487693 0.03455140 0.02352739
v 0.07224639 0.03644332 0.02784470
v 0.07145723 0.03907902 0.02761866
v 0.07058390 0.03968303 0.02780401
v 0.07112053 0.04016225 0.02729769
v 0.04084833 0.04727065 -0.01318552
v 0.03903326 0.04874325 -0.01303634
v 0.04136392 0.04623734 -0.01376870
v 0.04013283 0.04670658 -0.01426598
v 0.04252662 0.04576811 -0.01327142
v 0.03830198 0.04995627 -0.01225877
v 0.03813888 0.04905774 -0.01338444
v 0.05032878 0.04384125 -0.00650839
v 0.04883463 0.04400099 -0.00830765
v 0.05180714 0.04366154 -0.00470010
v 0.05367482 0.03751656 -0.00828956
v 0.05367482 0.04237864 -0.00342073
v 0.05330128 0.04183951 -0.00450571
v 0.05275940 0.04302258 -0.00406267
v 0.07280933 0.03693751 0.02732029
v 0.07312499 0.03754153 0.02623984
v 0.05656314 0.03371776 -0.00774707
v 0.05809938 0.03500566 -0.00416213
v 0.05367482 0.03588922 -0.00987634
v 0.05330128 0.03697245 -0.00937454
v 0.07550300 0.03327349 0.02515034
v 0.07281459 0.03691255 0.02144333
v 0.06440214 0.03487088 0.00572473
v 0.06480724 0.03712720 0.00828346
v 0.06334993 0.03582433 0.00477537
v 0.06245028 0.03485091 0.00247884
v 0.06188209 0.03452145 0.00127180
v 0.05835717 0.03397734 -0.00477243
v 0.04360513 0.04521900 -0.01275605
v 0.04734575 0.04252340 -0.01168012
v 0.04685121 0.04190940 -0.01276057
v 0.04630932 0.04305253 -0.01220452
v 0.04842953 0.04348683 -0.00938810
v 0.04842953 0.04186447 -0.01101557
v 0.03327239 0.04790961 -0.01762941
v 0.03617650 0.04589290 -0.01762941
v 0.03529790 0.04652687 -0.01762941
v 0.03511903 0.04665166 -0.01762941
v 0.03867551 0.04761509 -0.01447393
v 0.03904905 0.04713587 -0.01466380
v 0.03715506 0.04693121 -0.01611044
v 0.03607654 0.04736550 -0.01646306
v 0.03965933 0.04620240 -0.01503451
v 0.04910295 0.03131169 -0.01762941
v 0.04904508 0.03299394 -0.01657608
v 0.05084436 0.03489584 -0.01351102
v 0.05030248 0.03893924 -0.01134558
v 0.05326972 0.03489584 -0.01105173
v 0.05398522 0.03489584 -0.01024252
v 0.05508478 0.03393241 -0.00960962
v 0.06302374 0.03517539 0.00369491
v 0.04187424 0.04511916 -0.01435187
v 0.04079572 0.04562334 -0.01474518
v 0.04576743 0.04249345 -0.01324881
v 0.04349991 0.04349182 -0.01434735
v 0.05221750 0.04258330 -0.00524711
v 0.04884516 0.04240360 -0.00993511
v 0.05330128 0.04022215 -0.00612865
v 0.05221750 0.03771624 -0.01006621
v 0.04884516 0.04078124 -0.01152189
v 0.05181240 0.03879947 -0.00957345
v 0.05221750 0.03933859 -0.00849300
v 0.04724053 0.04082617 -0.01314936
v 0.04560960 0.04077125 -0.01473614
v 0.04509401 0.04185449 -0.01433831
v 0.04938705 0.04123051 -0.01038719
v 0.03700775 0.04517907 -0.01762941
v 0.04854528 0.03215032 -0.01762941
v 0.04724053 0.03596909 -0.01639525
v 0.04759828 0.03976290 -0.01351102
v 0.04241613 0.04403593 -0.01474518
v 0.03790213 0.04439534 -0.01762941
v 0.04706166 0.03893924 -0.01459147
v 0.04677756 0.03976290 -0.01431571
v 0.04687752 0.03704733 -0.01603811
v 0.04579374 0.03779611 -0.01653539
v 0.04514136 0.03695748 -0.01762941
v 0.04435747 0.03787598 -0.01762941
v 0.04276862 0.03952828 -0.01762941
v 0.04681965 0.03465623 -0.01762941
v 0.04653029 0.03507555 -0.01762941
v 0.03952780 0.04277299 -0.01762941
v 0.04580952 0.03608889 -0.01762941
f 1 2 8
f 1 8 20
f 1 20 25
f 1 25 24
f 1 24 46
f 1 46 75
f 1 75 74
f 1 74 73
f 1 73 120
f 1 120 172
f 1 172 230
f 1 230 294
f 1 294 361
f 1 361 360
f 1 360 359
f 1 359 291
f 1 291 358
f 1 358 288
f 1 288 287
f 1 287 286
f 1 286 356
f 1 356 469
f 1 469 468
f 1 468 467
f 1 467 377
f 1 377 470
f 1 470 362
f 1 362 295
f 1 295 231
f 1 231 173
f 1 173 121
f 1 121 76
f 1 76 47
f 1 47 27
f 1 27 11
f 1 11 3
f 1 3 4
f 1 4 5
f 1 5 6
f 1 6 7
f 1 7 2
f 2 7 9
f 2 9 10
f 2 10 8
f 3 11 12
f 3 12 13
f 3 13 4
f 4 13 5
f 5 13 14
f 5 14 15
f 5 15 16
f 5 16 6
f 6 16 17
f 6 17 7
f 7 17 18
f 7 18 19
f 7 19 9
f 8 10 21
f 8 21 20
f 9 19 22
f 9 22 10
f 10 23 24
f 10 24 25
f 10 25 20
f 10 20 21
f 10 22 23
f 11 26 12
f 11 27 26
f 12 26 28
f 12 28 13
f 13 28 29
f 13 29 30
f 13 30 14
f 14 30 31
f 14 31 32
f 14 32 15
f 15 33 34
f 15 34 16
f 15 32 31
f 15 31 54
f 15 54 35
f 15 35 36
f 15 36 33
f 16 34 18
f 16 18 17
f 18 34 33
f 18 33 36
f 18 36 37
f 18 37 38
f 18 38 19
f 19 38 39
f 19 39 40
f 19 40 22
f 22 40 41
f 22 41 42
f 22 42 43
f 22 43 23
f 23 44 45
f 23 45 24
f 23 43 44
f 24 45 46
f 26 27 28
f 27 47 28
f 28 48 49
f 28 49 29
f 28 47 48
f 29 49 50
f 29 50 51
f 29 51 30
f 30 51 52
f 30 52 53
f 30 53 31
f 31 53 54
f 35 54 55
f 35 55 56
f 35 56 57
f 35 57 36
f 36 57 37
f 37 58 38
f 37 57 59
f 37 59 60
f 37 60 58
f 38 61 39
f 38 58 62
f 38 62 61
f 39 61 40
f 40 61 63
f 40 63 64
f 40 64 41
f 41 64 65
f 41 65 66
f 41 66 67
f 41 67 68
f 41 68 69
f 41 69 42
f 42 69 43
f 43 69 70
f 43 70 71
f 43 71 44
f 44 71 72
f 44 72 73
f 44 73 74
f 44 74 45
f 45 74 75
f 45 75 46
f 47 76 48
f 48 77 49
f 48 76 78
f 48 78 79
f 48 79 80
f 48 80 81
f 48 81 77
f 49 82 83
f 49 83 50
f 49 77 81
f 49 81 84
f 49 84 85
f 49 85 86
f 49 86 87
f 49 87 88
f 49 88 82
f 50 83 89
f 50 89 51
f 51 89 52
f 52 89 90
f 52 90 53
f 53 90 54
f 54 90 55
f 55 90 91
f 55 91 56
f 56 91 92
f 56 92 93
f 56 93 57
f 57 93 59
f 58 94 95
f 58 95 61
f 58 61 62
f 58 60 94
f 59 96 97
f 59 97 98
f 59 98 99
f 59 99 60
f 59 93 100
f 59 100 101
f 59 101 102
f 59 102 96
f 60 99 98
f 60 98 103
f 60 103 94
f 61 95 63
f 63 95 64
f 64 95 104
f 64 104 65
f 65 104 103
f 65 103 105
f 65 105 106
f 65 106 107
f 65 107 66
f 66 107 106
f 66 106 108
f 66 108 109
f 66 109 110
f 66 110 111
f 66 111 112
f 66 112 67
f 67 113 114
f 67 114 115
f 67 115 69
f 67 69 68
f 67 112 113
f 69 115 116
f 69 116 117
f 69 117 70
f 70 117 118
f 70 118 72
f 70 72 71
f 72 118 119
f 72 119 73
f 73 119 120
f 76 121 78
f 78 122 123
f 78 123 80
f 78 80 79
f 78 121 122
f 80 123 124
f 80 124 125
f 80 125 126
f 80 126 84
f 80 84 127
f 80 127 81
f 81 127 84
f 82 88 83
f 83 88 128
f 83 128 89
f 84 126 129
f 84 129 130
f 84 130 85
f 85 130 86
f 86 130 131
f 86 131 132
f 86 132 87
f 87 132 88
f 88 132 128
f 89 128 133
f 89 133 90
f 90 133 134
f 90 134 91
f 91 134 135
f 91 135 136
f 91 136 92
f 92 136 137
f 92 137 138
f 92 138 139
f 92 139 100
f 92 100 93
f 94 103 140
f 94 140 95
f 95 140 103
f 95 103 104
f 96 102 141
f 96 141 142
f 96 142 97
f 97 142 143
f 97 143 98
f 98 143 144
f 98 144 105
f 98 105 103
f 100 139 101
f 101 139 102
f 102 139 138
f 102 138 145
f 102 145 146
f 102 146 147
f 102 147 148
f 102 148 141
f 105 144 106
f 106 149 108
f 106 144 150
f 106 150 151
f 106 151 149
f 108 149 152
f 108 152 153
f 108 153 154
f 108 154 109
f 109 154 155
f 109 155 110
f 110 155 156
f 110 156 111
f 111 156 157
f 111 157 158
f 111 158 112
f 112 158 159
f 112 159 113
f 113 159 157
f 113 157 160
f 113 160 161
f 113 161 162
f 113 162 163
f 113 163 164
f 113 164 165
f 113 165 166
f 113 166 167
f 113 167 114
f 114 167 168
f 114 168 169
f 114 169 115
f 115 169 117
f 115 117 116
f 117 169 118
f 118 170 171
f 118 171 119
f 118 169 168
f 118 168 170
f 119 172 120
f 119 171 172
f 121 173 174
f 121 174 175
f 121 175 122
f 122 175 174
f 122 174 176
f 122 176 123
f 123 176 177
f 123 177 178
f 123 178 179
f 123 179 124
f 124 180 125
f 124 179 180
f 125 180 181
f 125 181 126
f 126 181 129
f 128 132 134
f 128 134 133
f 129 181 131
f 129 131 130
f 131 134 132
f 131 181 180
f 131 180 134
f 134 182 135
f 134 180 183
f 134 183 182
f 135 182 184
f 135 184 185
f 135 185 137
f 135 137 136
f 137 185 186
f 137 186 187
f 137 187 188
f 137 188 189
f 137 189 138
f 138 189 145
f 141 190 143
f 141 143 142
f 141 148 191
f 141 191 192
f 141 192 193
f 141 193 153
f 141 153 190
f 143 194 144
f 143 190 195
f 143 195 194
f 144 194 150
f 145 196 197
f 145 197 198
f 145 198 199
f 145 199 146
f 145 189 200
f 145 200 201
f 145 201 196
f 146 199 147
f 147 198 202
f 147 202 203
f 147 203 204
f 147 204 148
f 147 199 198
f 148 205 206
f 148 206 191
f 148 204 205
f 149 151 150
f 149 150 194
f 149 194 207
f 149 207 152
f 152 207 153
f 153 193 154
f 153 207 195
f 153 195 190
f 154 193 208
f 154 208 209
f 154 209 155
f 155 209 156
f 156 209 210
f 156 210 208
f 156 208 211
f 156 211 157
f 157 159 158
f 157 211 193
f 157 193 212
f 157 212 213
f 157 213 214
f 157 214 215
f 157 215 216
f 157 216 160
f 160 216 161
f 161 216 162
f 162 217 163
f 162 216 218
f 162 218 217
f 163 219 220
f 163 220 221
f 163 221 165
f 163 165 164
f 163 217 222
f 163 222 223
f 163 223 219
f 165 221 220
f 165 220 224
f 165 224 225
f 165 225 226
f 165 226 227
f 165 227 166
f 166 227 167
f 167 227 168
f 168 227 228
f 168 228 170
f 170 228 229
f 170 229 171
f 171 229 172
f 172 229 230
f 173 231 232
f 173 232 233
f 173 233 234
f 173 234 235
f 173 235 174
f 174 235 234
f 174 234 236
f 174 236 237
f 174 237 176
f 176 237 238
f 176 238 177
f 177 238 239
f 177 239 240
f 177 240 178
f 178 240 241
f 178 241 179
f 179 183 180
f 179 241 242
f 179 242 183
f 182 183 184
f 183 242 243
f 183 243 244
f 183 244 245
f 183 245 184
f 184 245 186
f 184 186 185
f 186 245 187
f 187 245 244
f 187 244 188
f 188 246 189
f 188 244 243
f 188 243 246
f 189 246 247
f 189 247 248
f 189 248 200
f 191 193 192
f 191 206 193
f 193 206 249
f 193 249 250
f 193 250 251
f 193 251 252
f 193 252 212
f 193 211 208
f 194 195 207
f 196 201 197
f 197 253 254
f 197 254 255
f 197 255 198
f 197 201 256
f 197 256 253
f 198 255 202
f 200 248 257
f 200 257 258
f 200 258 259
f 200 259 201
f 201 260 261
f 201 261 262
f 201 262 263
f 201 263 264
f 201 264 256
f 201 259 265
f 201 265 266
f 201 266 267
f 201 267 268
f 201 268 269
f 201 269 260
f 202 255 203
f 203 270 271
f 203 271 272
f 203 272 273
f 203 273 204
f 203 255 270
f 204 273 205
f 205 274 275
f 205 275 206
f 205 273 274
f 206 275 249
f 208 210 209
f 212 252 276
f 212 276 277
f 212 277 278
f 212 278 213
f 213 278 214
f 214 279 215
f 214 278 279
f 215 280 281
f 215 281 222
f 215 222 217
f 215 217 218
f 215 218 216
f 215 279 282
f 215 282 283
f 215 283 280
f 219 223 281
f 219 281 284
f 219 284 220
f 220 284 285
f 220 285 286
f 220 286 224
f 222 281 223
f 224 286 287
f 224 287 288
f 224 288 289
f 224 289 225
f 225 227 226
f 225 289 288
f 225 288 290
f 225 290 291
f 225 291 292
f 225 292 293
f 225 293 227
f 227 293 294
f 227 294 228
f 228 294 229
f 229 294 230
f 231 295 296
f 231 296 232
f 232 296 297
f 232 297 298
f 232 298 299
f 232 299 300
f 232 300 301
f 232 301 233
f 233 301 234
f 234 301 236
f 236 301 237
f 237 301 302
f 237 302 303
f 237 303 238
f 238 303 304
f 238 304 305
f 238 305 239
f 239 305 306
f 239 306 307
f 239 307 308
f 239 308 240
f 240 308 241
f 241 308 309
f 241 309 242
f 242 309 310
f 242 310 311
f 242 311 312
f 242 312 243
f 243 312 248
f 243 248 247
f 243 247 246
f 248 312 257
f 249 275 250
f 250 275 313
f 250 313 314
f 250 314 315
f 250 315 316
f 250 316 317
f 250 317 251
f 251 317 252
f 252 317 276
f 253 318 319
f 253 319 270
f 253 270 320
f 253 320 255
f 253 255 254
f 253 256 321
f 253 321 264
f 253 264 322
f 253 322 318
f 255 320 270
f 256 264 323
f 256 323 321
f 257 312 258
f 258 312 311
f 258 311 310
f 258 310 324
f 258 324 325
f 258 325 259
f 259 325 326
f 259 326 265
f 260 269 261
f 261 327 328
f 261 328 262
f 261 269 329
f 261 329 327
f 262 328 263
f 263 330 318
f 263 318 264
f 263 328 330
f 264 318 322
f 264 321 323
f 265 326 266
f 266 331 267
f 266 326 332
f 266 332 333
f 266 333 334
f 266 334 331
f 267 335 329
f 267 329 269
f 267 269 268
f 267 331 336
f 267 336 337
f 267 337 338
f 267 338 335
f 270 339 340
f 270 340 271
f 270 319 341
f 270 341 339
f 271 340 273
f 271 273 272
f 273 340 274
f 274 313 275
f 274 340 342
f 274 342 313
f 276 343 282
f 276 282 279
f 276 279 278
f 276 278 277
f 276 317 343
f 280 283 344
f 280 344 345
f 280 345 281
f 281 346 347
f 281 347 284
f 281 345 348
f 281 348 346
f 282 349 283
f 282 343 350
f 282 350 349
f 283 349 351
f 283 351 352
f 283 352 344
f 284 353 354
f 284 354 285
f 284 347 353
f 285 355 356
f 285 356 286
f 285 354 353
f 285 353 357
f 285 357 355
f 288 358 290
f 290 358 291
f 291 359 292
f 292 359 360
f 292 360 361
f 292 361 293
f 293 361 294
f 295 362 363
f 295 363 364
f 295 364 296
f 296 364 297
f 297 365 366
f 297 366 367
f 297 367 368
f 297 368 369
f 297 369 370
f 297 370 371
f 297 371 298
f 297 364 363
f 297 363 372
f 297 372 373
f 297 373 374
f 297 374 375
f 297 375 376
f 297 376 377
f 297 377 467
f 297 467 466
f 297 466 541
f 297 541 540
f 297 540 539
f 297 539 538
f 297 538 544
f 297 544 543
f 297 543 612
f 297 612 615
f 297 615 614
f 297 614 613
f 297 613 644
f 297 644 649
f 297 649 659
f 297 659 656
f 297 656 655
f 297 655 654
f 297 654 660
f 297 660 658
f 297 658 657
f 297 657 645
f 297 645 621
f 297 621 560
f 297 560 557
f 297 557 480
f 297 480 378
f 297 378 379
f 297 379 380
f 297 380 381
f 297 381 382
f 297 382 383
f 297 383 384
f 297 384 385
f 297 385 386
f 297 386 387
f 297 387 388
f 297 388 389
f 297 389 390
f 297 390 391
f 297 391 392
f 297 392 393
f 297 393 394
f 297 394 395
f 297 395 365
f 298 371 396
f 298 396 299
f 299 396 300
f 300 397 398
f 300 398 302
f 300 302 301
f 300 396 399
f 300 399 397
f 302 398 303
f 303 398 400
f 303 400 304
f 304 401 305
f 304 400 398
f 304 398 397
f 304 397 402
f 304 402 401
f 305 403 306
f 305 401 404
f 305 404 403
f 306 403 404
f 306 404 405
f 306 405 406
f 306 406 307
f 307 406 407
f 307 407 408
f 307 408 409
f 307 409 308
f 308 409 309
f 309 409 410
f 309 410 411
f 309 411 324
f 309 324 310
f 313 342 412
f 313 412 413
f 313 413 314
f 314 414 315
f 314 413 415
f 314 415 414
f 315 416 417
f 315 417 317
f 315 317 316
f 315 414 418
f 315 418 416
f 317 417 419
f 317 419 420
f 317 420 343
f 318 421 341
f 318 341 319
f 318 330 422
f 318 422 423
f 318 423 421
f 324 411 326
f 324 326 325
f 326 411 332
f 327 329 424
f 327 424 425
f 327 425 426
f 327 426 328
f 328 426 330
f 329 335 427
f 329 427 428
f 329 428 424
f 330 426 422
f 331 334 429
f 331 429 430
f 331 430 336
f 332 411 333
f 333 411 431
f 333 431 432
f 333 432 334
f 334 432 433
f 334 433 434
f 334 434 435
f 334 435 436
f 334 436 437
f 334 437 438
f 334 438 429
f 335 439 427
f 335 338 440
f 335 440 441
f 335 441 439
f 336 430 429
f 336 429 438
f 336 438 337
f 337 438 437
f 337 437 442
f 337 442 443
f 337 443 444
f 337 444 445
f 337 445 446
f 337 446 447
f 337 447 440
f 337 440 338
f 339 448 449
f 339 449 450
f 339 450 412
f 339 412 340
f 339 341 421
f 339 421 451
f 339 451 448
f 340 412 342
f 343 420 350
f 344 348 345
f 344 352 348
f 346 452 453
f 346 453 454
f 346 454 455
f 346 455 353
f 346 353 347
f 346 348 456
f 346 456 457
f 346 457 452
f 348 352 456
f 349 350 458
f 349 458 351
f 350 420 459
f 350 459 351
f 350 351 458
f 351 460 461
f 351 461 352
f 351 459 462
f 351 462 463
f 351 463 464
f 351 464 460
f 352 461 456
f 353 465 357
f 353 455 465
f 355 357 465
f 355 465 466
f 355 466 467
f 355 467 468
f 355 468 469
f 355 469 356
f 362 470 372
f 362 372 363
f 365 471 366
f 365 395 471
f 366 472 367
f 366 471 473
f 366 473 472
f 367 472 474
f 367 474 475
f 367 475 368
f 368 475 476
f 368 476 369
f 369 476 477
f 369 477 370
f 370 477 476
f 370 476 371
f 371 476 478
f 371 478 479
f 371 479 396
f 372 470 373
f 373 470 374
f 374 470 375
f 375 470 376
f 376 470 377
f 378 480 379
f 379 481 482
f 379 482 483
f 379 483 380
f 379 480 481
f 380 483 381
f 381 483 382
f 382 483 482
f 382 482 484
f 382 484 383
f 383 484 384
f 384 484 485
f 384 485 385
f 385 485 386
f 386 485 486
f 386 486 387
f 387 487 388
f 387 486 487
f 388 487 488
f 388 488 389
f 389 488 489
f 389 489 390
f 390 489 490
f 390 490 391
f 391 490 491
f 391 491 492
f 391 492 392
f 392 492 393
f 393 492 491
f 393 491 493
f 393 493 394
f 394 493 395
f 395 493 471
f 396 479 494
f 396 494 399
f 397 399 494
f 397 494 402
f 401 402 404
f 402 495 404
f 402 494 496
f 402 496 495
f 404 495 405
f 405 495 497
f 405 497 406
f 406 408 407
f 406 497 498
f 406 498 408
f 408 411 410
f 408 410 409
f 408 498 499
f 408 499 411
f 411 499 431
f 412 450 413
f 413 450 449
f 413 449 415
f 414 415 500
f 414 500 501
f 414 501 502
f 414 502 503
f 414 503 418
f 415 449 504
f 415 504 500
f 416 419 417
f 416 418 503
f 416 503 419
f 419 505 506
f 419 506 507
f 419 507 420
f 419 503 505
f 420 508 462
f 420 462 459
f 420 507 508
f 421 423 509
f 421 509 510
f 421 510 451
f 422 425 423
f 422 426 425
f 423 425 511
f 423 511 512
f 423 512 509
f 424 428 425
f 425 428 511
f 427 439 513
f 427 513 428
f 428 513 514
f 428 514 511
f 431 499 434
f 431 434 432
f 432 434 433
f 434 498 515
f 434 515 516
f 434 516 436
f 434 436 435
f 434 499 498
f 436 516 517
f 436 517 437
f 437 517 518
f 437 518 442
f 439 441 513
f 440 447 519
f 440 519 520
f 440 520 441
f 441 521 522
f 441 522 523
f 441 523 513
f 441 520 519
f 441 519 521
f 442 518 524
f 442 524 525
f 442 525 526
f 442 526 443
f 443 527 444
f 443 526 493
f 443 493 528
f 443 528 527
f 444 527 529
f 444 529 445
f 445 529 530
f 445 530 531
f 445 531 532
f 445 532 533
f 445 533 446
f 446 533 519
f 446 519 447
f 448 534 449
f 448 451 535
f 448 535 534
f 449 534 504
f 451 510 536
f 451 536 537
f 451 537 535
f 452 457 453
f 453 457 538
f 453 538 539
f 453 539 454
f 454 539 455
f 455 539 540
f 455 540 541
f 455 541 465
f 456 461 457
f 457 461 460
f 457 460 542
f 457 542 543
f 457 543 544
f 457 544 538
f 460 464 542
f 462 508 545
f 462 545 546
f 462 546 463
f 463 546 547
f 463 547 548
f 463 548 464
f 464 548 542
f 465 541 466
f 471 493 549
f 471 549 550
f 471 550 473
f 472 473 474
f 473 550 474
f 474 550 551
f 474 551 552
f 474 552 553
f 474 553 554
f 474 554 476
f 474 476 475
f 476 554 592
f 476 592 555
f 476 555 556
f 476 556 478
f 478 556 496
f 478 496 494
f 478 494 479
f 480 557 481
f 481 558 559
f 481 559 484
f 481 484 482
f 481 557 560
f 481 560 561
f 481 561 562
f 481 562 563
f 481 563 564
f 481 564 558
f 484 559 558
f 484 558 564
f 484 564 565
f 484 565 566
f 484 566 567
f 484 567 485
f 485 567 486
f 486 567 568
f 486 568 487
f 487 568 488
f 488 568 567
f 488 567 569
f 488 569 570
f 488 570 489
f 489 570 490
f 490 570 491
f 491 571 528
f 491 528 493
f 491 570 572
f 491 572 571
f 493 526 573
f 493 573 549
f 495 496 574
f 495 574 575
f 495 575 576
f 495 576 497
f 496 556 574
f 497 576 498
f 498 576 575
f 498 575 577
f 498 577 515
f 500 504 501
f 501 504 578
f 501 578 546
f 501 546 579
f 501 579 502
f 502 579 506
f 502 506 503
f 503 506 505
f 504 580 581
f 504 581 578
f 504 534 582
f 504 582 580
f 506 583 507
f 506 579 583
f 507 583 584
f 507 584 508
f 508 584 545
f 509 512 585
f 509 585 510
f 510 585 586
f 510 586 536
f 511 514 587
f 511 587 585
f 511 585 512
f 513 523 588
f 513 588 589
f 513 589 514
f 514 590 591
f 514 591 587
f 514 589 590
f 515 577 516
f 516 524 518
f 516 518 517
f 516 577 592
f 516 592 593
f 516 593 524
f 519 533 521
f 521 594 522
f 521 533 595
f 521 595 594
f 522 594 523
f 523 594 596
f 523 596 597
f 523 597 588
f 524 593 525
f 525 593 552
f 525 552 598
f 525 598 526
f 526 598 551
f 526 551 573
f 527 528 599
f 527 599 529
f 528 571 572
f 528 572 600
f 528 600 599
f 529 599 600
f 529 600 601
f 529 601 530
f 530 601 531
f 531 601 602
f 531 602 532
f 532 602 603
f 532 603 604
f 532 604 569
f 532 569 605
f 532 605 594
f 532 594 533
f 533 594 595
f 534 606 582
f 534 535 606
f 535 537 607
f 535 607 608
f 535 608 609
f 535 609 606
f 536 586 537
f 537 586 610
f 537 610 611
f 537 611 607
f 542 612 543
f 542 548 613
f 542 613 614
f 542 614 615
f 542 615 612
f 545 584 546
f 546 616 617
f 546 617 547
f 546 584 579
f 546 578 616
f 547 618 619
f 547 619 548
f 547 617 620
f 547 620 618
f 548 619 613
f 549 573 551
f 549 551 550
f 551 598 552
f 552 593 592
f 552 592 554
f 552 554 553
f 555 592 575
f 555 575 574
f 555 574 556
f 560 621 561
f 561 621 562
f 562 621 622
f 562 622 563
f 563 622 623
f 563 623 564
f 564 623 647
f 564 647 624
f 564 624 625
f 564 625 596
f 564 596 626
f 564 626 565
f 565 626 627
f 565 627 566
f 566 627 567
f 567 627 596
f 567 596 594
f 567 594 605
f 567 605 569
f 569 604 570
f 570 604 603
f 570 603 628
f 570 628 600
f 570 600 572
f 575 592 577
f 578 581 617
f 578 617 616
f 579 584 583
f 580 582 629
f 580 629 630
f 580 630 581
f 581 630 617
f 582 606 631
f 582 631 632
f 582 632 629
f 585 587 633
f 585 633 634
f 585 634 610
f 585 610 586
f 587 591 633
f 588 597 635
f 588 635 589
f 589 635 590
f 590 635 591
f 591 635 633
f 596 625 624
f 596 624 636
f 596 636 597
f 596 627 626
f 597 636 637
f 597 637 638
f 597 638 639
f 597 639 635
f 600 628 602
f 600 602 601
f 602 628 603
f 606 609 608
f 606 608 631
f 607 611 637
f 607 637 608
f 608 637 640
f 608 640 641
f 608 641 642
f 608 642 631
f 610 634 611
f 611 634 643
f 611 643 637
f 613 619 618
f 613 618 620
f 613 620 630
f 613 630 644
f 617 630 620
f 621 645 622
f 622 645 646
f 622 646 647
f 622 647 623
f 624 647 640
f 624 640 637
f 624 637 636
f 629 632 648
f 629 648 630
f 630 649 644
f 630 648 649
f 631 642 632
f 632 642 641
f 632 641 648
f 633 635 639
f 633 639 643
f 633 643 634
f 637 643 638
f 638 643 639
f 640 647 650
f 640 650 651
f 640 651 641
f 641 651 652
f 641 652 653
f 641 653 654
f 641 654 655
f 641 655 656
f 641 656 648
f 645 657 646
f 646 657 658
f 646 658 652
f 646 652 647
f 647 652 650
f 648 656 659
f 648 659 649
f 650 652 651
f 652 658 660
f 652 660 653
f 653 660 654

