# https://github.com/mikedh/trimesh
v -0.02850510 0.04156518 -0.01762933
v -0.02850510 0.05077948 -0.01762933
v -0.02432486 0.04156518 -0.01762933
v -0.02850510 0.04156518 -0.01576851
v -0.02832799 0.05090527 -0.01762933
v -0.02850510 0.05111755 -0.01732220
v -0.00081205 0.04742239 -0.01762933
v -0.02480557 0.04156518 -0.01738092
v -0.00081205 0.04845625 -0.01582723
v 0.00000882 0.05030382 -0.01296826
v 0.00021404 0.07084339 0.02267624
v 0.00021404 0.07113821 0.02318210
v -0.02850510 0.06465204 0.02336727
v -0.02703485 0.05162858 -0.01762933
v -0.02850510 0.05123155 -0.01721381
v -0.02850510 0.05140845 -0.01704218
v -0.02806093 0.05221037 -0.01650471
v -0.00028916 0.04765039 -0.01762933
v 0.00011846 0.04859384 -0.01606209
v 0.00021404 0.04851914 -0.01632856
v 0.00021404 0.07144090 0.02369246
v 0.00021404 0.07161779 0.02399056
v -0.02850510 0.06508838 0.02405379
v -0.02610997 0.05210423 -0.01762933
v -0.02706015 0.05329140 -0.01596273
v -0.02652040 0.05261526 -0.01691120
v -0.02850510 0.05274499 -0.01570980
v -0.02806093 0.05382995 -0.01487876
v 0.00021404 0.04787446 -0.01762933
v 0.00021404 0.07212883 0.02460480
v -0.02850510 0.06582741 0.02505194
v -0.02379073 0.05326388 -0.01762933
v -0.02597784 0.05356264 -0.01623372
v -0.02662160 0.05403436 -0.01542074
v -0.02850510 0.05303588 -0.01541622
v -0.02850510 0.05439208 -0.01401158
v -0.02850510 0.05456505 -0.01382189
v -0.02677622 0.05495815 -0.01435484
v 0.00021404 0.05857468 -0.01762933
v 0.00021404 0.07242758 0.02495258
v -0.02850510 0.06583920 0.02506549
v -0.02291364 0.05369236 -0.01762933
v -0.02515135 0.05376705 -0.01644148
v -0.02527785 0.05468298 -0.01539816
v -0.02850510 0.05585442 -0.01228175
v -0.02798784 0.05536697 -0.01322119
v -0.02677622 0.05562642 -0.01354186
v -0.02590194 0.05515470 -0.01457163
v -0.00081205 0.05857468 -0.01762933
v -0.00081205 0.05903068 -0.01702863
v -0.00081205 0.05984047 -0.01595369
v 0.00021404 0.05902675 -0.01702863
v 0.00021404 0.07302117 0.02546746
v -0.02850510 0.06657430 0.02590105
v -0.02194378 0.05408939 -0.01762933
v -0.02352929 0.05494636 -0.01596273
v -0.02850510 0.05614138 -0.01191139
v -0.02773483 0.05687255 -0.01145071
v -0.02677622 0.05644014 -0.01252113
v -0.02522725 0.05601953 -0.01383092
v -0.02427988 0.05840172 -0.01132876
v -0.02482244 0.05537091 -0.01484262
v -0.00121686 0.05856289 -0.01762933
v -0.00243692 0.05982082 -0.01593111
v -0.00243692 0.06125170 -0.01405223
v -0.00243692 0.06328797 -0.01135586
v -0.00081205 0.06126350 -0.01406126
v 0.00021404 0.06044978 -0.01513620
v 0.00021404 0.07336710 0.02576556
v -0.02850510 0.06723078 0.02639335
v -0.02121849 0.05436850 -0.01762933
v -0.02259879 0.05513504 -0.01617500
v -0.02352929 0.05563035 -0.01514975
v -0.02130564 0.05688435 -0.01470261
v -0.02850510 0.05702586 -0.01075516
v -0.02637422 0.05861399 -0.00997380
v -0.02677622 0.05708090 -0.01170815
v -0.02608748 0.06011564 -0.00820332
v -0.02515135 0.05822483 -0.01110745
v -0.02103295 0.05840172 -0.01295020
v -0.02515135 0.05886558 -0.01029447
v -0.02515135 0.05967537 -0.00926019
v -0.02073496 0.05990730 -0.01117520
v -0.02034421 0.05925868 -0.01220045
v -0.02238795 0.05666814 -0.01443614
v -0.00243692 0.05851572 -0.01762933
v -0.00243692 0.05901103 -0.01698798
v -0.00405897 0.06120847 -0.01400255
v -0.00405897 0.06261184 -0.01216884
v -0.00405897 0.06326046 -0.01131521
v -0.00405897 0.06380687 -0.01050675
v -0.00243692 0.06383045 -0.01054288
v 0.00021404 0.06328797 -0.01135586
v 0.00021404 0.07388206 0.02604106
v -0.02850510 0.06946753 0.02774380
v -0.02850510 0.06877960 0.02737344
v -0.02850510 0.06867346 0.02731473
v -0.02850510 0.06733298 0.02646110
v -0.02850510 0.06727795 0.02642497
v -0.02028517 0.05472229 -0.01762933
v -0.02028517 0.05708483 -0.01492844
v -0.02028517 0.05637725 -0.01574142
v -0.02028517 0.05556746 -0.01666730
v -0.02040887 0.05798503 -0.01377221
v -0.02850510 0.05817372 -0.00921050
v -0.02839828 0.05813441 -0.00933697
v -0.02850510 0.05868082 -0.00848786
v -0.02850510 0.05945916 -0.00724129
v -0.02628988 0.06184136 -0.00516820
v -0.02561519 0.06153081 -0.00625217
v -0.02453289 0.06174308 -0.00660446
v -0.02515135 0.06029254 -0.00844721
v -0.01995345 0.05861006 -0.01321667
v -0.02289677 0.06011564 -0.00982475
v -0.01965266 0.06011564 -0.01144619
v -0.00274334 0.05849213 -0.01762933
v -0.00405897 0.05976578 -0.01586788
v -0.00405897 0.06039867 -0.01505490
v -0.00730309 0.06170377 -0.01303149
v -0.00568103 0.06176667 -0.01311279
v -0.00568103 0.06248997 -0.01216884
v -0.00568103 0.06320149 -0.01122940
v -0.00568103 0.06373611 -0.01041642
v -0.00568103 0.06454590 -0.00912921
v -0.00405897 0.06462059 -0.00920599
v -0.00243692 0.06464417 -0.00922405
v 0.00021404 0.06464024 -0.00922857
v 0.00021404 0.06382652 -0.01054288
v 0.00021404 0.07418082 0.02619463
v -0.02850510 0.06980559 0.02787930
v -0.01921411 0.05510360 -0.01762933
v -0.01893580 0.05662097 -0.01602144
v -0.01866030 0.05818945 -0.01431419
v -0.02850510 0.05953778 -0.00711031
v -0.02584290 0.06323687 -0.00315834
v -0.02850510 0.06046944 -0.00555211
v -0.02850510 0.06132247 -0.00409778
v -0.02850510 0.06423535 0.00089751
v -0.02737500 0.07291896 0.01479489
v -0.02603687 0.06494686 -0.00006000
v -0.02524412 0.06295777 -0.00407520
v -0.02476340 0.06346487 -0.00354677
v -0.02399033 0.06315039 -0.00462622
v -0.02290802 0.06336659 -0.00498303
v -0.02352929 0.06191605 -0.00686642
v -0.02352929 0.06138143 -0.00767488
v -0.02188474 0.06115343 -0.00883111
v -0.02028517 0.06138143 -0.00930083
v -0.02022895 0.06050481 -0.01059708
v -0.01866030 0.05883806 -0.01350573
v -0.01916351 0.06156619 -0.00958086
v -0.01863782 0.06114164 -0.01045255
v -0.01866030 0.06027682 -0.01165847
v -0.01866030 0.05964785 -0.01247144
v -0.00405897 0.05837420 -0.01762933
v -0.00405897 0.05895599 -0.01689765
v -0.00815207 0.06167232 -0.01298633
v -0.00730309 0.06312287 -0.01109842
v -0.00730309 0.06363390 -0.01028996
v -0.00697418 0.06497438 -0.00821235
v -0.00568103 0.06502941 -0.00832075
v -0.00568103 0.06559941 -0.00730001
v -0.00405897 0.06506479 -0.00839753
v -0.00405897 0.06565051 -0.00730001
v -0.00405897 0.06630699 -0.00606699
v -0.00405897 0.06673941 -0.00525402
v -0.00243692 0.06507265 -0.00841559
v 0.00021404 0.06507265 -0.00841559
v 0.00021404 0.07545840 0.02658756
v -0.01119097 0.07459750 0.02760379
v -0.01595313 0.07295434 0.02762185
v -0.02850510 0.07019870 0.02803286
v -0.01904263 0.05516256 -0.01762933
v -0.01850007 0.05726172 -0.01545236
v -0.01785349 0.05680180 -0.01622920
v -0.01761454 0.05835848 -0.01452195
v -0.02593005 0.06976629 0.00813751
v -0.02850510 0.07003359 0.01088808
v -0.02753524 0.07462109 0.01789323
v -0.02706296 0.07602839 0.01990761
v -0.02629269 0.07318627 0.01432517
v -0.02611559 0.07147628 0.01123134
v -0.02516822 0.06862236 0.00562180
v -0.02422084 0.06486038 -0.00153239
v -0.02313853 0.06508445 -0.00192081
v -0.02348150 0.06368108 -0.00407520
v -0.02226425 0.06477390 -0.00300478
v -0.02179760 0.06437686 -0.00392164
v -0.02190723 0.06353562 -0.00524047
v -0.02241044 0.06156619 -0.00795942
v -0.02190723 0.06299708 -0.00605344
v -0.02078276 0.06318577 -0.00633347
v -0.01970045 0.06336266 -0.00660446
v -0.01863782 0.06212832 -0.00899371
v -0.01808120 0.06174308 -0.00984733
v -0.01703825 0.06132247 -0.01087259
v -0.01703825 0.06050875 -0.01196559
v -0.01703825 0.05988764 -0.01277405
v -0.00564730 0.05821303 -0.01762933
v -0.00568103 0.05822876 -0.01760674
v -0.00730309 0.06025716 -0.01486521
v -0.00568103 0.05969109 -0.01577755
v -0.00923438 0.06160550 -0.01289600
v -0.00878740 0.06210081 -0.01228175
v -0.00892796 0.06302066 -0.01092227
v -0.00805649 0.06490362 -0.00809944
v -0.00742959 0.06536355 -0.00745357
v -0.00730309 0.06624016 -0.00596763
v -0.00730309 0.06669223 -0.00515465
v -0.00568103 0.06629127 -0.00603538
v -0.00568103 0.06672761 -0.00522692
v -0.00829263 0.07465254 0.00972733
v -0.00730309 0.07422799 0.00890984
v 0.00021404 0.06590210 -0.00684836
v -0.00730309 0.07509281 0.01054483
v 0.00021404 0.07708191 0.02674113
v -0.00940305 0.07600874 0.02761733
v -0.01379413 0.07545840 0.02798769
v -0.01010866 0.07492771 0.02754959
v -0.01866030 0.07383882 0.02816384
v -0.02515135 0.07221531 0.02830385
v -0.02850510 0.07045421 0.02810061
v -0.01817116 0.05545346 -0.01762933
v -0.01703825 0.05692759 -0.01637373
v -0.01644509 0.05601166 -0.01762933
v -0.01703825 0.05582297 -0.01762933
v -0.01764828 0.05562642 -0.01762933
v -0.01706074 0.05899530 -0.01390770
v -0.01653223 0.05850786 -0.01470261
v -0.01541619 0.05716738 -0.01665375
v -0.01541619 0.05632614 -0.01762933
v -0.02576981 0.07458178 0.01633954
v -0.02529472 0.06951077 0.00724324
v -0.02850510 0.07181041 0.01396384
v -0.02767861 0.07633108 0.02099158
v -0.02672280 0.07736887 0.02198521
v -0.02598065 0.07627998 0.01946047
v -0.02251164 0.06647210 0.00011163
v -0.02484774 0.06998642 0.00774909
v -0.02404093 0.06967587 0.00666512
v -0.02118194 0.06493900 -0.00328932
v -0.02028517 0.06459700 -0.00432361
v -0.02025987 0.06373218 -0.00574632
v -0.01866030 0.06351990 -0.00685739
v -0.01866030 0.06299708 -0.00767036
v -0.01738684 0.06318577 -0.00795039
v -0.01703825 0.06189246 -0.01005961
v -0.01541619 0.06152294 -0.01116165
v -0.01541619 0.06209294 -0.01035319
v -0.01549490 0.06064240 -0.01230433
v -0.01379413 0.06030433 -0.01331604
v -0.01500857 0.06015102 -0.01311279
v -0.01448569 0.06164088 -0.01131973
v -0.01379413 0.05967537 -0.01412901
v -0.00568103 0.05820910 -0.01762933
v -0.00708944 0.05802827 -0.01762933
v -0.00892796 0.06015102 -0.01472971
v -0.01055002 0.06148757 -0.01274695
v -0.01055002 0.06208115 -0.01193398
v -0.00988657 0.06007240 -0.01463486
v -0.01096888 0.05998199 -0.01452195
v -0.01055002 0.06289094 -0.01070548
v -0.00892796 0.06352383 -0.01010929
v -0.00892796 0.06483286 -0.00798201
v -0.00892796 0.06532817 -0.00717355
v -0.00892796 0.06613796 -0.00580503
v -0.00892796 0.06425500 -0.00892145
v -0.00892796 0.06660575 -0.00499657
v -0.00730309 0.06728975 -0.00405262
v -0.00892796 0.06712857 -0.00405262
v -0.00892796 0.06831181 -0.00190275
v -0.00892796 0.07001394 0.00120011
v -0.00892796 0.07171214 0.00430297
v -0.00892796 0.07245903 0.00567600
v -0.00730309 0.06838257 -0.00203373
v -0.00730309 0.06962870 0.00028326
v -0.00937494 0.07464075 0.00975443
v -0.00887173 0.07429482 0.00908147
v -0.01055002 0.07922431 0.01839457
v -0.01055002 0.08023065 0.02028248
v -0.00892796 0.07799390 0.01604145
v 0.00021404 0.07252193 0.00567600
v -0.00892796 0.08090285 0.02154711
v -0.00730309 0.07799390 0.01603694
v 0.00021404 0.07810790 0.02672306
v -0.00730309 0.07708191 0.02743216
v -0.00940305 0.07659446 0.02761733
v -0.01541619 0.07545840 0.02813222
v -0.02028517 0.07383882 0.02831288
v -0.02677622 0.07221531 0.02841676
v -0.02850510 0.07210917 0.02849354
v -0.01541619 0.05865330 -0.01488779
v -0.01379413 0.05820517 -0.01596273
v -0.01379413 0.05675069 -0.01762933
v -0.01379413 0.05739145 -0.01689765
v -0.02364174 0.07109497 0.00892339
v -0.02850510 0.07549771 0.02035926
v -0.02850510 0.07650798 0.02214329
v -0.02850510 0.07654729 0.02222007
v -0.02614651 0.07796638 0.02257688
v -0.02515135 0.07768728 0.02146129
v -0.02419835 0.07784845 0.02117675
v -0.02274497 0.06816636 0.00323255
v -0.02190723 0.07649225 0.01745964
v -0.02109199 0.07789170 0.01947402
v -0.02113697 0.07141338 0.00808783
v -0.02028517 0.06633844 -0.00127495
v -0.02028517 0.06506479 -0.00351515
v -0.01895548 0.06478176 -0.00463977
v -0.01851412 0.06436900 -0.00552049
v -0.01692299 0.06364176 -0.00736776
v -0.01630453 0.06330370 -0.00814008
v -0.01541619 0.06290273 -0.00910211
v -0.01692299 0.06276122 -0.00877692
v -0.01787598 0.06491935 -0.00487915
v -0.01206244 0.06278480 -0.01040287
v -0.01217207 0.06191605 -0.01169911
v -0.01340900 0.06177060 -0.01150039
v -0.01388690 0.06120847 -0.01209205
v -0.01217207 0.06050088 -0.01355993
v -0.01217207 0.06131067 -0.01250757
v -0.01217207 0.05986406 -0.01437290
v -0.01379413 0.05886165 -0.01515427
v -0.00730309 0.05799683 -0.01762933
v -0.00892796 0.05866510 -0.01651374
v -0.01055002 0.05852751 -0.01635115
v -0.01149739 0.05844889 -0.01625178
v -0.01257970 0.05835062 -0.01613887
v -0.01144679 0.06330370 -0.00976152
v -0.01055002 0.06338625 -0.00989702
v -0.01055002 0.06517879 -0.00692965
v -0.00975726 0.06653892 -0.00487463
v -0.01055002 0.06469135 -0.00774263
v -0.01055002 0.07116573 0.00367518
v -0.01158735 0.07793494 0.01614985
v -0.01006930 0.07630356 0.01292053
v -0.01217207 0.08083996 0.02164196
v -0.01217207 0.08127630 0.02245493
v -0.01055002 0.07797425 0.01607758
v -0.01055002 0.08089892 0.02154711
v 0.00021404 0.07314696 0.00685933
v -0.01055002 0.08132740 0.02236009
v 0.00021404 0.08090285 0.02154711
v 0.00021404 0.07878404 0.01753191
v 0.00021404 0.07870542 0.02670048
v -0.00888860 0.07711729 0.02754055
v -0.01703825 0.07545840 0.02824965
v -0.02190723 0.07383882 0.02842128
v -0.02352929 0.07383882 0.02849354
v -0.02839828 0.07221531 0.02849806
v -0.02850510 0.07221531 0.02849806
v -0.01308571 0.05691580 -0.01762933
v -0.02296143 0.06986063 0.00634445
v -0.02850510 0.07701901 0.02353439
v -0.02711075 0.07767156 0.02352987
v -0.02629832 0.07803714 0.02352987
v -0.02515135 0.07844990 0.02352987
v -0.02233172 0.07938941 0.02352987
v -0.02129439 0.07957417 0.02260398
v -0.02515135 0.07813149 0.02226975
v -0.02186506 0.07906314 0.02199876
v -0.02311604 0.07802535 0.02086060
v -0.02290239 0.07633108 0.01773967
v -0.02190723 0.07822190 0.02051282
v -0.02028517 0.07924003 0.02158776
v -0.02044260 0.07839094 0.02011988
v -0.01939684 0.07463288 0.01300634
v -0.01866030 0.07067828 0.00567600
v -0.01953740 0.06817422 0.00159305
v -0.02016148 0.06763960 0.00095622
v -0.01924222 0.06647995 -0.00152336
v -0.01541619 0.06398770 -0.00730001
v -0.01703825 0.06453017 -0.00584117
v -0.01541619 0.06517879 -0.00531273
v -0.01541619 0.06339411 -0.00828913
v -0.01379413 0.06307177 -0.00937310
v -0.01703825 0.06738802 -0.00080975
v -0.01569731 0.06642099 -0.00304543
v -0.01461781 0.06653499 -0.00324868
v -0.01526157 0.06603182 -0.00389454
v -0.01703825 0.06500976 -0.00502819
v -0.00848941 0.05780027 -0.01762933
v -0.00986690 0.05754869 -0.01762933
v -0.01127530 0.05728138 -0.01762933
v -0.01271182 0.05699835 -0.01762933
v -0.01217207 0.06501762 -0.00666318
v -0.01217207 0.06560334 -0.00567857
v -0.01039821 0.06603969 -0.00552049
v -0.01083957 0.06643672 -0.00469397
v -0.01217207 0.06676692 -0.00365968
v -0.01217207 0.07379557 0.00892339
v -0.01217207 0.07616598 0.01316893
v -0.01266965 0.07783666 0.01633051
v -0.01299575 0.07951913 0.01946950
v -0.01328812 0.08119768 0.02260398
v -0.01217207 0.07958990 0.01933852
v -0.01217207 0.08157506 0.02352987
v -0.01055002 0.08171264 0.02352987
v 0.00021404 0.08132740 0.02236009
v -0.00892796 0.08171657 0.02352987
v 0.00021404 0.08172051 0.02352987
v 0.00021404 0.07966852 0.02646562
v -0.01055002 0.07764797 0.02754959
v -0.01217207 0.07694432 0.02775735
v -0.01866030 0.07545840 0.02834450
v -0.02028517 0.07545840 0.02839418
v -0.02515135 0.07383882 0.02851161
v -0.02677622 0.07383882 0.02844386
v -0.02850510 0.07373268 0.02833546
v -0.02268593 0.07463681 0.01462326
v -0.02850510 0.07702294 0.02363375
v -0.02850510 0.07694432 0.02515131
v -0.02622803 0.07801356 0.02465449
v -0.02146306 0.07963707 0.02464545
v -0.02152210 0.07965279 0.02352987
v -0.02028517 0.07996334 0.02352987
v -0.01866030 0.08030141 0.02352987
v -0.01436761 0.08109154 0.02301047
v -0.02028517 0.07968424 0.02240073
v -0.01381662 0.08076134 0.02199876
v -0.01866030 0.07940514 0.02129418
v -0.01866030 0.07814328 0.01902688
v -0.01800811 0.07306048 0.00967314
v -0.01770169 0.07137407 0.00654318
v -0.01414553 0.06482107 -0.00633799
v -0.01379413 0.06614975 -0.00419715
v -0.01217207 0.06631092 -0.00446814
v -0.01368168 0.06526527 -0.00574632
v -0.01526157 0.06683375 -0.00247635
v -0.01379413 0.06959725 0.00195437
v -0.01379413 0.06661361 -0.00338869
v -0.01544430 0.06857126 0.00069878
v -0.01541619 0.07160600 0.00612765
v -0.01363952 0.07903169 0.01881912
v -0.01363952 0.07981790 0.02023280
v -0.01381662 0.08128416 0.02354342
v -0.01480054 0.08117802 0.02409444
v -0.01480054 0.08117802 0.02443318
v -0.01379413 0.08127630 0.02466352
v -0.01217207 0.08143747 0.02494806
v -0.01055002 0.08152788 0.02506098
v -0.00892796 0.08153182 0.02506098
v 0.00021404 0.08153182 0.02506098
v 0.00021404 0.08023065 0.02631206
v -0.01217207 0.07775804 0.02754959
v -0.01541619 0.07700329 0.02790639
v -0.01379413 0.07698756 0.02783864
v -0.02190723 0.07545840 0.02835805
v -0.01703825 0.07700721 0.02794253
v -0.01866030 0.07700721 0.02795156
v -0.02028517 0.07695611 0.02793801
v -0.02352929 0.07545840 0.02825868
v -0.02839828 0.07383882 0.02832643
v -0.02850510 0.07384668 0.02830837
v -0.02850510 0.07691288 0.02524615
v -0.02566017 0.07779342 0.02573394
v -0.02513167 0.07819438 0.02517840
v -0.02196346 0.07924003 0.02517389
v -0.02057754 0.07940514 0.02572942
v -0.02013618 0.07974320 0.02517389
v -0.01666436 0.07960562 0.02093738
v -0.01703825 0.07315875 0.00949699
v -0.01661938 0.07148414 0.00634445
v -0.01866030 0.08006162 0.02515131
v -0.01949523 0.07952307 0.02596880
v -0.01379413 0.08084782 0.02547198
v -0.01217207 0.08097754 0.02576104
v -0.01055002 0.08104044 0.02586944
v 0.00021404 0.08104437 0.02587395
v 0.00021404 0.08074561 0.02603655
v -0.00243692 0.08022672 0.02633012
v -0.00892796 0.07870542 0.02709793
v -0.01703825 0.07782093 0.02754959
v -0.01866030 0.07781701 0.02754959
v -0.01055002 0.07870542 0.02710697
v -0.01541619 0.07781701 0.02754959
v -0.02190723 0.07679494 0.02787478
v -0.02028517 0.07776591 0.02750442
v -0.02515135 0.07545840 0.02811415
v -0.02839828 0.07505350 0.02784768
v -0.02850510 0.07503778 0.02783864
v -0.02850510 0.07648439 0.02628947
v -0.02457786 0.07797032 0.02606816
v -0.02352929 0.07814328 0.02628044
v -0.02190723 0.07840666 0.02654691
v -0.01866030 0.07960169 0.02607268
v -0.02190723 0.07760866 0.02735538
v -0.01703825 0.07976286 0.02623076
v -0.01541619 0.07990831 0.02631206
v -0.01055002 0.08022672 0.02633012
v -0.01379413 0.07870542 0.02710697
v -0.02352929 0.07657874 0.02777993
v -0.02515135 0.07638218 0.02766250
v -0.02663566 0.07550950 0.02789284
v -0.02600033 0.07628391 0.02759475
v -0.02708264 0.07608343 0.02740054
v -0.02850510 0.07578467 0.02717020
v -0.02850510 0.07584364 0.02710697
v -0.02839828 0.07586722 0.02712503
v -0.02663566 0.07668880 0.02682694
f 1 2 5
f 1 5 14
f 1 14 24
f 1 24 32
f 1 32 42
f 1 42 55
f 1 55 71
f 1 71 100
f 1 100 131
f 1 131 173
f 1 173 223
f 1 223 227
f 1 227 226
f 1 226 225
f 1 225 231
f 1 231 294
f 1 294 352
f 1 352 385
f 1 385 384
f 1 384 383
f 1 383 382
f 1 382 324
f 1 324 256
f 1 256 255
f 1 255 199
f 1 199 155
f 1 155 116
f 1 116 86
f 1 86 63
f 1 63 49
f 1 49 39
f 1 39 29
f 1 29 18
f 1 18 7
f 1 7 3
f 1 3 8
f 1 8 4
f 1 4 13
f 1 13 23
f 1 23 31
f 1 31 41
f 1 41 54
f 1 54 70
f 1 70 99
f 1 99 98
f 1 98 97
f 1 97 96
f 1 96 95
f 1 95 130
f 1 130 172
f 1 172 222
f 1 222 291
f 1 291 351
f 1 351 409
f 1 409 454
f 1 454 481
f 1 481 497
f 1 497 498
f 1 498 482
f 1 482 455
f 1 455 412
f 1 412 411
f 1 411 354
f 1 354 299
f 1 299 298
f 1 298 297
f 1 297 234
f 1 234 178
f 1 178 138
f 1 138 137
f 1 137 136
f 1 136 134
f 1 134 108
f 1 108 107
f 1 107 105
f 1 105 75
f 1 75 57
f 1 57 45
f 1 45 37
f 1 37 36
f 1 36 35
f 1 35 27
f 1 27 16
f 1 16 15
f 1 15 6
f 1 6 2
f 2 6 5
f 3 7 8
f 4 8 9
f 4 9 10
f 4 10 11
f 4 11 12
f 4 12 13
f 5 6 15
f 5 15 16
f 5 16 17
f 5 17 14
f 7 18 19
f 7 19 10
f 7 10 9
f 7 9 8
f 10 19 11
f 11 19 20
f 11 20 29
f 11 29 39
f 11 39 52
f 11 52 68
f 11 68 93
f 11 93 128
f 11 128 127
f 11 127 168
f 11 168 214
f 11 214 282
f 11 282 341
f 11 341 344
f 11 344 343
f 11 343 399
f 11 399 401
f 11 401 443
f 11 443 469
f 11 469 470
f 11 470 444
f 11 444 402
f 11 402 345
f 11 345 285
f 11 285 216
f 11 216 169
f 11 169 129
f 11 129 94
f 11 94 69
f 11 69 53
f 11 53 40
f 11 40 30
f 11 30 22
f 11 22 21
f 11 21 12
f 12 21 13
f 13 21 22
f 13 22 23
f 14 17 25
f 14 25 26
f 14 26 24
f 16 27 17
f 17 27 28
f 17 28 25
f 18 29 19
f 19 29 20
f 22 30 31
f 22 31 23
f 24 26 25
f 24 25 33
f 24 33 32
f 25 28 34
f 25 34 33
f 27 35 28
f 28 35 36
f 28 36 37
f 28 37 38
f 28 38 34
f 30 40 31
f 31 40 41
f 32 33 43
f 32 43 42
f 33 34 43
f 34 38 44
f 34 44 43
f 37 45 46
f 37 46 38
f 38 46 47
f 38 47 48
f 38 48 44
f 39 49 50
f 39 50 51
f 39 51 52
f 40 53 54
f 40 54 41
f 42 43 44
f 42 44 56
f 42 56 55
f 44 48 56
f 45 57 58
f 45 58 46
f 46 59 47
f 46 58 59
f 47 60 48
f 47 59 61
f 47 61 60
f 48 60 62
f 48 62 56
f 49 63 64
f 49 64 65
f 49 65 50
f 50 65 66
f 50 66 51
f 51 66 67
f 51 67 68
f 51 68 52
f 53 69 54
f 54 69 70
f 55 56 72
f 55 72 71
f 56 62 73
f 56 73 74
f 56 74 72
f 57 75 58
f 58 76 77
f 58 77 59
f 58 75 78
f 58 78 76
f 59 77 76
f 59 76 79
f 59 79 61
f 60 61 80
f 60 80 62
f 61 79 81
f 61 81 82
f 61 82 83
f 61 83 84
f 61 84 80
f 62 80 85
f 62 85 74
f 62 74 73
f 63 86 87
f 63 87 64
f 64 87 88
f 64 88 89
f 64 89 65
f 65 89 90
f 65 90 66
f 66 90 91
f 66 91 92
f 66 92 93
f 66 93 67
f 67 93 68
f 69 94 95
f 69 95 96
f 69 96 97
f 69 97 98
f 69 98 99
f 69 99 70
f 71 72 100
f 72 101 102
f 72 102 103
f 72 103 100
f 72 74 101
f 74 85 80
f 74 80 104
f 74 104 101
f 75 105 106
f 75 106 78
f 76 82 81
f 76 81 79
f 76 78 82
f 78 107 108
f 78 108 109
f 78 109 110
f 78 110 111
f 78 111 112
f 78 112 82
f 78 106 105
f 78 105 107
f 80 84 113
f 80 113 104
f 82 114 83
f 82 112 114
f 83 114 115
f 83 115 84
f 84 115 113
f 86 116 117
f 86 117 118
f 86 118 87
f 87 118 88
f 88 119 120
f 88 120 121
f 88 121 89
f 88 118 119
f 89 121 90
f 90 122 91
f 90 121 122
f 91 122 123
f 91 123 124
f 91 124 125
f 91 125 92
f 92 125 126
f 92 126 127
f 92 127 128
f 92 128 93
f 94 129 95
f 95 129 130
f 100 103 132
f 100 132 131
f 101 132 102
f 101 104 113
f 101 113 133
f 101 133 132
f 102 132 103
f 108 134 109
f 109 135 110
f 109 134 136
f 109 136 137
f 109 137 138
f 109 138 139
f 109 139 140
f 109 140 135
f 110 135 141
f 110 141 142
f 110 142 185
f 110 185 143
f 110 143 144
f 110 144 111
f 111 145 146
f 111 146 112
f 111 144 145
f 112 146 147
f 112 147 148
f 112 148 149
f 112 149 115
f 112 115 114
f 113 150 133
f 113 115 150
f 115 149 148
f 115 148 151
f 115 151 152
f 115 152 153
f 115 153 154
f 115 154 150
f 116 155 156
f 116 156 117
f 117 156 157
f 117 157 118
f 118 157 119
f 119 157 121
f 119 121 120
f 121 157 122
f 122 158 123
f 122 157 158
f 123 158 159
f 123 159 124
f 124 159 160
f 124 160 161
f 124 161 125
f 125 161 162
f 125 162 163
f 125 163 126
f 126 163 164
f 126 164 165
f 126 165 166
f 126 166 167
f 126 167 168
f 126 168 127
f 129 169 170
f 129 170 171
f 129 171 172
f 129 172 130
f 131 132 173
f 132 133 174
f 132 174 175
f 132 175 173
f 133 150 176
f 133 176 174
f 135 140 177
f 135 177 141
f 138 178 139
f 139 178 179
f 139 179 180
f 139 180 181
f 139 181 182
f 139 182 140
f 140 182 177
f 141 177 183
f 141 183 142
f 142 184 185
f 142 183 184
f 143 186 144
f 143 185 186
f 144 186 185
f 144 185 187
f 144 187 188
f 144 188 189
f 144 189 145
f 145 189 146
f 146 190 148
f 146 148 147
f 146 189 191
f 146 191 190
f 148 190 192
f 148 192 151
f 150 154 176
f 151 192 193
f 151 193 194
f 151 194 195
f 151 195 152
f 152 195 153
f 153 195 196
f 153 196 197
f 153 197 198
f 153 198 154
f 154 198 176
f 155 199 200
f 155 200 201
f 155 201 202
f 155 202 156
f 156 202 157
f 157 203 204
f 157 204 158
f 157 202 201
f 157 201 203
f 158 205 159
f 158 204 205
f 159 205 206
f 159 206 160
f 160 206 207
f 160 207 208
f 160 208 161
f 161 208 162
f 162 208 209
f 162 209 210
f 162 210 163
f 163 210 211
f 163 211 164
f 164 211 212
f 164 212 165
f 165 212 166
f 166 212 213
f 166 213 167
f 167 214 168
f 167 213 215
f 167 215 214
f 169 216 217
f 169 217 218
f 169 218 219
f 169 219 170
f 170 219 218
f 170 218 220
f 170 220 171
f 171 220 172
f 172 220 221
f 172 221 222
f 173 175 223
f 174 176 175
f 175 224 225
f 175 225 226
f 175 226 227
f 175 227 223
f 175 176 224
f 176 198 228
f 176 228 229
f 176 229 230
f 176 230 231
f 176 231 224
f 177 182 232
f 177 232 233
f 177 233 183
f 178 234 235
f 178 235 179
f 179 235 180
f 180 235 236
f 180 236 237
f 180 237 181
f 181 232 182
f 181 237 232
f 183 233 185
f 183 185 184
f 185 238 187
f 185 233 239
f 185 239 232
f 185 232 240
f 185 240 238
f 187 241 188
f 187 238 241
f 188 241 242
f 188 242 189
f 189 242 243
f 189 243 193
f 189 193 192
f 189 192 191
f 190 191 192
f 193 243 244
f 193 244 245
f 193 245 194
f 194 245 195
f 195 245 246
f 195 246 247
f 195 247 196
f 196 248 197
f 196 247 249
f 196 249 248
f 197 250 251
f 197 251 252
f 197 252 198
f 197 248 253
f 197 253 250
f 198 252 254
f 198 254 228
f 199 255 200
f 200 255 256
f 200 256 201
f 201 256 257
f 201 257 203
f 203 258 259
f 203 259 204
f 203 257 260
f 203 260 261
f 203 261 258
f 204 259 205
f 205 259 262
f 205 262 263
f 205 263 206
f 206 264 265
f 206 265 266
f 206 266 207
f 206 263 267
f 206 267 264
f 207 266 208
f 208 266 268
f 208 268 209
f 209 269 210
f 209 268 270
f 209 270 271
f 209 271 272
f 209 272 273
f 209 273 274
f 209 274 269
f 210 269 275
f 210 275 211
f 211 275 276
f 211 276 277
f 211 277 278
f 211 278 212
f 212 278 279
f 212 279 280
f 212 280 213
f 213 280 281
f 213 281 215
f 214 215 282
f 215 281 283
f 215 283 284
f 215 284 282
f 216 285 286
f 216 286 217
f 217 287 288
f 217 288 218
f 217 286 287
f 218 288 289
f 218 289 220
f 220 289 221
f 221 289 290
f 221 290 222
f 222 290 291
f 224 231 225
f 228 254 229
f 229 254 292
f 229 292 293
f 229 293 230
f 230 293 231
f 231 293 295
f 231 295 294
f 232 296 240
f 232 239 233
f 232 237 296
f 234 297 235
f 235 297 298
f 235 298 236
f 236 298 299
f 236 299 300
f 236 300 237
f 237 300 301
f 237 301 302
f 237 302 296
f 238 240 303
f 238 303 304
f 238 304 305
f 238 305 306
f 238 306 241
f 240 296 303
f 241 307 308
f 241 308 242
f 241 306 307
f 242 308 309
f 242 309 244
f 242 244 243
f 244 246 245
f 244 309 310
f 244 310 246
f 246 311 312
f 246 312 313
f 246 313 314
f 246 314 247
f 246 310 315
f 246 315 311
f 247 314 249
f 248 249 253
f 249 314 313
f 249 313 316
f 249 316 317
f 249 317 318
f 249 318 253
f 250 253 319
f 250 319 251
f 251 320 254
f 251 254 252
f 251 319 321
f 251 321 320
f 253 318 319
f 254 320 322
f 254 322 323
f 254 323 292
f 256 324 257
f 257 324 325
f 257 325 260
f 258 321 317
f 258 317 259
f 258 261 322
f 258 322 320
f 258 320 321
f 259 317 262
f 260 325 326
f 260 326 327
f 260 327 261
f 261 327 328
f 261 328 322
f 262 317 316
f 262 316 329
f 262 329 330
f 262 330 265
f 262 265 264
f 262 264 267
f 262 267 263
f 265 331 332
f 265 332 266
f 265 330 333
f 265 333 331
f 266 332 268
f 268 332 334
f 268 334 335
f 268 335 270
f 269 274 277
f 269 277 275
f 270 335 271
f 271 335 272
f 272 335 273
f 273 335 277
f 273 277 274
f 275 277 276
f 277 335 336
f 277 336 279
f 277 279 278
f 279 337 338
f 279 338 280
f 279 336 339
f 279 339 335
f 279 335 337
f 280 338 340
f 280 340 281
f 281 340 283
f 282 284 341
f 283 340 342
f 283 342 399
f 283 399 343
f 283 343 344
f 283 344 284
f 284 344 341
f 285 345 286
f 286 345 346
f 286 346 347
f 286 347 288
f 286 288 287
f 288 347 289
f 289 347 348
f 289 348 290
f 290 348 291
f 291 348 349
f 291 349 350
f 291 350 351
f 292 323 293
f 293 323 328
f 293 328 295
f 294 295 328
f 294 328 352
f 296 353 303
f 296 302 353
f 299 354 300
f 300 355 356
f 300 356 357
f 300 357 358
f 300 358 359
f 300 359 360
f 300 360 301
f 300 354 355
f 301 360 302
f 302 360 361
f 302 361 362
f 302 362 363
f 302 363 353
f 303 353 304
f 304 364 305
f 304 353 364
f 305 364 361
f 305 361 359
f 305 359 365
f 305 365 366
f 305 366 367
f 305 367 368
f 305 368 315
f 305 315 369
f 305 369 370
f 305 370 307
f 305 307 306
f 307 370 369
f 307 369 308
f 308 369 371
f 308 371 309
f 309 315 310
f 309 371 315
f 311 372 312
f 311 315 373
f 311 373 374
f 311 374 372
f 312 372 375
f 312 375 376
f 312 376 313
f 313 376 316
f 315 377 378
f 315 378 379
f 315 379 380
f 315 380 381
f 315 381 373
f 315 371 369
f 315 368 377
f 316 376 329
f 317 321 318
f 318 321 319
f 322 328 323
f 324 382 325
f 325 382 326
f 326 382 327
f 327 382 328
f 328 382 383
f 328 383 384
f 328 384 385
f 328 385 352
f 329 376 386
f 329 386 331
f 329 331 333
f 329 333 330
f 331 386 387
f 331 387 388
f 331 388 332
f 332 388 389
f 332 389 390
f 332 390 391
f 332 391 334
f 334 391 392
f 334 392 335
f 335 392 393
f 335 393 394
f 335 394 395
f 335 395 396
f 335 396 337
f 335 339 336
f 337 396 395
f 337 395 338
f 338 342 340
f 338 395 397
f 338 397 398
f 338 398 342
f 342 398 400
f 342 400 401
f 342 401 399
f 345 402 403
f 345 403 346
f 346 403 404
f 346 404 347
f 347 404 405
f 347 405 348
f 348 405 349
f 349 405 406
f 349 406 407
f 349 407 350
f 350 407 351
f 351 407 408
f 351 408 409
f 353 363 410
f 353 410 364
f 354 411 355
f 355 411 412
f 355 412 413
f 355 413 356
f 356 413 357
f 357 413 414
f 357 414 358
f 358 414 415
f 358 415 359
f 359 361 360
f 359 415 416
f 359 416 417
f 359 417 418
f 359 418 395
f 359 395 419
f 359 419 365
f 361 364 362
f 362 364 363
f 363 364 410
f 365 419 420
f 365 420 421
f 365 421 422
f 365 422 366
f 366 422 423
f 366 423 367
f 367 423 424
f 367 424 368
f 368 424 377
f 372 374 425
f 372 425 376
f 372 376 375
f 373 381 374
f 374 381 380
f 374 380 379
f 374 379 426
f 374 426 427
f 374 427 387
f 374 387 428
f 374 428 425
f 376 425 386
f 377 424 378
f 378 429 379
f 378 424 429
f 379 430 431
f 379 431 427
f 379 427 426
f 379 429 424
f 379 424 423
f 379 423 432
f 379 432 433
f 379 433 393
f 379 393 430
f 386 425 428
f 386 428 387
f 387 427 388
f 388 427 389
f 389 427 431
f 389 431 390
f 390 431 391
f 391 431 430
f 391 430 392
f 392 430 393
f 393 433 434
f 393 434 394
f 394 434 435
f 394 435 420
f 394 420 395
f 395 420 419
f 395 418 397
f 397 436 437
f 397 437 438
f 397 438 439
f 397 439 440
f 397 440 398
f 397 418 436
f 398 440 441
f 398 441 442
f 398 442 400
f 400 442 401
f 401 442 443
f 402 444 403
f 403 445 446
f 403 446 447
f 403 447 404
f 403 444 445
f 404 447 405
f 405 447 446
f 405 446 406
f 406 448 407
f 406 446 449
f 406 449 450
f 406 450 451
f 406 451 448
f 407 448 408
f 408 448 452
f 408 452 453
f 408 453 409
f 409 453 454
f 412 455 413
f 413 455 456
f 413 456 457
f 413 457 414
f 414 457 456
f 414 456 458
f 414 458 459
f 414 459 460
f 414 460 438
f 414 438 416
f 414 416 415
f 416 438 437
f 416 437 417
f 417 437 418
f 418 437 436
f 420 461 421
f 420 435 461
f 421 461 434
f 421 434 422
f 422 434 462
f 422 462 423
f 423 462 463
f 423 463 432
f 432 463 462
f 432 462 433
f 433 462 434
f 434 461 435
f 438 460 464
f 438 464 465
f 438 465 439
f 439 465 440
f 440 465 466
f 440 466 467
f 440 467 441
f 441 467 468
f 441 468 442
f 442 468 469
f 442 469 443
f 444 470 471
f 444 471 472
f 444 472 449
f 444 449 445
f 445 449 446
f 448 451 452
f 449 472 475
f 449 475 450
f 450 473 474
f 450 474 451
f 450 475 476
f 450 476 473
f 451 477 452
f 451 474 478
f 451 478 477
f 452 477 479
f 452 479 453
f 453 479 480
f 453 480 454
f 454 480 481
f 455 482 456
f 456 459 458
f 456 482 483
f 456 483 459
f 459 483 484
f 459 484 485
f 459 485 465
f 459 465 464
f 459 464 460
f 465 486 467
f 465 467 466
f 465 485 487
f 465 487 486
f 467 486 488
f 467 488 489
f 467 489 468
f 468 490 469
f 468 489 478
f 468 478 474
f 468 474 490
f 469 490 471
f 469 471 470
f 471 475 472
f 471 490 491
f 471 491 475
f 473 491 474
f 473 476 475
f 473 475 491
f 474 491 490
f 477 478 492
f 477 492 479
f 478 487 493
f 478 493 492
f 478 489 488
f 478 488 487
f 479 492 493
f 479 493 494
f 479 494 480
f 480 495 481
f 480 494 495
f 481 495 496
f 481 496 497
f 482 498 499
f 482 499 483
f 483 499 500
f 483 500 495
f 483 495 484
f 484 495 485
f 485 495 487
f 486 487 488
f 487 495 493
f 493 495 494
f 495 500 496
f 496 500 499
f 496 499 497
f 497 499 498

