# https://github.com/mikedh/trimesh
v 0.00020838 0.05856794 -0.01763040
v 0.00020838 0.04786743 -0.01763040
v 0.00020838 0.05840982 -0.01784107
v -0.00081652 0.05856794 -0.01763040
v -0.00406109 0.00089246 -0.02220852
v -0.00243597 0.00089246 -0.02238925
v -0.00236802 0.00089246 -0.02239887
v -0.00087314 0.00089246 -0.02262024
v -0.00009739 0.00089246 -0.02273573
v 0.00020838 0.00089246 -0.02279562
v -0.04951334 0.00089246 -0.01763040
v 0.00020838 0.05708850 -0.01916713
v -0.00081652 0.05840982 -0.01784107
v -0.00121855 0.05855664 -0.01763040
v 0.00020838 0.00089246 -0.02855008
v -0.05758229 0.00089246 -0.01763040
v 0.00020838 0.05435549 -0.02190053
v -0.00081652 0.05435549 -0.02190053
v -0.00243597 0.05678922 -0.01946549
v -0.00406109 0.05678922 -0.01946443
v -0.00243597 0.05837595 -0.01780150
v -0.00243597 0.05851147 -0.01763040
v 0.00020838 0.04299996 -0.02855008
v -0.00243597 0.00089246 -0.02855329
v -0.05763325 0.00243966 -0.01763040
v -0.05716327 0.00243966 -0.01851052
v -0.05711797 0.00089246 -0.01840465
v 0.00020838 0.05059478 -0.02565200
v -0.00081652 0.05192176 -0.02433342
v -0.00243597 0.05435549 -0.02189946
v -0.00406109 0.05516297 -0.02108778
v -0.00568054 0.05592527 -0.02021408
v -0.00568054 0.05673275 -0.01940668
v -0.00406109 0.05837030 -0.01763040
v -0.00274741 0.05848888 -0.01763040
v 0.00020838 0.04462622 -0.02854794
v -0.00243597 0.04462622 -0.02855329
v -0.03651242 0.00089246 -0.02855436
v -0.05762759 0.00341089 -0.01763040
v -0.05757663 0.00497503 -0.01763040
v -0.05667630 0.00243966 -0.01932219
v -0.05657438 0.00089246 -0.01921632
v 0.00020838 0.05028986 -0.02595036
v -0.00081652 0.05110864 -0.02513013
v -0.00243597 0.05354236 -0.02271114
v -0.00406109 0.05350848 -0.02268012
v -0.00568054 0.05509521 -0.02102469
v -0.00243597 0.05272924 -0.02350677
v -0.00243597 0.05189917 -0.02431845
v -0.00730565 0.05578976 -0.02007719
v -0.00730565 0.05659724 -0.01926124
v -0.00730565 0.05730307 -0.01844956
v -0.00730565 0.05799197 -0.01763040
v -0.00568054 0.05741036 -0.01859500
v -0.00568054 0.05820655 -0.01763040
v 0.00020838 0.04522476 -0.02847950
v -0.00406109 0.04462622 -0.02855222
v -0.00243597 0.04624682 -0.02836614
v 0.00020838 0.04624682 -0.02836187
v -0.01217534 0.04299996 -0.02855329
v -0.04300156 0.00089246 -0.02855329
v -0.04300156 0.01055398 -0.02855329
v -0.04138210 0.01542144 -0.02855329
v -0.03651242 0.02515637 -0.02855329
v -0.03326785 0.02840322 -0.02855329
v -0.02515927 0.03651189 -0.02855329
v -0.01866447 0.03975875 -0.02855329
v -0.05748037 0.00652223 -0.01763040
v -0.05716327 0.00406027 -0.01838754
v -0.05655173 0.00406027 -0.01919921
v -0.05561177 0.00568087 -0.01989967
v -0.05574200 0.00406027 -0.02000020
v -0.05586658 0.00243966 -0.02004832
v -0.05576465 0.00089246 -0.01995742
v -0.05712363 0.00568087 -0.01826348
v -0.05703870 0.00730712 -0.01812660
v -0.05692545 0.00892773 -0.01799399
v 0.00020838 0.04947674 -0.02664654
v -0.00081652 0.04946544 -0.02664012
v -0.00081652 0.05027857 -0.02594074
v -0.00406109 0.05269536 -0.02344047
v -0.00406109 0.05182577 -0.02425215
v -0.00568054 0.05340684 -0.02258708
v -0.00730565 0.05327132 -0.02246089
v -0.00730565 0.05414092 -0.02164922
v -0.00730565 0.05495404 -0.02088887
v -0.00243597 0.05109169 -0.02506489
v -0.00893077 0.05479593 -0.02073702
v -0.01055022 0.05546789 -0.01977134
v -0.01055022 0.05700945 -0.01809131
v -0.00893077 0.05716190 -0.01827097
v -0.01217534 0.05530978 -0.01961200
v -0.01316060 0.05520815 -0.01951148
v -0.01228292 0.05624149 -0.01856078
v -0.00987073 0.05754588 -0.01763040
v -0.00893077 0.05771528 -0.01763040
v -0.00848910 0.05779433 -0.01763040
v -0.00568054 0.04462622 -0.02854367
v -0.00243597 0.04759073 -0.02788384
v -0.00081652 0.04764155 -0.02788384
v 0.00020838 0.04764720 -0.02788277
v -0.00730565 0.04462622 -0.02852549
v -0.00406109 0.04624682 -0.02833620
v -0.01704502 0.04137936 -0.02852976
v -0.01379479 0.04299996 -0.02852976
v -0.04307517 0.00089246 -0.02854259
v -0.04300156 0.01217458 -0.02854259
v -0.04462667 0.01055398 -0.02831054
v -0.04138210 0.01704205 -0.02852976
v -0.03813187 0.02353576 -0.02852762
v -0.03488731 0.02840322 -0.02852976
v -0.03326785 0.03001818 -0.02854153
v -0.02840383 0.03488564 -0.02854153
v -0.03975699 0.02028890 -0.02852976
v -0.02677872 0.03651189 -0.02852976
v -0.02028959 0.03975875 -0.02852976
v -0.05733315 0.00804684 -0.01763040
v -0.05676124 0.01114124 -0.01781540
v -0.05642150 0.00568087 -0.01907516
v -0.05547587 0.00730712 -0.01977455
v -0.05352233 0.01120900 -0.02107281
v -0.05361294 0.01012483 -0.02115515
v -0.05370353 0.00892773 -0.02123429
v -0.05473976 0.00568087 -0.02071028
v -0.04768438 0.01055398 -0.02654388
v -0.04775233 0.00892773 -0.02658772
v -0.04775233 0.00089246 -0.02658772
v -0.05712930 0.00966745 -0.01763040
v -0.05694244 0.01097748 -0.01763040
v 0.00020838 0.04846033 -0.02745822
v -0.00081652 0.04845468 -0.02745180
v -0.00243597 0.04840386 -0.02739619
v -0.00243597 0.04939203 -0.02658558
v -0.00243597 0.05020516 -0.02587657
v -0.00406109 0.05101829 -0.02496437
v -0.00893077 0.04892900 -0.02618135
v -0.00568054 0.05170718 -0.02414307
v -0.00730565 0.05157731 -0.02402222
v -0.00893077 0.05063431 -0.02464355
v -0.00893077 0.05144744 -0.02389283
v -0.01156946 0.04872008 -0.02600062
v -0.00893077 0.05231703 -0.02308329
v -0.01055022 0.05049314 -0.02451522
v -0.00893077 0.05313016 -0.02231973
v -0.01172800 0.05038021 -0.02441149
v -0.01055022 0.05297204 -0.02216681
v -0.01217534 0.05366094 -0.02120114
v -0.01307566 0.05357060 -0.02111452
v -0.01055022 0.05463218 -0.02058195
v -0.01055022 0.05741600 -0.01763040
v -0.01181294 0.05688522 -0.01795122
v -0.01194884 0.05714496 -0.01763040
v -0.01217534 0.05446842 -0.02042368
v -0.01415718 0.05345766 -0.02101185
v -0.01289446 0.05677793 -0.01783145
v -0.01424212 0.05509521 -0.01939170
v -0.00406109 0.04748345 -0.02785497
v -0.00893077 0.04462622 -0.02848592
v -0.01055022 0.04462622 -0.02842389
v -0.01217534 0.04462622 -0.02834903
v -0.00568054 0.04624682 -0.02825813
v -0.01541990 0.04299996 -0.02842924
v -0.04462667 0.00089246 -0.02831054
v -0.04300156 0.01379519 -0.02848592
v -0.04462667 0.01217458 -0.02824637
v -0.04591771 0.00892773 -0.02782823
v -0.04588939 0.01055398 -0.02782716
v -0.04138210 0.01866265 -0.02842924
v -0.03813187 0.02515637 -0.02841534
v -0.03651242 0.02677697 -0.02848592
v -0.03975699 0.02190951 -0.02842924
v -0.03488731 0.03001818 -0.02840464
v -0.03326785 0.03164443 -0.02842924
v -0.03001763 0.03488564 -0.02842924
v -0.02515927 0.03813250 -0.02842924
v -0.02840383 0.03651189 -0.02841320
v -0.02190904 0.03975875 -0.02842924
v -0.05687449 0.01135017 -0.01763040
v -0.05666498 0.01217458 -0.01769777
v -0.05584959 0.01217458 -0.01853618
v -0.05514745 0.01121464 -0.01944945
v -0.05600248 0.01063868 -0.01867627
v -0.05533997 0.00892773 -0.01963981
v -0.05438302 0.01066691 -0.02030605
v -0.05423580 0.01217458 -0.02015847
v -0.05342041 0.01217458 -0.02097015
v -0.04748053 0.01217458 -0.02637598
v -0.04655756 0.01217458 -0.02718766
v -0.04669912 0.01055398 -0.02735556
v -0.04672743 0.00892773 -0.02739940
v -0.04677839 0.00089246 -0.02736197
v -0.00568054 0.04736487 -0.02778546
v -0.00970086 0.04705430 -0.02758334
v -0.00406109 0.04829657 -0.02729674
v -0.00406109 0.04927910 -0.02648613
v -0.00730565 0.04904759 -0.02628294
v -0.01055022 0.04787307 -0.02683476
v -0.01055022 0.04880477 -0.02607441
v -0.00568054 0.04817799 -0.02719515
v -0.01213570 0.04799730 -0.02652142
v -0.01265098 0.04861844 -0.02590544
v -0.01293976 0.05192176 -0.02271221
v -0.01271327 0.05699250 -0.01763040
v -0.01541990 0.05327697 -0.02084502
v -0.01541990 0.05411833 -0.02003335
v -0.01379479 0.04932992 -0.02495154
v -0.01379479 0.05667629 -0.01771060
v -0.01308699 0.05690780 -0.01763040
v -0.01541990 0.05493145 -0.01920991
v -0.01541990 0.05564859 -0.01839930
v -0.01541990 0.05632054 -0.01763040
v -0.00730565 0.04624682 -0.02815868
v -0.01217534 0.04599271 -0.02786566
v -0.01055022 0.04615647 -0.02794159
v -0.01379479 0.04462622 -0.02820466
v -0.01704502 0.04299996 -0.02822819
v -0.04591771 0.00089246 -0.02782823
v -0.04300156 0.01542144 -0.02838112
v -0.04574783 0.01217458 -0.02777369
v -0.04475691 0.01387989 -0.02797260
v -0.04300156 0.01704205 -0.02822926
v -0.04595734 0.00089246 -0.02780791
v -0.04138210 0.02028890 -0.02824316
v -0.03813187 0.02677697 -0.02815226
v -0.03651242 0.02840322 -0.02829770
v -0.03975699 0.02353576 -0.02824102
v -0.03488731 0.03164443 -0.02809238
v -0.03326785 0.03326504 -0.02810521
v -0.03164274 0.03488564 -0.02810521
v -0.03001763 0.03651189 -0.02809986
v -0.02677872 0.03813250 -0.02822712
v -0.02353415 0.03975875 -0.02822712
v -0.05671594 0.01217458 -0.01763040
v -0.05669329 0.01227623 -0.01763040
v -0.05660269 0.01262632 -0.01763040
v -0.05627994 0.01379519 -0.01763040
v -0.05563442 0.01379519 -0.01831161
v -0.05504553 0.01217458 -0.01934786
v -0.05400930 0.01379519 -0.01993389
v -0.05319391 0.01379519 -0.02074557
v -0.05238419 0.01379519 -0.02149415
v -0.05211806 0.01542144 -0.02126744
v -0.04616685 0.01387989 -0.02704008
v -0.04537977 0.01447844 -0.02755340
v -0.04557230 0.01339427 -0.02767531
v -0.04672743 0.00089246 -0.02739940
v -0.00906667 0.04640493 -0.02795014
v -0.01055022 0.04696960 -0.02753629
v -0.01217534 0.04680584 -0.02744432
v -0.01379479 0.04763591 -0.02645298
v -0.01379479 0.04844904 -0.02576322
v -0.01541990 0.05158860 -0.02240635
v -0.01704502 0.05219845 -0.02134444
v -0.01704502 0.05300593 -0.02059479
v -0.01704502 0.05386423 -0.01978418
v -0.01379479 0.05674405 -0.01763040
v -0.01821714 0.05367224 -0.01959703
v -0.01704502 0.05467171 -0.01891903
v -0.01704502 0.05540013 -0.01810735
v -0.01645046 0.05600433 -0.01763040
v -0.01379479 0.04574426 -0.02774589
v -0.01536894 0.04467703 -0.02790630
v -0.01861351 0.04305643 -0.02790630
v -0.04439451 0.01542144 -0.02789774
v -0.04411139 0.01704205 -0.02776942
v -0.04392453 0.01812621 -0.02766141
v -0.04307517 0.01866830 -0.02791913
v -0.04145006 0.02190951 -0.02791806
v -0.03809790 0.02828464 -0.02780471
v -0.03659736 0.03006900 -0.02792555
v -0.03982494 0.02515637 -0.02790737
v -0.03926436 0.02677697 -0.02773626
v -0.03473442 0.03311258 -0.02770846
v -0.03601979 0.03164443 -0.02772236
v -0.03571402 0.03246885 -0.02759403
v -0.03148986 0.03635943 -0.02770846
v -0.03001763 0.03759606 -0.02772985
v -0.02834721 0.03818332 -0.02790309
v -0.03084434 0.03733067 -0.02759403
v -0.02510831 0.03980957 -0.02790630
v -0.05558345 0.01596917 -0.01763040
v -0.05507384 0.01751637 -0.01763040
v -0.05469446 0.01866265 -0.01763040
v -0.05455290 0.01542144 -0.01885273
v -0.05292778 0.01542144 -0.02047501
v -0.05196517 0.01633621 -0.02113056
v -0.04630841 0.01528027 -0.02649041
v -0.04520990 0.01542144 -0.02742400
v -0.01379479 0.04655174 -0.02726359
v -0.01541990 0.04729710 -0.02615676
v -0.01541990 0.04811023 -0.02549800
v -0.01541990 0.04906452 -0.02468632
v -0.01541990 0.04987765 -0.02396555
v -0.01541990 0.05077548 -0.02315387
v -0.01810955 0.05201775 -0.02117868
v -0.01870411 0.05275183 -0.02030177
v -0.01929866 0.05348589 -0.01940775
v -0.01867013 0.05436114 -0.01866451
v -0.01855688 0.05532108 -0.01763040
v -0.01765090 0.05562036 -0.01763040
v -0.01704502 0.05581799 -0.01763040
v -0.01479137 0.04552404 -0.02764002
v -0.01704502 0.04414624 -0.02776835
v -0.02677872 0.03928443 -0.02776835
v -0.04366406 0.01920474 -0.02749672
v -0.04231074 0.02136742 -0.02766141
v -0.04257688 0.02028890 -0.02778332
v -0.04492678 0.01704205 -0.02717269
v -0.04466631 0.01876429 -0.02681658
v -0.04095176 0.02353576 -0.02778332
v -0.03753166 0.02957209 -0.02768921
v -0.03899256 0.02766350 -0.02761435
v -0.04069129 0.02461428 -0.02766034
v -0.04040817 0.02569845 -0.02749779
v -0.03719758 0.03064497 -0.02752345
v -0.03682952 0.03164443 -0.02726145
v -0.03809224 0.03155409 -0.02639630
v -0.03752600 0.03271166 -0.02613537
v -0.03639351 0.03312952 -0.02670108
v -0.03599714 0.03440567 -0.02618456
v -0.03517043 0.03354737 -0.02726680
v -0.03355098 0.03517362 -0.02726680
v -0.03246945 0.03571006 -0.02759403
v -0.02884550 0.03875364 -0.02745394
v -0.02776964 0.03903597 -0.02764109
v -0.03001763 0.03840354 -0.02715558
v -0.03192586 0.03679423 -0.02726573
v -0.03386241 0.03711045 -0.02582417
v -0.03278089 0.03758477 -0.02618456
v -0.03735046 0.04058882 -0.02111345
v -0.03651242 0.04174639 -0.02076910
v -0.03560643 0.04211343 -0.02104179
v -0.03452491 0.04251999 -0.02134978
v -0.03377747 0.04360416 -0.02092416
v -0.03269595 0.04396555 -0.02123215
v -0.05348270 0.02223702 -0.01763040
v -0.05340342 0.02228784 -0.01769670
v -0.05358463 0.02120932 -0.01788705
v -0.05211806 0.02028890 -0.01966120
v -0.05238985 0.01866265 -0.01993389
v -0.05177831 0.01742038 -0.02095303
v -0.05074775 0.01866265 -0.02147811
v -0.04584975 0.01704205 -0.02636101
v -0.01587290 0.04525300 -0.02747640
v -0.01536894 0.04613953 -0.02702511
v -0.01690912 0.04626376 -0.02636957
v -0.01628059 0.04708253 -0.02598458
v -0.01763391 0.04857326 -0.02425322
v -0.01790004 0.05032939 -0.02274001
v -0.01919108 0.05181447 -0.02100651
v -0.01704502 0.05048749 -0.02288973
v -0.01911746 0.05505568 -0.01771702
v -0.02028959 0.05248643 -0.01998843
v -0.02028959 0.05329956 -0.01921205
v -0.02028959 0.05403363 -0.01840037
v -0.01904385 0.05515733 -0.01763040
v -0.02128617 0.04228283 -0.02764109
v -0.04440584 0.02028890 -0.02647971
v -0.04404344 0.02190951 -0.02615676
v -0.04383959 0.02277345 -0.02598458
v -0.04301854 0.02340024 -0.02638881
v -0.04203894 0.02245159 -0.02749886
v -0.04561760 0.01832385 -0.02613643
v -0.05049860 0.01995575 -0.02126958
v -0.04540809 0.01940237 -0.02593753
v -0.04522123 0.02028890 -0.02577498
v -0.04007975 0.02677697 -0.02726252
v -0.04129151 0.02515637 -0.02703581
v -0.04220882 0.02600337 -0.02598137
v -0.04135946 0.02663580 -0.02636422
v -0.03904352 0.03094989 -0.02603805
v -0.03973434 0.02836934 -0.02677701
v -0.03935496 0.03001818 -0.02627760
v -0.04565723 0.03595852 -0.01804212
v -0.04386224 0.03576653 -0.01951148
v -0.04235038 0.03750571 -0.01958848
v -0.04081586 0.03919973 -0.01966440
v -0.03548752 0.03548984 -0.02582417
v -0.03479105 0.03478965 -0.02672568
v -0.03898124 0.03898515 -0.02112093
v -0.03316593 0.03641025 -0.02672568
v -0.03093494 0.04712770 -0.01953180
v -0.03001763 0.04821752 -0.01909334
v -0.02591237 0.05027292 -0.01944731
v -0.02483085 0.05057220 -0.01970397
v -0.02353415 0.04992283 -0.02079690
v -0.02677872 0.04113090 -0.02644549
v -0.02677872 0.04009191 -0.02725610
v -0.02561226 0.04038553 -0.02747426
v -0.03440600 0.03602628 -0.02618456
v -0.03492128 0.03654578 -0.02549479
v -0.03575366 0.03737584 -0.02438154
v -0.03843198 0.04006367 -0.02076268
v -0.03920773 0.04082598 -0.01968044
v -0.03798465 0.04124948 -0.02019804
v -0.03754298 0.04237882 -0.01963339
v -0.03594052 0.04560874 -0.01800362
v -0.03499489 0.04303949 -0.02065574
v -0.03488731 0.04596448 -0.01830412
v -0.03108782 0.04885559 -0.01800683
v -0.05343740 0.02236689 -0.01763040
v -0.05334114 0.02262664 -0.01763040
v -0.05235588 0.02353576 -0.01825600
v -0.05268430 0.02174011 -0.01859821
v -0.05195951 0.02118673 -0.01950720
v -0.05155748 0.01866265 -0.02074450
v -0.02353415 0.04171816 -0.02726359
v -0.01736211 0.04681149 -0.02576749
v -0.01979695 0.04721805 -0.02446924
v -0.02115027 0.04870878 -0.02274001
v -0.02028959 0.04892336 -0.02291218
v -0.01853423 0.04951062 -0.02314317
v -0.02028959 0.05156037 -0.02080011
v -0.02028959 0.05471688 -0.01763040
v -0.02190904 0.05213069 -0.01965585
v -0.02190904 0.05294381 -0.01886128
v -0.02273575 0.05355930 -0.01785818
v -0.02190904 0.05372306 -0.01804960
v -0.02194867 0.05408445 -0.01763040
v -0.02122389 0.05436114 -0.01763040
v -0.04556664 0.02302191 -0.02445747
v -0.04532315 0.02410608 -0.02424680
v -0.04356780 0.02385198 -0.02576749
v -0.04242966 0.02515637 -0.02615355
v -0.05027777 0.02103992 -0.02107495
v -0.04080454 0.02798537 -0.02616210
v -0.04856205 0.02899048 -0.01938101
v -0.04824496 0.03001818 -0.01914147
v -0.04047612 0.02906953 -0.02589047
v -0.04890180 0.03116446 -0.01804212
v -0.04621781 0.03476142 -0.01826455
v -0.04710115 0.03414028 -0.01788919
v -0.04667081 0.03516233 -0.01763040
v -0.04588939 0.03617309 -0.01763040
v -0.04513629 0.03701445 -0.01763040
v -0.04408308 0.03760171 -0.01808596
v -0.04028926 0.04028390 -0.01922060
v -0.03963242 0.03963452 -0.02021408
v -0.03001763 0.04918311 -0.01828166
v -0.02662584 0.05111428 -0.01831054
v -0.02528384 0.05111428 -0.01897998
v -0.02381727 0.05165072 -0.01921098
v -0.02913995 0.05026163 -0.01781113
v -0.02805843 0.05057220 -0.01809559
v -0.02273575 0.05193305 -0.01948047
v -0.02338127 0.05111428 -0.01988684
v -0.02249793 0.05019386 -0.02100864
v -0.02223180 0.04843209 -0.02252292
v -0.02087848 0.04694137 -0.02425322
v -0.03817717 0.04410672 -0.01763040
v -0.03862451 0.04191015 -0.01921205
v -0.03977398 0.04139629 -0.01867520
v -0.03703903 0.04517959 -0.01763040
v -0.03701072 0.04520218 -0.01763040
v -0.03615003 0.04585155 -0.01763040
v -0.03470611 0.04683972 -0.01763040
v -0.03406626 0.04704865 -0.01784428
v -0.03129733 0.04909840 -0.01763040
v -0.02973450 0.05008093 -0.01763040
v -0.03214103 0.04854503 -0.01763040
v -0.05298441 0.02353576 -0.01763040
v -0.05188023 0.02585656 -0.01780685
v -0.05173867 0.02227090 -0.01930829
v -0.02028959 0.05074725 -0.02145138
v -0.02193735 0.05105217 -0.02054025
v -0.02291695 0.05368353 -0.01763040
v -0.02252624 0.05384729 -0.01763040
v -0.02327934 0.05261066 -0.01853511
v -0.02379462 0.05326003 -0.01763040
v -0.05009091 0.02190951 -0.02090919
v -0.05018717 0.02569845 -0.01937353
v -0.05086100 0.02677697 -0.01835011
v -0.04992670 0.02677697 -0.01916178
v -0.05055523 0.02809265 -0.01807634
v -0.04956431 0.02853874 -0.01872868
v -0.05147254 0.02353576 -0.01906768
v -0.05028343 0.02917682 -0.01783358
v -0.04924154 0.03001818 -0.01833086
v -0.05007958 0.02991089 -0.01763040
v -0.05001730 0.03001818 -0.01763040
v -0.04917360 0.03139598 -0.01763040
v -0.04853940 0.03224863 -0.01771381
v -0.04726536 0.03428144 -0.01763040
v -0.04355081 0.03867458 -0.01763040
v -0.04248061 0.03924490 -0.01812125
v -0.04138777 0.03976440 -0.01867093
v -0.04087815 0.04088244 -0.01813836
v -0.04033456 0.04196662 -0.01764644
v -0.02703919 0.05162249 -0.01763040
v -0.02928717 0.05035198 -0.01763040
v -0.02898706 0.05053267 -0.01763040
v -0.02598032 0.05193305 -0.01785925
v -0.02515927 0.05214198 -0.01806564
v -0.04032323 0.04199485 -0.01763040
v -0.05210673 0.02571539 -0.01763040
v -0.05198216 0.02601467 -0.01763040
v -0.05170470 0.02665274 -0.01763040
v -0.02515927 0.05257678 -0.01763040
v -0.05057222 0.02901307 -0.01763040
v -0.05039668 0.02934058 -0.01763040
v -0.04866964 0.03217522 -0.01763040
v -0.04857338 0.03232204 -0.01763040
v -0.04196533 0.04032342 -0.01763040
v -0.04195967 0.04032907 -0.01763360
v -0.04115560 0.04115914 -0.01763040
v -0.04036853 0.04194967 -0.01763040
v -0.02611622 0.05209680 -0.01763040
f 1 2 10
f 1 10 15
f 1 15 23
f 1 23 36
f 1 36 56
f 1 56 59
f 1 59 101
f 1 101 130
f 1 130 78
f 1 78 43
f 1 43 28
f 1 28 17
f 1 17 12
f 1 12 3
f 1 3 13
f 1 13 4
f 1 4 14
f 1 14 22
f 1 22 35
f 1 35 34
f 1 34 55
f 1 55 53
f 1 53 97
f 1 97 96
f 1 96 95
f 1 95 150
f 1 150 152
f 1 152 203
f 1 203 208
f 1 208 256
f 1 256 211
f 1 211 260
f 1 260 301
f 1 301 300
f 1 300 299
f 1 299 356
f 1 356 414
f 1 414 420
f 1 420 419
f 1 419 467
f 1 467 466
f 1 466 469
f 1 469 498
f 1 498 507
f 1 507 489
f 1 489 491
f 1 491 490
f 1 490 459
f 1 459 458
f 1 458 460
f 1 460 456
f 1 456 455
f 1 455 454
f 1 454 453
f 1 453 450
f 1 450 494
f 1 494 506
f 1 506 505
f 1 505 503
f 1 503 484
f 1 484 435
f 1 435 434
f 1 434 433
f 1 433 483
f 1 483 502
f 1 502 501
f 1 501 481
f 1 481 480
f 1 480 479
f 1 479 500
f 1 500 499
f 1 499 497
f 1 497 496
f 1 496 495
f 1 495 461
f 1 461 402
f 1 402 401
f 1 401 336
f 1 336 283
f 1 283 282
f 1 282 281
f 1 281 236
f 1 236 235
f 1 235 234
f 1 234 233
f 1 233 178
f 1 178 129
f 1 129 128
f 1 128 117
f 1 117 68
f 1 68 40
f 1 40 39
f 1 39 25
f 1 25 16
f 1 16 11
f 1 11 2
f 2 5 6
f 2 6 7
f 2 7 8
f 2 8 9
f 2 9 10
f 2 11 5
f 3 12 13
f 4 13 14
f 5 11 16
f 5 16 27
f 5 27 42
f 5 42 74
f 5 74 127
f 5 127 191
f 5 191 246
f 5 246 222
f 5 222 217
f 5 217 163
f 5 163 106
f 5 106 61
f 5 61 38
f 5 38 24
f 5 24 15
f 5 15 10
f 5 10 9
f 5 9 8
f 5 8 7
f 5 7 6
f 12 17 18
f 12 18 19
f 12 19 20
f 12 20 13
f 13 21 22
f 13 22 14
f 13 20 21
f 15 24 37
f 15 37 23
f 16 25 26
f 16 26 27
f 17 28 29
f 17 29 18
f 18 29 30
f 18 30 20
f 18 20 19
f 20 31 32
f 20 32 33
f 20 33 21
f 20 30 45
f 20 45 31
f 21 33 34
f 21 34 35
f 21 35 22
f 23 37 36
f 24 38 37
f 25 39 26
f 26 39 40
f 26 40 41
f 26 41 27
f 27 41 42
f 28 43 44
f 28 44 29
f 29 44 45
f 29 45 30
f 31 46 47
f 31 47 32
f 31 45 44
f 31 44 48
f 31 48 49
f 31 49 46
f 32 47 50
f 32 50 33
f 33 50 51
f 33 51 52
f 33 52 53
f 33 53 54
f 33 54 34
f 34 54 55
f 36 37 56
f 37 57 58
f 37 58 59
f 37 59 56
f 37 38 60
f 37 60 57
f 38 61 62
f 38 62 63
f 38 63 64
f 38 64 65
f 38 65 66
f 38 66 67
f 38 67 60
f 40 68 69
f 40 69 41
f 41 70 71
f 41 71 72
f 41 72 73
f 41 73 74
f 41 74 42
f 41 69 68
f 41 68 75
f 41 75 76
f 41 76 77
f 41 77 70
f 43 78 79
f 43 79 80
f 43 80 44
f 44 80 49
f 44 49 48
f 46 81 47
f 46 49 81
f 47 81 82
f 47 82 83
f 47 83 84
f 47 84 85
f 47 85 86
f 47 86 50
f 49 80 87
f 49 87 82
f 49 82 81
f 50 86 88
f 50 88 89
f 50 89 51
f 51 90 91
f 51 91 52
f 51 89 92
f 51 92 93
f 51 93 94
f 51 94 90
f 52 91 95
f 52 95 96
f 52 96 97
f 52 97 53
f 53 55 54
f 57 98 58
f 57 60 98
f 58 99 100
f 58 100 101
f 58 101 59
f 58 98 102
f 58 102 103
f 58 103 99
f 60 67 116
f 60 116 104
f 60 104 105
f 60 105 102
f 60 102 98
f 61 106 62
f 62 107 63
f 62 106 108
f 62 108 107
f 63 107 109
f 63 109 64
f 64 110 111
f 64 111 112
f 64 112 113
f 64 113 65
f 64 109 114
f 64 114 110
f 65 113 66
f 66 113 115
f 66 115 116
f 66 116 67
f 68 117 75
f 70 77 118
f 70 118 119
f 70 119 71
f 71 119 120
f 71 120 121
f 71 121 122
f 71 122 72
f 72 122 123
f 72 123 124
f 72 124 125
f 72 125 73
f 73 125 126
f 73 126 127
f 73 127 74
f 75 117 76
f 76 117 128
f 76 128 77
f 77 128 129
f 77 129 118
f 78 130 131
f 78 131 79
f 79 131 132
f 79 132 133
f 79 133 80
f 80 133 134
f 80 134 87
f 82 135 136
f 82 136 137
f 82 137 83
f 82 87 134
f 82 134 135
f 83 137 138
f 83 138 139
f 83 139 84
f 84 139 140
f 84 140 141
f 84 141 142
f 84 142 85
f 85 142 86
f 86 142 143
f 86 143 144
f 86 144 88
f 88 144 145
f 88 145 146
f 88 146 147
f 88 147 148
f 88 148 149
f 88 149 92
f 88 92 89
f 90 150 91
f 90 94 151
f 90 151 152
f 90 152 150
f 91 150 95
f 92 153 148
f 92 148 154
f 92 154 93
f 92 149 153
f 93 155 94
f 93 154 156
f 93 156 155
f 94 155 151
f 99 132 131
f 99 131 100
f 99 103 157
f 99 157 132
f 100 131 130
f 100 130 101
f 102 158 103
f 102 105 158
f 103 158 159
f 103 159 160
f 103 160 161
f 103 161 157
f 104 162 105
f 104 116 177
f 104 177 162
f 105 160 159
f 105 159 158
f 105 162 160
f 106 163 108
f 107 164 109
f 107 108 164
f 108 165 164
f 108 163 217
f 108 217 166
f 108 166 167
f 108 167 165
f 109 168 171
f 109 171 114
f 109 164 168
f 110 169 170
f 110 170 111
f 110 114 171
f 110 171 169
f 111 172 173
f 111 173 112
f 111 170 172
f 112 173 113
f 113 174 115
f 113 173 174
f 115 175 116
f 115 174 176
f 115 176 175
f 116 175 177
f 118 178 179
f 118 179 180
f 118 180 181
f 118 181 182
f 118 182 120
f 118 120 119
f 118 129 178
f 120 183 184
f 120 184 121
f 120 182 183
f 121 184 181
f 121 181 185
f 121 185 186
f 121 186 125
f 121 125 122
f 122 125 123
f 123 125 124
f 125 187 188
f 125 188 189
f 125 189 126
f 125 186 187
f 126 189 190
f 126 190 191
f 126 191 127
f 132 157 192
f 132 192 193
f 132 193 194
f 132 194 133
f 133 194 195
f 133 195 134
f 134 195 135
f 135 195 196
f 135 196 136
f 136 197 198
f 136 198 137
f 136 196 194
f 136 194 199
f 136 199 197
f 137 198 139
f 137 139 138
f 139 198 141
f 139 141 140
f 141 200 201
f 141 201 143
f 141 143 142
f 141 198 200
f 143 201 145
f 143 145 144
f 145 201 202
f 145 202 147
f 145 147 146
f 147 202 148
f 148 153 149
f 148 202 154
f 151 155 152
f 152 155 203
f 154 204 205
f 154 205 156
f 154 202 201
f 154 201 206
f 154 206 204
f 155 207 208
f 155 208 203
f 155 156 207
f 156 205 209
f 156 209 210
f 156 210 211
f 156 211 207
f 157 161 212
f 157 212 192
f 160 213 214
f 160 214 212
f 160 212 161
f 160 162 215
f 160 215 213
f 162 177 216
f 162 216 215
f 164 165 218
f 164 218 168
f 165 167 219
f 165 219 220
f 165 220 221
f 165 221 218
f 166 217 222
f 166 222 190
f 166 190 167
f 167 190 189
f 167 189 219
f 168 218 221
f 168 221 223
f 168 223 171
f 169 224 225
f 169 225 172
f 169 172 170
f 169 171 226
f 169 226 224
f 171 223 226
f 172 225 227
f 172 227 173
f 173 227 228
f 173 228 229
f 173 229 174
f 174 229 230
f 174 230 176
f 175 176 231
f 175 231 232
f 175 232 177
f 176 230 231
f 177 232 216
f 178 233 179
f 179 233 234
f 179 234 235
f 179 235 236
f 179 236 237
f 179 237 180
f 180 237 238
f 180 238 181
f 181 183 182
f 181 238 185
f 181 184 183
f 185 238 237
f 185 237 239
f 185 239 240
f 185 240 186
f 186 240 241
f 186 241 187
f 187 241 242
f 187 242 243
f 187 243 188
f 188 243 244
f 188 244 245
f 188 245 219
f 188 219 189
f 190 222 246
f 190 246 191
f 192 212 247
f 192 247 214
f 192 214 193
f 193 214 213
f 193 213 248
f 193 248 197
f 193 197 199
f 193 199 194
f 194 196 195
f 197 248 249
f 197 249 200
f 197 200 198
f 200 249 250
f 200 250 201
f 201 250 251
f 201 251 206
f 204 252 253
f 204 253 254
f 204 254 255
f 204 255 205
f 204 206 252
f 205 255 209
f 206 251 252
f 207 256 208
f 207 211 256
f 209 255 257
f 209 257 258
f 209 258 259
f 209 259 210
f 210 259 260
f 210 260 211
f 212 214 247
f 213 215 261
f 213 261 249
f 213 249 248
f 215 216 262
f 215 262 261
f 216 232 263
f 216 263 262
f 219 245 220
f 220 245 264
f 220 264 221
f 221 264 265
f 221 265 266
f 221 266 267
f 221 267 223
f 223 267 268
f 223 268 226
f 224 269 270
f 224 270 225
f 224 226 271
f 224 271 272
f 224 272 269
f 225 270 227
f 226 268 271
f 227 273 228
f 227 270 274
f 227 274 275
f 227 275 273
f 228 273 276
f 228 276 229
f 229 276 230
f 230 277 278
f 230 278 231
f 230 276 279
f 230 279 277
f 231 280 232
f 231 278 280
f 232 280 263
f 236 281 237
f 237 281 282
f 237 282 283
f 237 283 284
f 237 284 285
f 237 285 239
f 239 285 240
f 240 285 286
f 240 286 242
f 240 242 241
f 242 286 243
f 243 286 287
f 243 287 288
f 243 288 244
f 244 288 266
f 244 266 245
f 245 266 265
f 245 265 264
f 249 261 289
f 249 289 250
f 250 289 290
f 250 290 291
f 250 291 251
f 251 291 292
f 251 292 293
f 251 293 294
f 251 294 252
f 252 294 253
f 253 294 295
f 253 295 254
f 254 295 257
f 254 257 255
f 257 295 296
f 257 296 297
f 257 297 258
f 258 297 259
f 259 297 298
f 259 298 299
f 259 299 300
f 259 300 301
f 259 301 260
f 261 262 302
f 261 302 289
f 262 263 304
f 262 304 303
f 262 303 302
f 263 280 304
f 266 305 306
f 266 306 307
f 266 307 267
f 266 288 308
f 266 308 309
f 266 309 305
f 267 307 310
f 267 310 268
f 268 310 271
f 269 311 270
f 269 272 312
f 269 312 311
f 270 311 274
f 271 310 313
f 271 313 272
f 272 313 314
f 272 314 312
f 273 275 276
f 274 311 315
f 274 315 275
f 275 315 316
f 275 316 317
f 275 317 318
f 275 318 319
f 275 319 320
f 275 320 321
f 275 321 322
f 275 322 323
f 275 323 276
f 276 323 279
f 277 279 324
f 277 324 325
f 277 325 278
f 278 325 304
f 278 304 280
f 279 326 324
f 279 323 322
f 279 322 327
f 279 327 328
f 279 328 329
f 279 329 330
f 279 330 331
f 279 331 332
f 279 332 333
f 279 333 334
f 279 334 335
f 279 335 326
f 283 336 337
f 283 337 338
f 283 338 339
f 283 339 340
f 283 340 284
f 284 340 285
f 285 340 286
f 286 340 339
f 286 339 341
f 286 341 342
f 286 342 343
f 286 343 287
f 287 343 288
f 288 343 308
f 289 302 344
f 289 344 345
f 289 345 290
f 290 345 346
f 290 346 347
f 290 347 348
f 290 348 349
f 290 349 291
f 291 349 292
f 292 349 350
f 292 350 351
f 292 351 293
f 293 351 350
f 293 350 295
f 293 295 294
f 295 350 296
f 296 350 297
f 297 352 298
f 297 350 353
f 297 353 354
f 297 354 355
f 297 355 352
f 298 352 299
f 299 352 356
f 302 303 357
f 302 357 344
f 303 304 357
f 304 325 357
f 305 309 358
f 305 358 359
f 305 359 360
f 305 360 361
f 305 361 362
f 305 362 313
f 305 313 306
f 306 313 307
f 307 313 310
f 308 343 363
f 308 363 309
f 309 363 364
f 309 364 365
f 309 365 366
f 309 366 358
f 311 312 315
f 312 314 367
f 312 367 315
f 313 362 314
f 314 362 368
f 314 368 369
f 314 369 370
f 314 370 367
f 315 371 316
f 315 367 372
f 315 372 373
f 315 373 371
f 316 371 317
f 317 371 318
f 318 371 374
f 318 374 375
f 318 375 376
f 318 376 377
f 318 377 319
f 319 377 320
f 320 378 379
f 320 379 321
f 320 377 380
f 320 380 378
f 321 379 322
f 322 379 390
f 322 390 381
f 322 381 327
f 324 326 382
f 324 382 383
f 324 383 384
f 324 384 385
f 324 385 386
f 324 386 387
f 324 387 388
f 324 388 389
f 324 389 325
f 325 389 357
f 326 335 382
f 327 381 328
f 328 381 390
f 328 390 378
f 328 378 391
f 328 391 392
f 328 392 393
f 328 393 330
f 328 330 329
f 330 393 394
f 330 394 395
f 330 395 396
f 330 396 331
f 331 396 332
f 332 396 397
f 332 397 398
f 332 398 334
f 332 334 333
f 334 398 397
f 334 397 399
f 334 399 335
f 335 399 400
f 335 400 382
f 336 401 337
f 337 401 402
f 337 402 403
f 337 403 404
f 337 404 339
f 337 339 338
f 339 405 406
f 339 406 341
f 339 404 405
f 341 406 342
f 342 406 364
f 342 364 343
f 343 364 363
f 344 357 389
f 344 389 345
f 345 407 346
f 345 389 407
f 346 407 388
f 346 388 347
f 347 388 408
f 347 408 409
f 347 409 410
f 347 410 348
f 348 410 411
f 348 411 412
f 348 412 349
f 349 412 413
f 349 413 350
f 350 413 353
f 352 355 414
f 352 414 356
f 353 413 415
f 353 415 354
f 354 415 416
f 354 416 417
f 354 417 418
f 354 418 355
f 355 418 419
f 355 419 420
f 355 420 414
f 358 366 421
f 358 421 422
f 358 422 359
f 359 422 360
f 360 423 424
f 360 424 361
f 360 422 423
f 361 424 368
f 361 368 362
f 364 406 405
f 364 405 425
f 364 425 365
f 365 425 366
f 366 425 421
f 367 370 426
f 367 426 372
f 368 424 369
f 369 426 370
f 369 424 422
f 369 422 427
f 369 427 428
f 369 428 426
f 371 373 429
f 371 429 430
f 371 430 431
f 371 431 374
f 372 426 373
f 373 426 429
f 374 431 432
f 374 432 433
f 374 433 434
f 374 434 435
f 374 435 436
f 374 436 377
f 374 377 376
f 374 376 375
f 377 436 437
f 377 437 394
f 377 394 438
f 377 438 380
f 378 380 392
f 378 392 391
f 378 390 379
f 380 393 392
f 380 438 393
f 382 400 383
f 383 400 439
f 383 439 384
f 384 440 441
f 384 441 442
f 384 442 385
f 384 439 443
f 384 443 444
f 384 444 440
f 385 442 445
f 385 445 446
f 385 446 386
f 386 446 447
f 386 447 448
f 386 448 387
f 387 448 449
f 387 449 408
f 387 408 388
f 388 407 389
f 393 438 394
f 394 450 451
f 394 451 396
f 394 396 395
f 394 437 452
f 394 452 450
f 396 451 453
f 396 453 454
f 396 454 397
f 397 454 455
f 397 455 456
f 397 456 457
f 397 457 400
f 397 400 399
f 400 458 459
f 400 459 443
f 400 443 439
f 400 457 460
f 400 460 458
f 402 461 403
f 403 461 462
f 403 462 463
f 403 463 405
f 403 405 404
f 405 463 425
f 408 449 409
f 409 449 410
f 410 449 448
f 410 448 447
f 410 447 413
f 410 413 464
f 410 464 411
f 411 464 412
f 412 464 413
f 413 447 465
f 413 465 445
f 413 445 415
f 415 445 416
f 416 445 417
f 417 466 467
f 417 467 419
f 417 419 418
f 417 445 468
f 417 468 469
f 417 469 466
f 421 425 470
f 421 470 471
f 421 471 422
f 422 424 423
f 422 471 472
f 422 472 473
f 422 473 474
f 422 474 475
f 422 475 427
f 425 463 476
f 425 476 470
f 426 428 429
f 427 475 477
f 427 477 478
f 427 478 428
f 428 478 430
f 428 430 429
f 430 478 477
f 430 477 479
f 430 479 480
f 430 480 481
f 430 481 482
f 430 482 432
f 430 432 431
f 432 482 483
f 432 483 433
f 435 484 485
f 435 485 436
f 436 485 486
f 436 486 437
f 437 486 487
f 437 487 488
f 437 488 452
f 440 489 441
f 440 444 489
f 441 489 442
f 442 489 445
f 443 459 490
f 443 490 491
f 443 491 489
f 443 489 444
f 445 465 446
f 445 489 492
f 445 492 493
f 445 493 468
f 446 465 447
f 450 453 451
f 450 452 488
f 450 488 494
f 456 460 457
f 461 495 462
f 462 476 463
f 462 495 496
f 462 496 497
f 462 497 474
f 462 474 472
f 462 472 471
f 462 471 476
f 468 493 469
f 469 493 498
f 470 476 471
f 472 474 473
f 474 497 499
f 474 499 477
f 474 477 475
f 477 499 500
f 477 500 479
f 481 501 482
f 482 501 502
f 482 502 483
f 484 503 504
f 484 504 485
f 485 504 486
f 486 504 487
f 487 505 488
f 487 504 505
f 488 505 506
f 488 506 494
f 489 507 492
f 492 507 493
f 493 507 498
f 503 505 504

