# https://github.com/mikedh/trimesh
v -0.05288980 0.02376549 -0.01762933
v -0.05311848 0.02376549 -0.01739877
v -0.05210804 0.02571125 -0.01762933
v -0.04305142 0.02376549 -0.01762933
v -0.05279407 0.02528273 -0.01709588
v -0.05326738 0.02376549 -0.01723603
v -0.05368219 0.02471311 -0.01638613
v -0.05348542 0.02579486 -0.01614201
v -0.05246967 0.02677732 -0.01678847
v -0.05198041 0.02601260 -0.01762933
v -0.03328749 0.03217214 -0.01762933
v -0.06618491 0.02376549 0.02321548
v -0.05385768 0.02376549 -0.01658504
v -0.05836738 0.02420620 -0.01129579
v -0.05349074 0.02906276 -0.01453715
v -0.05327802 0.02677732 -0.01589789
v -0.05217186 0.02808901 -0.01647654
v -0.05164538 0.02677732 -0.01762933
v -0.05170387 0.02664841 -0.01762933
v -0.03153785 0.03371551 -0.01762933
v -0.06662099 0.02376549 0.02391167
v -0.03019771 0.03501326 -0.01762933
v -0.02863952 0.03665069 -0.01762933
v -0.05778772 0.02376549 -0.01209596
v -0.05886196 0.02376549 -0.01083467
v -0.05912786 0.02376549 -0.01046397
v -0.05876624 0.02515556 -0.01021533
v -0.05816530 0.02515556 -0.01102906
v -0.05503829 0.02889205 -0.01279667
v -0.05527228 0.02781030 -0.01308599
v -0.05325674 0.03002257 -0.01428399
v -0.05190596 0.02917250 -0.01620530
v -0.05395872 0.03002257 -0.01347026
v -0.05123589 0.02863250 -0.01715465
v -0.05089021 0.02835553 -0.01762933
v -0.06734424 0.02376549 0.02483390
v -0.02851189 0.03679353 -0.01762933
v -0.02732064 0.03813658 -0.01762933
v -0.02432659 0.04156125 -0.01762933
v -0.05978199 0.02376549 -0.00953270
v -0.05985112 0.02380207 -0.00941516
v -0.05853224 0.02621467 -0.00989888
v -0.05678793 0.02757687 -0.01135003
v -0.05476707 0.03002257 -0.01243953
v -0.05368751 0.03110781 -0.01315833
v -0.05277280 0.03167394 -0.01381383
v -0.05213996 0.03115832 -0.01480839
v -0.05244840 0.03002257 -0.01514745
v -0.05086362 0.03002257 -0.01678395
v -0.05008719 0.02991283 -0.01762933
v -0.05040095 0.02933973 -0.01762933
v -0.05057645 0.02901050 -0.01762933
v -0.06752505 0.02376549 0.02505993
v -0.05706978 0.04156125 0.02398852
v -0.04075934 0.04156125 -0.01762933
v -0.05989366 0.02376549 -0.00936995
v -0.06017552 0.02466085 -0.00833471
v -0.05961181 0.02518169 -0.00889528
v -0.05865456 0.02812385 -0.00845677
v -0.05841524 0.02920560 -0.00810867
v -0.05827698 0.02729642 -0.00954174
v -0.05719741 0.02840082 -0.01026958
v -0.05659116 0.02840082 -0.01107879
v -0.05537865 0.03002257 -0.01163032
v -0.05355455 0.03408132 -0.01135907
v -0.05340033 0.03218956 -0.01280119
v -0.05517655 0.03083781 -0.01135907
v -0.05225163 0.03326783 -0.01331655
v -0.05178897 0.03224007 -0.01446482
v -0.05052327 0.03116007 -0.01644942
v -0.05005528 0.03002257 -0.01759768
v -0.05002337 0.03002257 -0.01762933
v -0.06812067 0.02376549 0.02574709
v -0.05823975 0.04024433 0.02453101
v -0.05772922 0.04156125 0.02470732
v -0.04115820 0.04116060 -0.01762933
v -0.04648687 0.04156125 -0.01299106
v -0.06116999 0.02376549 -0.00728138
v -0.06127103 0.02376549 -0.00711411
v -0.05985112 0.02872134 -0.00616475
v -0.05876624 0.03002257 -0.00701917
v -0.05853224 0.03106600 -0.00665752
v -0.05821316 0.03002257 -0.00782838
v -0.05679856 0.03245782 -0.00811319
v -0.05700065 0.03164607 -0.00838443
v -0.05693151 0.02948257 -0.00991696
v -0.05809085 0.02855934 -0.00896761
v -0.05503829 0.03380957 -0.00955530
v -0.05386832 0.03472932 -0.01048205
v -0.05367155 0.03588423 -0.00989888
v -0.05323547 0.03516307 -0.01097934
v -0.05306529 0.03326783 -0.01244405
v -0.05260262 0.03465268 -0.01201006
v -0.05215059 0.03600617 -0.01158059
v -0.05196978 0.03414229 -0.01302270
v -0.04953943 0.03170530 -0.01707780
v -0.04917780 0.03139871 -0.01762933
v -0.06906729 0.02376549 0.02659246
v -0.05793130 0.04138183 0.02481129
v -0.06018616 0.03923400 0.02585558
v -0.05789408 0.04156125 0.02485650
v -0.04196122 0.04033666 -0.01762933
v -0.04355663 0.03867658 -0.01762933
v -0.04514673 0.03701476 -0.01762933
v -0.04589125 0.03617688 -0.01762933
v -0.04713036 0.04156125 -0.01242597
v -0.06017552 0.02953134 -0.00508430
v -0.06223360 0.02376549 -0.00550925
v -0.06331316 0.02440304 -0.00328505
v -0.05961712 0.03005219 -0.00564487
v -0.05826102 0.03214775 -0.00623709
v -0.05691024 0.03425725 -0.00665299
v -0.05709637 0.03310582 -0.00723617
v -0.05784089 0.03162168 -0.00724069
v -0.05994684 0.03061309 -0.00471360
v -0.05886196 0.03162168 -0.00569008
v -0.05652734 0.03353783 -0.00773345
v -0.05398531 0.03646082 -0.00887267
v -0.05329929 0.03696599 -0.00937900
v -0.05221441 0.03770806 -0.01007971
v -0.05272494 0.03648695 -0.01053178
v -0.05655925 0.03533900 -0.00612859
v -0.05175174 0.03708792 -0.01116468
v -0.05026800 0.03889084 -0.01131387
v -0.05067218 0.03780909 -0.01172073
v -0.05114548 0.03654792 -0.01219089
v -0.05053390 0.03600617 -0.01320353
v -0.05160815 0.03522578 -0.01266105
v -0.04845987 0.03250137 -0.01762933
v -0.04674746 0.03522404 -0.01752987
v -0.04857687 0.03232369 -0.01762933
v -0.04867259 0.03217737 -0.01762933
v -0.06996072 0.02376549 0.02727961
v -0.05880346 0.04156125 0.02566119
v -0.05992025 0.04031576 0.02604093
v -0.07010431 0.02376549 0.02738359
v -0.04667832 0.03516307 -0.01762933
v -0.04715695 0.04069376 -0.01305887
v -0.04776852 0.04123551 -0.01205979
v -0.04764089 0.04156125 -0.01193321
v -0.06179752 0.02791133 -0.00346136
v -0.06308449 0.03032916 0.00034510
v -0.06168053 0.03086568 -0.00164402
v -0.06308449 0.02376549 -0.00408974
v -0.06320149 0.02736436 -0.00147224
v -0.06343548 0.02376549 -0.00349752
v -0.07634237 0.02777546 0.02096867
v -0.07149763 0.02782249 0.01282231
v -0.07092860 0.02837817 0.01223462
v -0.06966291 0.03053819 0.01155651
v -0.06653590 0.03083432 0.00648877
v -0.05832484 0.03388970 -0.00471360
v -0.05801107 0.03331660 -0.00569008
v -0.06154226 0.03546268 0.00181886
v -0.06972673 0.03884903 0.01793074
v -0.06011702 0.03581804 -0.00011602
v -0.05691556 0.03588075 -0.00504361
v -0.05975007 0.03176975 -0.00412591
v -0.06490858 0.03245608 0.00487035
v -0.06813663 0.03402732 0.01139376
v -0.05398531 0.03970607 -0.00562679
v -0.05367155 0.03750773 -0.00829402
v -0.05655925 0.03858600 -0.00288270
v -0.05329929 0.03858948 -0.00775605
v -0.05221441 0.03933155 -0.00849745
v -0.05181024 0.03878981 -0.00957791
v -0.05032650 0.04059273 -0.00975874
v -0.05124652 0.03830032 -0.01069905
v -0.04873109 0.04156125 -0.01077590
v -0.04877895 0.04069376 -0.01144949
v -0.04966175 0.03835084 -0.01233103
v -0.05013505 0.03708792 -0.01280119
v -0.04727394 0.03428338 -0.01762933
v -0.04864600 0.03889084 -0.01293681
v -0.05948949 0.04156125 0.02612682
v -0.05960649 0.04156125 0.02619464
v -0.07089670 0.02376549 0.02783114
v -0.04813015 0.04156125 -0.01142689
v -0.06637104 0.03164607 0.00676454
v -0.06466395 0.02376549 -0.00141347
v -0.06471713 0.02382297 -0.00128689
v -0.07310369 0.02618331 0.01446334
v -0.07649127 0.02677732 0.02070647
v -0.07715071 0.02677732 0.02190446
v -0.07662423 0.02835030 0.02189542
v -0.07612965 0.02885721 0.02134841
v -0.07461400 0.03237246 0.02115402
v -0.07483205 0.03129071 0.02078784
v -0.07504477 0.02997902 0.02025892
v -0.06477563 0.02376549 -0.00122360
v -0.07299732 0.03400467 0.01952204
v -0.06804090 0.03216866 0.00992905
v -0.05897364 0.03331660 -0.00412591
v -0.05979262 0.03326783 -0.00283298
v -0.06470649 0.03529023 0.00682330
v -0.06650931 0.03727954 0.01139376
v -0.07166249 0.03799025 0.02037193
v -0.07147636 0.03907723 0.02097319
v -0.07115196 0.04015898 0.02148404
v -0.06947146 0.03986982 0.01854556
v -0.06829617 0.03916781 0.01600491
v -0.06652526 0.03893091 0.01299410
v -0.06154757 0.03713670 0.00343276
v -0.06011702 0.03744154 0.00150693
v -0.05922891 0.03651134 -0.00080769
v -0.05691556 0.03750425 -0.00342067
v -0.06672203 0.03445235 0.00942725
v -0.06526488 0.03480597 0.00733867
v -0.07330045 0.03488958 0.02063414
v -0.07309837 0.03585288 0.02097319
v -0.07243893 0.03644166 0.02037193
v -0.05485216 0.03986807 -0.00416207
v -0.05511274 0.04048124 -0.00314943
v -0.05367155 0.04074079 -0.00504813
v -0.05367155 0.03912949 -0.00667108
v -0.05691556 0.03912252 -0.00179773
v -0.05329929 0.04021124 -0.00612859
v -0.05275685 0.03977227 -0.00731302
v -0.05221441 0.04094982 -0.00687451
v -0.05148052 0.03982627 -0.00899021
v -0.05058708 0.04123376 -0.00877322
v -0.05009251 0.04156125 -0.00910323
v -0.04978938 0.04156125 -0.00948749
v -0.04919376 0.04156125 -0.01023793
v -0.04935330 0.04118499 -0.01038260
v -0.06067010 0.04156125 0.02675973
v -0.06512130 0.03488958 0.02747852
v -0.06650399 0.03238988 0.02760058
v -0.06492985 0.03574140 0.02757798
v -0.06311108 0.04017640 0.02767291
v -0.06283986 0.04138183 0.02779498
v -0.06593496 0.03488958 0.02785827
v -0.06734424 0.03326783 0.02812047
v -0.06896625 0.03002257 0.02817020
v -0.07197626 0.02376549 0.02821992
v -0.06086154 0.04156125 0.02685918
v -0.06624341 0.02376549 0.00130349
v -0.06691880 0.02376549 0.00247436
v -0.07086479 0.02376549 0.00932779
v -0.07352381 0.02376549 0.01402031
v -0.07715071 0.02376549 0.02048947
v -0.07808137 0.02376549 0.02217571
v -0.07173694 0.02376549 0.01086032
v -0.07786865 0.02580009 0.02279957
v -0.07641682 0.02958186 0.02242887
v -0.07468846 0.03417887 0.02263682
v -0.07486927 0.03326783 0.02229325
v -0.07443319 0.03326783 0.02148404
v -0.06934914 0.03654443 0.01541722
v -0.06735487 0.03652876 0.01215325
v -0.07141786 0.03735096 0.01944971
v -0.07282714 0.03693463 0.02143883
v -0.07252402 0.03809477 0.02194967
v -0.07172099 0.03967472 0.02197679
v -0.07148700 0.04070769 0.02256901
v -0.06972141 0.04048472 0.01955820
v -0.06651994 0.04054744 0.01462609
v -0.06189325 0.03929497 0.00613615
v -0.06154757 0.03876019 0.00505570
v -0.05977135 0.03852329 0.00204941
v -0.05834079 0.03882639 0.00012358
v -0.07410879 0.03478681 0.02202200
v -0.07334831 0.03644166 0.02194967
v -0.05546373 0.04097247 -0.00206897
v -0.05654861 0.04020427 -0.00123264
v -0.05833016 0.04043595 0.00176461
v -0.05689428 0.04071118 -0.00015218
v -0.05800576 0.04143931 0.00235682
v -0.05362369 0.04156125 -0.00418468
v -0.05294830 0.04156125 -0.00517924
v -0.05248563 0.04156125 -0.00584830
v -0.05479366 0.04146022 -0.00253913
v -0.06011702 0.03906155 0.00312987
v -0.06123381 0.03980537 0.00562983
v -0.06153694 0.04037672 0.00668768
v -0.05153370 0.04156125 -0.00716384
v -0.05049668 0.04156125 -0.00856074
v -0.06190388 0.04156125 0.02738811
v -0.06265905 0.04156125 0.02774977
v -0.06278668 0.04156125 0.02780402
v -0.06390878 0.04156125 0.02821540
v -0.06397792 0.03968517 0.02793964
v -0.06410023 0.04138183 0.02825609
v -0.07058825 0.02677732 0.02821540
v -0.07221557 0.02376549 0.02829226
v -0.07812924 0.02376549 0.02229325
v -0.07857595 0.02376549 0.02351384
v -0.07801755 0.02635925 0.02388002
v -0.07774634 0.02685048 0.02341439
v -0.07619879 0.03066361 0.02294423
v -0.07724644 0.02840082 0.02352741
v -0.07598606 0.03162343 0.02350480
v -0.07532662 0.03326783 0.02352741
v -0.07482141 0.03444887 0.02352741
v -0.07445978 0.03525887 0.02352741
v -0.07312496 0.03752689 0.02251928
v -0.07161463 0.04096725 0.02352741
v -0.07126364 0.04156125 0.02352741
v -0.07082756 0.04156125 0.02258709
v -0.07057229 0.04156125 0.02204009
v -0.07052443 0.04156125 0.02194063
v -0.07039148 0.04156125 0.02172363
v -0.06945550 0.04148112 0.02017302
v -0.06829617 0.04077737 0.01763237
v -0.06331316 0.04060840 0.00969397
v -0.05681983 0.04156125 0.00066607
v -0.06010638 0.04066589 0.00476637
v -0.06205811 0.04156125 0.00875366
v -0.05997343 0.04156125 0.00553038
v -0.05806426 0.04156125 0.00258286
v -0.05483620 0.04156125 -0.00235830
v -0.06628063 0.04156125 0.01530872
v -0.06410023 0.04156125 0.02826965
v -0.06572224 0.03975833 0.02844596
v -0.06734424 0.03488958 0.02833746
v -0.06896625 0.03164607 0.02836911
v -0.07058825 0.02840082 0.02839623
v -0.07221557 0.02515556 0.02840980
v -0.07360358 0.02376549 0.02850925
v -0.07865572 0.02376549 0.02516843
v -0.07801755 0.02635925 0.02483842
v -0.07636364 0.03106774 0.02402921
v -0.07659232 0.03008354 0.02350480
v -0.07386948 0.03651308 0.02352741
v -0.07487991 0.03454642 0.02515035
v -0.07284310 0.03858252 0.02352741
v -0.07224216 0.03975833 0.02352741
v -0.07324727 0.03777077 0.02352741
v -0.07163590 0.04103170 0.02515035
v -0.07135936 0.04156125 0.02515035
v -0.06940764 0.04156125 0.02018206
v -0.06686562 0.04106828 0.01570654
v -0.06449377 0.04156125 0.01253299
v -0.06519575 0.04156125 0.01362248
v -0.06554143 0.04156125 0.02851377
v -0.06572224 0.04138183 0.02852734
v -0.06896625 0.03326783 0.02849117
v -0.07058825 0.03002257 0.02850925
v -0.07221557 0.02677732 0.02852281
v -0.07383757 0.02376549 0.02852734
v -0.07860254 0.02376549 0.02535830
v -0.07788460 0.02592202 0.02591887
v -0.07774634 0.02685048 0.02528597
v -0.07726239 0.02840082 0.02515035
v -0.07636364 0.03106774 0.02481129
v -0.07544362 0.03326783 0.02515035
v -0.07476291 0.03430951 0.02614491
v -0.07314091 0.03755477 0.02614943
v -0.07325791 0.03779167 0.02515035
v -0.07151890 0.04079305 0.02614943
v -0.07129023 0.04156125 0.02542159
v -0.06572224 0.04156125 0.02852281
v -0.06734424 0.03975833 0.02855446
v -0.06734424 0.03813658 0.02854090
v -0.06896625 0.03488958 0.02854994
v -0.07058825 0.03164607 0.02855446
v -0.07221557 0.02840082 0.02855446
v -0.07383757 0.02515556 0.02854090
v -0.07522558 0.02376549 0.02847761
v -0.07816646 0.02376549 0.02669644
v -0.07793247 0.02376549 0.02714851
v -0.07774634 0.02396581 0.02737455
v -0.07644341 0.02971250 0.02626245
v -0.07625728 0.03079426 0.02589175
v -0.07660827 0.03016193 0.02527241
v -0.07606583 0.03162343 0.02527241
v -0.07498627 0.03326783 0.02643876
v -0.07297605 0.03560901 0.02755086
v -0.07274206 0.03651308 0.02729318
v -0.07339617 0.03651308 0.02648396
v -0.07112005 0.03975833 0.02729318
v -0.07060952 0.04145151 0.02685014
v -0.07057229 0.04156125 0.02681850
v -0.06716874 0.04156125 0.02847761
v -0.06734424 0.04138183 0.02847761
v -0.06896625 0.03813658 0.02850021
v -0.07058825 0.03326783 0.02855446
v -0.07221557 0.03002257 0.02854090
v -0.07383757 0.02677732 0.02850925
v -0.07545958 0.02376549 0.02844596
v -0.07778356 0.02376549 0.02741975
v -0.07626792 0.02758210 0.02758250
v -0.07452892 0.03217911 0.02749661
v -0.07429493 0.03326783 0.02724797
v -0.07321004 0.03452726 0.02770908
v -0.07161463 0.03778296 0.02772264
v -0.07135404 0.03886645 0.02755086
v -0.06986500 0.04156125 0.02763675
v -0.07046062 0.04156125 0.02696316
v -0.06734424 0.04156125 0.02844596
v -0.06896625 0.03975833 0.02836007
v -0.07058825 0.03651308 0.02836007
v -0.07058825 0.03488958 0.02850021
v -0.07221557 0.03164607 0.02847309
v -0.07545958 0.02515556 0.02832842
v -0.07685290 0.02376549 0.02799841
v -0.07707626 0.02376549 0.02791251
v -0.07645937 0.02650035 0.02770456
v -0.07473100 0.03109736 0.02764579
v -0.07527876 0.02840082 0.02792156
v -0.07348127 0.03326783 0.02784922
v -0.07193371 0.03651308 0.02787635
v -0.06999263 0.04102995 0.02772264
v -0.06909920 0.04149505 0.02799389
v -0.06907792 0.04156125 0.02798485
v -0.06902474 0.04156125 0.02800293
v -0.07072652 0.03824980 0.02801197
v -0.07234852 0.03499758 0.02800293
v -0.07221557 0.03326783 0.02833294
v -0.07383757 0.03002257 0.02823801
v -0.07561912 0.02693584 0.02800745
v -0.07670400 0.02515556 0.02784470
v -0.07392798 0.03164084 0.02794416
v -0.07031171 0.03975833 0.02787635
f 1 2 3
f 1 3 10
f 1 10 19
f 1 19 18
f 1 18 35
f 1 35 52
f 1 52 51
f 1 51 50
f 1 50 72
f 1 72 97
f 1 97 132
f 1 132 131
f 1 131 129
f 1 129 173
f 1 173 137
f 1 137 105
f 1 105 104
f 1 104 103
f 1 103 102
f 1 102 76
f 1 76 55
f 1 55 39
f 1 39 38
f 1 38 37
f 1 37 23
f 1 23 22
f 1 22 20
f 1 20 11
f 1 11 4
f 1 4 12
f 1 12 21
f 1 21 36
f 1 36 53
f 1 53 73
f 1 73 98
f 1 98 133
f 1 133 136
f 1 136 177
f 1 177 235
f 1 235 285
f 1 285 319
f 1 319 340
f 1 340 359
f 1 359 380
f 1 380 396
f 1 396 397
f 1 397 381
f 1 381 361
f 1 361 360
f 1 360 341
f 1 341 320
f 1 320 287
f 1 287 286
f 1 286 242
f 1 242 241
f 1 241 240
f 1 240 243
f 1 243 239
f 1 239 238
f 1 238 237
f 1 237 190
f 1 190 180
f 1 180 146
f 1 146 144
f 1 144 108
f 1 108 79
f 1 79 78
f 1 78 56
f 1 56 40
f 1 40 26
f 1 26 25
f 1 25 24
f 1 24 13
f 1 13 6
f 1 6 2
f 2 5 3
f 2 6 7
f 2 7 8
f 2 8 5
f 3 9 10
f 3 5 9
f 4 11 12
f 5 8 9
f 6 13 7
f 7 13 14
f 7 14 8
f 8 15 16
f 8 16 9
f 8 14 15
f 9 17 18
f 9 18 19
f 9 19 10
f 9 16 17
f 11 20 12
f 12 20 22
f 12 22 23
f 12 23 21
f 13 24 14
f 14 24 25
f 14 25 26
f 14 26 27
f 14 27 28
f 14 28 29
f 14 29 30
f 14 30 15
f 15 31 32
f 15 32 17
f 15 17 16
f 15 30 29
f 15 29 33
f 15 33 31
f 17 32 34
f 17 34 18
f 18 34 35
f 21 23 37
f 21 37 38
f 21 38 39
f 21 39 36
f 26 40 41
f 26 41 27
f 27 42 28
f 27 41 42
f 28 42 43
f 28 43 29
f 29 44 45
f 29 45 33
f 29 43 44
f 31 33 45
f 31 45 46
f 31 46 47
f 31 47 48
f 31 48 32
f 32 48 47
f 32 47 49
f 32 49 50
f 32 50 51
f 32 51 52
f 32 52 34
f 34 52 35
f 36 39 54
f 36 54 53
f 39 55 77
f 39 77 106
f 39 106 140
f 39 140 178
f 39 178 169
f 39 169 224
f 39 224 223
f 39 223 222
f 39 222 277
f 39 277 276
f 39 276 271
f 39 271 270
f 39 270 269
f 39 269 311
f 39 311 306
f 39 306 310
f 39 310 309
f 39 309 308
f 39 308 333
f 39 333 334
f 39 334 312
f 39 312 331
f 39 331 302
f 39 302 301
f 39 301 300
f 39 300 299
f 39 299 298
f 39 298 330
f 39 330 351
f 39 351 373
f 39 373 389
f 39 389 388
f 39 388 405
f 39 405 406
f 39 406 390
f 39 390 374
f 39 374 352
f 39 352 335
f 39 335 313
f 39 313 281
f 39 281 280
f 39 280 279
f 39 279 278
f 39 278 236
f 39 236 226
f 39 226 176
f 39 176 175
f 39 175 134
f 39 134 101
f 39 101 75
f 39 75 54
f 40 56 41
f 41 56 57
f 41 57 58
f 41 58 42
f 42 59 60
f 42 60 61
f 42 61 43
f 42 58 59
f 43 61 62
f 43 62 63
f 43 63 44
f 44 63 64
f 44 64 45
f 45 65 66
f 45 66 46
f 45 64 67
f 45 67 65
f 46 66 68
f 46 68 47
f 47 68 69
f 47 69 70
f 47 70 49
f 49 70 71
f 49 71 50
f 50 71 72
f 53 54 74
f 53 74 73
f 54 75 74
f 55 76 77
f 56 78 57
f 57 78 79
f 57 79 80
f 57 80 58
f 58 80 81
f 58 81 59
f 59 81 60
f 60 81 82
f 60 82 83
f 60 83 84
f 60 84 85
f 60 85 86
f 60 86 87
f 60 87 61
f 61 87 62
f 62 87 86
f 62 86 63
f 63 86 64
f 64 86 67
f 65 88 89
f 65 89 90
f 65 90 91
f 65 91 92
f 65 92 66
f 65 67 84
f 65 84 88
f 66 92 68
f 67 86 85
f 67 85 84
f 68 93 94
f 68 94 95
f 68 95 69
f 68 92 93
f 69 95 96
f 69 96 70
f 70 96 97
f 70 97 72
f 70 72 71
f 73 74 75
f 73 75 99
f 73 99 100
f 73 100 98
f 75 101 99
f 76 102 77
f 77 102 103
f 77 103 104
f 77 104 105
f 77 105 106
f 79 107 80
f 79 108 109
f 79 109 107
f 80 110 81
f 80 107 110
f 81 110 82
f 82 111 112
f 82 112 113
f 82 113 114
f 82 114 83
f 82 110 115
f 82 115 116
f 82 116 111
f 83 114 84
f 84 114 117
f 84 117 88
f 88 117 89
f 89 117 90
f 90 118 119
f 90 119 120
f 90 120 121
f 90 121 91
f 90 117 112
f 90 112 122
f 90 122 118
f 91 121 94
f 91 94 93
f 91 93 92
f 94 123 124
f 94 124 125
f 94 125 126
f 94 126 127
f 94 127 128
f 94 128 95
f 94 121 123
f 95 129 96
f 95 128 130
f 95 130 129
f 96 129 131
f 96 131 132
f 96 132 97
f 98 100 133
f 99 101 134
f 99 134 100
f 100 134 135
f 100 135 136
f 100 136 133
f 105 137 130
f 105 130 138
f 105 138 106
f 106 138 139
f 106 139 140
f 107 109 141
f 107 141 142
f 107 142 143
f 107 143 115
f 107 115 110
f 108 144 109
f 109 145 141
f 109 144 146
f 109 146 147
f 109 147 148
f 109 148 149
f 109 149 150
f 109 150 151
f 109 151 145
f 111 116 152
f 111 152 153
f 111 153 112
f 112 117 113
f 112 153 152
f 112 152 154
f 112 154 155
f 112 155 156
f 112 156 157
f 112 157 122
f 113 117 114
f 115 158 116
f 115 143 159
f 115 159 160
f 115 160 158
f 116 158 152
f 118 161 162
f 118 162 119
f 118 122 163
f 118 163 161
f 119 162 164
f 119 164 165
f 119 165 166
f 119 166 120
f 120 166 167
f 120 167 168
f 120 168 123
f 120 123 121
f 122 157 206
f 122 206 163
f 123 168 169
f 123 169 124
f 124 169 170
f 124 170 139
f 124 139 171
f 124 171 125
f 125 171 126
f 126 171 172
f 126 172 127
f 127 172 130
f 127 130 128
f 129 130 173
f 130 137 173
f 130 172 174
f 130 174 139
f 130 139 138
f 134 175 135
f 135 175 176
f 135 176 177
f 135 177 136
f 139 174 171
f 139 170 140
f 140 170 178
f 141 145 151
f 141 151 142
f 142 151 179
f 142 179 143
f 143 179 159
f 146 180 181
f 146 181 147
f 147 182 183
f 147 183 184
f 147 184 185
f 147 185 186
f 147 186 187
f 147 187 188
f 147 188 189
f 147 189 149
f 147 149 148
f 147 181 190
f 147 190 182
f 149 189 150
f 150 189 191
f 150 191 151
f 151 191 192
f 151 192 179
f 152 158 193
f 152 193 194
f 152 194 195
f 152 195 196
f 152 196 154
f 154 196 155
f 155 196 197
f 155 197 198
f 155 198 199
f 155 199 200
f 155 200 201
f 155 201 202
f 155 202 156
f 156 203 259
f 156 259 204
f 156 204 205
f 156 205 157
f 156 202 203
f 157 205 206
f 158 195 194
f 158 194 193
f 158 160 207
f 158 207 208
f 158 208 195
f 159 179 209
f 159 209 210
f 159 210 160
f 160 210 211
f 160 211 207
f 161 212 213
f 161 213 214
f 161 214 215
f 161 215 162
f 161 163 212
f 162 215 164
f 163 206 216
f 163 216 213
f 163 213 212
f 164 215 217
f 164 217 218
f 164 218 165
f 165 218 219
f 165 219 220
f 165 220 166
f 166 220 167
f 167 220 221
f 167 221 222
f 167 222 223
f 167 223 224
f 167 224 225
f 167 225 168
f 168 225 169
f 169 225 224
f 169 178 170
f 171 174 172
f 176 226 177
f 177 227 228
f 177 228 229
f 177 229 230
f 177 230 231
f 177 231 232
f 177 232 233
f 177 233 234
f 177 234 235
f 177 226 236
f 177 236 227
f 179 192 209
f 180 190 181
f 182 237 238
f 182 238 239
f 182 239 183
f 182 190 237
f 183 240 241
f 183 241 242
f 183 242 184
f 183 239 243
f 183 243 240
f 184 242 244
f 184 244 185
f 185 245 186
f 185 244 245
f 186 245 246
f 186 246 247
f 186 247 248
f 186 248 187
f 187 248 210
f 187 210 209
f 187 209 188
f 188 209 189
f 189 209 191
f 191 209 192
f 195 208 249
f 195 249 250
f 195 250 196
f 196 250 197
f 197 251 211
f 197 211 210
f 197 210 198
f 197 250 251
f 198 210 252
f 198 252 253
f 198 253 254
f 198 254 255
f 198 255 199
f 199 255 256
f 199 256 200
f 200 256 202
f 200 202 201
f 202 256 257
f 202 257 258
f 202 258 259
f 202 259 203
f 204 260 205
f 204 259 260
f 205 260 206
f 206 260 261
f 206 261 216
f 207 211 208
f 208 211 249
f 210 248 262
f 210 262 263
f 210 263 252
f 211 251 249
f 213 264 214
f 213 216 265
f 213 265 266
f 213 266 267
f 213 267 268
f 213 268 264
f 214 269 270
f 214 270 271
f 214 271 219
f 214 219 217
f 214 217 215
f 214 264 272
f 214 272 269
f 216 261 273
f 216 273 258
f 216 258 257
f 216 257 274
f 216 274 275
f 216 275 266
f 216 266 265
f 217 219 218
f 219 271 276
f 219 276 277
f 219 277 221
f 219 221 220
f 221 277 222
f 227 229 228
f 227 236 278
f 227 278 229
f 229 278 230
f 230 278 279
f 230 279 231
f 231 279 280
f 231 280 281
f 231 281 282
f 231 282 232
f 232 282 233
f 233 282 283
f 233 283 234
f 234 284 235
f 234 283 284
f 235 284 285
f 242 286 244
f 244 286 287
f 244 287 288
f 244 288 289
f 244 289 245
f 245 290 246
f 245 289 291
f 245 291 290
f 246 262 248
f 246 248 247
f 246 290 292
f 246 292 293
f 246 293 294
f 246 294 295
f 246 295 296
f 246 296 263
f 246 263 262
f 249 251 250
f 252 263 296
f 252 296 253
f 253 296 254
f 254 296 255
f 255 296 297
f 255 297 298
f 255 298 299
f 255 299 300
f 255 300 301
f 255 301 302
f 255 302 256
f 256 302 303
f 256 303 304
f 256 304 257
f 257 304 332
f 257 332 305
f 257 305 275
f 257 275 274
f 258 273 259
f 259 273 261
f 259 261 260
f 264 268 306
f 264 306 272
f 266 307 308
f 266 308 309
f 266 309 268
f 266 268 267
f 266 275 307
f 268 309 310
f 268 310 306
f 269 272 311
f 272 306 311
f 275 305 312
f 275 312 307
f 281 313 283
f 281 283 282
f 283 313 314
f 283 314 315
f 283 315 285
f 283 285 284
f 285 315 316
f 285 316 317
f 285 317 318
f 285 318 319
f 287 320 288
f 288 291 289
f 288 320 321
f 288 321 345
f 288 345 322
f 288 322 291
f 290 291 323
f 290 323 322
f 290 322 292
f 291 322 323
f 292 322 293
f 293 322 294
f 294 322 295
f 295 324 296
f 295 322 325
f 295 325 324
f 296 326 327
f 296 327 297
f 296 324 328
f 296 328 326
f 297 329 330
f 297 330 298
f 297 327 329
f 302 331 303
f 303 331 312
f 303 312 304
f 304 312 332
f 305 332 312
f 307 333 308
f 307 312 334
f 307 334 333
f 313 335 314
f 314 335 336
f 314 336 337
f 314 337 317
f 314 317 316
f 314 316 315
f 317 338 339
f 317 339 318
f 317 337 338
f 318 339 319
f 319 339 340
f 320 341 342
f 320 342 321
f 321 342 343
f 321 343 344
f 321 344 345
f 322 345 346
f 322 346 325
f 324 325 328
f 325 346 347
f 325 347 348
f 325 348 349
f 325 349 326
f 325 326 328
f 326 349 329
f 326 329 327
f 329 350 330
f 329 349 348
f 329 348 350
f 330 350 351
f 335 352 336
f 336 352 353
f 336 353 354
f 336 354 338
f 336 338 337
f 338 354 339
f 339 354 355
f 339 355 356
f 339 356 340
f 340 356 357
f 340 357 358
f 340 358 359
f 341 360 342
f 342 360 361
f 342 361 362
f 342 362 363
f 342 363 364
f 342 364 343
f 343 364 344
f 344 364 365
f 344 365 345
f 345 364 366
f 345 366 346
f 345 365 364
f 346 366 364
f 346 364 347
f 347 364 367
f 347 367 368
f 347 368 369
f 347 369 370
f 347 370 348
f 348 370 350
f 350 371 372
f 350 372 373
f 350 373 351
f 350 370 371
f 352 374 353
f 353 356 355
f 353 355 354
f 353 374 375
f 353 375 376
f 353 376 377
f 353 377 357
f 353 357 356
f 357 377 378
f 357 378 358
f 358 379 359
f 358 378 379
f 359 379 380
f 361 381 362
f 362 381 382
f 362 382 363
f 363 382 367
f 363 367 364
f 367 383 384
f 367 384 368
f 367 382 383
f 368 385 386
f 368 386 387
f 368 387 369
f 368 384 383
f 368 383 385
f 369 387 371
f 369 371 370
f 371 387 388
f 371 388 389
f 371 389 372
f 372 389 373
f 374 390 375
f 375 390 391
f 375 391 376
f 376 391 392
f 376 392 393
f 376 393 377
f 377 393 378
f 378 393 394
f 378 394 379
f 379 394 380
f 380 395 396
f 380 394 395
f 381 397 398
f 381 398 382
f 382 399 383
f 382 398 400
f 382 400 401
f 382 401 399
f 383 399 385
f 385 401 402
f 385 402 386
f 385 399 401
f 386 402 403
f 386 403 387
f 387 403 388
f 388 403 404
f 388 404 405
f 390 406 391
f 391 406 404
f 391 404 407
f 391 407 392
f 392 407 408
f 392 408 409
f 392 409 394
f 392 394 393
f 394 409 395
f 395 410 411
f 395 411 396
f 395 409 410
f 396 411 397
f 397 411 400
f 397 400 412
f 397 412 398
f 398 412 400
f 400 411 410
f 400 410 413
f 400 413 401
f 401 408 402
f 401 413 408
f 402 408 407
f 402 407 414
f 402 414 403
f 403 414 404
f 404 406 405
f 404 414 407
f 408 413 409
f 409 413 410

