# https://github.com/mikedh/trimesh
v -0.07708439 -0.00405985 0.02855446
v -0.07221282 -0.01217729 0.02854314
v -0.07870468 0.00088682 0.02852429
v -0.07708439 -0.01379669 0.02855446
v -0.06734480 -0.02191413 0.02855446
v -0.04563994 -0.06085469 0.02854692
v -0.07862990 0.00088682 0.02852051
v -0.08032854 0.00088682 0.02808301
v -0.07870468 -0.00730547 0.02852429
v -0.07708439 -0.01542290 0.02855069
v -0.07546053 -0.02191413 0.02855446
v -0.04625245 -0.06085469 0.02855446
v -0.04563994 -0.06247409 0.02854692
v -0.04563994 -0.05922848 0.02841868
v -0.07708439 0.00088682 0.02836965
v -0.08114047 0.00088682 0.02764928
v -0.08032854 -0.00730547 0.02808301
v -0.07870468 -0.00893167 0.02852051
v -0.07708439 -0.01704231 0.02853183
v -0.07546053 -0.02353353 0.02853560
v -0.07383667 -0.02677915 0.02855446
v -0.04787631 -0.06085469 0.02855446
v -0.04563994 -0.06410030 0.02849788
v -0.04949660 -0.06085469 0.02855069
v -0.04563994 -0.05760907 0.02802267
v -0.07562078 0.00088682 0.02786426
v -0.07566351 0.00088682 0.02788312
v -0.07700604 0.00088682 0.02834702
v -0.08117965 0.00088682 0.02762665
v -0.08117965 -0.00730547 0.02762665
v -0.08032854 -0.00893167 0.02805661
v -0.07870468 -0.01055108 0.02848280
v -0.07708439 -0.01866851 0.02848280
v -0.07546053 -0.02515974 0.02848280
v -0.07383667 -0.02840535 0.02853183
v -0.07221282 -0.03165097 0.02855069
v -0.07059251 -0.03488978 0.02855446
v -0.05112046 -0.05922848 0.02855446
v -0.04625245 -0.06410030 0.02846771
v -0.04563994 -0.06580136 0.02823387
v -0.05112046 -0.06085469 0.02848657
v -0.05274432 -0.05922848 0.02849788
v -0.04563994 -0.05664967 0.02763042
v -0.07170714 0.00088682 0.02562017
v -0.07247990 0.00088682 0.02623871
v -0.07251907 0.00088682 0.02626511
v -0.07384379 0.00088682 0.02697417
v -0.08158917 0.00088682 0.02681576
v -0.08161054 -0.00244045 0.02677427
v -0.08161054 -0.00730547 0.02677427
v -0.08116184 -0.00893167 0.02760779
v -0.07870468 -0.01217729 0.02842245
v -0.08114047 -0.00974818 0.02758894
v -0.08040333 -0.01039458 0.02791706
v -0.07870468 -0.01542290 0.02826782
v -0.07870468 -0.01379669 0.02835457
v -0.07708439 -0.02028792 0.02840737
v -0.07708439 -0.02191413 0.02832062
v -0.07546053 -0.02677915 0.02839228
v -0.07383667 -0.03002476 0.02845262
v -0.07221282 -0.03327037 0.02850166
v -0.07059251 -0.03650918 0.02849788
v -0.06896866 -0.03813539 0.02854314
v -0.06572450 -0.04300041 0.02855446
v -0.05274432 -0.05760907 0.02855446
v -0.04949660 -0.06247409 0.02841491
v -0.04563994 -0.06716220 0.02786803
v -0.04787631 -0.06410030 0.02828668
v -0.05274432 -0.06085469 0.02823765
v -0.05436818 -0.05760907 0.02849788
v -0.05436818 -0.05922848 0.02824519
v -0.04563994 -0.05610534 0.02730984
v -0.07114805 0.00088682 0.02480928
v -0.08160698 0.00088682 0.02677427
v -0.08199514 0.00088682 0.02522793
v -0.08201651 -0.00244045 0.02515250
v -0.08201651 -0.00730547 0.02515250
v -0.08199514 -0.00893167 0.02515250
v -0.08157137 -0.00893167 0.02677427
v -0.08138975 -0.01039458 0.02681576
v -0.08129361 -0.01217729 0.02629906
v -0.07951661 -0.01785881 0.02758894
v -0.07959140 -0.01704231 0.02766059
v -0.07973740 -0.01542290 0.02778506
v -0.07986916 -0.01379669 0.02787180
v -0.07870468 -0.01704231 0.02812073
v -0.07708439 -0.02353353 0.02816976
v -0.07546053 -0.02840535 0.02821502
v -0.07383667 -0.03165097 0.02832439
v -0.07221282 -0.03488978 0.02839605
v -0.06896866 -0.03975480 0.02846394
v -0.06572450 -0.04462662 0.02849788
v -0.06734480 -0.04138100 0.02852429
v -0.06410065 -0.04624602 0.02853560
v -0.06248034 -0.04787223 0.02855446
v -0.05923619 -0.05111784 0.02855446
v -0.04595331 -0.06703972 0.02781523
v -0.04563994 -0.06797871 0.02741921
v -0.05124154 -0.06260337 0.02803021
v -0.05274432 -0.06208625 0.02781146
v -0.05425422 -0.06073901 0.02780769
v -0.05923619 -0.05436345 0.02824519
v -0.06085649 -0.05111784 0.02849788
v -0.05587808 -0.05911961 0.02780769
v -0.04563994 -0.05579234 0.02707977
v -0.07110888 0.00088682 0.02473385
v -0.04563994 -0.05482615 0.02633677
v -0.08201294 0.00088682 0.02515250
v -0.08177079 0.00088682 0.02353072
v -0.08177079 -0.00893167 0.02353072
v -0.08172805 -0.01055108 0.02353072
v -0.08187762 -0.01055108 0.02515250
v -0.08162478 -0.01217729 0.02515250
v -0.08119033 -0.01323194 0.02607276
v -0.07976589 -0.01850521 0.02680445
v -0.07964481 -0.02028792 0.02624248
v -0.07791412 -0.02443169 0.02760779
v -0.07802096 -0.02353353 0.02770585
v -0.07819545 -0.02191413 0.02783786
v -0.07672828 -0.02677915 0.02790952
v -0.07647544 -0.02840535 0.02775488
v -0.07499759 -0.03165097 0.02784540
v -0.07353042 -0.03488978 0.02791329
v -0.07393994 -0.03333161 0.02800758
v -0.07235882 -0.03665207 0.02803775
v -0.07059251 -0.03813539 0.02835834
v -0.06734480 -0.04300041 0.02842245
v -0.06410065 -0.04787223 0.02843754
v -0.06248034 -0.04949163 0.02849788
v -0.05363815 -0.06174604 0.02764551
v -0.05186116 -0.06322936 0.02752105
v -0.05226357 -0.06353555 0.02643860
v -0.04563994 -0.06829850 0.02684593
v -0.05526201 -0.06012663 0.02764928
v -0.06236995 -0.05262838 0.02780769
v -0.06248034 -0.05111784 0.02824519
v -0.05850972 -0.05688102 0.02764928
v -0.07047144 0.00088682 0.02346660
v -0.04563994 -0.05445871 0.02599733
v -0.08132565 0.00088682 0.02236153
v -0.08132565 -0.00893167 0.02236153
v -0.08130428 -0.01055108 0.02241433
v -0.08122237 -0.01217729 0.02257274
v -0.08155356 -0.01217729 0.02353072
v -0.08120102 -0.01491258 0.02409268
v -0.08120102 -0.01491258 0.02462070
v -0.08131140 -0.01378308 0.02515627
v -0.08107637 -0.01431381 0.02570314
v -0.07953798 -0.02118608 0.02601241
v -0.07815984 -0.02504407 0.02680067
v -0.07773607 -0.02551356 0.02735887
v -0.07631519 -0.02932392 0.02763042
v -0.07479461 -0.03283490 0.02771340
v -0.07325265 -0.03620299 0.02776620
v -0.07192793 -0.03813539 0.02788312
v -0.06896866 -0.04138100 0.02826027
v -0.06572450 -0.04624602 0.02832816
v -0.05475990 -0.06124252 0.02677427
v -0.05394797 -0.06201140 0.02677427
v -0.05277993 -0.06288234 0.02689874
v -0.05426134 -0.06224955 0.02515250
v -0.05324999 -0.06305925 0.02515250
v -0.05046166 -0.06502567 0.02616705
v -0.04576814 -0.06839376 0.02646877
v -0.04563994 -0.06845500 0.02650649
v -0.06337774 -0.05200920 0.02764928
v -0.06175388 -0.05363541 0.02764928
v -0.06374097 -0.05111784 0.02781900
v -0.06424665 -0.04963452 0.02804152
v -0.06994439 0.00088682 0.02236530
v -0.04563994 -0.05298220 0.02439064
v -0.05529762 0.00088001 -0.00997598
v -0.05573920 0.00088682 -0.00899537
v -0.05577125 0.00088682 -0.00892371
v -0.05651907 0.00088682 -0.00726044
v -0.05941068 0.00088682 -0.00086008
v -0.06749793 0.00088682 0.01703606
v -0.06797867 0.00088682 0.01809965
v -0.06894017 0.00088682 0.02022304
v -0.06952063 0.00088682 0.02147521
v -0.06955980 0.00088682 0.02155818
v -0.08091969 0.00088682 0.02158835
v -0.08089832 -0.00893167 0.02155064
v -0.08086271 -0.01055108 0.02160344
v -0.08022527 -0.00893167 0.02028339
v -0.07965550 -0.00893167 0.01921980
v -0.07628670 -0.00826486 0.01295144
v -0.08076656 -0.01217729 0.02175807
v -0.08115472 -0.01307545 0.02268966
v -0.08013981 -0.01055108 0.02028339
v -0.07960564 -0.01055108 0.01931409
v -0.07954511 -0.01154450 0.01942724
v -0.08105857 -0.01415732 0.02301024
v -0.08129004 -0.01368782 0.02354203
v -0.08094105 -0.01544331 0.02354203
v -0.08023952 -0.01866851 0.02353072
v -0.07965906 -0.02153989 0.02392296
v -0.07995107 -0.02028792 0.02515250
v -0.08031074 -0.01866851 0.02515250
v -0.07964125 -0.02149907 0.02515250
v -0.07803520 -0.02633687 0.02628020
v -0.07647544 -0.02992950 0.02667998
v -0.07504032 -0.03333161 0.02684593
v -0.07455245 -0.03390997 0.02743430
v -0.07299625 -0.03728486 0.02754745
v -0.07158962 -0.03926489 0.02772848
v -0.07065662 -0.03978882 0.02798872
v -0.06897222 -0.04293236 0.02791329
v -0.06749080 -0.04476270 0.02803775
v -0.06703498 -0.04624602 0.02786426
v -0.06574231 -0.04785182 0.02795478
v -0.05833880 -0.05833712 0.02515250
v -0.05671494 -0.05995653 0.02515250
v -0.05590301 -0.06075262 0.02515250
v -0.05507327 -0.06156232 0.02515250
v -0.06124821 -0.05475130 0.02677427
v -0.06077458 -0.05590121 0.02515250
v -0.05497356 -0.06150108 0.02353072
v -0.05312892 -0.06295038 0.02353072
v -0.05231699 -0.06357637 0.02353072
v -0.05047234 -0.06503247 0.02386261
v -0.05135905 -0.06448133 0.02515250
v -0.05054712 -0.06508691 0.02515250
v -0.04949660 -0.06586939 0.02515250
v -0.04864550 -0.06650219 0.02515250
v -0.04587497 -0.06846180 0.02515250
v -0.04563994 -0.06862510 0.02512987
v -0.06364839 -0.05231539 0.02677427
v -0.06286851 -0.05312509 0.02677427
v -0.06205658 -0.05394159 0.02677427
v -0.06488408 -0.05026731 0.02755122
v -0.06452797 -0.05115867 0.02691759
v -0.06521170 -0.04918544 0.02777751
v -0.04563994 -0.04804233 0.01657970
v -0.04640557 -0.02862309 -0.00997598
v -0.05679684 0.00088682 -0.00997598
v -0.07924597 0.00088682 0.01843532
v -0.07850170 -0.00730547 0.01703606
v -0.07755089 -0.00730547 0.01525210
v -0.07128337 -0.00405985 0.00347347
v -0.06793238 -0.00244045 -0.00282130
v -0.07072784 -0.00405985 0.00243628
v -0.06727001 -0.00244045 -0.00405460
v -0.07003698 -0.00405985 0.00115395
v -0.06789321 -0.00405985 -0.00276472
v -0.06718099 -0.00405985 -0.00405460
v -0.06663258 -0.00405985 -0.00503898
v -0.07586649 -0.00885683 0.01231404
v -0.06668244 -0.00244045 -0.00513704
v -0.07777168 -0.01217729 0.01644392
v -0.07468777 -0.01319792 0.01128817
v -0.07691702 -0.01379669 0.01541428
v -0.07982287 -0.01379669 0.02055494
v -0.08068466 -0.01368782 0.02205226
v -0.08025732 -0.01542290 0.02190516
v -0.07975521 -0.01866851 0.02230118
v -0.07961633 -0.01984564 0.02254633
v -0.07719122 -0.01217729 0.01541428
v -0.07604455 -0.01217729 0.01338140
v -0.07622973 -0.00934673 0.01305705
v -0.06977347 -0.00967334 0.00163671
v -0.07914982 -0.01055108 0.01850320
v -0.07785358 -0.01102057 0.01630060
v -0.07017231 -0.01055108 0.00255320
v -0.07139020 -0.01127913 0.00489158
v -0.07981931 -0.02034916 0.02344020
v -0.07905011 -0.02353353 0.02515250
v -0.07947032 -0.02092751 0.02284052
v -0.07933144 -0.02201619 0.02344020
v -0.07825955 -0.02523459 0.02343643
v -0.07804233 -0.02635048 0.02391919
v -0.07810998 -0.02652739 0.02515250
v -0.07856937 -0.02515974 0.02515250
v -0.07631163 -0.03093652 0.02607276
v -0.07479461 -0.03444070 0.02635186
v -0.07435659 -0.03494421 0.02684593
v -0.06986961 -0.04234040 0.02766059
v -0.07355534 -0.03665207 0.02691382
v -0.07321704 -0.03766590 0.02646500
v -0.06983400 -0.04389857 0.02608030
v -0.06812824 -0.04539549 0.02755122
v -0.06843450 -0.04431362 0.02776997
v -0.06668956 -0.04729387 0.02770962
v -0.05752687 -0.05914002 0.02353072
v -0.05995909 -0.05671091 0.02353072
v -0.05670425 -0.05995653 0.02353072
v -0.05589232 -0.06068458 0.02353072
v -0.06320325 -0.05345850 0.02515250
v -0.06077102 -0.05589441 0.02353072
v -0.05385894 -0.06190254 0.02236907
v -0.05210332 -0.06341987 0.02251616
v -0.05559675 -0.06039199 0.02222198
v -0.05028004 -0.06488959 0.02278394
v -0.05105636 -0.06448133 0.02340625
v -0.04563994 -0.06838015 0.02388147
v -0.06515829 -0.05064835 0.02647255
v -0.06692815 -0.04785182 0.02670638
v -0.06660409 -0.04878400 0.02611802
v -0.04563994 -0.03165097 -0.00997598
v -0.06368043 0.00088682 -0.00997598
v -0.07506525 0.00088682 0.01057535
v -0.07506525 0.00080517 0.01057535
v -0.06960966 -0.00244045 0.00032420
v -0.06668956 -0.00081424 -0.00515967
v -0.06625154 -0.00081424 -0.00597056
v -0.06623374 -0.00244045 -0.00595171
v -0.06692815 -0.00571328 -0.00419415
v -0.06883334 -0.00568606 -0.00081105
v -0.06617320 -0.00405985 -0.00584987
v -0.06464193 -0.00893167 -0.00763383
v -0.07020436 -0.00905415 0.00228165
v -0.06814248 -0.00797908 -0.00159553
v -0.07422839 -0.01376267 0.01066586
v -0.07636505 -0.01379669 0.01444121
v -0.06498736 -0.01055108 -0.00662305
v -0.06958116 -0.01217729 0.00197238
v -0.06491613 -0.01138119 -0.00649481
v -0.07458450 -0.01427979 0.01146921
v -0.07627958 -0.01464722 0.01458831
v -0.07797466 -0.01497382 0.01770363
v -0.07965906 -0.01542290 0.02084535
v -0.07929583 -0.01866851 0.02148652
v -0.07791769 -0.01956667 0.01942724
v -0.07914626 -0.02034916 0.02196551
v -0.06943872 -0.00905415 0.00092011
v -0.06844518 -0.01055108 -0.00050555
v -0.07776456 -0.02064854 0.01969502
v -0.07863702 -0.02191413 0.02190516
v -0.07802808 -0.02474468 0.02248599
v -0.07784646 -0.02582656 0.02283675
v -0.07620480 -0.03063714 0.02303287
v -0.07596621 -0.03155571 0.02355335
v -0.07631519 -0.03095013 0.02411154
v -0.07779305 -0.02734390 0.02515250
v -0.07736928 -0.02840535 0.02515250
v -0.07600894 -0.03180746 0.02515250
v -0.07542136 -0.03327037 0.02515250
v -0.07487295 -0.03462441 0.02515250
v -0.07453821 -0.03543412 0.02515250
v -0.07401473 -0.03650918 0.02515250
v -0.07331675 -0.03785642 0.02515250
v -0.07152552 -0.04078904 0.02625757
v -0.06986961 -0.04396661 0.02515250
v -0.06937106 -0.04477631 0.02515250
v -0.06855913 -0.04603509 0.02515250
v -0.06840956 -0.04581055 0.02646877
v -0.07286805 -0.03866612 0.02515250
v -0.07225554 -0.03975480 0.02515250
v -0.07160031 -0.04091831 0.02515250
v -0.07114093 -0.04172802 0.02515250
v -0.05794707 -0.05794248 0.02190516
v -0.05713514 -0.05875218 0.02190516
v -0.06037930 -0.05550656 0.02190516
v -0.06388698 -0.05264880 0.02515250
v -0.06314983 -0.05337684 0.02353072
v -0.06233790 -0.05426820 0.02353072
v -0.06157939 -0.05507790 0.02353072
v -0.05449993 -0.06095674 0.02175430
v -0.04563994 -0.05048505 -0.00351527
v -0.05161189 -0.06304565 0.02143372
v -0.05109197 -0.06377369 0.02194665
v -0.04563994 -0.05051907 -0.00346624
v -0.05607750 -0.05963673 0.02177316
v -0.05531543 -0.05854125 0.01929523
v -0.05513737 -0.06001096 0.02113954
v -0.04563994 -0.06484876 0.01797518
v -0.04563994 -0.06672673 0.02080764
v -0.04563994 -0.06784942 0.02253879
v -0.04563994 -0.06804674 0.02290840
v -0.04563994 -0.06835293 0.02379850
v -0.04569335 -0.06832572 0.02382490
v -0.05052932 -0.06344029 0.02086798
v -0.04563994 -0.06348792 0.01593476
v -0.06469891 -0.05164857 0.02515250
v -0.06801785 -0.04684479 0.02515250
v -0.06732699 -0.04787223 0.02515250
v -0.06665751 -0.04885884 0.02515250
v -0.06609842 -0.04966855 0.02515250
v -0.06528649 -0.05083887 0.02515250
v -0.04563994 -0.04451094 -0.00997598
v -0.06491613 0.00088682 -0.00811659
v -0.06368043 -0.00244045 -0.00997598
v -0.06839532 0.00088682 -0.00195760
v -0.06730919 0.00088682 -0.00399803
v -0.06671805 0.00088682 -0.00510687
v -0.06668956 0.00080517 -0.00515967
v -0.06544317 -0.00081424 -0.00730193
v -0.06542537 -0.00244045 -0.00730193
v -0.06624798 0.00080517 -0.00597056
v -0.06491257 -0.00327056 -0.00811659
v -0.06527581 -0.00391016 -0.00741885
v -0.06480574 -0.00568606 -0.00793178
v -0.06527581 -0.00568606 -0.00712090
v -0.06376234 -0.00904054 -0.00907457
v -0.06371604 -0.01055108 -0.00878793
v -0.06452441 -0.01055108 -0.00743394
v -0.06472383 -0.00730547 -0.00778846
v -0.06405079 -0.00730547 -0.00892371
v -0.06342403 -0.00730547 -0.00997598
v -0.06514761 -0.01379669 -0.00528037
v -0.06810331 -0.01432742 0.00009413
v -0.06980195 -0.01470846 0.00320946
v -0.06522595 -0.01202079 -0.00573673
v -0.06441758 -0.01202079 -0.00714352
v -0.06481286 -0.01246306 -0.00631378
v -0.06736617 -0.01542290 -0.00081105
v -0.07319211 -0.01542290 0.00944387
v -0.07446343 -0.01542290 0.01168419
v -0.07428181 -0.01704231 0.01200478
v -0.07464860 -0.01785881 0.01297784
v -0.07669979 -0.01869573 0.01692668
v -0.07622261 -0.01926048 0.01631569
v -0.07654310 -0.02028792 0.01737550
v -0.07466997 -0.02116566 0.01456568
v -0.07586649 -0.02193454 0.01709263
v -0.07462011 -0.02426158 0.01627797
v -0.07754377 -0.02523459 0.02193157
v -0.07686004 -0.02692884 0.02175053
v -0.07658940 -0.02840535 0.02216541
v -0.07638998 -0.02955527 0.02251239
v -0.07480173 -0.02317971 0.01596116
v -0.07469489 -0.03418214 0.02263685
v -0.07527535 -0.03327037 0.02353072
v -0.07479461 -0.03443389 0.02353072
v -0.07444562 -0.03524360 0.02353072
v -0.07385804 -0.03650918 0.02353072
v -0.07324909 -0.03775435 0.02353072
v -0.07282176 -0.03856406 0.02353072
v -0.07216652 -0.03975480 0.02353072
v -0.06984113 -0.04391898 0.02353072
v -0.06932121 -0.04472868 0.02353072
v -0.06850928 -0.04596705 0.02353072
v -0.06723797 -0.04787223 0.02353072
v -0.05843850 -0.05681298 0.02107542
v -0.05485960 -0.05323396 0.01177094
v -0.05336038 -0.05335643 0.00998698
v -0.05185404 -0.05347891 0.00820680
v -0.06203521 -0.05397562 0.02219935
v -0.06127670 -0.05445191 0.02175807
v -0.06017632 -0.05368984 0.01929146
v -0.05964571 -0.05477171 0.01999675
v -0.05540089 -0.05215208 0.01106942
v -0.06379083 -0.05256034 0.02353072
v -0.06655067 -0.04870235 0.02269343
v -0.06505502 -0.05049186 0.02249730
v -0.06354511 -0.05224734 0.02234644
v -0.04563994 -0.04986587 -0.00437896
v -0.04563994 -0.05373747 0.00134630
v -0.04563994 -0.06025591 0.01109583
v -0.04563994 -0.06139222 0.01279681
v -0.06459563 -0.05152610 0.02353072
v -0.06661478 -0.04879761 0.02353072
v -0.06602363 -0.04960731 0.02353072
v -0.06521170 -0.05071640 0.02353072
v -0.04563994 -0.04451775 -0.00997221
v -0.04893751 -0.04127213 -0.00997598
v -0.06543962 0.00080517 -0.00730193
v -0.06543249 0.00088682 -0.00730947
v -0.06491613 -0.00081424 -0.00811659
v -0.06367331 -0.00383531 -0.00997598
v -0.06626579 0.00088682 -0.00592908
v -0.06624442 0.00088682 -0.00596679
v -0.06366619 -0.00403944 -0.00997598
v -0.06359141 -0.00553637 -0.00997598
v -0.06486628 -0.00435243 -0.00803739
v -0.06421104 -0.00568606 -0.00892371
v -0.06327803 -0.00965292 -0.00971574
v -0.06335638 -0.00857105 -0.00984020
v -0.06320681 -0.01055108 -0.00959882
v -0.06306436 -0.01217729 -0.00936498
v -0.06356292 -0.01217729 -0.00855409
v -0.06325310 -0.00867311 -0.00997598
v -0.06468466 -0.01379669 -0.00609125
v -0.06501584 -0.01509630 -0.00505030
v -0.06398312 -0.01379669 -0.00730193
v -0.06625510 -0.01542290 -0.00275718
v -0.06540044 -0.01555218 -0.00420547
v -0.06489833 -0.01617817 -0.00484663
v -0.06660053 -0.01648436 -0.00173885
v -0.07137952 -0.01613054 0.00653222
v -0.07173919 -0.01704231 0.00752791
v -0.07295352 -0.01753221 0.00986252
v -0.06525088 -0.01704231 -0.00383585
v -0.07107327 -0.01866851 0.00706778
v -0.07312445 -0.01981843 0.01118634
v -0.07296777 -0.02090030 0.01146167
v -0.07326690 -0.02191413 0.01255920
v -0.06816385 -0.02112484 0.00323586
v -0.06986961 -0.02136979 0.00633987
v -0.06798580 -0.02220671 0.00354513
v -0.07291435 -0.02401663 0.01317019
v -0.07381887 -0.02515974 0.01541428
v -0.07645408 -0.02649337 0.02078124
v -0.07588786 -0.03007239 0.02194665
v -0.07519345 -0.03175983 0.02177693
v -0.07488720 -0.03327037 0.02228987
v -0.07461655 -0.03237222 0.02114708
v -0.07442069 -0.03327037 0.02147898
v -0.07305323 -0.03576072 0.02104902
v -0.07330963 -0.03638671 0.02196174
v -0.07312801 -0.03752981 0.02253879
v -0.07147211 -0.04069378 0.02260291
v -0.06979483 -0.04383733 0.02269343
v -0.05169735 -0.05006999 0.00355267
v -0.04990613 -0.04828049 -0.00109769
v -0.04894819 -0.04732109 -0.00358693
v -0.04882355 -0.04881121 -0.00179920
v -0.06260498 -0.05289375 0.02173167
v -0.06165417 -0.05353334 0.02111691
v -0.05839221 -0.05189352 0.01464488
v -0.05510888 -0.05023329 0.00820680
v -0.05689655 -0.05202281 0.01285338
v -0.05223864 -0.04898812 0.00285116
v -0.06619101 -0.04817162 0.02161098
v -0.06474164 -0.04843698 0.01971388
v -0.06511200 -0.04894049 0.02079632
v -0.06562479 -0.04936236 0.02205603
v -0.06799648 -0.04519817 0.02133566
v -0.06468822 -0.05002236 0.02141486
v -0.04852442 -0.04689923 -0.00466560
v -0.04563994 -0.04929431 -0.00511064
v -0.04563994 -0.04510291 -0.00940270
v -0.04854579 -0.04205462 -0.00959882
v -0.04916542 -0.04104760 -0.00997598
v -0.06313915 -0.00943519 -0.00997598
v -0.06305368 -0.00993190 -0.00997598
v -0.06294685 -0.01055108 -0.00997598
v -0.06284358 -0.01112263 -0.00997598
v -0.06264772 -0.01217729 -0.00997598
v -0.06244117 -0.01320473 -0.00997598
v -0.06289343 -0.01379669 -0.00910475
v -0.06339911 -0.01379669 -0.00829008
v -0.06331008 -0.01466763 -0.00813922
v -0.06458139 -0.01555218 -0.00562735
v -0.06478081 -0.01704231 -0.00464674
v -0.07127625 -0.01704231 0.00671325
v -0.06506570 -0.01838954 -0.00351150
v -0.06645808 -0.01756623 -0.00148616
v -0.06630496 -0.01866851 -0.00122215
v -0.06611978 -0.02029472 -0.00073184
v -0.06645808 -0.02083906 0.00013185
v -0.06506570 -0.02156031 -0.00188972
v -0.06488408 -0.02264218 -0.00157290
v -0.06658985 -0.02288713 0.00152733
v -0.06689966 -0.02347229 0.00240988
v -0.07272205 -0.02515974 0.01350963
v -0.07449903 -0.03039899 0.01973274
v -0.07480885 -0.03129034 0.02081518
v -0.07139376 -0.03080724 0.01462225
v -0.06163993 -0.02913341 -0.00319468
v -0.06828493 -0.03112704 0.00951553
v -0.07149347 -0.03265799 0.01607808
v -0.07180329 -0.03322955 0.01702852
v -0.07280752 -0.03684259 0.02145635
v -0.06877280 -0.03339285 0.01203872
v -0.07139733 -0.03730528 0.01948381
v -0.07248346 -0.03809456 0.02196174
v -0.07168221 -0.03962551 0.02199946
v -0.07143650 -0.03900633 0.02104525
v -0.07114093 -0.04008820 0.02152047
v -0.06976278 -0.04215669 0.02112445
v -0.06765105 -0.04302082 0.01864275
v -0.06655424 -0.04059852 0.01457322
v -0.05044385 -0.04719862 -0.00179920
v -0.05003076 -0.04676995 -0.00288164
v -0.06328515 -0.04867513 0.01785826
v -0.06082087 -0.05107021 0.01709263
v -0.05846699 -0.05035577 0.01292127
v -0.05520147 -0.04870915 0.00646056
v -0.05193239 -0.04706253 -0.00000016
v -0.05372362 -0.04885884 0.00463511
v -0.06655424 -0.04708975 0.02106788
v -0.06565328 -0.04776336 0.02038899
v -0.06149749 -0.04681758 0.01322300
v -0.06186784 -0.04732109 0.01430544
v -0.06240912 -0.04614396 0.01389811
v -0.06331364 -0.04059852 0.00970411
v -0.04563994 -0.04834852 -0.00615914
v -0.04563994 -0.04910380 -0.00533317
v -0.04954289 -0.04629365 -0.00411118
v -0.05013404 -0.04523900 -0.00463542
v -0.04905146 -0.04581736 -0.00527282
v -0.04563994 -0.04672912 -0.00778092
v -0.05017321 -0.04205462 -0.00797704
v -0.05017321 -0.04042841 -0.00959882
v -0.04997735 -0.04023789 -0.00997598
v -0.04854579 -0.04530023 -0.00635149
v -0.04909064 -0.04421836 -0.00689460
v -0.06231298 -0.01379669 -0.00997598
v -0.06186428 -0.01541610 -0.00997598
v -0.06269401 -0.01529362 -0.00878039
v -0.06313915 -0.01574950 -0.00788275
v -0.06346677 -0.01704231 -0.00675505
v -0.06414694 -0.01704231 -0.00567638
v -0.06461344 -0.01882501 -0.00405460
v -0.06490901 -0.01947141 -0.00323994
v -0.06525800 -0.02028792 -0.00222539
v -0.06478794 -0.02028792 -0.00303628
v -0.06459207 -0.02202299 -0.00242905
v -0.06472740 -0.02353353 -0.00130135
v -0.06975210 -0.02751400 0.00978332
v -0.06329940 -0.02436365 -0.00325503
v -0.06994084 -0.02643213 0.00945519
v -0.07006547 -0.02840535 0.01086576
v -0.06959541 -0.02840535 0.01005487
v -0.07021148 -0.03002476 0.01210661
v -0.06352731 -0.02840535 -0.00039994
v -0.06134436 -0.02851422 -0.00406215
v -0.06022973 -0.02958248 -0.00512573
v -0.06061077 -0.03008600 -0.00413381
v -0.06142626 -0.03002476 -0.00284015
v -0.06344184 -0.03114065 0.00137270
v -0.06812468 -0.03400523 0.01141264
v -0.06836683 -0.03293016 0.01100531
v -0.06804633 -0.03220891 0.00992286
v -0.06183579 -0.02805153 -0.00352658
v -0.06818522 -0.03575391 0.01293635
v -0.06323174 -0.03395760 0.00334523
v -0.06148324 -0.03372626 0.00030157
v -0.06303588 -0.03503266 0.00395246
v -0.06284714 -0.03167138 0.00082582
v -0.06952419 -0.04152389 0.02017778
v -0.06865172 -0.04138100 0.01864275
v -0.06006592 -0.03410729 -0.00165211
v -0.05826401 -0.03384193 -0.00462788
v -0.05053288 -0.04568807 -0.00355298
v -0.06004100 -0.04704892 0.01136738
v -0.05973830 -0.04798790 0.01201232
v -0.05354913 -0.04380331 -0.00161062
v -0.05207839 -0.04398702 -0.00345115
v -0.05111334 -0.04461301 -0.00404329
v -0.06006592 -0.04546354 0.00970788
v -0.05500561 -0.04357196 0.00024500
v -0.05537597 -0.04407547 0.00132744
v -0.05592081 -0.03965273 -0.00232722
v -0.05537953 -0.04249009 -0.00029811
v -0.05321438 -0.04168039 -0.00435256
v -0.05646210 -0.03843478 -0.00273455
v -0.05060766 -0.04415713 -0.00525396
v -0.05017321 -0.04367402 -0.00633641
v -0.05066820 -0.04259215 -0.00689460
v -0.05066820 -0.04097275 -0.00851638
v -0.05052932 -0.03965273 -0.00997598
v -0.06128738 -0.01715798 -0.00997598
v -0.06332076 -0.01794046 -0.00653253
v -0.06366263 -0.01855284 -0.00570278
v -0.06415406 -0.02028792 -0.00405460
v -0.06365551 -0.02179845 -0.00407723
v -0.06344540 -0.02353353 -0.00348509
v -0.06356648 -0.02501005 -0.00240265
v -0.06323174 -0.02741874 -0.00151256
v -0.06151529 -0.02713296 -0.00460902
v -0.06040423 -0.02828288 -0.00567261
v -0.05958162 -0.03008600 -0.00567261
v -0.05884447 -0.03155571 -0.00567261
v -0.05995909 -0.03066435 -0.00472594
v -0.05983802 -0.02873876 -0.00620817
v -0.05861300 -0.02798349 -0.00836552
v -0.06170403 -0.03090250 -0.00167851
v -0.05976679 -0.03178025 -0.00413381
v -0.06086361 -0.03165777 -0.00244037
v -0.06350594 -0.03288253 0.00290019
v -0.06176457 -0.03264438 -0.00015102
v -0.06001963 -0.03240624 -0.00320223
v -0.06029027 -0.03327037 -0.00201795
v -0.06181798 -0.03434544 0.00138401
v -0.06327447 -0.03566546 0.00489912
v -0.05860944 -0.03276006 -0.00512573
v -0.05682177 -0.03410729 -0.00651744
v -0.05357405 -0.03735290 -0.00814299
v -0.05592081 -0.03640712 -0.00557455
v -0.05169024 -0.04352433 -0.00452982
v -0.05213181 -0.04244246 -0.00516345
v -0.05357405 -0.04221792 -0.00327011
v -0.05175077 -0.04194575 -0.00624589
v -0.05537953 -0.03762507 -0.00516722
v -0.05267309 -0.03965273 -0.00719255
v -0.05213181 -0.04086388 -0.00678900
v -0.05117744 -0.04306165 -0.00574804
v -0.05120948 -0.04146265 -0.00738113
v -0.05120948 -0.03983644 -0.00900668
v -0.05092460 -0.03919685 -0.00997598
v -0.05073942 -0.03941458 -0.00997598
v -0.06024398 -0.02028792 -0.00997598
v -0.06184647 -0.02515974 -0.00513327
v -0.06347033 -0.02028792 -0.00513327
v -0.06332076 -0.02118608 -0.00490698
v -0.06313915 -0.02226795 -0.00463542
v -0.06169691 -0.02605109 -0.00490698
v -0.06107015 -0.02667028 -0.00554060
v -0.06007305 -0.02765689 -0.00653253
v -0.05871627 -0.03002476 -0.00687951
v -0.05848480 -0.03095694 -0.00657025
v -0.05821416 -0.03203881 -0.00620817
v -0.05834948 -0.02906536 -0.00801099
v -0.05844563 -0.02601707 -0.00976477
v -0.05819635 -0.02709894 -0.00944796
v -0.05788297 -0.02689482 -0.00997598
v -0.05794351 -0.02847340 -0.00891239
v -0.05699626 -0.03122911 -0.00836552
v -0.05537240 -0.03437266 -0.00836552
v -0.05501630 -0.03545453 -0.00787144
v -0.05267309 -0.03802652 -0.00881810
v -0.05321438 -0.03843478 -0.00759989
v -0.05175077 -0.04032635 -0.00787144
v -0.05213181 -0.03924448 -0.00841077
v -0.05175077 -0.03870014 -0.00949322
v -0.05149793 -0.03847560 -0.00997598
v -0.05988075 -0.02137659 -0.00997598
v -0.05989499 -0.02551356 -0.00788275
v -0.05989499 -0.02226795 -0.00950830
v -0.06022261 -0.02677915 -0.00675505
v -0.05861300 -0.02513252 -0.00997598
v -0.05860588 -0.02515294 -0.00997598
v -0.05811088 -0.03002476 -0.00769417
v -0.05672562 -0.03231098 -0.00801099
v -0.05760521 -0.03163736 -0.00729062
v -0.05858807 -0.02520057 -0.00997598
v -0.05819279 -0.02621440 -0.00997598
v -0.05713870 -0.02841216 -0.00997598
v -0.05661166 -0.02947362 -0.00997598
v -0.05722417 -0.02991589 -0.00891239
v -0.05560031 -0.03316150 -0.00891239
v -0.05494151 -0.03362419 -0.00944796
v -0.05355269 -0.03569268 -0.00973083
v -0.05215674 -0.03759786 -0.00997598
v -0.05212113 -0.03765229 -0.00997598
v -0.05917921 -0.02346549 -0.00997598
v -0.05551485 -0.03165777 -0.00997598
v -0.05521928 -0.03254232 -0.00978740
v -0.05498068 -0.03271243 -0.00997598
v -0.05462813 -0.03339965 -0.00997598
v -0.05406904 -0.03442029 -0.00997598
v -0.05344941 -0.03551577 -0.00997598
v -0.05321082 -0.03591721 -0.00997598
v -0.05375567 -0.03497823 -0.00997598
f 1 2 3
f 1 3 9
f 1 9 4
f 1 4 11
f 1 11 21
f 1 21 37
f 1 37 64
f 1 64 95
f 1 95 96
f 1 96 65
f 1 65 38
f 1 38 22
f 1 22 12
f 1 12 5
f 1 5 6
f 1 6 2
f 2 6 3
f 3 6 7
f 3 7 15
f 3 15 28
f 3 28 27
f 3 27 26
f 3 26 47
f 3 47 46
f 3 46 45
f 3 45 44
f 3 44 73
f 3 73 106
f 3 106 138
f 3 138 170
f 3 170 181
f 3 181 180
f 3 180 179
f 3 179 178
f 3 178 177
f 3 177 176
f 3 176 175
f 3 175 174
f 3 174 173
f 3 173 236
f 3 236 300
f 3 300 381
f 3 381 458
f 3 458 462
f 3 462 461
f 3 461 385
f 3 385 384
f 3 384 383
f 3 383 301
f 3 301 237
f 3 237 182
f 3 182 140
f 3 140 109
f 3 109 108
f 3 108 75
f 3 75 74
f 3 74 48
f 3 48 29
f 3 29 16
f 3 16 8
f 3 8 17
f 3 17 9
f 4 10 11
f 4 9 18
f 4 18 10
f 5 12 6
f 6 12 13
f 6 13 23
f 6 23 40
f 6 40 67
f 6 67 98
f 6 98 133
f 6 133 165
f 6 165 227
f 6 227 295
f 6 295 370
f 6 370 369
f 6 369 368
f 6 368 367
f 6 367 366
f 6 366 373
f 6 373 450
f 6 450 449
f 6 449 448
f 6 448 362
f 6 362 359
f 6 359 447
f 6 447 521
f 6 521 579
f 6 579 578
f 6 578 583
f 6 583 522
f 6 522 455
f 6 455 380
f 6 380 299
f 6 299 234
f 6 234 171
f 6 171 139
f 6 139 107
f 6 107 105
f 6 105 72
f 6 72 43
f 6 43 25
f 6 25 14
f 6 14 15
f 6 15 7
f 8 16 17
f 9 17 18
f 10 19 20
f 10 20 11
f 10 18 19
f 11 20 21
f 12 22 13
f 13 22 24
f 13 24 23
f 14 25 26
f 14 26 27
f 14 27 28
f 14 28 15
f 16 29 30
f 16 30 17
f 17 30 31
f 17 31 18
f 18 31 32
f 18 32 19
f 19 33 20
f 19 32 33
f 20 34 35
f 20 35 36
f 20 36 21
f 20 33 34
f 21 36 37
f 22 38 24
f 23 39 40
f 23 24 41
f 23 41 39
f 24 38 42
f 24 42 41
f 25 43 44
f 25 44 45
f 25 45 46
f 25 46 47
f 25 47 26
f 29 48 49
f 29 49 50
f 29 50 30
f 30 50 51
f 30 51 31
f 31 52 32
f 31 51 53
f 31 53 54
f 31 54 55
f 31 55 56
f 31 56 52
f 32 52 33
f 33 52 56
f 33 56 57
f 33 57 34
f 34 57 58
f 34 58 59
f 34 59 60
f 34 60 61
f 34 61 35
f 35 61 36
f 36 61 37
f 37 61 62
f 37 62 63
f 37 63 64
f 38 65 70
f 38 70 42
f 39 66 40
f 39 41 66
f 40 66 68
f 40 68 67
f 41 42 69
f 41 69 66
f 42 70 71
f 42 71 69
f 43 72 44
f 44 72 73
f 48 74 49
f 49 74 75
f 49 75 76
f 49 76 77
f 49 77 50
f 50 77 78
f 50 78 79
f 50 79 51
f 51 79 53
f 53 79 80
f 53 80 81
f 53 81 82
f 53 82 83
f 53 83 84
f 53 84 54
f 54 84 85
f 54 85 55
f 55 85 86
f 55 86 58
f 55 58 57
f 55 57 56
f 58 87 59
f 58 86 87
f 59 87 88
f 59 88 89
f 59 89 90
f 59 90 60
f 60 90 61
f 61 90 62
f 62 91 92
f 62 92 93
f 62 93 63
f 62 90 91
f 63 93 94
f 63 94 64
f 64 94 95
f 65 96 70
f 66 69 68
f 67 97 98
f 67 68 69
f 67 69 99
f 67 99 100
f 67 100 97
f 69 71 101
f 69 101 100
f 69 100 99
f 70 102 71
f 70 96 95
f 70 95 103
f 70 103 136
f 70 136 102
f 71 104 101
f 71 102 104
f 72 105 73
f 73 105 107
f 73 107 106
f 75 108 76
f 76 108 109
f 76 109 110
f 76 110 77
f 77 110 78
f 78 110 111
f 78 111 112
f 78 112 79
f 79 112 80
f 80 112 81
f 81 112 113
f 81 113 114
f 81 114 82
f 82 114 115
f 82 115 116
f 82 116 117
f 82 117 118
f 82 118 119
f 82 119 83
f 83 119 84
f 84 119 86
f 84 86 85
f 86 119 87
f 87 119 120
f 87 120 88
f 88 121 122
f 88 122 123
f 88 123 124
f 88 124 89
f 88 120 121
f 89 124 123
f 89 123 90
f 90 123 125
f 90 125 126
f 90 126 91
f 91 126 127
f 91 127 92
f 92 127 128
f 92 128 129
f 92 129 94
f 92 94 93
f 94 129 95
f 95 129 103
f 97 100 130
f 97 130 98
f 98 131 132
f 98 132 133
f 98 130 131
f 100 101 130
f 101 104 134
f 101 134 130
f 102 135 104
f 102 136 135
f 103 129 136
f 104 135 137
f 104 137 134
f 106 107 139
f 106 139 138
f 109 140 141
f 109 141 110
f 110 141 142
f 110 142 111
f 111 142 143
f 111 143 144
f 111 144 112
f 112 144 145
f 112 145 146
f 112 146 113
f 113 146 147
f 113 147 148
f 113 148 114
f 114 148 149
f 114 149 116
f 114 116 115
f 116 149 117
f 117 149 150
f 117 150 151
f 117 151 152
f 117 152 121
f 117 121 120
f 117 120 118
f 118 120 119
f 121 152 153
f 121 153 122
f 122 153 123
f 123 153 154
f 123 154 125
f 125 154 155
f 125 155 126
f 126 155 156
f 126 156 157
f 126 157 127
f 127 157 128
f 128 136 129
f 128 157 136
f 130 134 158
f 130 158 159
f 130 159 160
f 130 160 131
f 131 160 132
f 132 160 159
f 132 159 161
f 132 161 162
f 132 162 163
f 132 163 133
f 133 164 165
f 133 163 164
f 134 137 158
f 135 166 167
f 135 167 137
f 135 136 168
f 135 168 166
f 136 157 169
f 136 169 168
f 137 167 216
f 137 216 158
f 138 139 170
f 139 171 172
f 139 172 173
f 139 173 174
f 139 174 175
f 139 175 176
f 139 176 177
f 139 177 178
f 139 178 179
f 139 179 180
f 139 180 181
f 139 181 170
f 140 182 141
f 141 183 142
f 141 182 183
f 142 184 143
f 142 183 185
f 142 185 186
f 142 186 187
f 142 187 184
f 143 188 189
f 143 189 144
f 143 184 190
f 143 190 191
f 143 191 192
f 143 192 188
f 144 189 193
f 144 193 194
f 144 194 145
f 145 194 193
f 145 193 195
f 145 195 196
f 145 196 197
f 145 197 198
f 145 198 146
f 146 198 199
f 146 199 147
f 147 199 148
f 148 199 149
f 149 200 201
f 149 201 150
f 149 199 198
f 149 198 200
f 150 201 151
f 151 201 152
f 152 202 203
f 152 203 204
f 152 204 153
f 152 201 202
f 153 204 205
f 153 205 154
f 154 205 206
f 154 206 155
f 155 207 156
f 155 206 208
f 155 208 207
f 156 207 208
f 156 208 209
f 156 209 157
f 157 209 210
f 157 210 211
f 157 211 169
f 158 212 213
f 158 213 214
f 158 214 215
f 158 215 159
f 158 216 217
f 158 217 212
f 159 215 161
f 161 215 218
f 161 218 162
f 162 219 220
f 162 220 221
f 162 221 222
f 162 222 163
f 162 218 219
f 163 223 224
f 163 224 225
f 163 225 164
f 163 222 223
f 164 225 226
f 164 226 227
f 164 227 165
f 166 228 229
f 166 229 230
f 166 230 216
f 166 216 167
f 166 168 231
f 166 231 232
f 166 232 228
f 168 169 211
f 168 211 233
f 168 233 231
f 171 234 235
f 171 235 172
f 172 236 173
f 172 235 299
f 172 299 380
f 172 380 456
f 172 456 524
f 172 524 586
f 172 586 643
f 172 643 683
f 172 683 682
f 172 682 708
f 172 708 727
f 172 727 726
f 172 726 735
f 172 735 734
f 172 734 736
f 172 736 733
f 172 733 732
f 172 732 731
f 172 731 729
f 172 729 721
f 172 721 720
f 172 720 698
f 172 698 719
f 172 719 718
f 172 718 714
f 172 714 713
f 172 713 728
f 172 728 709
f 172 709 684
f 172 684 644
f 172 644 590
f 172 590 589
f 172 589 530
f 172 530 529
f 172 529 528
f 172 528 527
f 172 527 526
f 172 526 525
f 172 525 472
f 172 472 399
f 172 399 464
f 172 464 463
f 172 463 460
f 172 460 382
f 172 382 300
f 172 300 236
f 182 237 183
f 183 238 185
f 183 237 238
f 184 187 190
f 185 238 239
f 185 239 240
f 185 240 241
f 185 241 242
f 185 242 186
f 186 242 243
f 186 243 244
f 186 244 187
f 187 245 246
f 187 246 247
f 187 247 248
f 187 248 191
f 187 191 190
f 187 244 243
f 187 243 249
f 187 249 245
f 188 250 189
f 188 192 250
f 189 251 252
f 189 252 253
f 189 253 254
f 189 254 255
f 189 255 256
f 189 256 257
f 189 257 193
f 189 250 258
f 189 258 259
f 189 259 251
f 191 248 260
f 191 260 261
f 191 261 262
f 191 262 263
f 191 263 192
f 192 263 261
f 192 261 264
f 192 264 265
f 192 265 250
f 193 257 196
f 193 196 195
f 196 257 266
f 196 266 197
f 197 267 200
f 197 200 198
f 197 266 268
f 197 268 269
f 197 269 270
f 197 270 271
f 197 271 272
f 197 272 273
f 197 273 267
f 200 267 201
f 201 267 273
f 201 273 272
f 201 272 274
f 201 274 202
f 202 274 275
f 202 275 203
f 203 275 204
f 204 275 276
f 204 276 205
f 205 277 206
f 205 276 278
f 205 278 279
f 205 279 280
f 205 280 281
f 205 281 277
f 206 277 208
f 208 282 210
f 208 210 209
f 208 277 282
f 210 282 283
f 210 283 211
f 211 283 233
f 212 284 213
f 212 217 285
f 212 285 284
f 213 286 214
f 213 284 286
f 214 286 215
f 215 286 287
f 215 287 218
f 216 230 217
f 217 230 229
f 217 229 288
f 217 288 289
f 217 289 285
f 218 290 291
f 218 291 219
f 218 287 292
f 218 292 290
f 219 291 220
f 220 291 293
f 220 293 294
f 220 294 221
f 221 293 295
f 221 295 227
f 221 227 225
f 221 225 224
f 221 224 223
f 221 223 222
f 221 294 293
f 225 227 226
f 228 288 229
f 228 232 296
f 228 296 288
f 231 296 232
f 231 233 283
f 231 283 281
f 231 281 297
f 231 297 298
f 231 298 296
f 234 299 235
f 237 301 302
f 237 302 238
f 238 302 303
f 238 303 240
f 238 240 239
f 240 303 241
f 241 303 304
f 241 304 243
f 241 243 242
f 243 304 305
f 243 305 249
f 245 249 306
f 245 306 246
f 246 306 247
f 247 307 308
f 247 308 248
f 247 306 309
f 247 309 310
f 247 310 307
f 248 311 261
f 248 261 260
f 248 308 312
f 248 312 311
f 249 305 306
f 250 265 258
f 251 313 314
f 251 314 252
f 251 259 265
f 251 265 315
f 251 315 316
f 251 316 317
f 251 317 313
f 252 314 318
f 252 318 319
f 252 319 253
f 253 319 320
f 253 320 321
f 253 321 255
f 253 255 254
f 255 321 322
f 255 322 256
f 256 322 257
f 257 322 323
f 257 323 324
f 257 324 268
f 257 268 266
f 258 265 259
f 261 311 325
f 261 325 310
f 261 310 264
f 261 263 262
f 264 326 265
f 264 310 326
f 265 326 315
f 268 324 327
f 268 327 328
f 268 328 329
f 268 329 330
f 268 330 269
f 269 330 270
f 270 330 271
f 271 330 331
f 271 331 332
f 271 332 333
f 271 333 272
f 272 333 334
f 272 334 274
f 274 335 336
f 274 336 337
f 274 337 338
f 274 338 339
f 274 339 275
f 274 334 335
f 275 339 279
f 275 279 278
f 275 278 276
f 277 281 283
f 277 283 282
f 279 339 340
f 279 340 341
f 279 341 342
f 279 342 280
f 280 343 344
f 280 344 345
f 280 345 298
f 280 298 346
f 280 346 281
f 280 342 341
f 280 341 347
f 280 347 348
f 280 348 349
f 280 349 350
f 280 350 343
f 281 346 297
f 284 351 352
f 284 352 286
f 284 285 351
f 285 289 353
f 285 353 351
f 286 292 287
f 286 352 292
f 288 296 354
f 288 354 355
f 288 355 356
f 288 356 357
f 288 357 289
f 289 357 353
f 290 292 358
f 290 358 359
f 290 359 291
f 291 360 361
f 291 361 293
f 291 359 362
f 291 362 360
f 292 352 363
f 292 363 364
f 292 364 365
f 292 365 358
f 293 366 367
f 293 367 368
f 293 368 369
f 293 369 370
f 293 370 371
f 293 371 295
f 293 361 372
f 293 372 373
f 293 373 366
f 295 371 370
f 296 298 374
f 296 374 354
f 297 346 298
f 298 345 375
f 298 375 376
f 298 376 377
f 298 377 378
f 298 378 379
f 298 379 374
f 300 382 459
f 300 459 381
f 301 383 302
f 302 383 303
f 303 383 384
f 303 384 304
f 304 384 385
f 304 385 386
f 304 386 305
f 305 387 388
f 305 388 306
f 305 386 389
f 305 389 457
f 305 457 387
f 306 388 390
f 306 390 391
f 306 391 309
f 307 312 308
f 307 310 312
f 309 392 393
f 309 393 310
f 309 391 392
f 310 394 395
f 310 395 396
f 310 396 315
f 310 315 326
f 310 325 312
f 310 393 397
f 310 397 398
f 310 398 399
f 310 399 394
f 311 312 325
f 313 400 401
f 313 401 402
f 313 402 318
f 313 318 314
f 313 317 403
f 313 403 400
f 315 396 317
f 315 317 316
f 317 396 404
f 317 404 405
f 317 405 400
f 317 400 403
f 318 402 319
f 319 402 406
f 319 406 407
f 319 407 408
f 319 408 321
f 319 321 320
f 321 408 322
f 322 409 410
f 322 410 411
f 322 411 412
f 322 412 323
f 322 408 409
f 323 412 413
f 323 413 324
f 324 413 327
f 327 414 328
f 327 413 414
f 328 414 415
f 328 415 329
f 329 416 417
f 329 417 418
f 329 418 419
f 329 419 420
f 329 420 330
f 329 415 421
f 329 421 416
f 330 420 331
f 331 420 422
f 331 422 332
f 332 422 423
f 332 423 333
f 333 423 424
f 333 424 339
f 333 339 338
f 333 338 337
f 333 337 336
f 333 336 335
f 333 335 334
f 339 425 426
f 339 426 340
f 339 424 425
f 340 426 427
f 340 427 341
f 341 427 428
f 341 428 429
f 341 429 347
f 343 430 344
f 343 350 430
f 344 431 345
f 344 430 431
f 345 431 432
f 345 432 433
f 345 433 375
f 347 429 430
f 347 430 348
f 348 430 349
f 349 430 350
f 351 353 434
f 351 434 435
f 351 435 352
f 352 364 363
f 352 435 436
f 352 436 437
f 352 437 364
f 353 357 438
f 353 438 439
f 353 439 440
f 353 440 441
f 353 441 442
f 353 442 434
f 354 374 355
f 355 438 356
f 355 374 443
f 355 443 444
f 355 444 445
f 355 445 446
f 355 446 438
f 356 438 357
f 358 365 359
f 359 365 364
f 359 364 447
f 360 362 361
f 361 362 372
f 362 448 372
f 364 437 447
f 372 448 449
f 372 449 450
f 372 450 373
f 374 451 443
f 374 379 452
f 374 452 453
f 374 453 454
f 374 454 451
f 375 433 376
f 376 433 452
f 376 452 377
f 377 452 378
f 378 452 379
f 380 455 456
f 381 457 458
f 381 459 387
f 381 387 457
f 382 460 390
f 382 390 459
f 385 461 389
f 385 389 386
f 387 459 390
f 387 390 388
f 389 461 462
f 389 462 458
f 389 458 457
f 390 460 463
f 390 463 464
f 390 464 465
f 390 465 391
f 391 465 392
f 392 465 466
f 392 466 399
f 392 399 398
f 392 398 397
f 392 397 393
f 394 467 395
f 394 399 468
f 394 468 467
f 395 467 469
f 395 469 470
f 395 470 471
f 395 471 396
f 396 471 404
f 399 472 468
f 399 466 464
f 400 405 473
f 400 473 474
f 400 474 406
f 400 406 402
f 400 402 401
f 404 471 475
f 404 475 473
f 404 473 405
f 406 474 476
f 406 476 477
f 406 477 478
f 406 478 479
f 406 479 480
f 406 480 407
f 407 480 409
f 407 409 408
f 409 481 410
f 409 480 481
f 410 481 482
f 410 482 412
f 410 412 411
f 412 483 484
f 412 484 485
f 412 485 413
f 412 482 479
f 412 479 483
f 413 485 486
f 413 486 414
f 414 487 421
f 414 421 415
f 414 486 488
f 414 488 489
f 414 489 490
f 414 490 487
f 416 421 490
f 416 490 491
f 416 491 492
f 416 492 417
f 417 492 493
f 417 493 418
f 418 493 419
f 419 494 420
f 419 493 494
f 420 494 495
f 420 495 496
f 420 496 422
f 421 487 490
f 422 424 423
f 422 496 497
f 422 497 498
f 422 498 499
f 422 499 500
f 422 500 501
f 422 501 425
f 422 425 424
f 425 501 426
f 426 501 427
f 427 501 428
f 428 501 502
f 428 502 503
f 428 503 429
f 429 503 430
f 430 503 431
f 431 503 432
f 432 503 444
f 432 444 433
f 433 444 452
f 434 442 435
f 435 442 513
f 435 513 504
f 435 504 436
f 436 504 505
f 436 505 506
f 436 506 437
f 437 506 507
f 437 507 447
f 438 446 508
f 438 508 509
f 438 509 439
f 439 509 440
f 440 509 510
f 440 510 511
f 440 511 512
f 440 512 441
f 441 512 442
f 442 512 513
f 443 451 444
f 444 514 515
f 444 515 516
f 444 516 517
f 444 517 445
f 444 451 454
f 444 454 453
f 444 453 452
f 444 503 518
f 444 518 514
f 445 517 516
f 445 516 519
f 445 519 446
f 446 519 508
f 447 507 520
f 447 520 521
f 455 522 523
f 455 523 456
f 456 523 524
f 464 466 465
f 467 468 472
f 467 472 525
f 467 525 469
f 469 525 526
f 469 526 527
f 469 527 528
f 469 528 470
f 470 528 529
f 470 529 530
f 470 530 531
f 470 531 532
f 470 532 471
f 471 532 475
f 473 475 474
f 474 533 534
f 474 534 478
f 474 478 477
f 474 477 476
f 474 475 533
f 475 532 533
f 478 534 533
f 478 533 535
f 478 535 483
f 478 483 479
f 479 482 536
f 479 536 481
f 479 481 480
f 481 536 482
f 483 535 537
f 483 537 538
f 483 538 484
f 484 538 485
f 485 538 537
f 485 537 539
f 485 539 540
f 485 540 488
f 485 488 486
f 488 540 541
f 488 541 542
f 488 542 490
f 488 490 489
f 490 542 543
f 490 543 544
f 490 544 545
f 490 545 546
f 490 546 492
f 490 492 491
f 492 546 493
f 493 546 547
f 493 547 494
f 494 547 548
f 494 548 497
f 494 497 495
f 495 497 496
f 497 548 547
f 497 547 549
f 497 549 550
f 497 550 551
f 497 551 498
f 498 551 552
f 498 552 553
f 498 553 499
f 499 554 500
f 499 553 555
f 499 555 554
f 500 554 501
f 501 556 557
f 501 557 502
f 501 554 556
f 502 557 558
f 502 558 559
f 502 559 560
f 502 560 561
f 502 561 503
f 503 562 518
f 503 561 563
f 503 563 562
f 504 513 505
f 505 513 506
f 506 513 564
f 506 564 565
f 506 565 520
f 506 520 507
f 508 519 566
f 508 566 567
f 508 567 568
f 508 568 509
f 509 568 510
f 510 568 569
f 510 569 570
f 510 570 571
f 510 571 564
f 510 564 511
f 511 564 513
f 511 513 512
f 514 518 572
f 514 572 573
f 514 573 515
f 515 573 576
f 515 576 574
f 515 574 575
f 515 575 516
f 516 575 566
f 516 566 519
f 518 576 573
f 518 573 572
f 518 562 563
f 518 563 577
f 518 577 576
f 520 578 579
f 520 579 521
f 520 565 580
f 520 580 581
f 520 581 582
f 520 582 578
f 522 583 523
f 523 584 585
f 523 585 586
f 523 586 524
f 523 583 587
f 523 587 588
f 523 588 584
f 530 589 531
f 531 589 533
f 531 533 532
f 533 589 590
f 533 590 591
f 533 591 592
f 533 592 593
f 533 593 594
f 533 594 535
f 535 594 595
f 535 595 537
f 537 595 596
f 537 596 540
f 537 540 539
f 540 597 541
f 540 596 597
f 541 597 598
f 541 598 542
f 542 598 599
f 542 599 543
f 543 600 605
f 543 605 601
f 543 601 545
f 543 545 544
f 543 599 602
f 543 602 600
f 545 601 603
f 545 603 547
f 545 547 546
f 547 604 549
f 547 603 601
f 547 601 604
f 549 604 605
f 549 605 606
f 549 606 607
f 549 607 550
f 550 608 609
f 550 609 610
f 550 610 611
f 550 611 612
f 550 612 613
f 550 613 555
f 550 555 614
f 550 614 615
f 550 615 553
f 550 553 551
f 550 607 616
f 550 616 608
f 551 553 552
f 553 615 614
f 553 614 555
f 554 555 613
f 554 613 556
f 556 617 664
f 556 664 618
f 556 618 619
f 556 619 620
f 556 620 559
f 556 559 557
f 556 613 612
f 556 612 621
f 556 621 617
f 557 559 558
f 559 620 560
f 560 622 561
f 560 620 622
f 561 622 623
f 561 623 563
f 563 623 624
f 563 624 625
f 563 625 577
f 564 571 570
f 564 570 565
f 565 626 581
f 565 581 580
f 565 570 626
f 566 575 627
f 566 627 628
f 566 628 567
f 567 628 629
f 567 629 568
f 568 629 630
f 568 630 631
f 568 631 569
f 569 631 570
f 570 631 581
f 570 581 626
f 574 576 632
f 574 632 674
f 574 674 633
f 574 633 634
f 574 634 575
f 575 634 629
f 575 629 627
f 576 577 635
f 576 635 636
f 576 636 637
f 576 637 632
f 577 625 638
f 577 638 635
f 578 582 587
f 578 587 583
f 581 631 639
f 581 639 640
f 581 640 582
f 582 640 587
f 584 641 642
f 584 642 585
f 584 588 640
f 584 640 641
f 585 643 586
f 585 642 643
f 587 640 588
f 590 644 645
f 590 645 593
f 590 593 591
f 591 593 592
f 593 645 646
f 593 646 594
f 594 646 595
f 595 646 647
f 595 647 598
f 595 598 596
f 596 598 597
f 598 647 648
f 598 648 599
f 599 648 649
f 599 649 602
f 600 602 650
f 600 650 651
f 600 651 605
f 601 605 604
f 602 652 616
f 602 616 651
f 602 651 650
f 602 649 652
f 605 651 606
f 606 651 607
f 607 651 616
f 608 653 609
f 608 616 652
f 608 652 653
f 609 654 655
f 609 655 656
f 609 656 610
f 609 653 657
f 609 657 658
f 609 658 654
f 610 659 612
f 610 612 611
f 610 656 660
f 610 660 661
f 610 661 659
f 612 659 621
f 617 621 662
f 617 662 663
f 617 663 664
f 618 664 619
f 619 664 665
f 619 665 624
f 619 624 666
f 619 666 620
f 620 667 623
f 620 623 622
f 620 666 624
f 620 624 667
f 621 659 661
f 621 661 662
f 623 667 624
f 624 665 664
f 624 664 668
f 624 668 625
f 625 668 669
f 625 669 670
f 625 670 671
f 625 671 638
f 627 629 628
f 629 672 630
f 629 634 673
f 629 673 672
f 630 672 631
f 631 672 639
f 632 637 674
f 633 674 675
f 633 675 673
f 633 673 634
f 635 638 671
f 635 671 676
f 635 676 677
f 635 677 637
f 635 637 636
f 637 675 674
f 637 677 706
f 637 706 678
f 637 678 675
f 639 672 679
f 639 679 640
f 640 679 675
f 640 675 641
f 641 675 680
f 641 680 642
f 642 680 705
f 642 705 681
f 642 681 682
f 642 682 683
f 642 683 643
f 644 684 685
f 644 685 645
f 645 685 686
f 645 686 646
f 646 686 647
f 647 686 648
f 648 686 687
f 648 687 688
f 648 688 689
f 648 689 649
f 649 689 652
f 652 690 691
f 652 691 653
f 652 689 690
f 653 691 657
f 654 692 693
f 654 693 694
f 654 694 655
f 654 658 695
f 654 695 692
f 655 694 668
f 655 668 656
f 656 668 660
f 657 691 658
f 658 691 696
f 658 696 697
f 658 697 698
f 658 698 699
f 658 699 700
f 658 700 695
f 660 668 664
f 660 664 663
f 660 663 661
f 661 663 662
f 668 694 701
f 668 701 669
f 669 701 702
f 669 702 703
f 669 703 670
f 670 703 704
f 670 704 671
f 671 704 677
f 671 677 676
f 672 673 675
f 672 675 679
f 675 678 705
f 675 705 680
f 677 704 703
f 677 703 706
f 678 706 705
f 681 705 707
f 681 707 682
f 682 707 708
f 684 709 685
f 685 710 690
f 685 690 689
f 685 689 688
f 685 688 687
f 685 687 686
f 685 709 711
f 685 711 710
f 690 712 691
f 690 710 712
f 691 712 710
f 691 710 713
f 691 713 714
f 691 714 696
f 692 715 693
f 692 695 715
f 693 715 694
f 694 716 701
f 694 715 717
f 694 717 716
f 695 700 716
f 695 716 715
f 696 714 718
f 696 718 719
f 696 719 698
f 696 698 697
f 698 720 699
f 699 720 721
f 699 721 722
f 699 722 700
f 700 722 721
f 700 721 723
f 700 723 716
f 701 716 723
f 701 723 724
f 701 724 725
f 701 725 726
f 701 726 702
f 702 726 727
f 702 727 703
f 703 727 707
f 703 707 706
f 705 706 707
f 707 727 708
f 709 728 710
f 709 710 711
f 710 728 713
f 715 716 717
f 721 729 723
f 723 729 730
f 723 730 724
f 724 730 731
f 724 731 732
f 724 732 733
f 724 733 725
f 725 734 735
f 725 735 726
f 725 733 736
f 725 736 734
f 729 731 730

