# https://github.com/mikedh/trimesh
v 0.04040050 -0.06410190 0.02855446
v 0.04040050 -0.06345652 0.02855028
v 0.03975931 -0.06410190 0.02855446
v 0.04040050 -0.06670313 0.02855446
v 0.04040050 -0.06247614 0.02850010
v 0.00405724 -0.07545765 0.02854609
v 0.00568185 -0.07545765 0.02855446
v 0.03975931 -0.06734359 0.02855446
v 0.04040050 -0.06734359 0.02853355
v 0.04040050 -0.06183568 0.02842483
v 0.03975931 -0.06247614 0.02847501
v 0.00243657 -0.07545765 0.02850428
v 0.00021404 -0.07708342 0.02854609
v 0.00243657 -0.07708342 0.02855446
v 0.03651009 -0.06896936 0.02855446
v 0.03001952 -0.07221596 0.02855446
v 0.03164413 -0.07221596 0.02850010
v 0.03813470 -0.06896936 0.02850010
v 0.04040050 -0.06832890 0.02841647
v 0.00021404 -0.07545765 0.02841228
v 0.04040050 -0.06076662 0.02815721
v 0.00021404 -0.07605869 0.02846246
v 0.00021404 -0.07767953 0.02853773
v 0.01379703 -0.07708342 0.02855446
v 0.00021404 -0.07870426 0.02852100
v 0.00243657 -0.07870426 0.02852519
v 0.02028760 -0.07545765 0.02855446
v 0.02190828 -0.07545765 0.02853773
v 0.02839885 -0.07383681 0.02845410
v 0.03001952 -0.07383681 0.02833702
v 0.03326481 -0.07221596 0.02836211
v 0.03975931 -0.06896936 0.02836211
v 0.04040050 -0.06901862 0.02823248
v 0.00021404 -0.07447726 0.02809867
v 0.04040050 -0.06006704 0.02793141
v 0.00021404 -0.07384173 0.02789377
v 0.01541771 -0.07708342 0.02855028
v 0.00730646 -0.07870426 0.02852519
v 0.00021404 -0.07930037 0.02836211
v 0.00021404 -0.08033002 0.02808194
v 0.01704232 -0.07708342 0.02852937
v 0.01866299 -0.07708342 0.02846246
v 0.02352895 -0.07545765 0.02846665
v 0.02028760 -0.07708342 0.02834538
v 0.02190828 -0.07708342 0.02818648
v 0.02833198 -0.07553647 0.02791468
v 0.03001952 -0.07509801 0.02785196
v 0.03175428 -0.07396982 0.02800667
v 0.03500349 -0.07234898 0.02801086
v 0.03824878 -0.07072321 0.02801086
v 0.04040050 -0.06986106 0.02792722
v 0.04040050 -0.05961380 0.02775996
v 0.00021404 -0.07315694 0.02750489
v 0.04040050 -0.05933791 0.02760524
v 0.00892714 -0.07870426 0.02851682
v 0.00730646 -0.08033002 0.02808194
v 0.00021404 -0.08118232 0.02762615
v 0.01055175 -0.07870426 0.02847501
v 0.01217242 -0.07870426 0.02840392
v 0.01379703 -0.07870426 0.02832029
v 0.01541771 -0.07870426 0.02823666
v 0.01704232 -0.07870426 0.02811539
v 0.01852531 -0.07878801 0.02790214
v 0.02028760 -0.07835447 0.02786450
v 0.02347388 -0.07716224 0.02792722
v 0.02289956 -0.07794064 0.02762615
v 0.02774586 -0.07630995 0.02762197
v 0.03128617 -0.07484675 0.02771396
v 0.03326481 -0.07355599 0.02787705
v 0.03975931 -0.07030938 0.02787705
v 0.04040050 -0.07014680 0.02779760
v 0.00021404 -0.07269877 0.02718709
v 0.04040050 -0.05884033 0.02722054
v 0.00021404 -0.07230464 0.02688602
v 0.00892714 -0.08033002 0.02805685
v 0.00081196 -0.08118232 0.02762615
v 0.00730646 -0.08117740 0.02762615
v 0.00892714 -0.08116262 0.02760942
v 0.00021404 -0.08133998 0.02731254
v 0.01041013 -0.08041378 0.02791468
v 0.01541771 -0.07973884 0.02775578
v 0.01704232 -0.07960089 0.02765542
v 0.01789199 -0.07952207 0.02759270
v 0.01897375 -0.07937920 0.02740453
v 0.02398132 -0.07775836 0.02740453
v 0.02882762 -0.07613259 0.02742126
v 0.03236793 -0.07460042 0.02755088
v 0.03453539 -0.07323576 0.02772233
v 0.03778067 -0.07161493 0.02772233
v 0.03886243 -0.07135382 0.02755088
v 0.04040050 -0.07055079 0.02750907
v 0.04040050 -0.05803237 0.02640932
v 0.00021404 -0.07131440 0.02604971
v 0.00977681 -0.08114291 0.02759270
v 0.00730646 -0.08160601 0.02677311
v 0.00892714 -0.08157645 0.02677311
v 0.00021404 -0.08160601 0.02677311
v 0.01217242 -0.08129070 0.02634241
v 0.01852531 -0.07976347 0.02682748
v 0.01999651 -0.07966001 0.02632151
v 0.02973236 -0.07644296 0.02633823
v 0.03017293 -0.07597987 0.02683584
v 0.03326481 -0.07499455 0.02648459
v 0.03430723 -0.07476300 0.02615006
v 0.03326481 -0.07436395 0.02729581
v 0.03561715 -0.07297958 0.02755088
v 0.03975931 -0.07112227 0.02729581
v 0.04040050 -0.07092028 0.02712436
v 0.04040050 -0.05774663 0.02606225
v 0.00021404 -0.07088579 0.02548520
v 0.01041013 -0.08139416 0.02683584
v 0.00021404 -0.08167005 0.02617933
v 0.00021404 -0.08173410 0.02515067
v 0.00730646 -0.08169961 0.02515067
v 0.00892714 -0.08167990 0.02515067
v 0.01055175 -0.08152719 0.02515067
v 0.01322271 -0.08118724 0.02609570
v 0.02107434 -0.07951221 0.02585735
v 0.03081413 -0.07626561 0.02587826
v 0.03326481 -0.07539853 0.02515067
v 0.03446851 -0.07484675 0.02515067
v 0.03755645 -0.07314216 0.02615006
v 0.03975931 -0.07177257 0.02648459
v 0.04040050 -0.07161000 0.02627133
v 0.04040050 -0.05728354 0.02542665
v 0.00021404 -0.07063453 0.02515067
v 0.00021404 -0.08157645 0.02469906
v 0.00892714 -0.08127100 0.02408437
v 0.01055175 -0.08121188 0.02419728
v 0.01322271 -0.08118724 0.02572354
v 0.01145649 -0.08115276 0.02431436
v 0.01253825 -0.08107393 0.02464052
v 0.02117268 -0.07954177 0.02428927
v 0.01866299 -0.08007384 0.02515067
v 0.02043315 -0.07968957 0.02525103
v 0.02117268 -0.07954177 0.02477851
v 0.03094000 -0.07630502 0.02479942
v 0.03154579 -0.07606362 0.02526357
v 0.03437017 -0.07479256 0.02404256
v 0.03094000 -0.07630502 0.02427673
v 0.03761546 -0.07317172 0.02395057
v 0.03771380 -0.07322099 0.02515067
v 0.04040050 -0.07176272 0.02578627
v 0.04040050 -0.05710618 0.02517158
v 0.00021404 -0.07017636 0.02448998
v 0.00021404 -0.08130548 0.02401747
v 0.00021404 -0.08115276 0.02372058
v 0.00892714 -0.08085224 0.02327315
v 0.01055175 -0.08079805 0.02338605
v 0.01541771 -0.07969942 0.02236575
v 0.01704232 -0.07997531 0.02352823
v 0.02028760 -0.07963045 0.02409692
v 0.01704232 -0.07958611 0.02257901
v 0.01787232 -0.07952207 0.02270864
v 0.02894169 -0.07618185 0.02287590
v 0.03001952 -0.07600450 0.02319370
v 0.03001952 -0.07645774 0.02400492
v 0.01851351 -0.07899985 0.02206468
v 0.02035447 -0.07835940 0.02178452
v 0.02094452 -0.07785196 0.02116565
v 0.02245506 -0.06645681 0.00176741
v 0.02295464 -0.06338262 -0.00340936
v 0.03323727 -0.07502411 0.02351150
v 0.03612066 -0.07323084 0.02235739
v 0.03720242 -0.07296480 0.02287172
v 0.03660056 -0.07348702 0.02345714
v 0.03073152 -0.07461520 0.02115310
v 0.03154579 -0.07574832 0.02365367
v 0.03814650 -0.07271355 0.02345714
v 0.03982618 -0.07185140 0.02349059
v 0.04040050 -0.07166419 0.02380003
v 0.04040050 -0.07184155 0.02515067
v 0.03975931 -0.07218148 0.02515067
v 0.04040050 -0.03945428 -0.00055754
v 0.00021404 -0.06991033 0.02410528
v 0.00021404 -0.08088673 0.02320625
v 0.00730646 -0.08015267 0.02190578
v 0.00730646 -0.07962060 0.02089385
v 0.00892714 -0.08013296 0.02190578
v 0.01022918 -0.07957133 0.02099420
v 0.01068156 -0.07992605 0.02175107
v 0.01217242 -0.07989156 0.02201032
v 0.01379703 -0.07979795 0.02219013
v 0.01541771 -0.07927081 0.02155453
v 0.01851351 -0.07972406 0.02352823
v 0.01541771 -0.07802932 0.01922122
v 0.01650340 -0.07795049 0.01936340
v 0.01622804 -0.07627053 0.01622723
v 0.01704232 -0.07663510 0.01720571
v 0.01758516 -0.07783718 0.01957666
v 0.01866299 -0.07815740 0.02062623
v 0.02020499 -0.07661539 0.01861490
v 0.01866299 -0.07126021 0.00836590
v 0.02068884 -0.07616215 0.01804202
v 0.02104287 -0.07138830 0.00976254
v 0.02126709 -0.07308304 0.01288198
v 0.02221510 -0.06476699 -0.00136040
v 0.02190828 -0.06308210 -0.00450493
v 0.02352895 -0.06198841 -0.00538305
v 0.02350928 -0.06282592 -0.00399060
v 0.02786387 -0.06340233 -0.00018956
v 0.02726988 -0.06480148 0.00180922
v 0.02751770 -0.06651100 0.00490776
v 0.02902430 -0.06971820 0.01146862
v 0.03052303 -0.07292046 0.01802948
v 0.03267869 -0.07473344 0.02257065
v 0.03376045 -0.07452652 0.02295954
v 0.03488942 -0.07346239 0.02185560
v 0.03543226 -0.07291554 0.02127855
v 0.03591611 -0.07150654 0.01929231
v 0.03647862 -0.07182184 0.02028334
v 0.03764299 -0.07156566 0.02082694
v 0.03816617 -0.07191052 0.02185560
v 0.03933447 -0.07160507 0.02236157
v 0.04040050 -0.07133411 0.02294281
v 0.03164413 -0.07491573 0.02224449
v 0.04040050 -0.03883846 -0.00145657
v 0.00021404 -0.06964429 0.02359513
v 0.04040050 -0.03774969 -0.00305393
v 0.04040050 -0.03561155 -0.00628627
v 0.04040050 -0.03558692 -0.00632390
v 0.04040050 -0.03477896 -0.00779163
v 0.04040050 -0.03390696 -0.00941407
v 0.04040050 -0.03140426 -0.01416432
v 0.00021404 -0.08065518 0.02276300
v 0.00021404 -0.08020686 0.02190578
v 0.00021404 -0.07965016 0.02084367
v 0.00021404 -0.07589611 0.01369739
v 0.00021404 -0.07221596 0.00669328
v 0.00021404 -0.06915164 0.00086419
v 0.00730646 -0.07844315 0.01866090
v 0.00730646 -0.07628531 0.01457551
v 0.00730646 -0.07585670 0.01376429
v 0.00892714 -0.07961075 0.02091893
v 0.00990662 -0.07791108 0.01781622
v 0.01055175 -0.07620156 0.01473860
v 0.01131095 -0.07951221 0.02110711
v 0.01217242 -0.07946295 0.02119910
v 0.01379703 -0.07476793 0.01275654
v 0.01483552 -0.07469403 0.01289035
v 0.01217242 -0.07654150 0.01572126
v 0.01217242 -0.07318650 0.00943220
v 0.01217242 -0.07275296 0.00862098
v 0.01314011 -0.07143756 0.00643402
v 0.01541771 -0.07336878 0.01074939
v 0.01591728 -0.07458072 0.01309943
v 0.01607463 -0.06812199 0.00168378
v 0.01704232 -0.06456500 -0.00424985
v 0.01775038 -0.07137845 0.00815264
v 0.01801787 -0.07306826 0.01128045
v 0.01788806 -0.06491971 -0.00326300
v 0.01996504 -0.07154103 0.00949074
v 0.02041348 -0.07110256 0.00893878
v 0.02088552 -0.06322990 -0.00476418
v 0.02190828 -0.06354028 -0.00369371
v 0.01866299 -0.06308210 -0.00612737
v 0.02028760 -0.06202782 -0.00704313
v 0.02202629 -0.06224459 -0.00581794
v 0.02760818 -0.06167311 -0.00325882
v 0.02264781 -0.06164355 -0.00645353
v 0.02352895 -0.06149082 -0.00619428
v 0.02730528 -0.05994388 -0.00632390
v 0.02839885 -0.05973204 -0.00597265
v 0.02840278 -0.06374227 0.00075965
v 0.02809595 -0.06512171 0.00289225
v 0.02824937 -0.06193914 -0.00238488
v 0.02840278 -0.06284563 -0.00076243
v 0.02839885 -0.06634350 0.00519628
v 0.02839885 -0.06681152 0.00600751
v 0.03116029 -0.07153117 0.01600561
v 0.03246234 -0.07302885 0.01946794
v 0.03310746 -0.07328010 0.02033352
v 0.03435050 -0.07313231 0.02091057
v 0.03412628 -0.07142278 0.01781622
v 0.03331988 -0.06939797 0.01380193
v 0.03242693 -0.06165340 0.00001952
v 0.03418529 -0.06658490 0.00964546
v 0.03699787 -0.07124050 0.01974392
v 0.03872475 -0.07128977 0.02127855
v 0.03721029 -0.06810228 0.01469678
v 0.03982618 -0.07103852 0.02185560
v 0.04040050 -0.07073307 0.02187651
v 0.04040050 -0.07130948 0.02289681
v 0.00021404 -0.06949157 0.02329406
v 0.04040050 -0.04517895 -0.01416432
v 0.00021404 -0.05172143 -0.01416432
v 0.00021404 -0.06906296 0.02242011
v 0.00021404 -0.06842743 -0.00050318
v 0.00730646 -0.07461520 0.01142262
v 0.00823481 -0.07627546 0.01459224
v 0.00892714 -0.07501918 0.01228402
v 0.01055175 -0.06992511 0.00297588
v 0.01055175 -0.07328010 0.00926076
v 0.01055175 -0.07396490 0.01054449
v 0.00892714 -0.07409299 0.01054449
v 0.00892714 -0.06891024 0.00081401
v 0.00892714 -0.06788551 -0.00110950
v 0.00892714 -0.06718101 -0.00243088
v 0.01055175 -0.06949157 0.00216466
v 0.01217242 -0.07204354 0.00729961
v 0.01217242 -0.07150654 0.00630440
v 0.01002463 -0.06658982 -0.00334245
v 0.01379703 -0.07009754 0.00430561
v 0.01144076 -0.06817125 -0.00002648
v 0.01205834 -0.06767860 -0.00066626
v 0.01217242 -0.06682630 -0.00213817
v 0.01541771 -0.06474729 -0.00457601
v 0.01651914 -0.06335799 -0.00660407
v 0.01760090 -0.06322990 -0.00638245
v 0.01866299 -0.06354520 -0.00531615
v 0.01852531 -0.06438272 -0.00390278
v 0.02028760 -0.06677210 0.00120708
v 0.02028760 -0.06458471 -0.00266504
v 0.02028760 -0.06631393 0.00039586
v 0.01878100 -0.06223966 -0.00744038
v 0.01832076 -0.06181105 -0.00833941
v 0.01940252 -0.06164355 -0.00807598
v 0.02156605 -0.06182090 -0.00672533
v 0.02839885 -0.06021977 -0.00516143
v 0.02824937 -0.06103265 -0.00390278
v 0.01994537 -0.06020006 -0.00997022
v 0.02317886 -0.06020006 -0.00834778
v 0.02364303 -0.06064838 -0.00743620
v 0.02426062 -0.06001285 -0.00807179
v 0.02782060 -0.05852996 -0.00826833
v 0.02837524 -0.05888467 -0.00734002
v 0.03031455 -0.05983550 -0.00452165
v 0.02948848 -0.06178149 -0.00181619
v 0.02972056 -0.06350087 0.00126562
v 0.03001952 -0.06520545 0.00437252
v 0.02998019 -0.06692976 0.00727870
v 0.03071972 -0.06811213 0.00980854
v 0.03011786 -0.06782639 0.00890951
v 0.03011786 -0.06870825 0.01042741
v 0.02963796 -0.06832397 0.00944474
v 0.03154579 -0.07010739 0.01380193
v 0.03202570 -0.06960981 0.01327087
v 0.03057024 -0.06155979 -0.00143985
v 0.03178968 -0.06139722 -0.00086279
v 0.03164806 -0.06050058 -0.00248524
v 0.03219484 -0.05992910 -0.00306229
v 0.03461406 -0.06518082 0.00766340
v 0.03660843 -0.06877229 0.01530729
v 0.03912599 -0.06988077 0.01930485
v 0.03569582 -0.06490986 0.00811501
v 0.03970424 -0.07017636 0.02031679
v 0.04040050 -0.07000886 0.02067222
v 0.04040050 -0.04671604 -0.01263387
v 0.04012514 -0.04545484 -0.01416432
v 0.00021404 -0.06024440 -0.01416432
v 0.00021404 -0.06508229 -0.00680478
v 0.00405724 -0.06461427 -0.00754910
v 0.00568185 -0.06837324 -0.00040282
v 0.00568185 -0.06626959 -0.00436694
v 0.00568185 -0.06502810 -0.00670443
v 0.00730646 -0.06835353 -0.00036519
v 0.00730646 -0.06553061 -0.00567576
v 0.00892714 -0.06663909 -0.00344281
v 0.00843543 -0.06496405 -0.00658316
v 0.00951719 -0.06487045 -0.00642426
v 0.01055175 -0.06525965 -0.00544578
v 0.01055961 -0.06613165 -0.00395296
v 0.01110640 -0.06648144 -0.00315428
v 0.01379703 -0.06664894 -0.00182455
v 0.01217242 -0.06636813 -0.00294939
v 0.01382063 -0.06532862 -0.00416204
v 0.01437528 -0.06486060 -0.00477673
v 0.01329352 -0.06497883 -0.00498162
v 0.01217242 -0.06509707 -0.00517398
v 0.01541771 -0.06347130 -0.00679642
v 0.01541771 -0.06298850 -0.00760764
v 0.01603529 -0.06162384 -0.00966915
v 0.01705412 -0.06286533 -0.00720621
v 0.01704232 -0.06199334 -0.00864049
v 0.01704232 -0.06148097 -0.00945171
v 0.01878100 -0.06129869 -0.00889974
v 0.01777005 -0.06001778 -0.01132086
v 0.01866299 -0.06041191 -0.01028802
v 0.01866299 -0.05986998 -0.01109924
v 0.02040168 -0.05967292 -0.01052637
v 0.02190828 -0.05986998 -0.00947680
v 0.02364303 -0.05965814 -0.00890393
v 0.02677424 -0.05873194 -0.00854849
v 0.03016113 -0.05806193 -0.00734002
v 0.03079446 -0.05840186 -0.00646190
v 0.02971270 -0.05864327 -0.00682151
v 0.02258487 -0.05836738 -0.01128741
v 0.02677424 -0.05813583 -0.00935971
v 0.02809202 -0.05704706 -0.01006222
v 0.02944127 -0.05529812 -0.01151322
v 0.02849719 -0.05765795 -0.00898756
v 0.03001559 -0.05923938 -0.00567158
v 0.03164413 -0.05873687 -0.00535378
v 0.03164806 -0.05958424 -0.00400732
v 0.03111309 -0.06015572 -0.00343863
v 0.03260002 -0.05851025 -0.00500253
v 0.03285177 -0.06025425 -0.00197927
v 0.04040050 -0.06952606 0.01988609
v 0.03975931 -0.06789536 0.01665375
v 0.03416562 -0.06171252 0.00154160
v 0.03606559 -0.06349594 0.00615804
v 0.03651009 -0.06468324 0.00848717
v 0.04040050 -0.04752892 -0.01182265
v 0.03865788 -0.04840093 -0.01269241
v 0.03872475 -0.04684906 -0.01416432
v 0.03757612 -0.04893793 -0.01323184
v 0.00243657 -0.06024440 -0.01416432
v 0.00081196 -0.06073706 -0.01367508
v 0.00021404 -0.06043654 -0.01397197
v 0.00021404 -0.06340726 -0.00995768
v 0.00243657 -0.06338755 -0.00991586
v 0.00405724 -0.06388021 -0.00892483
v 0.00568185 -0.06459456 -0.00751565
v 0.00730646 -0.06500347 -0.00665843
v 0.00730646 -0.06454530 -0.00746965
v 0.00639778 -0.06327917 -0.00971933
v 0.00730646 -0.06373241 -0.00880775
v 0.00892714 -0.06361910 -0.00861122
v 0.00895861 -0.06450096 -0.00719367
v 0.01055175 -0.06414132 -0.00730239
v 0.01055175 -0.06477192 -0.00625700
v 0.01495353 -0.06173715 -0.00984896
v 0.01379703 -0.06315108 -0.00787944
v 0.01546491 -0.06211650 -0.00904610
v 0.01546491 -0.06123464 -0.01045110
v 0.01541771 -0.06034786 -0.01177665
v 0.01668829 -0.06018036 -0.01155085
v 0.01715246 -0.06062867 -0.01068527
v 0.01715246 -0.05961873 -0.01212372
v 0.01821849 -0.05854474 -0.01313148
v 0.01872200 -0.05900783 -0.01228262
v 0.02028760 -0.05878614 -0.01185610
v 0.02150311 -0.05857430 -0.01156339
v 0.02199088 -0.05902261 -0.01066854
v 0.02352895 -0.05877136 -0.01021693
v 0.02917378 -0.05678102 -0.00971097
v 0.03174247 -0.05604204 -0.00898756
v 0.03162053 -0.05733280 -0.00734002
v 0.03164413 -0.05819002 -0.00616501
v 0.02199088 -0.05793384 -0.01212790
v 0.02285236 -0.05684999 -0.01304785
v 0.02709680 -0.05662830 -0.01114106
v 0.02839885 -0.05554938 -0.01181011
v 0.03164413 -0.05393347 -0.01183101
v 0.03266295 -0.05367236 -0.01150904
v 0.03052303 -0.05502716 -0.01115360
v 0.02839885 -0.05487444 -0.01262133
v 0.03071972 -0.05349993 -0.01291822
v 0.03164413 -0.05326838 -0.01264224
v 0.03286357 -0.05704706 -0.00682569
v 0.03422463 -0.05527842 -0.00824324
v 0.03368178 -0.05815553 -0.00447147
v 0.03497596 -0.05967785 -0.00089624
v 0.03393353 -0.05995866 -0.00149421
v 0.04040050 -0.06821559 0.01775768
v 0.03965703 -0.06523501 0.01224639
v 0.03583350 -0.06174701 0.00311805
v 0.03715128 -0.06319049 0.00665147
v 0.04040050 -0.04851916 -0.01083162
v 0.03865788 -0.05002177 -0.01106997
v 0.03811110 -0.04785408 -0.01377544
v 0.03849660 -0.04707568 -0.01416432
v 0.03707654 -0.04846498 -0.01416432
v 0.03730863 -0.04823835 -0.01416432
v 0.03757612 -0.05052921 -0.01160939
v 0.03697033 -0.05002177 -0.01269241
v 0.00405724 -0.06022962 -0.01416432
v 0.00243657 -0.06073213 -0.01367508
v 0.00021404 -0.06073213 -0.01367508
v 0.00081196 -0.06154501 -0.01284713
v 0.00021404 -0.06154501 -0.01284713
v 0.00021404 -0.06297372 -0.01076890
v 0.00081196 -0.06296880 -0.01076054
v 0.00405724 -0.06336785 -0.00987405
v 0.00531602 -0.06333336 -0.00980714
v 0.00405724 -0.06205738 -0.01194392
v 0.00568185 -0.06196378 -0.01181011
v 0.00568185 -0.06142185 -0.01262133
v 0.00730646 -0.06131839 -0.01245825
v 0.00730646 -0.06186031 -0.01164703
v 0.00730646 -0.06321020 -0.00961897
v 0.01055175 -0.06347130 -0.00839378
v 0.00892714 -0.06308210 -0.00942244
v 0.01217242 -0.06199826 -0.01023366
v 0.01171218 -0.06335799 -0.00822233
v 0.01379703 -0.06185046 -0.01001622
v 0.01379703 -0.06132332 -0.01082744
v 0.01379703 -0.05992418 -0.01282622
v 0.01541771 -0.05974682 -0.01258788
v 0.01379703 -0.06051043 -0.01201500
v 0.01704232 -0.05872209 -0.01335728
v 0.01704232 -0.05803237 -0.01416432
v 0.01908783 -0.05730817 -0.01416432
v 0.01930025 -0.05835260 -0.01290149
v 0.02028760 -0.05816539 -0.01266733
v 0.03214764 -0.05664308 -0.00790871
v 0.03241907 -0.05516018 -0.00971097
v 0.03326481 -0.05554445 -0.00859867
v 0.02393412 -0.05662830 -0.01276768
v 0.02190828 -0.05704213 -0.01326111
v 0.02383971 -0.05553460 -0.01416432
v 0.02736822 -0.05509613 -0.01288895
v 0.03446851 -0.05379059 -0.01002876
v 0.03322941 -0.05408126 -0.01055982
v 0.03326481 -0.05493356 -0.00940989
v 0.03178574 -0.05482025 -0.01058491
v 0.03390993 -0.05184460 -0.01286804
v 0.03374472 -0.05335706 -0.01111179
v 0.02449270 -0.05525379 -0.01416432
v 0.02963796 -0.05377089 -0.01319420
v 0.03164413 -0.05245549 -0.01350782
v 0.03282817 -0.05214512 -0.01319420
v 0.03530638 -0.05491878 -0.00771636
v 0.03555027 -0.05346544 -0.00960643
v 0.03746991 -0.05203181 -0.00986986
v 0.03660056 -0.05318955 -0.00900846
v 0.03497596 -0.05643616 -0.00576776
v 0.03584924 -0.05527842 -0.00663752
v 0.04040050 -0.06318556 0.00978345
v 0.03746991 -0.06176179 0.00472377
v 0.03881129 -0.06320527 0.00823628
v 0.04040050 -0.06481133 0.01225893
v 0.04040050 -0.06717116 0.01606415
v 0.04040050 -0.06611687 0.01435807
v 0.04040050 -0.06506751 0.01266454
v 0.04040050 -0.04947985 -0.00986986
v 0.04027856 -0.05002177 -0.00944753
v 0.04040050 -0.05013508 -0.00920918
v 0.03919679 -0.05054399 -0.00998695
v 0.03685232 -0.04866204 -0.01416432
v 0.03588857 -0.05043560 -0.01313984
v 0.03855167 -0.05162783 -0.00934299
v 0.03681299 -0.05160813 -0.01095289
v 0.03644322 -0.04944536 -0.01372526
v 0.00568185 -0.06019021 -0.01416432
v 0.00243657 -0.06154501 -0.01283459
v 0.00081196 -0.06216084 -0.01203591
v 0.00021404 -0.06216084 -0.01203591
v 0.00243657 -0.06212635 -0.01202337
v 0.00243657 -0.06293923 -0.01072708
v 0.00405724 -0.06286533 -0.01068527
v 0.00405724 -0.06150068 -0.01275514
v 0.00730646 -0.06050551 -0.01359981
v 0.00892714 -0.06037742 -0.01343673
v 0.00908055 -0.06127898 -0.01208609
v 0.00863998 -0.06175193 -0.01148813
v 0.00972174 -0.06166325 -0.01135432
v 0.01055175 -0.06159428 -0.01124978
v 0.01217242 -0.06145634 -0.01104488
v 0.01055175 -0.06097353 -0.01216972
v 0.01286475 -0.06001778 -0.01294749
v 0.01408812 -0.05879599 -0.01416432
v 0.01541771 -0.05893393 -0.01362490
v 0.01055175 -0.06023455 -0.01324020
v 0.01178299 -0.06012124 -0.01308548
v 0.01541771 -0.05849547 -0.01416432
v 0.01583074 -0.05838216 -0.01416432
v 0.02028760 -0.05686477 -0.01416432
v 0.02190828 -0.05626373 -0.01416432
v 0.03573122 -0.05195298 -0.01138359
v 0.03488942 -0.05009567 -0.01416432
v 0.03488942 -0.05074598 -0.01346182
v 0.03488942 -0.05155393 -0.01250843
v 0.03488942 -0.05220424 -0.01169720
v 0.02855619 -0.05331764 -0.01416432
v 0.03001165 -0.05261315 -0.01416432
v 0.03040895 -0.05241608 -0.01416432
v 0.03106195 -0.05209093 -0.01416432
v 0.03164413 -0.05180026 -0.01416432
v 0.03180935 -0.05171651 -0.01416432
v 0.03364244 -0.05078046 -0.01416432
v 0.03429150 -0.05042575 -0.01416432
v 0.03805996 -0.05232741 -0.00884957
v 0.03822517 -0.05319448 -0.00739020
v 0.03909452 -0.05203181 -0.00825996
v 0.03968457 -0.05557401 -0.00235979
v 0.04040050 -0.05611101 -0.00083770
v 0.04040050 -0.04996265 -0.00938480
v 0.04040050 -0.05074598 -0.00854431
v 0.03968850 -0.05108591 -0.00885375
v 0.03621507 -0.04919411 -0.01416432
v 0.03498776 -0.05003655 -0.01416432
v 0.04017628 -0.05162783 -0.00771636
v 0.00730646 -0.06007197 -0.01416432
v 0.00892714 -0.05982564 -0.01416432
v 0.00906482 -0.05980101 -0.01416432
v 0.00963127 -0.05969263 -0.01416432
v 0.01055175 -0.05951034 -0.01416432
v 0.01226290 -0.05954483 -0.01369181
v 0.01372623 -0.05886989 -0.01416432
v 0.01487486 -0.05862356 -0.01416432
v 0.03968457 -0.05232741 -0.00722712
v 0.04040050 -0.05212049 -0.00681315
v 0.04040050 -0.05179534 -0.00726475
v 0.04040050 -0.05409604 -0.00385679
v 0.04040050 -0.05151945 -0.00762019
v 0.04040050 -0.05345066 -0.00482273
f 1 2 3
f 1 3 7
f 1 7 14
f 1 14 24
f 1 24 27
f 1 27 16
f 1 16 15
f 1 15 8
f 1 8 4
f 1 4 9
f 1 9 19
f 1 19 33
f 1 33 51
f 1 51 71
f 1 71 91
f 1 91 108
f 1 108 124
f 1 124 143
f 1 143 172
f 1 172 171
f 1 171 215
f 1 215 283
f 1 283 282
f 1 282 347
f 1 347 398
f 1 398 455
f 1 455 523
f 1 523 524
f 1 524 525
f 1 525 522
f 1 522 519
f 1 519 577
f 1 577 595
f 1 595 597
f 1 597 593
f 1 593 594
f 1 594 596
f 1 596 579
f 1 579 528
f 1 528 578
f 1 578 526
f 1 526 459
f 1 459 403
f 1 403 348
f 1 348 285
f 1 285 224
f 1 224 223
f 1 223 222
f 1 222 221
f 1 221 220
f 1 220 219
f 1 219 217
f 1 217 174
f 1 174 144
f 1 144 125
f 1 125 109
f 1 109 92
f 1 92 73
f 1 73 54
f 1 54 52
f 1 52 35
f 1 35 21
f 1 21 10
f 1 10 5
f 1 5 2
f 2 5 6
f 2 6 7
f 2 7 3
f 4 8 9
f 5 10 11
f 5 11 12
f 5 12 6
f 6 12 13
f 6 13 7
f 7 13 14
f 8 15 9
f 9 15 16
f 9 16 17
f 9 17 18
f 9 18 19
f 10 20 12
f 10 12 11
f 10 21 20
f 12 20 22
f 12 22 13
f 13 22 20
f 13 20 34
f 13 34 36
f 13 36 53
f 13 53 72
f 13 72 74
f 13 74 93
f 13 93 110
f 13 110 126
f 13 126 145
f 13 145 175
f 13 175 218
f 13 218 284
f 13 284 287
f 13 287 286
f 13 286 350
f 13 350 409
f 13 409 469
f 13 469 471
f 13 471 538
f 13 538 472
f 13 472 410
f 13 410 351
f 13 351 288
f 13 288 230
f 13 230 229
f 13 229 228
f 13 228 227
f 13 227 226
f 13 226 225
f 13 225 176
f 13 176 147
f 13 147 146
f 13 146 127
f 13 127 113
f 13 113 112
f 13 112 97
f 13 97 79
f 13 79 57
f 13 57 40
f 13 40 39
f 13 39 25
f 13 25 23
f 13 23 14
f 14 23 25
f 14 25 26
f 14 26 38
f 14 38 24
f 16 27 28
f 16 28 17
f 17 28 29
f 17 29 30
f 17 30 31
f 17 31 32
f 17 32 19
f 17 19 18
f 19 32 33
f 20 21 34
f 21 35 36
f 21 36 34
f 24 37 27
f 24 38 37
f 25 39 26
f 26 39 40
f 26 40 56
f 26 56 38
f 27 37 28
f 28 37 41
f 28 41 42
f 28 42 43
f 28 43 29
f 29 43 30
f 30 43 44
f 30 44 45
f 30 45 46
f 30 46 47
f 30 47 48
f 30 48 31
f 31 48 49
f 31 49 32
f 32 49 33
f 33 49 50
f 33 50 51
f 35 52 36
f 36 52 54
f 36 54 53
f 37 38 55
f 37 55 41
f 38 56 55
f 40 57 76
f 40 76 56
f 41 55 58
f 41 58 42
f 42 44 43
f 42 58 59
f 42 59 60
f 42 60 61
f 42 61 44
f 44 61 62
f 44 62 45
f 45 62 63
f 45 63 64
f 45 64 65
f 45 65 46
f 46 65 47
f 47 65 66
f 47 66 67
f 47 67 68
f 47 68 48
f 48 69 49
f 48 68 69
f 49 69 70
f 49 70 51
f 49 51 50
f 51 70 71
f 53 54 72
f 54 73 74
f 54 74 72
f 55 56 75
f 55 75 58
f 56 76 77
f 56 77 78
f 56 78 75
f 57 79 76
f 58 75 59
f 59 75 60
f 60 75 61
f 61 75 80
f 61 80 62
f 62 80 81
f 62 81 82
f 62 82 63
f 63 82 83
f 63 83 64
f 64 83 66
f 64 66 65
f 66 83 84
f 66 84 85
f 66 85 86
f 66 86 67
f 67 86 68
f 68 86 87
f 68 87 88
f 68 88 69
f 69 88 89
f 69 89 70
f 70 89 71
f 71 89 90
f 71 90 91
f 73 92 93
f 73 93 74
f 75 78 94
f 75 94 80
f 76 79 95
f 76 95 77
f 77 95 78
f 78 95 96
f 78 96 94
f 79 97 95
f 80 94 81
f 81 94 82
f 82 94 83
f 83 94 98
f 83 98 99
f 83 99 84
f 84 99 100
f 84 100 85
f 85 100 101
f 85 101 86
f 86 101 102
f 86 102 103
f 86 103 87
f 87 103 104
f 87 104 105
f 87 105 106
f 87 106 88
f 88 106 89
f 89 106 90
f 90 107 91
f 90 106 107
f 91 107 108
f 92 109 93
f 93 109 110
f 94 96 111
f 94 111 98
f 95 97 112
f 95 112 113
f 95 113 114
f 95 114 115
f 95 115 96
f 96 115 116
f 96 116 98
f 96 98 111
f 98 116 117
f 98 117 99
f 99 117 100
f 100 117 118
f 100 118 101
f 101 119 103
f 101 103 102
f 101 118 119
f 103 119 104
f 104 119 120
f 104 120 121
f 104 121 122
f 104 122 105
f 105 122 107
f 105 107 106
f 107 122 123
f 107 123 124
f 107 124 108
f 109 125 126
f 109 126 110
f 113 127 114
f 114 127 128
f 114 128 115
f 115 128 129
f 115 129 116
f 116 130 117
f 116 129 131
f 116 131 132
f 116 132 133
f 116 133 130
f 117 130 134
f 117 134 135
f 117 135 118
f 118 135 136
f 118 136 137
f 118 137 119
f 119 137 138
f 119 138 120
f 120 139 121
f 120 138 137
f 120 137 140
f 120 140 139
f 121 139 141
f 121 141 142
f 121 142 122
f 122 142 143
f 122 143 124
f 122 124 123
f 125 144 126
f 126 144 145
f 127 146 128
f 128 146 147
f 128 147 148
f 128 148 149
f 128 149 129
f 129 149 150
f 129 150 131
f 130 133 134
f 131 151 152
f 131 152 132
f 131 150 153
f 131 153 154
f 131 154 151
f 132 152 133
f 133 155 156
f 133 156 157
f 133 157 140
f 133 140 137
f 133 137 136
f 133 136 134
f 133 152 154
f 133 154 158
f 133 158 159
f 133 159 160
f 133 160 161
f 133 161 162
f 133 162 155
f 134 136 135
f 139 140 163
f 139 163 164
f 139 164 165
f 139 165 166
f 139 166 141
f 140 157 156
f 140 156 167
f 140 167 168
f 140 168 163
f 141 166 165
f 141 165 169
f 141 169 170
f 141 170 171
f 141 171 172
f 141 172 173
f 141 173 142
f 142 173 143
f 143 173 172
f 144 174 175
f 144 175 145
f 147 176 148
f 148 177 178
f 148 178 179
f 148 179 180
f 148 180 149
f 148 176 177
f 149 181 182
f 149 182 183
f 149 183 150
f 149 180 181
f 150 183 184
f 150 184 153
f 151 185 152
f 151 154 185
f 152 185 154
f 153 184 186
f 153 186 187
f 153 187 154
f 154 187 188
f 154 188 189
f 154 189 190
f 154 190 191
f 154 191 158
f 155 162 156
f 156 162 167
f 158 191 159
f 159 192 160
f 159 191 193
f 159 193 192
f 160 192 194
f 160 194 195
f 160 195 196
f 160 196 197
f 160 197 161
f 161 197 162
f 162 197 198
f 162 198 199
f 162 199 200
f 162 200 201
f 162 201 202
f 162 202 203
f 162 203 204
f 162 204 205
f 162 205 167
f 163 168 206
f 163 206 207
f 163 207 164
f 164 208 209
f 164 209 210
f 164 210 211
f 164 211 212
f 164 212 213
f 164 213 214
f 164 214 165
f 164 207 208
f 165 214 215
f 165 215 169
f 167 205 168
f 168 205 216
f 168 216 206
f 169 215 170
f 170 215 171
f 174 217 175
f 175 217 219
f 175 219 220
f 175 220 221
f 175 221 222
f 175 222 223
f 175 223 224
f 175 224 218
f 176 225 177
f 177 225 226
f 177 226 227
f 177 227 228
f 177 228 229
f 177 229 230
f 177 230 178
f 178 231 179
f 178 230 231
f 179 232 233
f 179 233 234
f 179 234 235
f 179 235 180
f 179 231 230
f 179 230 232
f 180 235 236
f 180 236 181
f 181 237 238
f 181 238 182
f 181 236 237
f 182 238 183
f 183 238 184
f 184 238 186
f 186 239 240
f 186 240 187
f 186 238 241
f 186 241 242
f 186 242 243
f 186 243 239
f 187 240 188
f 188 240 244
f 188 244 245
f 188 245 246
f 188 246 247
f 188 247 248
f 188 248 189
f 189 249 190
f 189 248 249
f 190 249 191
f 191 249 250
f 191 250 193
f 192 193 194
f 193 250 249
f 193 249 251
f 193 251 194
f 194 251 252
f 194 252 253
f 194 253 195
f 195 253 254
f 195 254 255
f 195 255 196
f 196 255 197
f 197 255 198
f 198 254 256
f 198 256 257
f 198 257 258
f 198 258 199
f 198 255 254
f 199 259 200
f 199 258 260
f 199 260 261
f 199 261 262
f 199 262 263
f 199 263 259
f 200 259 201
f 201 264 265
f 201 265 202
f 201 259 266
f 201 266 267
f 201 267 264
f 202 265 203
f 203 265 268
f 203 268 269
f 203 269 270
f 203 270 204
f 204 270 206
f 204 206 205
f 205 206 216
f 206 270 271
f 206 271 272
f 206 272 273
f 206 273 208
f 206 208 207
f 208 273 209
f 209 273 274
f 209 274 275
f 209 275 276
f 209 276 277
f 209 277 210
f 210 277 211
f 211 278 212
f 211 277 278
f 212 279 213
f 212 278 280
f 212 280 279
f 213 279 214
f 214 279 281
f 214 281 282
f 214 282 283
f 214 283 215
f 218 224 284
f 224 285 349
f 224 349 405
f 224 405 462
f 224 462 464
f 224 464 463
f 224 463 530
f 224 530 581
f 224 581 582
f 224 582 561
f 224 561 572
f 224 572 571
f 224 571 570
f 224 570 569
f 224 569 568
f 224 568 567
f 224 567 566
f 224 566 565
f 224 565 509
f 224 509 501
f 224 501 559
f 224 559 558
f 224 558 493
f 224 493 492
f 224 492 557
f 224 557 556
f 224 556 591
f 224 591 552
f 224 552 590
f 224 590 588
f 224 588 587
f 224 587 586
f 224 586 585
f 224 585 584
f 224 584 535
f 224 535 467
f 224 467 407
f 224 407 350
f 224 350 286
f 224 286 287
f 224 287 284
f 230 288 233
f 230 233 232
f 233 289 290
f 233 290 234
f 233 288 289
f 234 290 291
f 234 291 235
f 235 292 293
f 235 293 294
f 235 294 236
f 235 291 295
f 235 295 296
f 235 296 297
f 235 297 298
f 235 298 292
f 236 294 237
f 237 294 241
f 237 241 238
f 239 243 299
f 239 299 300
f 239 300 301
f 239 301 240
f 240 301 302
f 240 302 244
f 241 294 293
f 241 293 242
f 242 293 292
f 242 292 299
f 242 299 243
f 244 303 245
f 244 302 304
f 244 304 305
f 244 305 306
f 244 306 303
f 245 303 364
f 245 364 307
f 245 307 246
f 246 307 247
f 247 307 248
f 248 307 308
f 248 308 309
f 248 309 251
f 248 251 249
f 251 309 310
f 251 310 311
f 251 311 252
f 252 311 312
f 252 312 253
f 253 312 254
f 254 313 311
f 254 311 310
f 254 310 256
f 254 312 314
f 254 314 313
f 256 310 309
f 256 309 315
f 256 315 257
f 257 315 316
f 257 316 317
f 257 317 318
f 257 318 258
f 258 318 260
f 259 263 319
f 259 319 320
f 259 320 266
f 260 318 317
f 260 317 321
f 260 321 322
f 260 322 323
f 260 323 261
f 261 323 324
f 261 324 325
f 261 325 262
f 262 325 263
f 263 325 326
f 263 326 327
f 263 327 319
f 264 267 328
f 264 328 329
f 264 329 330
f 264 330 265
f 265 330 331
f 265 331 332
f 265 332 268
f 266 320 327
f 266 327 328
f 266 328 267
f 268 332 333
f 268 333 334
f 268 334 335
f 268 335 270
f 268 270 269
f 270 336 272
f 270 272 271
f 270 335 334
f 270 334 336
f 272 336 273
f 273 336 337
f 273 337 274
f 274 337 332
f 274 332 275
f 275 332 331
f 275 331 330
f 275 330 329
f 275 329 338
f 275 338 339
f 275 339 276
f 276 339 340
f 276 340 341
f 276 341 277
f 277 341 342
f 277 342 343
f 277 343 278
f 278 343 280
f 279 344 281
f 279 280 344
f 280 343 345
f 280 345 344
f 281 344 346
f 281 346 347
f 281 347 282
f 285 348 349
f 288 351 352
f 288 352 289
f 289 352 353
f 289 353 354
f 289 354 355
f 289 355 290
f 290 355 356
f 290 356 357
f 290 357 291
f 291 357 295
f 292 298 299
f 295 357 296
f 296 357 297
f 297 357 298
f 298 357 358
f 298 358 299
f 299 301 300
f 299 358 302
f 299 302 301
f 302 358 359
f 302 359 360
f 302 360 361
f 302 361 362
f 302 362 363
f 302 363 304
f 303 306 364
f 304 363 306
f 304 306 305
f 306 363 365
f 306 365 366
f 306 366 364
f 307 364 366
f 307 366 367
f 307 367 308
f 308 367 368
f 308 368 369
f 308 369 370
f 308 370 371
f 308 371 372
f 308 372 373
f 308 373 309
f 309 373 372
f 309 372 374
f 309 374 315
f 311 313 314
f 311 314 312
f 315 374 316
f 316 374 375
f 316 375 376
f 316 376 317
f 317 376 377
f 317 377 378
f 317 378 321
f 319 327 320
f 321 378 377
f 321 377 379
f 321 379 380
f 321 380 322
f 322 380 381
f 322 381 324
f 322 324 323
f 324 381 382
f 324 382 383
f 324 383 325
f 325 384 385
f 325 385 386
f 325 386 326
f 325 383 387
f 325 387 388
f 325 388 389
f 325 389 390
f 325 390 391
f 325 391 384
f 326 392 327
f 326 386 392
f 327 392 393
f 327 393 394
f 327 394 341
f 327 341 395
f 327 395 328
f 328 338 329
f 328 395 340
f 328 340 338
f 332 337 336
f 332 336 334
f 332 334 333
f 338 340 339
f 340 395 341
f 341 394 393
f 341 393 396
f 341 396 397
f 341 397 342
f 342 345 343
f 342 397 345
f 344 398 347
f 344 347 346
f 344 345 399
f 344 399 398
f 345 400 401
f 345 401 402
f 345 402 399
f 345 397 400
f 348 403 404
f 348 404 349
f 349 404 406
f 349 406 405
f 350 407 408
f 350 408 409
f 351 410 411
f 351 411 352
f 352 411 412
f 352 412 355
f 352 355 354
f 352 354 353
f 355 412 413
f 355 413 357
f 355 357 356
f 357 413 414
f 357 414 358
f 358 414 359
f 359 414 415
f 359 415 416
f 359 416 417
f 359 417 418
f 359 418 419
f 359 419 360
f 360 419 420
f 360 420 421
f 360 421 361
f 361 421 422
f 361 422 423
f 361 423 371
f 361 371 369
f 361 369 362
f 362 369 363
f 363 369 368
f 363 368 365
f 365 368 366
f 366 368 367
f 369 371 370
f 371 423 424
f 371 424 372
f 372 424 422
f 372 422 425
f 372 425 426
f 372 426 427
f 372 427 428
f 372 428 375
f 372 375 374
f 375 428 377
f 375 377 376
f 377 428 427
f 377 427 429
f 377 429 430
f 377 430 431
f 377 431 432
f 377 432 379
f 379 432 433
f 379 433 380
f 380 433 434
f 380 434 381
f 381 434 382
f 382 434 433
f 382 433 387
f 382 387 435
f 382 435 383
f 383 435 387
f 384 391 436
f 384 436 437
f 384 437 385
f 385 396 393
f 385 393 386
f 385 437 438
f 385 438 439
f 385 439 396
f 386 393 392
f 387 433 440
f 387 440 441
f 387 441 442
f 387 442 388
f 388 442 389
f 389 442 443
f 389 443 390
f 390 444 445
f 390 445 446
f 390 446 437
f 390 437 436
f 390 436 391
f 390 443 447
f 390 447 448
f 390 448 449
f 390 449 444
f 396 439 450
f 396 450 451
f 396 451 452
f 396 452 453
f 396 453 454
f 396 454 397
f 397 454 400
f 398 399 455
f 399 402 456
f 399 456 455
f 400 457 458
f 400 458 401
f 400 454 457
f 401 458 456
f 401 456 402
f 403 459 404
f 404 459 460
f 404 460 406
f 405 406 461
f 405 461 462
f 406 463 464
f 406 464 461
f 406 460 465
f 406 465 466
f 406 466 463
f 407 467 468
f 407 468 408
f 408 469 409
f 408 468 470
f 408 470 471
f 408 471 469
f 410 472 473
f 410 473 411
f 411 473 474
f 411 474 412
f 412 474 413
f 413 474 414
f 414 474 415
f 415 474 475
f 415 475 416
f 416 475 476
f 416 476 477
f 416 477 478
f 416 478 479
f 416 479 480
f 416 480 481
f 416 481 417
f 417 481 418
f 418 482 419
f 418 481 483
f 418 483 484
f 418 484 486
f 418 486 482
f 419 482 420
f 420 482 485
f 420 485 421
f 421 485 422
f 422 424 423
f 422 485 482
f 422 482 486
f 422 486 487
f 422 487 425
f 425 487 426
f 426 488 489
f 426 489 427
f 426 487 490
f 426 490 488
f 427 489 491
f 427 491 429
f 429 491 430
f 430 492 493
f 430 493 494
f 430 494 431
f 430 491 492
f 431 494 432
f 432 494 433
f 433 494 495
f 433 495 440
f 437 496 438
f 437 446 497
f 437 497 496
f 438 496 439
f 439 496 498
f 439 498 450
f 440 495 441
f 441 499 442
f 441 495 500
f 441 500 501
f 441 501 499
f 442 499 443
f 443 501 502
f 443 502 447
f 443 499 501
f 444 449 445
f 445 503 504
f 445 504 505
f 445 505 497
f 445 497 506
f 445 506 446
f 445 449 507
f 445 507 508
f 445 508 503
f 446 506 497
f 447 502 509
f 447 509 510
f 447 510 448
f 448 511 512
f 448 512 449
f 448 510 511
f 449 512 507
f 450 498 451
f 451 513 452
f 451 498 505
f 451 505 503
f 451 503 514
f 451 514 515
f 451 515 516
f 451 516 513
f 452 513 517
f 452 517 453
f 453 517 518
f 453 518 519
f 453 519 520
f 453 520 521
f 453 521 454
f 454 521 522
f 454 522 457
f 455 456 523
f 456 524 523
f 456 458 457
f 456 457 525
f 456 525 524
f 457 522 525
f 459 526 460
f 460 527 528
f 460 528 529
f 460 529 465
f 460 526 527
f 461 464 462
f 463 466 530
f 465 531 466
f 465 529 532
f 465 532 515
f 465 515 533
f 465 533 531
f 466 531 534
f 466 534 530
f 467 535 536
f 467 536 468
f 468 536 470
f 470 536 537
f 470 537 538
f 470 538 471
f 472 538 537
f 472 537 473
f 473 537 539
f 473 539 540
f 473 540 474
f 474 540 475
f 475 540 541
f 475 541 476
f 476 541 539
f 476 539 542
f 476 542 478
f 476 478 477
f 478 542 543
f 478 543 479
f 479 543 544
f 479 544 545
f 479 545 546
f 479 546 480
f 480 546 483
f 480 483 481
f 483 546 547
f 483 547 548
f 483 548 484
f 484 548 549
f 484 549 487
f 484 487 486
f 487 549 550
f 487 550 490
f 488 490 551
f 488 551 552
f 488 552 553
f 488 553 489
f 489 553 491
f 490 550 554
f 490 554 555
f 490 555 551
f 491 553 556
f 491 556 557
f 491 557 492
f 493 558 494
f 494 558 559
f 494 559 501
f 494 501 500
f 494 500 495
f 496 497 498
f 497 505 498
f 501 509 502
f 503 505 504
f 503 508 560
f 503 560 514
f 507 512 561
f 507 561 562
f 507 562 531
f 507 531 563
f 507 563 508
f 508 563 564
f 508 564 560
f 509 565 510
f 510 565 566
f 510 566 567
f 510 567 568
f 510 568 569
f 510 569 511
f 511 569 570
f 511 570 571
f 511 571 512
f 512 571 572
f 512 572 561
f 513 518 517
f 513 516 573
f 513 573 574
f 513 574 518
f 514 560 533
f 514 533 515
f 515 532 575
f 515 575 573
f 515 573 516
f 518 574 576
f 518 576 519
f 519 522 521
f 519 521 520
f 519 576 577
f 526 578 527
f 527 578 528
f 528 579 529
f 529 579 580
f 529 580 532
f 530 534 581
f 531 562 582
f 531 582 581
f 531 581 534
f 531 533 560
f 531 560 563
f 532 583 575
f 532 580 583
f 535 584 542
f 535 542 536
f 536 542 539
f 536 539 537
f 539 541 540
f 542 584 543
f 543 584 585
f 543 585 544
f 544 585 586
f 544 586 554
f 544 554 550
f 544 550 545
f 545 550 548
f 545 548 547
f 545 547 546
f 548 550 549
f 551 555 587
f 551 587 588
f 551 588 589
f 551 589 590
f 551 590 552
f 552 591 553
f 553 591 556
f 554 586 555
f 555 586 587
f 560 564 563
f 561 582 562
f 573 575 574
f 574 575 592
f 574 592 577
f 574 577 576
f 575 593 592
f 575 583 594
f 575 594 593
f 577 592 595
f 579 596 583
f 579 583 580
f 583 596 594
f 588 590 589
f 592 593 597
f 592 597 595

