# https://github.com/mikedh/trimesh
v 0.00021404 0.00016395 -0.02855018
v 0.00243813 0.00016395 -0.02855446
v 0.00021404 0.00016395 -0.02278715
v 0.00021404 0.04300338 -0.02855018
v 0.04462742 0.00016395 -0.02855446
v 0.00243813 0.04462730 -0.02855446
v 0.04951472 0.00016395 -0.01763048
v 0.00021404 0.04786942 -0.01763048
v 0.00021404 0.04462730 -0.02854804
v 0.04624702 0.00016395 -0.02836624
v 0.04462742 0.00730576 -0.02855446
v 0.00021404 0.04624550 -0.02836196
v 0.00243813 0.04624550 -0.02836624
v 0.00568302 0.04462730 -0.02855446
v 0.05845671 0.00016395 -0.01763048
v 0.00021404 0.05856784 -0.01763048
v 0.04764991 0.00016395 -0.02788287
v 0.04624702 0.00405793 -0.02836624
v 0.04462742 0.00892968 -0.02853093
v 0.04624702 0.00568184 -0.02835769
v 0.04137683 0.01704355 -0.02855446
v 0.04300212 0.01379572 -0.02854804
v 0.00021404 0.04764642 -0.02788287
v 0.00081283 0.04765213 -0.02788287
v 0.00405772 0.04624550 -0.02835448
v 0.00243813 0.04762926 -0.02788287
v 0.00730832 0.04462730 -0.02854162
v 0.01379810 0.04300338 -0.02854804
v 0.01217281 0.04300338 -0.02855446
v 0.05835976 0.00016395 -0.01777057
v 0.05847381 0.00081581 -0.01763048
v 0.00039083 0.05857356 -0.01763048
v 0.00021404 0.05840773 -0.01784115
v 0.04845970 0.00081581 -0.02746687
v 0.04845970 0.00016395 -0.02746152
v 0.04764991 0.00405793 -0.02788287
v 0.04624702 0.00730576 -0.02830208
v 0.04300212 0.01541964 -0.02850313
v 0.04462742 0.01055360 -0.02846890
v 0.04761569 0.00568184 -0.02787431
v 0.03975723 0.02028567 -0.02855446
v 0.04137683 0.01866747 -0.02854056
v 0.00021404 0.04845837 -0.02745832
v 0.00081283 0.04845837 -0.02746259
v 0.00568302 0.04624550 -0.02830101
v 0.00892791 0.04462730 -0.02850313
v 0.00405772 0.04754349 -0.02787111
v 0.00243813 0.04843550 -0.02743907
v 0.01541770 0.04300338 -0.02850206
v 0.01866829 0.04137946 -0.02854056
v 0.01704299 0.04137946 -0.02855446
v 0.05754426 0.00016395 -0.01865497
v 0.05835976 0.00081581 -0.01777592
v 0.05673447 0.00405793 -0.01939072
v 0.05785791 0.00568184 -0.01763048
v 0.00243813 0.05856784 -0.01763048
v 0.00243813 0.05841345 -0.01784115
v 0.00021404 0.05789883 -0.01835553
v 0.04948621 0.00081581 -0.02665626
v 0.04845970 0.00405793 -0.02746687
v 0.04945769 0.00016395 -0.02664985
v 0.04462742 0.01217180 -0.02839084
v 0.04462742 0.01379572 -0.02828818
v 0.04624702 0.00892968 -0.02817696
v 0.04749023 0.00730576 -0.02781978
v 0.04137683 0.02028567 -0.02846249
v 0.04300212 0.01704355 -0.02841223
v 0.04843119 0.00568184 -0.02743372
v 0.03813194 0.02353351 -0.02855446
v 0.03975723 0.02190959 -0.02853628
v 0.00021404 0.04947618 -0.02664664
v 0.00081283 0.04948190 -0.02665091
v 0.00730832 0.04624550 -0.02819300
v 0.01379810 0.04462730 -0.02827855
v 0.01217281 0.04462730 -0.02837693
v 0.01055321 0.04462730 -0.02844431
v 0.00568302 0.04740626 -0.02781764
v 0.00405772 0.04835545 -0.02734068
v 0.00243813 0.04941900 -0.02662846
v 0.01704299 0.04300338 -0.02841223
v 0.02028789 0.04137946 -0.02846249
v 0.02191318 0.03975554 -0.02853628
v 0.02353278 0.03813162 -0.02855446
v 0.05709373 0.00016395 -0.01913941
v 0.05754996 0.00081581 -0.01865390
v 0.05678579 0.00243972 -0.01946344
v 0.05591896 0.00405793 -0.02027619
v 0.05510346 0.00568184 -0.02102156
v 0.05579921 0.00568184 -0.02020988
v 0.05660900 0.00568184 -0.01923565
v 0.05716788 0.01059363 -0.01763048
v 0.05741880 0.00892968 -0.01763048
v 0.05764691 0.00730576 -0.01763048
v 0.00405772 0.05847635 -0.01763048
v 0.00243813 0.05760149 -0.01865497
v 0.00021404 0.05760149 -0.01865390
v 0.00405772 0.05836199 -0.01777912
v 0.00568302 0.05678953 -0.01946451
v 0.05029600 0.00081581 -0.02595580
v 0.04948621 0.00243972 -0.02665626
v 0.04946910 0.00405793 -0.02665626
v 0.05026749 0.00016395 -0.02592800
v 0.04300212 0.01866747 -0.02828390
v 0.04462742 0.01541964 -0.02810852
v 0.04606453 0.01217180 -0.02790747
v 0.04830002 0.00730576 -0.02732571
v 0.04728493 0.00892968 -0.02771711
v 0.03975723 0.02353351 -0.02843896
v 0.04137683 0.02190959 -0.02829887
v 0.04937215 0.00568184 -0.02662311
v 0.03651234 0.02515743 -0.02855446
v 0.03488705 0.02840527 -0.02854056
v 0.03651234 0.02678135 -0.02853628
v 0.03813194 0.02515743 -0.02849778
v 0.00021404 0.04977924 -0.02638998
v 0.00081283 0.05029386 -0.02595580
v 0.01217281 0.04592529 -0.02789356
v 0.01379810 0.04573088 -0.02780053
v 0.01549183 0.04474738 -0.02799409
v 0.01866829 0.04300338 -0.02827855
v 0.00730832 0.04725187 -0.02772246
v 0.00568302 0.04821822 -0.02719417
v 0.00849450 0.04713180 -0.02764225
v 0.00730832 0.05503982 -0.02098520
v 0.00243813 0.05023096 -0.02588950
v 0.00568302 0.05514274 -0.02107076
v 0.02191318 0.04137946 -0.02829887
v 0.02353278 0.03975554 -0.02844003
v 0.02515807 0.03813162 -0.02849778
v 0.02677767 0.03651342 -0.02853628
v 0.02840297 0.03488950 -0.02854056
v 0.02515807 0.03651342 -0.02855446
v 0.05678579 0.00016395 -0.01946558
v 0.05678579 0.00081581 -0.01946558
v 0.05597599 0.00243972 -0.02027726
v 0.05516620 0.00405793 -0.02108787
v 0.05027890 0.00405793 -0.02593441
v 0.04920677 0.00730576 -0.02651403
v 0.05494948 0.00730576 -0.02086008
v 0.05685992 0.01239480 -0.01763048
v 0.05566234 0.00730576 -0.02004840
v 0.05699679 0.01161715 -0.01763048
v 0.00560318 0.05824191 -0.01763048
v 0.00730832 0.05672664 -0.01938537
v 0.00405772 0.05516561 -0.02108894
v 0.00021404 0.05516561 -0.02108894
v 0.00568302 0.05597757 -0.02025908
v 0.05435639 0.00081581 -0.02189954
v 0.05435639 0.00016395 -0.02189848
v 0.05354089 0.00016395 -0.02270909
v 0.05029600 0.00243972 -0.02595580
v 0.04421682 0.01866747 -0.02781443
v 0.04309907 0.02033714 -0.02796628
v 0.04584212 0.01379572 -0.02781122
v 0.04714236 0.01008472 -0.02763691
v 0.04700549 0.01116543 -0.02755670
v 0.04687432 0.01217180 -0.02747329
v 0.04809472 0.00892968 -0.02715674
v 0.04903568 0.00892968 -0.02634506
v 0.03651234 0.02840527 -0.02841116
v 0.03813194 0.02678135 -0.02833095
v 0.03975723 0.02515743 -0.02817054
v 0.04143386 0.02353923 -0.02794703
v 0.04264285 0.02190959 -0.02783368
v 0.03326745 0.02840527 -0.02855446
v 0.03488705 0.03001775 -0.02841650
v 0.03326745 0.03164167 -0.02841650
v 0.00021404 0.05028814 -0.02595045
v 0.00021404 0.05059691 -0.02565209
v 0.00021404 0.05354170 -0.02271122
v 0.01500139 0.04556505 -0.02769038
v 0.01866829 0.04412411 -0.02780908
v 0.00957233 0.04701743 -0.02756098
v 0.01055321 0.04690879 -0.02747864
v 0.01217281 0.04673153 -0.02731181
v 0.02032780 0.04309487 -0.02796201
v 0.00892791 0.05487971 -0.02084618
v 0.00730832 0.05592039 -0.02017352
v 0.02191318 0.04263743 -0.02783261
v 0.02353848 0.04143664 -0.02794703
v 0.02515807 0.03975554 -0.02816947
v 0.02677767 0.03813162 -0.02833095
v 0.02840297 0.03651342 -0.02841116
v 0.03001686 0.03488950 -0.02841650
v 0.05516620 0.00016395 -0.02108894
v 0.05516620 0.00243972 -0.02108894
v 0.04885320 0.01055360 -0.02614936
v 0.05394009 0.00892968 -0.02147927
v 0.05474989 0.00892968 -0.02066866
v 0.05522892 0.01158856 -0.01953081
v 0.05534868 0.01055360 -0.01966021
v 0.05671165 0.01249773 -0.01776415
v 0.05659189 0.01348694 -0.01763048
v 0.00730832 0.05796173 -0.01763048
v 0.00892791 0.05769298 -0.01763048
v 0.00892791 0.05656653 -0.01916935
v 0.01055321 0.05555444 -0.01987516
v 0.00892791 0.05576029 -0.02003450
v 0.04398871 0.01982251 -0.02769679
v 0.04526044 0.01734661 -0.02747115
v 0.04544863 0.01626590 -0.02759413
v 0.04558549 0.01541964 -0.02767647
v 0.04665192 0.01379572 -0.02730004
v 0.04798637 0.01214321 -0.02655574
v 0.03659789 0.03010924 -0.02797912
v 0.03818326 0.02842242 -0.02794490
v 0.03971731 0.02663840 -0.02781871
v 0.04236342 0.02300174 -0.02769572
v 0.04085787 0.02515743 -0.02774278
v 0.03010810 0.03659919 -0.02797912
v 0.01981455 0.04394114 -0.02768931
v 0.01435127 0.05348452 -0.02103654
v 0.01541770 0.05250673 -0.02159904
v 0.01217281 0.05373611 -0.02125576
v 0.01326774 0.05361603 -0.02115845
v 0.01055321 0.05471389 -0.02068684
v 0.02300242 0.04236296 -0.02769572
v 0.02515807 0.04085341 -0.02774278
v 0.02663510 0.03971551 -0.02781764
v 0.02842008 0.03818309 -0.02794490
v 0.04873344 0.01158284 -0.02601996
v 0.05455029 0.01055360 -0.02047189
v 0.05495519 0.01379572 -0.01925491
v 0.05574218 0.01379572 -0.01844323
v 0.05651205 0.01379572 -0.01763048
v 0.01055321 0.05736705 -0.01763048
v 0.01175650 0.05709259 -0.01763048
v 0.01323353 0.05523423 -0.01954471
v 0.01217281 0.05536003 -0.01968374
v 0.01217281 0.05454807 -0.02049542
v 0.04502662 0.01866747 -0.02727224
v 0.04370357 0.02090894 -0.02751392
v 0.04596758 0.01866747 -0.02646163
v 0.04735336 0.01541964 -0.02625203
v 0.04640099 0.01541964 -0.02706370
v 0.04761569 0.01379572 -0.02648836
v 0.04860227 0.01266927 -0.02587880
v 0.03449355 0.03287104 -0.02776096
v 0.03611315 0.03124712 -0.02776096
v 0.03767571 0.02962320 -0.02776203
v 0.03914704 0.02789064 -0.02771177
v 0.04345265 0.02190959 -0.02729791
v 0.04058984 0.02599798 -0.02760162
v 0.04201554 0.02408816 -0.02746046
v 0.04895584 0.02806790 -0.01971154
v 0.02962336 0.03767418 -0.02776096
v 0.03124866 0.03611316 -0.02776096
v 0.02089238 0.04370098 -0.02750751
v 0.01704299 0.05222083 -0.02134987
v 0.01809231 0.05202070 -0.02117556
v 0.01917014 0.05180342 -0.02099590
v 0.02028789 0.05158041 -0.02080554
v 0.02268876 0.05028814 -0.02108466
v 0.01541770 0.05412493 -0.02006658
v 0.01541770 0.05331869 -0.02087719
v 0.02408595 0.04201416 -0.02745939
v 0.02599639 0.04059037 -0.02760162
v 0.02788972 0.03914371 -0.02771070
v 0.02191318 0.04344939 -0.02729363
v 0.02484442 0.04895584 -0.02134131
v 0.02592225 0.04865278 -0.02107503
v 0.05360933 0.01158856 -0.02115310
v 0.05313029 0.01541964 -0.02067507
v 0.05373479 0.01704355 -0.01966021
v 0.05360362 0.01807280 -0.01953081
v 0.05647783 0.01391008 -0.01763048
v 0.05346676 0.01915922 -0.01937147
v 0.01541770 0.05620630 -0.01763048
v 0.01704299 0.05580604 -0.01763048
v 0.01431135 0.05509128 -0.01937682
v 0.04469586 0.02043434 -0.02685838
v 0.04567674 0.01995975 -0.02620283
v 0.04698268 0.01762679 -0.02588308
v 0.04716517 0.01654609 -0.02606916
v 0.05212660 0.02190959 -0.01965914
v 0.05246307 0.02028567 -0.01997675
v 0.05179584 0.01908489 -0.02098627
v 0.05197262 0.01800418 -0.02114134
v 0.05271969 0.01858170 -0.02025801
v 0.05210950 0.01704355 -0.02126967
v 0.03232649 0.03557567 -0.02752569
v 0.03557708 0.03232783 -0.02752569
v 0.03719668 0.03070391 -0.02752569
v 0.03875354 0.02897707 -0.02746366
v 0.05031311 0.02598083 -0.01948162
v 0.04023057 0.02708440 -0.02731501
v 0.04721649 0.03104127 -0.01960674
v 0.04755296 0.03001775 -0.01987516
v 0.04864219 0.02914861 -0.01943563
v 0.05003368 0.02706725 -0.01921106
v 0.02897325 0.03875489 -0.02746259
v 0.03070690 0.03719387 -0.02752462
v 0.02353278 0.04928177 -0.02160332
v 0.01704299 0.05303279 -0.02061412
v 0.01870821 0.05275833 -0.02029971
v 0.02028789 0.05250101 -0.01999386
v 0.02028789 0.05331297 -0.01923886
v 0.02191318 0.05214078 -0.01967090
v 0.02353278 0.05009373 -0.02089003
v 0.01704299 0.05387906 -0.01980244
v 0.01541770 0.05493689 -0.01919609
v 0.01824058 0.05367893 -0.01960353
v 0.01932411 0.05349595 -0.01942280
v 0.02677767 0.04838404 -0.02086115
v 0.02915003 0.04864135 -0.01943670
v 0.03107187 0.04721756 -0.01960781
v 0.02707992 0.04023014 -0.02731395
v 0.03406014 0.04542782 -0.01946665
v 0.02529494 0.04949334 -0.02060556
v 0.02706281 0.05003654 -0.01921106
v 0.02806650 0.04895584 -0.01972330
v 0.05602161 0.01541964 -0.01763048
v 0.05327286 0.02028567 -0.01912871
v 0.05398001 0.02168087 -0.01763048
v 0.05444194 0.02028567 -0.01763048
v 0.05557679 0.01679196 -0.01763048
v 0.01825199 0.05547439 -0.01763048
v 0.05193270 0.02273871 -0.01948162
v 0.05326716 0.02352779 -0.01763048
v 0.03172770 0.03659919 -0.02727331
v 0.03335300 0.03497528 -0.02727331
v 0.03659789 0.03172744 -0.02727331
v 0.03749322 0.03263660 -0.02610659
v 0.03807491 0.03155590 -0.02639319
v 0.03818326 0.03010924 -0.02720700
v 0.03903868 0.03095551 -0.02605846
v 0.04234060 0.03750264 -0.01958856
v 0.04398871 0.03264232 -0.02122796
v 0.05098604 0.02652404 -0.01853519
v 0.05209809 0.02611234 -0.01763048
v 0.04884749 0.03108702 -0.01801974
v 0.04836275 0.03001775 -0.01916614
v 0.04557409 0.03587300 -0.01796413
v 0.04580220 0.03607885 -0.01763048
v 0.04652645 0.03506676 -0.01763048
v 0.04681730 0.03464935 -0.01763048
v 0.04845400 0.03226493 -0.01763048
v 0.04918396 0.03001775 -0.01835446
v 0.04978845 0.03021216 -0.01763048
v 0.05026749 0.02914861 -0.01781335
v 0.04961167 0.02860540 -0.01878330
v 0.05057544 0.02806790 -0.01812989
v 0.05156773 0.02715302 -0.01763048
v 0.05171030 0.02687855 -0.01763048
v 0.03010810 0.03818309 -0.02721556
v 0.03590214 0.04397545 -0.01960781
v 0.03567974 0.04217427 -0.02108573
v 0.03098063 0.03906366 -0.02607344
v 0.03157372 0.03808016 -0.02640174
v 0.02028789 0.05410207 -0.01842825
v 0.02191318 0.05418783 -0.01763048
v 0.02191318 0.05375898 -0.01806680
v 0.02191318 0.05295274 -0.01887847
v 0.02274009 0.05193493 -0.01948269
v 0.02515807 0.05051686 -0.01968801
v 0.02598498 0.05031101 -0.01948162
v 0.02337880 0.05112297 -0.01996285
v 0.01704299 0.05468530 -0.01892767
v 0.01919295 0.05509700 -0.01776201
v 0.02028789 0.05485684 -0.01763048
v 0.02860827 0.04961341 -0.01878330
v 0.02900746 0.05055117 -0.01763048
v 0.03001686 0.04996221 -0.01763048
v 0.03135702 0.04914454 -0.01763048
v 0.03215541 0.04685733 -0.01928699
v 0.03488705 0.04514192 -0.01919181
v 0.03326745 0.04789801 -0.01763048
v 0.03511516 0.04664576 -0.01763048
v 0.02652675 0.05098574 -0.01853519
v 0.02704000 0.05162616 -0.01763048
v 0.02807220 0.05057976 -0.01812989
v 0.01907889 0.05523995 -0.01763048
v 0.05231479 0.02567205 -0.01763048
v 0.05256572 0.02515743 -0.01763048
v 0.03321613 0.03646196 -0.02642206
v 0.03264014 0.03750836 -0.02610659
v 0.03646102 0.03321412 -0.02642206
v 0.03757877 0.03757698 -0.02288019
v 0.03945499 0.03784572 -0.02144719
v 0.04053852 0.03727964 -0.02107610
v 0.04135402 0.03808016 -0.01995643
v 0.04079515 0.03917230 -0.01964310
v 0.04187867 0.03858335 -0.01918967
v 0.04434799 0.03786859 -0.01763048
v 0.04513497 0.03694799 -0.01763048
v 0.04515778 0.03691940 -0.01763048
v 0.04909842 0.03129859 -0.01763048
v 0.04853954 0.03213914 -0.01763048
v 0.04990821 0.03001775 -0.01763048
v 0.05053552 0.02899422 -0.01763048
v 0.05091191 0.02834237 -0.01763048
v 0.03529194 0.04651996 -0.01763048
v 0.03617018 0.04588526 -0.01763048
v 0.03700278 0.04517051 -0.01763048
v 0.03697997 0.04350085 -0.01918967
v 0.03755025 0.04242014 -0.01964417
v 0.03646672 0.04297479 -0.01997355
v 0.03666062 0.04153385 -0.02086115
v 0.03663210 0.03987562 -0.02198831
v 0.03595347 0.03920089 -0.02288019
v 0.03538319 0.04028160 -0.02252836
v 0.02243784 0.05393052 -0.01763048
v 0.02274009 0.05355885 -0.01785933
v 0.02381792 0.05166618 -0.01921213
v 0.02598498 0.05193493 -0.01785933
v 0.01993431 0.05497120 -0.01763048
v 0.02835734 0.05092284 -0.01763048
v 0.02616177 0.05207216 -0.01763048
v 0.03703700 0.03865768 -0.02252836
v 0.03825170 0.03825170 -0.02198831
v 0.03893033 0.03892643 -0.02108573
v 0.03989980 0.03828601 -0.02085474
v 0.03973443 0.03973267 -0.01999493
v 0.03917555 0.04079622 -0.01964417
v 0.04025338 0.04025873 -0.01918967
v 0.04276261 0.03952110 -0.01763048
v 0.03789812 0.04438714 -0.01763048
v 0.03863378 0.04187693 -0.01918967
v 0.03810913 0.04135659 -0.01999600
v 0.03828591 0.03990993 -0.02086115
v 0.02286555 0.05371895 -0.01763048
v 0.02579679 0.05225514 -0.01763048
v 0.04114302 0.04114502 -0.01763048
f 1 2 5
f 1 5 10
f 1 10 17
f 1 17 35
f 1 35 61
f 1 61 102
f 1 102 150
f 1 150 149
f 1 149 185
f 1 185 133
f 1 133 84
f 1 84 52
f 1 52 30
f 1 30 15
f 1 15 7
f 1 7 3
f 1 3 8
f 1 8 16
f 1 16 33
f 1 33 58
f 1 58 96
f 1 96 146
f 1 146 170
f 1 170 169
f 1 169 168
f 1 168 115
f 1 115 71
f 1 71 43
f 1 43 23
f 1 23 12
f 1 12 9
f 1 9 4
f 1 4 6
f 1 6 2
f 2 6 14
f 2 14 29
f 2 29 51
f 2 51 83
f 2 83 132
f 2 132 165
f 2 165 111
f 2 111 69
f 2 69 41
f 2 41 21
f 2 21 11
f 2 11 5
f 3 7 8
f 4 9 6
f 5 11 18
f 5 18 10
f 6 9 12
f 6 12 13
f 6 13 14
f 7 15 31
f 7 31 55
f 7 55 93
f 7 93 92
f 7 92 91
f 7 91 142
f 7 142 140
f 7 140 193
f 7 193 225
f 7 225 266
f 7 266 312
f 7 312 316
f 7 316 315
f 7 315 314
f 7 314 319
f 7 319 374
f 7 374 373
f 7 373 330
f 7 330 344
f 7 344 343
f 7 343 391
f 7 391 390
f 7 390 389
f 7 389 339
f 7 339 387
f 7 387 388
f 7 388 337
f 7 337 336
f 7 336 335
f 7 335 334
f 7 334 386
f 7 386 385
f 7 385 384
f 7 384 416
f 7 416 423
f 7 423 417
f 7 417 394
f 7 394 393
f 7 393 392
f 7 392 368
f 7 368 367
f 7 367 364
f 7 364 363
f 7 363 362
f 7 362 407
f 7 407 370
f 7 370 408
f 7 408 422
f 7 422 421
f 7 421 402
f 7 402 351
f 7 351 360
f 7 360 406
f 7 406 372
f 7 372 317
f 7 317 269
f 7 269 268
f 7 268 227
f 7 227 226
f 7 226 195
f 7 195 194
f 7 194 143
f 7 143 94
f 7 94 56
f 7 56 32
f 7 32 16
f 7 16 8
f 10 18 36
f 10 36 17
f 11 19 20
f 11 20 18
f 11 21 22
f 11 22 19
f 12 23 24
f 12 24 13
f 13 25 14
f 13 24 26
f 13 26 25
f 14 27 28
f 14 28 29
f 14 25 27
f 15 30 31
f 16 32 33
f 17 34 35
f 17 36 60
f 17 60 34
f 18 20 36
f 19 37 20
f 19 22 38
f 19 38 39
f 19 39 37
f 20 40 36
f 20 37 40
f 21 41 42
f 21 42 22
f 22 42 38
f 23 43 44
f 23 44 24
f 24 44 26
f 25 45 46
f 25 46 27
f 25 26 47
f 25 47 45
f 26 44 48
f 26 48 47
f 27 46 28
f 28 46 49
f 28 49 50
f 28 50 51
f 28 51 29
f 30 52 53
f 30 53 31
f 31 53 54
f 31 54 55
f 32 56 57
f 32 57 33
f 33 57 58
f 34 59 35
f 34 60 100
f 34 100 59
f 35 59 61
f 36 40 60
f 37 39 62
f 37 62 63
f 37 63 64
f 37 64 65
f 37 65 40
f 38 62 39
f 38 42 66
f 38 66 67
f 38 67 62
f 40 68 60
f 40 65 68
f 41 69 42
f 42 69 70
f 42 70 66
f 43 71 72
f 43 72 44
f 44 72 48
f 45 73 74
f 45 74 75
f 45 75 76
f 45 76 46
f 45 47 73
f 46 76 49
f 47 48 77
f 47 77 73
f 48 78 77
f 48 72 79
f 48 79 78
f 49 76 75
f 49 75 80
f 49 80 81
f 49 81 50
f 50 81 82
f 50 82 83
f 50 83 51
f 52 84 85
f 52 85 53
f 53 85 86
f 53 86 54
f 54 87 88
f 54 88 89
f 54 89 90
f 54 90 91
f 54 91 92
f 54 92 93
f 54 93 55
f 54 86 87
f 56 94 57
f 57 95 96
f 57 96 58
f 57 94 97
f 57 97 98
f 57 98 95
f 59 99 61
f 59 100 151
f 59 151 99
f 60 101 100
f 60 68 101
f 61 99 102
f 62 67 63
f 63 67 103
f 63 103 104
f 63 104 105
f 63 105 64
f 64 105 65
f 65 106 68
f 65 105 107
f 65 107 106
f 66 103 67
f 66 70 108
f 66 108 109
f 66 109 103
f 68 110 101
f 68 106 110
f 69 111 112
f 69 112 113
f 69 113 70
f 70 113 114
f 70 114 108
f 71 115 72
f 72 115 116
f 72 116 79
f 73 117 74
f 73 77 117
f 74 117 118
f 74 118 119
f 74 119 120
f 74 120 80
f 74 80 75
f 77 78 121
f 77 121 117
f 78 122 123
f 78 123 121
f 78 79 124
f 78 124 122
f 79 116 125
f 79 125 126
f 79 126 124
f 80 120 81
f 81 127 128
f 81 128 82
f 81 120 127
f 82 128 129
f 82 129 130
f 82 130 83
f 83 130 131
f 83 131 132
f 84 133 134
f 84 134 86
f 84 86 85
f 86 134 135
f 86 135 136
f 86 136 87
f 87 136 88
f 88 136 137
f 88 137 110
f 88 110 138
f 88 138 139
f 88 139 140
f 88 140 141
f 88 141 89
f 89 141 142
f 89 142 91
f 89 91 90
f 94 143 144
f 94 144 97
f 95 98 145
f 95 145 146
f 95 146 96
f 97 144 98
f 98 144 147
f 98 147 116
f 98 116 145
f 99 148 149
f 99 149 150
f 99 150 102
f 99 151 148
f 100 101 151
f 101 137 151
f 101 110 137
f 103 152 104
f 103 109 153
f 103 153 152
f 104 154 105
f 104 152 154
f 105 154 107
f 106 138 110
f 106 107 155
f 106 155 156
f 106 156 157
f 106 157 158
f 106 158 159
f 106 159 138
f 107 154 155
f 108 114 160
f 108 160 161
f 108 161 109
f 109 161 162
f 109 162 163
f 109 163 164
f 109 164 153
f 111 165 112
f 112 166 113
f 112 165 131
f 112 131 167
f 112 167 166
f 113 166 160
f 113 160 114
f 115 168 116
f 116 168 169
f 116 169 170
f 116 170 146
f 116 146 145
f 116 147 126
f 116 126 125
f 117 121 123
f 117 123 118
f 118 171 172
f 118 172 119
f 118 123 173
f 118 173 174
f 118 174 175
f 118 175 171
f 119 172 120
f 120 172 176
f 120 176 127
f 122 173 123
f 122 124 177
f 122 177 173
f 124 126 178
f 124 178 198
f 124 198 177
f 126 147 178
f 127 176 179
f 127 179 180
f 127 180 181
f 127 181 182
f 127 182 128
f 128 182 183
f 128 183 129
f 129 183 130
f 130 183 184
f 130 184 131
f 131 184 167
f 131 165 132
f 133 185 186
f 133 186 135
f 133 135 134
f 135 186 136
f 136 186 148
f 136 148 151
f 136 151 137
f 138 159 139
f 139 159 187
f 139 187 188
f 139 188 189
f 139 189 190
f 139 190 191
f 139 191 192
f 139 192 140
f 140 192 193
f 140 142 141
f 143 194 144
f 144 194 195
f 144 195 196
f 144 196 197
f 144 197 198
f 144 198 178
f 144 178 147
f 148 186 185
f 148 185 149
f 152 153 199
f 152 199 200
f 152 200 201
f 152 201 202
f 152 202 154
f 153 164 199
f 154 202 157
f 154 157 156
f 154 156 155
f 157 202 203
f 157 203 204
f 157 204 158
f 158 204 159
f 159 204 187
f 160 166 205
f 160 205 206
f 160 206 161
f 161 206 162
f 162 206 207
f 162 207 163
f 163 208 164
f 163 207 209
f 163 209 208
f 164 208 199
f 166 167 205
f 167 184 210
f 167 210 205
f 171 211 172
f 171 175 212
f 171 212 213
f 171 213 211
f 172 211 176
f 173 177 214
f 173 214 174
f 174 214 215
f 174 215 175
f 175 215 212
f 176 211 179
f 177 198 216
f 177 216 215
f 177 215 214
f 179 217 180
f 179 211 217
f 180 218 219
f 180 219 220
f 180 220 181
f 180 217 218
f 181 220 182
f 182 220 183
f 183 220 210
f 183 210 184
f 187 204 221
f 187 221 188
f 188 221 222
f 188 222 189
f 189 222 190
f 190 192 191
f 190 222 223
f 190 223 224
f 190 224 192
f 192 224 193
f 193 224 225
f 195 226 196
f 196 226 227
f 196 227 228
f 196 228 229
f 196 229 197
f 197 229 230
f 197 230 198
f 198 230 215
f 198 215 216
f 199 231 200
f 199 208 232
f 199 232 231
f 200 231 233
f 200 233 234
f 200 234 235
f 200 235 203
f 200 203 201
f 201 203 202
f 203 235 236
f 203 236 204
f 204 236 237
f 204 237 221
f 205 210 238
f 205 238 239
f 205 239 240
f 205 240 206
f 206 240 241
f 206 241 207
f 207 241 209
f 208 242 232
f 208 209 241
f 208 241 243
f 208 243 244
f 208 244 245
f 208 245 242
f 210 220 246
f 210 246 247
f 210 247 238
f 211 248 217
f 211 213 249
f 211 249 250
f 211 250 251
f 211 251 252
f 211 252 253
f 211 253 248
f 212 215 230
f 212 230 229
f 212 229 228
f 212 228 254
f 212 254 255
f 212 255 213
f 213 255 249
f 217 256 257
f 217 257 258
f 217 258 218
f 217 248 259
f 217 259 260
f 217 260 261
f 217 261 256
f 218 258 219
f 219 258 220
f 220 258 246
f 221 262 222
f 221 237 263
f 221 263 262
f 222 262 263
f 222 263 223
f 223 263 264
f 223 264 265
f 223 265 224
f 224 265 225
f 225 265 267
f 225 267 266
f 227 268 228
f 228 268 269
f 228 269 270
f 228 270 254
f 231 232 271
f 231 271 272
f 231 272 233
f 232 242 271
f 233 273 274
f 233 274 234
f 233 272 275
f 233 275 276
f 233 276 273
f 234 274 277
f 234 277 236
f 234 236 235
f 236 277 278
f 236 278 237
f 237 278 279
f 237 279 280
f 237 280 265
f 237 265 263
f 238 247 281
f 238 281 282
f 238 282 283
f 238 283 239
f 239 283 240
f 240 284 241
f 240 283 284
f 241 284 243
f 242 245 285
f 242 285 271
f 243 284 286
f 243 286 287
f 243 287 244
f 244 287 288
f 244 288 289
f 244 289 245
f 245 289 290
f 245 290 285
f 246 258 291
f 246 291 292
f 246 292 247
f 247 292 281
f 248 253 293
f 248 293 260
f 248 260 259
f 249 255 294
f 249 294 295
f 249 295 250
f 250 295 296
f 250 296 251
f 251 296 252
f 252 296 253
f 253 296 297
f 253 297 298
f 253 298 299
f 253 299 260
f 253 260 293
f 254 300 255
f 254 270 301
f 254 301 300
f 255 300 302
f 255 302 303
f 255 303 294
f 256 261 304
f 256 304 305
f 256 305 306
f 256 306 257
f 257 307 291
f 257 291 258
f 257 306 308
f 257 308 307
f 260 299 309
f 260 309 310
f 260 310 311
f 260 311 261
f 261 311 305
f 261 305 304
f 263 265 264
f 265 280 279
f 265 279 267
f 266 267 312
f 267 279 277
f 267 277 276
f 267 276 313
f 267 313 314
f 267 314 315
f 267 315 316
f 267 316 312
f 269 317 270
f 270 317 301
f 271 285 318
f 271 318 272
f 272 318 275
f 273 276 277
f 273 277 274
f 275 318 319
f 275 319 313
f 275 313 276
f 277 279 278
f 281 292 320
f 281 320 321
f 281 321 282
f 282 321 322
f 282 322 283
f 283 322 323
f 283 323 324
f 283 324 325
f 283 325 284
f 284 325 326
f 284 326 327
f 284 327 328
f 284 328 287
f 284 287 286
f 285 290 329
f 285 329 330
f 285 330 318
f 287 331 332
f 287 332 289
f 287 289 288
f 287 328 327
f 287 327 333
f 287 333 334
f 287 334 335
f 287 335 336
f 287 336 337
f 287 337 331
f 289 332 331
f 289 331 338
f 289 338 339
f 289 339 340
f 289 340 341
f 289 341 290
f 290 341 342
f 290 342 343
f 290 343 344
f 290 344 329
f 291 345 292
f 291 307 308
f 291 308 346
f 291 346 347
f 291 347 348
f 291 348 345
f 292 345 349
f 292 349 320
f 294 303 295
f 295 303 296
f 296 303 297
f 297 303 350
f 297 350 351
f 297 351 352
f 297 352 353
f 297 353 298
f 298 353 354
f 298 354 299
f 299 355 356
f 299 356 309
f 299 354 357
f 299 357 355
f 300 301 358
f 300 358 359
f 300 359 302
f 301 317 359
f 301 359 358
f 302 359 303
f 303 359 360
f 303 360 350
f 305 311 361
f 305 361 362
f 305 362 363
f 305 363 364
f 305 364 306
f 306 364 365
f 306 365 308
f 308 366 346
f 308 365 364
f 308 364 367
f 308 367 368
f 308 368 366
f 309 356 310
f 310 356 369
f 310 369 370
f 310 370 371
f 310 371 311
f 311 371 361
f 313 319 314
f 317 372 359
f 318 330 373
f 318 373 374
f 318 374 319
f 320 375 321
f 320 349 376
f 320 376 375
f 321 375 377
f 321 377 322
f 322 377 323
f 323 377 378
f 323 378 379
f 323 379 380
f 323 380 324
f 324 380 325
f 325 380 326
f 326 380 327
f 327 380 381
f 327 381 382
f 327 382 383
f 327 383 384
f 327 384 385
f 327 385 386
f 327 386 333
f 329 344 330
f 331 387 339
f 331 339 338
f 331 337 388
f 331 388 387
f 333 386 334
f 339 389 340
f 340 390 391
f 340 391 342
f 340 342 341
f 340 389 390
f 342 391 343
f 345 348 347
f 345 347 349
f 346 366 392
f 346 392 393
f 346 393 394
f 346 394 395
f 346 395 396
f 346 396 397
f 346 397 347
f 347 396 398
f 347 398 399
f 347 399 400
f 347 400 401
f 347 401 376
f 347 376 349
f 347 397 396
f 350 360 351
f 351 402 403
f 351 403 352
f 352 403 353
f 353 403 354
f 354 404 356
f 354 356 355
f 354 355 357
f 354 403 404
f 356 404 405
f 356 405 369
f 359 372 406
f 359 406 360
f 361 371 407
f 361 407 362
f 366 368 392
f 369 405 370
f 370 407 371
f 370 405 408
f 375 378 377
f 375 376 400
f 375 400 378
f 376 401 400
f 378 400 409
f 378 409 410
f 378 410 379
f 379 410 411
f 379 411 412
f 379 412 380
f 380 412 382
f 380 382 381
f 382 413 414
f 382 414 415
f 382 415 416
f 382 416 384
f 382 384 383
f 382 412 413
f 394 417 395
f 395 417 396
f 396 418 415
f 396 415 414
f 396 414 419
f 396 419 398
f 396 417 418
f 398 419 420
f 398 420 399
f 399 420 410
f 399 410 409
f 399 409 400
f 402 421 403
f 403 421 422
f 403 422 405
f 403 405 404
f 405 422 408
f 410 420 411
f 411 420 413
f 411 413 412
f 413 420 419
f 413 419 414
f 415 418 417
f 415 417 423
f 415 423 416

