# https://github.com/mikedh/trimesh
v 0.07221422 -0.02517852 0.02855446
v 0.07221422 -0.03002519 0.02855446
v 0.07383824 -0.02517852 0.02854089
v 0.07059019 -0.02517852 0.02836007
v 0.04040050 -0.06247644 0.02850021
v 0.04040050 -0.06345856 0.02854993
v 0.04040050 -0.06409809 0.02855446
v 0.07221422 -0.03164684 0.02850021
v 0.06896990 -0.03651635 0.02855446
v 0.07383824 -0.02677733 0.02848664
v 0.07543619 -0.02517852 0.02832842
v 0.07056412 -0.02517852 0.02835102
v 0.04040050 -0.06076800 0.02815663
v 0.04040050 -0.06183691 0.02842788
v 0.04040050 -0.06670643 0.02855446
v 0.07383824 -0.03002519 0.02834650
v 0.07383824 -0.02840354 0.02842788
v 0.06896990 -0.03813800 0.02850021
v 0.07221422 -0.03326849 0.02836459
v 0.06572185 -0.04300752 0.02855446
v 0.06734587 -0.04138587 0.02850021
v 0.07546227 -0.02517852 0.02832390
v 0.06923436 -0.02517852 0.02787634
v 0.04040050 -0.06006452 0.02793060
v 0.04040050 -0.06734595 0.02853185
v 0.04300788 -0.06572430 0.02855446
v 0.07383824 -0.03164684 0.02813403
v 0.07508233 -0.03002519 0.02786278
v 0.07672498 -0.02517852 0.02785826
v 0.06896990 -0.03975965 0.02836459
v 0.06085351 -0.04949411 0.02855446
v 0.06247753 -0.04787703 0.02854542
v 0.06410155 -0.04625538 0.02851829
v 0.06572185 -0.04462917 0.02849117
v 0.06734587 -0.04300752 0.02836459
v 0.06842608 -0.02517852 0.02740619
v 0.04040050 -0.05961685 0.02775881
v 0.04138386 -0.06734595 0.02850021
v 0.04040050 -0.06832808 0.02841432
v 0.04462818 -0.06572430 0.02848664
v 0.04787622 -0.06247644 0.02854089
v 0.04949652 -0.06085479 0.02855446
v 0.07383452 -0.03313602 0.02783114
v 0.07466888 -0.03250563 0.02760058
v 0.07482159 -0.03164684 0.02770456
v 0.06896990 -0.04138587 0.02813403
v 0.07673615 -0.02517852 0.02785374
v 0.05923693 -0.05111576 0.02855446
v 0.05923693 -0.05274197 0.02850021
v 0.06085351 -0.05111576 0.02849117
v 0.06247753 -0.04949411 0.02845048
v 0.06410155 -0.04787703 0.02838719
v 0.06572185 -0.04625538 0.02827869
v 0.06748369 -0.04475707 0.02800745
v 0.06841117 -0.02517852 0.02739715
v 0.04040050 -0.05933820 0.02760510
v 0.04300788 -0.06734595 0.02835554
v 0.04040050 -0.06901785 0.02823349
v 0.04625220 -0.06572430 0.02828321
v 0.04787622 -0.06409809 0.02838267
v 0.04949652 -0.06247644 0.02845048
v 0.05112054 -0.06085479 0.02849117
v 0.05274457 -0.05923314 0.02850021
v 0.05112054 -0.05923314 0.02855446
v 0.07221049 -0.03638388 0.02783114
v 0.07142455 -0.03899679 0.02760058
v 0.07437462 -0.03358825 0.02722988
v 0.07491471 -0.03313602 0.02672356
v 0.07564105 -0.03148696 0.02661506
v 0.07754444 -0.02517852 0.02710782
v 0.07752954 -0.02517852 0.02712591
v 0.06894010 -0.04286591 0.02783114
v 0.07058275 -0.03962718 0.02783114
v 0.05761291 -0.05274197 0.02855446
v 0.05923693 -0.05436362 0.02829678
v 0.05436859 -0.05923314 0.02829678
v 0.06085351 -0.05274197 0.02826061
v 0.06414625 -0.04952152 0.02798485
v 0.06569950 -0.04779937 0.02789895
v 0.06699202 -0.04625538 0.02782662
v 0.06837765 -0.04429570 0.02773168
v 0.06751349 -0.02517852 0.02659698
v 0.04040050 -0.05884029 0.02722084
v 0.04149560 -0.06910007 0.02801197
v 0.04473992 -0.06747843 0.02800292
v 0.04040050 -0.06986293 0.02792607
v 0.04625220 -0.06700792 0.02784018
v 0.04783897 -0.06572887 0.02790799
v 0.05112054 -0.06247644 0.02819732
v 0.05274457 -0.06085479 0.02827869
v 0.07275059 -0.03683612 0.02722988
v 0.06998677 -0.04138587 0.02770456
v 0.06979681 -0.04223095 0.02760058
v 0.07472847 -0.03424605 0.02614490
v 0.07329814 -0.03638388 0.02672356
v 0.07627055 -0.03083830 0.02596407
v 0.07804729 -0.02517852 0.02629409
v 0.05919224 -0.05593959 0.02788087
v 0.05598516 -0.05922400 0.02788087
v 0.05437231 -0.06086849 0.02787182
v 0.06079391 -0.05427683 0.02785826
v 0.06212367 -0.05274197 0.02782662
v 0.06514450 -0.04899619 0.02774072
v 0.06664188 -0.04721010 0.02766839
v 0.06177354 -0.05367842 0.02766839
v 0.06811691 -0.04537832 0.02753729
v 0.06669031 -0.02517852 0.02571995
v 0.04040050 -0.05803632 0.02641163
v 0.04300788 -0.06868438 0.02787634
v 0.04427432 -0.06836462 0.02771812
v 0.04040050 -0.07015072 0.02779949
v 0.04535451 -0.06810881 0.02751469
v 0.04727653 -0.06667445 0.02768648
v 0.04911659 -0.06519441 0.02774977
v 0.05112054 -0.06367326 0.02777237
v 0.05264400 -0.06243076 0.02782209
v 0.04959337 -0.06420315 0.02798936
v 0.07310817 -0.03748934 0.02614490
v 0.07146553 -0.04068696 0.02610874
v 0.07445284 -0.03531039 0.02515034
v 0.07485512 -0.03449729 0.02515034
v 0.07545481 -0.03326849 0.02515034
v 0.07605823 -0.03188895 0.02515034
v 0.07635995 -0.03108041 0.02515034
v 0.07836762 -0.02517852 0.02517746
v 0.07790947 -0.02600533 0.02600476
v 0.06021656 -0.05536859 0.02770456
v 0.05543762 -0.06033403 0.02770456
v 0.05383222 -0.06185975 0.02769552
v 0.06324857 -0.05188319 0.02754633
v 0.06129676 -0.05476104 0.02705357
v 0.06199330 -0.05427683 0.02661506
v 0.06293941 -0.05281506 0.02691343
v 0.06622470 -0.04829272 0.02710330
v 0.06686910 -0.04779937 0.02664670
v 0.06656366 -0.04872211 0.02602284
v 0.06780030 -0.04630106 0.02690891
v 0.06836275 -0.04578944 0.02645683
v 0.06615766 -0.02517852 0.02492431
v 0.04040050 -0.05774853 0.02606353
v 0.04103000 -0.06999083 0.02772264
v 0.04211392 -0.06973046 0.02754633
v 0.04040050 -0.07055270 0.02751016
v 0.04628572 -0.06781646 0.02689534
v 0.04879998 -0.06660593 0.02612682
v 0.04783897 -0.06691656 0.02671000
v 0.04835673 -0.06627246 0.02720728
v 0.05019679 -0.06481527 0.02749660
v 0.04040050 -0.07161249 0.02627148
v 0.04077299 -0.07151655 0.02614943
v 0.05203313 -0.06335349 0.02763223
v 0.07282881 -0.03855826 0.02515034
v 0.07218070 -0.03975965 0.02515034
v 0.06976329 -0.04378865 0.02577872
v 0.07156610 -0.04084684 0.02515034
v 0.07451616 -0.03544287 0.02352739
v 0.07491844 -0.03462976 0.02352739
v 0.07557774 -0.03326849 0.02352739
v 0.07612156 -0.03204426 0.02352739
v 0.07640837 -0.03123115 0.02352739
v 0.07837135 -0.02517852 0.02515034
v 0.05969881 -0.05645121 0.02713042
v 0.05491614 -0.06141665 0.02736098
v 0.05652154 -0.05976303 0.02729317
v 0.06507746 -0.05052648 0.02625792
v 0.05694244 -0.06019699 0.02620819
v 0.06069334 -0.05581626 0.02655177
v 0.06166924 -0.05517673 0.02596859
v 0.06358381 -0.05232629 0.02646587
v 0.06317780 -0.05340891 0.02546227
v 0.06464538 -0.05156799 0.02515034
v 0.06522645 -0.05075945 0.02515034
v 0.06661581 -0.04879977 0.02515034
v 0.06725275 -0.04787703 0.02515034
v 0.06798655 -0.04679441 0.02515034
v 0.04040050 -0.02517852 -0.01661224
v 0.04040050 -0.07091815 0.02712591
v 0.04576797 -0.06833721 0.02643423
v 0.05096037 -0.06533145 0.02515034
v 0.05177239 -0.06480156 0.02515034
v 0.05363852 -0.06334436 0.02607257
v 0.05069591 -0.06516700 0.02641614
v 0.04169674 -0.07110087 0.02515034
v 0.04787622 -0.06730027 0.02515034
v 0.04889310 -0.06666532 0.02515034
v 0.05311705 -0.06294237 0.02715303
v 0.04040050 -0.07176323 0.02578325
v 0.04088473 -0.07158965 0.02515034
v 0.07327579 -0.03779540 0.02352739
v 0.07395371 -0.03651635 0.02352739
v 0.07282509 -0.03860394 0.02352739
v 0.06848939 -0.04598130 0.02515034
v 0.06981543 -0.04387087 0.02469375
v 0.07019909 -0.04314913 0.02520459
v 0.07108932 -0.04165995 0.02515034
v 0.06981543 -0.04387087 0.02416482
v 0.07481415 -0.03442420 0.02243338
v 0.07633387 -0.03104386 0.02259612
v 0.07845330 -0.02517852 0.02352739
v 0.05536312 -0.06185519 0.02628053
v 0.05427547 -0.06239878 0.02671451
v 0.05633157 -0.06115628 0.02515034
v 0.06009365 -0.05685320 0.02604997
v 0.05708026 -0.06034774 0.02515034
v 0.05863724 -0.05865757 0.02515034
v 0.05944552 -0.05777137 0.02515034
v 0.06018677 -0.05695826 0.02515034
v 0.06099877 -0.05605380 0.02515034
v 0.06172512 -0.05524069 0.02515034
v 0.06329699 -0.05355965 0.02437730
v 0.06372907 -0.05281506 0.02501472
v 0.06329699 -0.05355965 0.02431852
v 0.06660836 -0.04879520 0.02396139
v 0.04040050 -0.02517852 -0.01762941
v 0.05376889 -0.06342659 0.02400207
v 0.04884840 -0.06663334 0.02403824
v 0.05274457 -0.06413920 0.02515034
v 0.05377634 -0.06343572 0.02515034
v 0.05458835 -0.06282818 0.02515034
v 0.04078788 -0.07153483 0.02400659
v 0.04040050 -0.07184545 0.02515034
v 0.07316032 -0.03755786 0.02248763
v 0.07215462 -0.03975965 0.02352739
v 0.07143573 -0.04062758 0.02265941
v 0.06930513 -0.04450126 0.02358616
v 0.06969996 -0.04368815 0.02308436
v 0.07154375 -0.04080573 0.02352739
v 0.06843352 -0.04588080 0.02352739
v 0.07343596 -0.03647524 0.02193157
v 0.07423680 -0.03493582 0.02189541
v 0.07449009 -0.03376640 0.02134840
v 0.07475828 -0.03268378 0.02091441
v 0.07506743 -0.03324108 0.02189541
v 0.07579377 -0.03161029 0.02199487
v 0.07626683 -0.02595051 0.01948133
v 0.07767481 -0.02517852 0.02147498
v 0.07812924 -0.02517852 0.02228871
v 0.07796534 -0.02615608 0.02258256
v 0.05551956 -0.06201507 0.02515034
v 0.05861489 -0.05863016 0.02396139
v 0.06018304 -0.05695370 0.02404728
v 0.06174374 -0.05525896 0.02416482
v 0.06306233 -0.05330841 0.02323807
v 0.06371417 -0.05275568 0.02367658
v 0.06462303 -0.05155886 0.02352739
v 0.06520782 -0.05074575 0.02352739
v 0.06649662 -0.04862619 0.02288093
v 0.06702927 -0.04800493 0.02346411
v 0.06790832 -0.04668934 0.02352739
v 0.05240561 -0.02517852 -0.01762941
v 0.04040050 -0.04165995 -0.01762941
v 0.05077413 -0.06520811 0.02352739
v 0.05158615 -0.06467366 0.02352739
v 0.05342248 -0.06319819 0.02291710
v 0.05447288 -0.06257236 0.02336013
v 0.05544879 -0.06194655 0.02380316
v 0.04659488 -0.06786670 0.02352739
v 0.04555939 -0.06822758 0.02259160
v 0.04855042 -0.06644148 0.02295778
v 0.04040050 -0.07166273 0.02379864
v 0.04040050 -0.07133383 0.02293970
v 0.07282881 -0.03698686 0.02140717
v 0.07142083 -0.03898309 0.02106359
v 0.06829198 -0.04565240 0.02249215
v 0.06858996 -0.04459262 0.02193157
v 0.06795302 -0.04510881 0.02140717
v 0.06828453 -0.04403075 0.02089632
v 0.06968879 -0.04204823 0.02123538
v 0.07313798 -0.03590424 0.02091441
v 0.07335029 -0.03478507 0.02033575
v 0.06807967 -0.03230920 0.00985668
v 0.06983406 -0.03256958 0.01289010
v 0.06659719 -0.03096164 0.00638475
v 0.06835158 -0.03122658 0.00942269
v 0.07494824 -0.03164684 0.02058892
v 0.06977073 -0.03080632 0.01137565
v 0.06358381 -0.02517852 -0.00253466
v 0.06464538 -0.02517852 -0.00074897
v 0.06921573 -0.02517852 0.00699053
v 0.07111912 -0.02517852 0.01021382
v 0.07159590 -0.02517852 0.01102755
v 0.07455341 -0.02569014 0.01638915
v 0.07504881 -0.02517852 0.01694068
v 0.07600609 -0.02517852 0.01859075
v 0.07683673 -0.02517852 0.02002382
v 0.07754444 -0.02517852 0.02124894
v 0.05703184 -0.06029292 0.02388453
v 0.05517687 -0.06166333 0.02271818
v 0.05833180 -0.05831954 0.02288093
v 0.05926301 -0.05763890 0.02346411
v 0.05990740 -0.05664764 0.02296230
v 0.06148672 -0.05497574 0.02308436
v 0.06355773 -0.05222579 0.02234296
v 0.06504766 -0.05050821 0.02249215
v 0.05264772 -0.02517852 -0.01738981
v 0.05217094 -0.02574952 -0.01762941
v 0.04104117 -0.04103870 -0.01762941
v 0.04040050 -0.04178785 -0.01753899
v 0.05282652 -0.06290126 0.02182760
v 0.05365342 -0.06174555 0.02097770
v 0.05403335 -0.06206531 0.02190445
v 0.05044635 -0.06500255 0.02257352
v 0.05233856 -0.06355449 0.02231584
v 0.04245660 -0.06992689 0.02245598
v 0.04453506 -0.06846512 0.02199034
v 0.04393164 -0.06822301 0.02098674
v 0.04501183 -0.06788955 0.02150662
v 0.04747022 -0.06680236 0.02231584
v 0.04040050 -0.07131100 0.02289449
v 0.06963664 -0.03708279 0.01645244
v 0.06994953 -0.03600017 0.01595968
v 0.07244516 -0.03647524 0.02033575
v 0.07162197 -0.03797812 0.02042617
v 0.07140221 -0.03732946 0.01947229
v 0.06821376 -0.03742082 0.01451756
v 0.07001657 -0.04096561 0.02072454
v 0.06685047 -0.04755270 0.02221638
v 0.06626568 -0.04800493 0.02176883
v 0.06650779 -0.04702738 0.02113140
v 0.06686910 -0.04594476 0.02058439
v 0.06651524 -0.04541030 0.01949942
v 0.06330071 -0.04221268 0.01133948
v 0.06651524 -0.04378865 0.01787647
v 0.06794185 -0.04345975 0.01981135
v 0.07279901 -0.03525558 0.01983395
v 0.07137241 -0.03564843 0.01789456
v 0.06989738 -0.03430086 0.01441359
v 0.06484280 -0.03070126 0.00335586
v 0.06336031 -0.02935369 -0.00011155
v 0.06314055 -0.02560334 -0.00299578
v 0.06271964 -0.02517852 -0.00396774
v 0.05378379 -0.06026095 0.01917392
v 0.05346718 -0.05832867 0.01633490
v 0.05357148 -0.05681209 0.01458085
v 0.05486772 -0.05970822 0.01988368
v 0.05527372 -0.06014674 0.02096866
v 0.05562013 -0.06052589 0.02190445
v 0.05843237 -0.05680752 0.02108168
v 0.06158730 -0.05346829 0.02119922
v 0.06257437 -0.05284704 0.02176883
v 0.06198213 -0.05389769 0.02227967
v 0.06316662 -0.05179183 0.02125798
v 0.06412763 -0.05115230 0.02187733
v 0.06324484 -0.05024783 0.01953106
v 0.06470125 -0.04999660 0.02140717
v 0.06539034 -0.04947127 0.02193157
v 0.05285259 -0.02517852 -0.01715925
v 0.05282279 -0.02530642 -0.01712760
v 0.05345601 -0.02576779 -0.01610592
v 0.05508748 -0.03066015 -0.01124612
v 0.05199588 -0.02608755 -0.01762941
v 0.04186063 -0.04023472 -0.01762941
v 0.04040050 -0.04184267 -0.01749831
v 0.04040050 -0.05211616 -0.00681580
v 0.04071339 -0.05202479 -0.00663497
v 0.05194001 -0.05842460 0.01459442
v 0.04179359 -0.05161367 -0.00605632
v 0.04290731 -0.05103811 -0.00556356
v 0.04531727 -0.06644605 0.01959887
v 0.04309355 -0.06292410 0.01208088
v 0.04147325 -0.05643294 0.00072479
v 0.04040050 -0.07073542 0.02187733
v 0.04189043 -0.06960712 0.02137552
v 0.04080651 -0.06991318 0.02088276
v 0.04040050 -0.06922341 0.01939092
v 0.04040050 -0.06717237 0.01606366
v 0.04203570 -0.06644148 0.01637107
v 0.04368580 -0.06645062 0.01797593
v 0.04423334 -0.06680236 0.01905639
v 0.06300273 -0.03664426 0.00557554
v 0.06499179 -0.03584485 0.00798962
v 0.06818024 -0.03574893 0.01293982
v 0.06967389 -0.04039461 0.01963956
v 0.06469752 -0.03859024 0.01007368
v 0.06502158 -0.03750762 0.00956283
v 0.06325229 -0.03726551 0.00654298
v 0.06628057 -0.04639242 0.02013684
v 0.06471242 -0.04838865 0.01977518
v 0.06302135 -0.04504029 0.01378972
v 0.06150907 -0.04196144 0.00835128
v 0.05829455 -0.03875469 0.00019586
v 0.05686422 -0.03741625 -0.00333935
v 0.06007874 -0.03900593 0.00318859
v 0.06473105 -0.04189749 0.01326532
v 0.06539034 -0.04136759 0.01379877
v 0.06464910 -0.03521903 0.00690464
v 0.06923436 -0.03486273 0.01383945
v 0.06017931 -0.02946332 -0.00507984
v 0.06194116 -0.02972827 -0.00205998
v 0.06160219 -0.02906591 -0.00314044
v 0.06191881 -0.02517852 -0.00525615
v 0.05206293 -0.05692172 0.01281777
v 0.05184689 -0.05346372 0.00822017
v 0.05195118 -0.05194714 0.00646161
v 0.05173514 -0.04848458 0.00187306
v 0.05425312 -0.05424029 0.01232048
v 0.05224544 -0.04740196 0.00120851
v 0.05373164 -0.04725578 0.00301228
v 0.05586224 -0.05909153 0.02045329
v 0.05483419 -0.05480216 0.01378972
v 0.05803009 -0.05636899 0.02000122
v 0.06199330 -0.05228517 0.02028150
v 0.05849569 -0.04876323 0.01126263
v 0.06176609 -0.05042142 0.01770920
v 0.05669661 -0.04693602 0.00662887
v 0.05816419 -0.04672132 0.00848238
v 0.06143458 -0.04837951 0.01493347
v 0.06327464 -0.04866273 0.01787195
v 0.05300158 -0.02517852 -0.01698746
v 0.05697224 -0.02631139 -0.01157614
v 0.05535939 -0.02957752 -0.01157614
v 0.05597399 -0.02999778 -0.01053185
v 0.05546741 -0.03164684 -0.01011142
v 0.05483047 -0.03164684 -0.01092063
v 0.05372047 -0.03275230 -0.01153997
v 0.05401846 -0.03164684 -0.01188355
v 0.05172769 -0.02657176 -0.01762941
v 0.04348093 -0.03858110 -0.01762941
v 0.04190160 -0.04028040 -0.01755708
v 0.04040050 -0.04671675 -0.01263399
v 0.04839770 -0.03866333 -0.01269276
v 0.04040050 -0.05353225 -0.00469557
v 0.04040050 -0.05179183 -0.00726787
v 0.05033088 -0.05357336 0.00646161
v 0.04400240 -0.05046253 -0.00507532
v 0.04508633 -0.04996919 -0.00441529
v 0.04040050 -0.05151318 -0.00762049
v 0.04244543 -0.05053105 -0.00673895
v 0.04234113 -0.06500712 0.01445879
v 0.04147325 -0.06292410 0.01045794
v 0.04180104 -0.06140295 0.00850498
v 0.04044893 -0.05671616 0.00012353
v 0.04040050 -0.05506253 -0.00240356
v 0.04040050 -0.07000911 0.02067481
v 0.04040050 -0.06640494 0.01482045
v 0.04040050 -0.06506651 0.01266406
v 0.04071339 -0.06499799 0.01284037
v 0.05829455 -0.03711020 -0.00142256
v 0.05898365 -0.03654833 -0.00085295
v 0.05861116 -0.03603214 -0.00191532
v 0.05826848 -0.03542003 -0.00299578
v 0.05890915 -0.03488557 -0.00244877
v 0.06184804 -0.03924803 0.00620393
v 0.06115894 -0.03813800 0.00406562
v 0.06182941 -0.03759898 0.00461263
v 0.06328209 -0.04705478 0.01623997
v 0.06150163 -0.04357395 0.00998326
v 0.06007130 -0.04223552 0.00644352
v 0.05646194 -0.03849888 -0.00275618
v 0.05593302 -0.03806491 -0.00397678
v 0.05540781 -0.03763095 -0.00517477
v 0.05648802 -0.03685896 -0.00441981
v 0.05684187 -0.03577633 -0.00493065
v 0.05864096 -0.03767207 -0.00034210
v 0.05912519 -0.04448299 0.00745617
v 0.05824613 -0.04196144 0.00350052
v 0.06599749 -0.03324565 0.00734315
v 0.06494336 -0.03413641 0.00643900
v 0.05873408 -0.03153264 -0.00559972
v 0.05846590 -0.03091139 -0.00654908
v 0.05982918 -0.02875071 -0.00616029
v 0.06007502 -0.02766809 -0.00653551
v 0.06140106 -0.02517852 -0.00604728
v 0.04989880 -0.04665280 -0.00272905
v 0.05000682 -0.04513622 -0.00448762
v 0.05043518 -0.04557018 -0.00340264
v 0.05183571 -0.04696342 0.00012805
v 0.05193255 -0.04544228 -0.00162147
v 0.05553446 -0.04745677 0.00567952
v 0.05660721 -0.04847544 0.00836936
v 0.05803382 -0.05120712 0.01364506
v 0.05753469 -0.05590305 0.01876254
v 0.05521412 -0.04710504 0.00482058
v 0.05341876 -0.04527326 0.00018682
v 0.05199960 -0.04389828 -0.00333935
v 0.05231249 -0.04292073 -0.00394965
v 0.05711006 -0.04585340 0.00604570
v 0.05657741 -0.02517852 -0.01267920
v 0.05722926 -0.02517852 -0.01186999
v 0.05804872 -0.02517852 -0.01083474
v 0.05847707 -0.02607385 -0.00980401
v 0.05686050 -0.02933542 -0.00981305
v 0.05523275 -0.03255131 -0.00980853
v 0.05659231 -0.03041347 -0.00945591
v 0.05341504 -0.03383492 -0.01117831
v 0.05278554 -0.03334615 -0.01221808
v 0.05040910 -0.02894714 -0.01762941
v 0.04422589 -0.03774972 -0.01762941
v 0.04352563 -0.03862221 -0.01755708
v 0.04298181 -0.03973681 -0.01701911
v 0.04893779 -0.03758070 -0.01323073
v 0.04298925 -0.04785876 -0.00890438
v 0.04136523 -0.04785876 -0.01052733
v 0.04040050 -0.04752986 -0.01182026
v 0.05002172 -0.03865876 -0.01106982
v 0.05002172 -0.04028498 -0.00944687
v 0.04948162 -0.04136759 -0.00890438
v 0.04839770 -0.04515449 -0.00620098
v 0.04859511 -0.05022043 0.00010997
v 0.04838280 -0.04676243 -0.00448762
v 0.04352935 -0.05001487 -0.00615577
v 0.04564878 -0.04888656 -0.00509340
v 0.04672898 -0.04837495 -0.00446954
v 0.04040050 -0.05074118 -0.00854724
v 0.04082513 -0.05054019 -0.00836189
v 0.04190533 -0.05001487 -0.00782393
v 0.04298925 -0.04947584 -0.00728144
v 0.04406946 -0.04893224 -0.00673895
v 0.04730260 -0.04729233 -0.00511148
v 0.04040050 -0.06318448 0.00978435
v 0.04040050 -0.06292410 0.00939105
v 0.04040050 -0.06155369 0.00733411
v 0.04040050 -0.06481070 0.01225719
v 0.05791090 -0.03488557 -0.00402199
v 0.05822006 -0.03370702 -0.00454639
v 0.05588087 -0.04123969 -0.00065404
v 0.05499809 -0.03871357 -0.00461420
v 0.05446171 -0.03826591 -0.00580768
v 0.05392161 -0.03781824 -0.00697855
v 0.05500553 -0.03708279 -0.00625523
v 0.05351188 -0.04051794 -0.00480407
v 0.05202568 -0.04231775 -0.00499394
v 0.05593302 -0.03642956 -0.00559520
v 0.05537802 -0.03600017 -0.00676155
v 0.05568718 -0.03486273 -0.00729952
v 0.05652899 -0.03489471 -0.00610604
v 0.05677855 -0.03404048 -0.00645414
v 0.05529980 -0.04398050 0.00145263
v 0.05699459 -0.03119461 -0.00837094
v 0.05870056 -0.03002519 -0.00686553
v 0.05708398 -0.03295786 -0.00688813
v 0.05670033 -0.03227723 -0.00796859
v 0.05921831 -0.02836243 -0.00727240
v 0.05952002 -0.02517852 -0.00884109
v 0.05953865 -0.02517852 -0.00881397
v 0.06051083 -0.02517852 -0.00738541
v 0.04892290 -0.04567981 -0.00511600
v 0.05052457 -0.04405359 -0.00511600
v 0.05102370 -0.04451953 -0.00391349
v 0.05160849 -0.04340037 -0.00441981
v 0.05386574 -0.04261010 -0.00206450
v 0.05866331 -0.02517852 -0.01004361
v 0.05834670 -0.02906134 -0.00800928
v 0.05531097 -0.03429629 -0.00829408
v 0.05490869 -0.03363393 -0.00937454
v 0.05810831 -0.03002519 -0.00767474
v 0.05382476 -0.03451556 -0.01009786
v 0.05314685 -0.03499063 -0.01059966
v 0.05199960 -0.03580374 -0.01144052
v 0.05228269 -0.03489471 -0.01176149
v 0.05158615 -0.03489471 -0.01257070
v 0.05185434 -0.03393999 -0.01289167
v 0.05011857 -0.02945419 -0.01762941
v 0.04503046 -0.03680414 -0.01762941
v 0.04509378 -0.03686352 -0.01753899
v 0.04568230 -0.03756700 -0.01645402
v 0.04839025 -0.03699600 -0.01431571
v 0.05002172 -0.03699600 -0.01269276
v 0.05052830 -0.03758070 -0.01160778
v 0.04352935 -0.04839778 -0.00782393
v 0.04040050 -0.04833840 -0.01101105
v 0.05002172 -0.04352827 -0.00620098
v 0.04778310 -0.04778567 -0.00393609
v 0.04040050 -0.05012907 -0.00920727
v 0.04040050 -0.04995548 -0.00938810
v 0.05234601 -0.04129908 -0.00559068
v 0.05202940 -0.04070067 -0.00661689
v 0.05202940 -0.03745737 -0.00986278
v 0.05351560 -0.03727465 -0.00805900
v 0.05445053 -0.03663969 -0.00740802
v 0.05161222 -0.04178329 -0.00607440
v 0.05348581 -0.03559818 -0.00964578
v 0.05497574 -0.03537892 -0.00784201
v 0.05052830 -0.04244565 -0.00673895
v 0.05106840 -0.04292529 -0.00559520
v 0.05161222 -0.03688636 -0.01094324
v 0.05103860 -0.03639758 -0.01206438
v 0.05046497 -0.03591338 -0.01314031
v 0.05077413 -0.03489471 -0.01347033
v 0.04905699 -0.03123115 -0.01762941
v 0.04567113 -0.03594535 -0.01762941
v 0.04720948 -0.03589053 -0.01635456
v 0.04676250 -0.03697316 -0.01592057
v 0.04884840 -0.03591338 -0.01476326
v 0.05107212 -0.03806035 -0.01046404
v 0.05161222 -0.04016164 -0.00769735
v 0.05161222 -0.03853542 -0.00932029
v 0.05107212 -0.04130364 -0.00721815
v 0.04841260 -0.03213105 -0.01762941
f 1 2 3
f 1 3 11
f 1 11 22
f 1 22 29
f 1 29 47
f 1 47 71
f 1 71 70
f 1 70 97
f 1 97 125
f 1 125 161
f 1 161 199
f 1 199 237
f 1 237 236
f 1 236 286
f 1 286 285
f 1 285 284
f 1 284 283
f 1 283 281
f 1 281 280
f 1 280 279
f 1 279 278
f 1 278 277
f 1 277 331
f 1 331 391
f 1 391 463
f 1 463 536
f 1 536 535
f 1 535 534
f 1 534 542
f 1 542 480
f 1 480 479
f 1 479 478
f 1 478 409
f 1 409 347
f 1 347 295
f 1 295 250
f 1 250 214
f 1 214 176
f 1 176 139
f 1 139 107
f 1 107 82
f 1 82 55
f 1 55 36
f 1 36 23
f 1 23 12
f 1 12 4
f 1 4 5
f 1 5 6
f 1 6 7
f 1 7 15
f 1 15 26
f 1 26 42
f 1 42 64
f 1 64 74
f 1 74 48
f 1 48 31
f 1 31 20
f 1 20 9
f 1 9 2
f 2 8 3
f 2 9 18
f 2 18 8
f 3 10 11
f 3 8 10
f 4 12 13
f 4 13 14
f 4 14 5
f 5 14 13
f 5 13 24
f 5 24 37
f 5 37 56
f 5 56 83
f 5 83 108
f 5 108 140
f 5 140 176
f 5 176 214
f 5 214 251
f 5 251 298
f 5 298 353
f 5 353 420
f 5 420 494
f 5 494 561
f 5 561 565
f 5 565 564
f 5 564 504
f 5 504 427
f 5 427 423
f 5 423 354
f 5 354 422
f 5 422 433
f 5 433 512
f 5 512 511
f 5 511 510
f 5 510 513
f 5 513 436
f 5 436 435
f 5 435 366
f 5 366 365
f 5 365 434
f 5 434 362
f 5 362 309
f 5 309 261
f 5 261 260
f 5 260 221
f 5 221 187
f 5 187 149
f 5 149 177
f 5 177 143
f 5 143 111
f 5 111 86
f 5 86 58
f 5 58 39
f 5 39 25
f 5 25 15
f 5 15 7
f 5 7 6
f 8 16 17
f 8 17 10
f 8 18 30
f 8 30 19
f 8 19 16
f 9 20 21
f 9 21 18
f 10 17 11
f 11 17 16
f 11 16 22
f 12 23 13
f 13 23 24
f 15 25 26
f 16 19 27
f 16 27 28
f 16 28 29
f 16 29 22
f 18 21 35
f 18 35 30
f 19 30 27
f 20 31 32
f 20 32 33
f 20 33 34
f 20 34 21
f 21 34 35
f 23 36 37
f 23 37 24
f 25 38 26
f 25 39 38
f 26 38 40
f 26 40 41
f 26 41 42
f 27 43 44
f 27 44 45
f 27 45 28
f 27 30 46
f 27 46 43
f 28 45 47
f 28 47 29
f 30 35 46
f 31 48 49
f 31 49 32
f 32 49 50
f 32 50 33
f 33 50 34
f 34 50 51
f 34 51 52
f 34 52 53
f 34 53 35
f 35 53 54
f 35 54 46
f 36 55 37
f 37 55 56
f 38 39 57
f 38 57 40
f 39 58 57
f 40 57 59
f 40 59 60
f 40 60 61
f 40 61 62
f 40 62 41
f 41 62 42
f 42 62 63
f 42 63 64
f 43 65 66
f 43 66 44
f 43 46 65
f 44 66 67
f 44 67 68
f 44 68 69
f 44 69 70
f 44 70 71
f 44 71 47
f 44 47 45
f 46 54 72
f 46 72 73
f 46 73 65
f 48 74 49
f 49 75 50
f 49 74 64
f 49 64 63
f 49 63 76
f 49 76 75
f 50 75 77
f 50 77 51
f 51 77 52
f 52 77 53
f 53 77 78
f 53 78 79
f 53 79 80
f 53 80 54
f 54 81 72
f 54 80 81
f 55 82 56
f 56 82 83
f 57 58 84
f 57 84 85
f 57 85 59
f 58 86 84
f 59 85 87
f 59 87 88
f 59 88 89
f 59 89 60
f 60 89 90
f 60 90 61
f 61 90 62
f 62 90 76
f 62 76 63
f 65 73 66
f 66 91 67
f 66 73 92
f 66 92 93
f 66 93 91
f 67 94 68
f 67 91 95
f 67 95 94
f 68 94 96
f 68 96 69
f 69 96 70
f 70 96 97
f 72 93 92
f 72 92 73
f 72 81 93
f 75 98 77
f 75 76 99
f 75 99 98
f 76 90 100
f 76 100 99
f 77 98 101
f 77 101 102
f 77 102 78
f 78 102 79
f 79 103 104
f 79 104 80
f 79 102 105
f 79 105 103
f 80 104 106
f 80 106 81
f 81 106 93
f 82 107 83
f 83 107 108
f 84 109 85
f 84 86 109
f 85 110 87
f 85 109 110
f 86 111 109
f 87 110 112
f 87 112 113
f 87 113 88
f 88 114 115
f 88 115 116
f 88 116 117
f 88 117 89
f 88 113 114
f 89 116 100
f 89 100 90
f 89 117 116
f 91 93 118
f 91 118 95
f 93 106 119
f 93 119 118
f 94 120 121
f 94 121 122
f 94 122 123
f 94 123 96
f 94 95 118
f 94 118 120
f 96 123 124
f 96 124 125
f 96 125 126
f 96 126 97
f 97 126 125
f 98 127 101
f 98 99 128
f 98 128 127
f 99 100 128
f 100 116 129
f 100 129 128
f 101 105 102
f 101 127 105
f 103 105 104
f 104 105 130
f 104 130 106
f 105 127 131
f 105 131 132
f 105 132 133
f 105 133 130
f 106 130 134
f 106 134 135
f 106 135 136
f 106 136 137
f 106 137 138
f 106 138 119
f 107 139 140
f 107 140 108
f 109 111 141
f 109 141 110
f 110 141 142
f 110 142 112
f 111 143 141
f 112 144 145
f 112 145 146
f 112 146 147
f 112 147 148
f 112 148 113
f 112 142 149
f 112 149 150
f 112 150 144
f 113 148 151
f 113 151 114
f 114 151 115
f 115 151 116
f 116 151 129
f 118 119 152
f 118 152 120
f 119 153 152
f 119 138 154
f 119 154 155
f 119 155 153
f 120 156 157
f 120 157 121
f 120 152 156
f 121 157 122
f 122 158 159
f 122 159 123
f 122 157 158
f 123 159 124
f 124 160 161
f 124 161 125
f 124 159 160
f 127 162 131
f 127 128 163
f 127 163 164
f 127 164 162
f 128 129 163
f 129 151 163
f 130 133 165
f 130 165 134
f 131 162 166
f 131 166 167
f 131 167 168
f 131 168 132
f 132 169 133
f 132 168 169
f 133 169 165
f 134 165 136
f 134 136 135
f 136 165 168
f 136 168 170
f 136 170 171
f 136 171 172
f 136 172 173
f 136 173 174
f 136 174 175
f 136 175 138
f 136 138 137
f 138 175 154
f 139 176 140
f 141 143 142
f 142 143 177
f 142 177 149
f 144 150 178
f 144 178 145
f 145 179 180
f 145 180 181
f 145 181 182
f 145 182 146
f 145 178 150
f 145 150 183
f 145 183 184
f 145 184 185
f 145 185 179
f 146 182 147
f 147 182 148
f 148 182 181
f 148 181 186
f 148 186 151
f 149 187 150
f 150 187 188
f 150 188 183
f 151 186 163
f 152 153 189
f 152 189 190
f 152 190 156
f 153 191 189
f 153 155 191
f 154 175 192
f 154 192 193
f 154 193 194
f 154 194 195
f 154 195 155
f 155 195 193
f 155 193 196
f 155 196 191
f 156 197 157
f 156 190 197
f 157 197 158
f 158 197 159
f 159 197 198
f 159 198 160
f 160 198 199
f 160 199 161
f 162 164 200
f 162 200 166
f 163 186 201
f 163 201 200
f 163 200 164
f 165 169 168
f 166 200 202
f 166 202 203
f 166 203 167
f 167 203 168
f 168 203 202
f 168 202 204
f 168 204 205
f 168 205 206
f 168 206 207
f 168 207 208
f 168 208 209
f 168 209 210
f 168 210 170
f 170 210 211
f 170 211 171
f 171 211 210
f 171 210 172
f 172 210 173
f 173 210 212
f 173 212 213
f 173 213 174
f 174 213 175
f 175 213 196
f 175 196 193
f 175 193 192
f 179 215 180
f 179 185 216
f 179 216 215
f 180 215 217
f 180 217 181
f 181 217 218
f 181 218 219
f 181 219 200
f 181 200 201
f 181 201 186
f 183 188 220
f 183 220 216
f 183 216 184
f 184 216 185
f 187 221 188
f 188 221 220
f 189 222 197
f 189 197 190
f 189 191 222
f 191 196 223
f 191 223 224
f 191 224 222
f 193 195 194
f 196 225 226
f 196 226 227
f 196 227 223
f 196 213 228
f 196 228 225
f 197 222 229
f 197 229 230
f 197 230 231
f 197 231 232
f 197 232 233
f 197 233 198
f 198 233 234
f 198 234 235
f 198 235 236
f 198 236 237
f 198 237 238
f 198 238 199
f 199 238 237
f 200 219 239
f 200 239 202
f 202 239 240
f 202 240 241
f 202 241 204
f 204 241 205
f 205 241 242
f 205 242 212
f 205 212 210
f 205 210 206
f 206 210 207
f 207 210 208
f 208 210 209
f 212 242 243
f 212 243 244
f 212 244 245
f 212 245 246
f 212 246 213
f 213 246 247
f 213 247 248
f 213 248 249
f 213 249 228
f 214 250 296
f 214 296 351
f 214 351 417
f 214 417 487
f 214 487 553
f 214 553 580
f 214 580 589
f 214 589 581
f 214 581 554
f 214 554 488
f 214 488 418
f 214 418 352
f 214 352 297
f 214 297 251
f 215 218 217
f 215 216 252
f 215 252 253
f 215 253 254
f 215 254 255
f 215 255 256
f 215 256 219
f 215 219 218
f 216 220 257
f 216 257 258
f 216 258 259
f 216 259 252
f 219 256 239
f 220 221 260
f 220 260 261
f 220 261 258
f 220 258 257
f 222 224 262
f 222 262 229
f 223 227 224
f 224 263 262
f 224 227 226
f 224 226 264
f 224 264 265
f 224 265 266
f 224 266 267
f 224 267 268
f 224 268 263
f 225 228 226
f 226 228 264
f 228 249 247
f 228 247 264
f 229 262 269
f 229 269 230
f 230 269 270
f 230 270 231
f 231 270 271
f 231 271 272
f 231 272 273
f 231 273 274
f 231 274 232
f 232 275 234
f 232 234 233
f 232 274 276
f 232 276 277
f 232 277 275
f 234 278 279
f 234 279 280
f 234 280 281
f 234 281 282
f 234 282 235
f 234 275 278
f 235 282 283
f 235 283 284
f 235 284 285
f 235 285 286
f 235 286 236
f 239 256 287
f 239 287 240
f 240 287 288
f 240 288 289
f 240 289 290
f 240 290 241
f 241 290 291
f 241 291 292
f 241 292 243
f 241 243 242
f 243 293 294
f 243 294 244
f 243 292 293
f 244 294 245
f 245 294 246
f 246 294 247
f 247 294 264
f 247 249 248
f 250 295 296
f 251 297 298
f 252 259 253
f 253 259 254
f 254 299 300
f 254 300 301
f 254 301 288
f 254 288 255
f 254 259 302
f 254 302 303
f 254 303 299
f 255 288 256
f 256 288 287
f 258 261 304
f 258 304 305
f 258 305 306
f 258 306 307
f 258 307 308
f 258 308 302
f 258 302 259
f 261 309 304
f 262 310 311
f 262 311 312
f 262 312 269
f 262 263 313
f 262 313 314
f 262 314 315
f 262 315 310
f 263 268 267
f 263 267 316
f 263 316 313
f 264 294 317
f 264 317 318
f 264 318 319
f 264 319 266
f 264 266 265
f 266 319 320
f 266 320 321
f 266 321 322
f 266 322 323
f 266 323 267
f 267 323 324
f 267 324 373
f 267 373 316
f 269 325 270
f 269 312 311
f 269 311 326
f 269 326 327
f 269 327 328
f 269 328 325
f 270 325 271
f 271 325 328
f 271 328 273
f 271 273 272
f 273 328 329
f 273 329 274
f 274 329 276
f 275 277 278
f 276 329 330
f 276 330 277
f 277 330 331
f 281 283 282
f 288 301 300
f 288 300 332
f 288 332 333
f 288 333 334
f 288 334 335
f 288 335 336
f 288 336 337
f 288 337 338
f 288 338 339
f 288 339 340
f 288 340 341
f 288 341 293
f 288 293 289
f 289 293 291
f 289 291 290
f 291 293 292
f 293 341 340
f 293 340 342
f 293 342 343
f 293 343 294
f 294 344 345
f 294 345 346
f 294 346 317
f 294 343 344
f 295 347 348
f 295 348 296
f 296 348 349
f 296 349 350
f 296 350 351
f 297 352 353
f 297 353 298
f 299 303 302
f 299 302 354
f 299 354 355
f 299 355 300
f 300 356 332
f 300 355 357
f 300 357 358
f 300 358 356
f 302 308 359
f 302 359 360
f 302 360 361
f 302 361 354
f 304 309 362
f 304 362 363
f 304 363 306
f 304 306 305
f 306 363 364
f 306 364 365
f 306 365 366
f 306 366 367
f 306 367 368
f 306 368 307
f 307 368 369
f 307 369 359
f 307 359 308
f 310 315 370
f 310 370 311
f 311 371 372
f 311 372 326
f 311 370 371
f 313 315 314
f 313 316 373
f 313 373 374
f 313 374 315
f 315 375 376
f 315 376 370
f 315 374 375
f 317 346 318
f 318 346 345
f 318 345 319
f 319 377 320
f 319 345 378
f 319 378 377
f 320 377 321
f 321 377 322
f 322 377 378
f 322 378 379
f 322 379 380
f 322 380 381
f 322 381 382
f 322 382 383
f 322 383 323
f 323 384 385
f 323 385 324
f 323 383 384
f 324 385 373
f 326 372 386
f 326 386 387
f 326 387 327
f 327 387 328
f 328 388 389
f 328 389 329
f 328 387 388
f 329 389 388
f 329 388 390
f 329 390 331
f 329 331 330
f 331 390 391
f 332 356 392
f 332 392 333
f 333 392 393
f 333 393 394
f 333 394 395
f 333 395 334
f 334 396 335
f 334 395 397
f 334 397 398
f 334 398 396
f 335 399 336
f 335 396 400
f 335 400 399
f 336 399 338
f 336 338 337
f 338 401 402
f 338 402 339
f 338 399 401
f 339 402 342
f 339 342 340
f 342 402 403
f 342 403 404
f 342 404 344
f 342 344 343
f 344 404 405
f 344 405 406
f 344 406 407
f 344 407 408
f 344 408 345
f 345 408 378
f 347 409 348
f 348 409 349
f 349 409 410
f 349 410 411
f 349 411 350
f 350 411 410
f 350 410 412
f 350 412 413
f 350 413 414
f 350 414 415
f 350 415 416
f 350 416 351
f 351 416 415
f 351 415 417
f 352 418 419
f 352 419 353
f 353 419 421
f 353 421 420
f 354 423 355
f 354 361 422
f 355 423 357
f 356 424 392
f 356 358 425
f 356 425 426
f 356 426 424
f 357 423 427
f 357 427 428
f 357 428 358
f 358 428 425
f 359 369 368
f 359 368 429
f 359 429 430
f 359 430 360
f 360 430 431
f 360 431 361
f 361 432 433
f 361 433 422
f 361 431 432
f 362 434 364
f 362 364 363
f 364 434 365
f 366 435 367
f 367 435 436
f 367 436 437
f 367 437 368
f 368 437 429
f 370 376 438
f 370 438 439
f 370 439 440
f 370 440 371
f 371 440 441
f 371 441 372
f 372 441 442
f 372 442 386
f 373 385 374
f 374 443 444
f 374 444 445
f 374 445 375
f 374 385 443
f 375 445 376
f 376 445 438
f 378 408 446
f 378 446 447
f 378 447 379
f 379 447 380
f 380 447 448
f 380 448 381
f 381 448 382
f 382 449 450
f 382 450 451
f 382 451 452
f 382 452 453
f 382 453 438
f 382 438 454
f 382 454 383
f 382 448 408
f 382 408 455
f 382 455 456
f 382 456 449
f 383 454 438
f 383 438 443
f 383 443 384
f 384 443 385
f 386 442 387
f 387 457 388
f 387 442 458
f 387 458 459
f 387 459 457
f 388 459 460
f 388 460 461
f 388 461 390
f 388 457 459
f 390 461 462
f 390 462 391
f 391 462 463
f 392 424 393
f 393 424 500
f 393 500 464
f 393 464 465
f 393 465 394
f 394 465 395
f 395 465 466
f 395 466 467
f 395 467 397
f 396 398 400
f 397 467 468
f 397 468 398
f 398 468 469
f 398 469 470
f 398 470 471
f 398 471 472
f 398 472 400
f 399 400 472
f 399 472 401
f 401 472 402
f 402 471 470
f 402 470 403
f 402 472 471
f 403 470 469
f 403 469 473
f 403 473 405
f 403 405 404
f 405 473 474
f 405 474 475
f 405 475 406
f 406 475 476
f 406 476 477
f 406 477 455
f 406 455 407
f 407 455 408
f 408 448 446
f 409 478 410
f 410 478 479
f 410 479 480
f 410 480 481
f 410 481 412
f 412 481 482
f 412 482 413
f 413 483 414
f 413 482 484
f 413 484 483
f 414 483 415
f 415 483 485
f 415 485 486
f 415 486 487
f 415 487 417
f 418 488 489
f 418 489 419
f 419 489 490
f 419 490 491
f 419 491 421
f 420 492 493
f 420 493 494
f 420 421 492
f 421 491 495
f 421 495 496
f 421 496 497
f 421 497 498
f 421 498 492
f 424 426 499
f 424 499 500
f 425 428 501
f 425 501 502
f 425 502 503
f 425 503 426
f 426 503 499
f 427 504 505
f 427 505 428
f 428 505 506
f 428 506 507
f 428 507 508
f 428 508 509
f 428 509 501
f 429 437 510
f 429 510 511
f 429 511 430
f 430 511 512
f 430 512 432
f 430 432 431
f 432 512 433
f 436 513 437
f 437 513 510
f 438 445 444
f 438 444 443
f 438 453 440
f 438 440 439
f 440 453 441
f 441 453 514
f 441 514 442
f 442 514 515
f 442 515 459
f 442 459 458
f 446 448 447
f 449 456 516
f 449 516 450
f 450 517 451
f 450 516 476
f 450 476 517
f 451 518 519
f 451 519 520
f 451 520 452
f 451 517 521
f 451 521 522
f 451 522 518
f 452 520 523
f 452 523 453
f 453 515 514
f 453 523 524
f 453 524 525
f 453 525 526
f 453 526 527
f 453 527 460
f 453 460 515
f 455 528 516
f 455 516 456
f 455 477 528
f 459 515 460
f 460 529 530
f 460 530 461
f 460 527 531
f 460 531 532
f 460 532 483
f 460 483 529
f 461 533 462
f 461 530 533
f 462 533 481
f 462 481 534
f 462 534 535
f 462 535 536
f 462 536 463
f 464 500 465
f 465 500 537
f 465 537 538
f 465 538 539
f 465 539 468
f 465 468 466
f 466 468 467
f 468 539 475
f 468 475 474
f 468 474 473
f 468 473 469
f 475 539 538
f 475 538 540
f 475 540 476
f 476 516 541
f 476 541 477
f 476 540 522
f 476 522 521
f 476 521 517
f 477 541 528
f 480 542 481
f 481 542 534
f 481 533 543
f 481 543 482
f 482 543 484
f 483 532 527
f 483 527 544
f 483 544 545
f 483 545 485
f 483 484 529
f 484 543 546
f 484 546 529
f 485 547 548
f 485 548 549
f 485 549 550
f 485 550 551
f 485 551 552
f 485 552 486
f 485 545 547
f 486 552 487
f 487 552 553
f 488 554 555
f 488 555 556
f 488 556 489
f 489 556 490
f 490 556 491
f 491 556 557
f 491 557 558
f 491 558 559
f 491 559 495
f 492 498 560
f 492 560 561
f 492 561 493
f 493 561 494
f 495 559 496
f 496 559 574
f 496 574 562
f 496 562 498
f 496 498 497
f 498 562 537
f 498 537 508
f 498 508 507
f 498 507 560
f 499 503 563
f 499 563 500
f 500 563 503
f 500 503 509
f 500 509 537
f 501 509 502
f 502 509 503
f 504 564 505
f 505 564 565
f 505 565 506
f 506 565 560
f 506 560 507
f 508 537 509
f 516 528 541
f 518 522 566
f 518 566 567
f 518 567 519
f 519 568 569
f 519 569 520
f 519 567 568
f 520 570 524
f 520 524 523
f 520 569 570
f 522 540 571
f 522 571 567
f 522 567 566
f 524 549 572
f 524 572 573
f 524 573 525
f 524 570 549
f 525 544 526
f 525 573 544
f 526 544 527
f 527 532 531
f 529 546 530
f 530 546 543
f 530 543 533
f 537 562 538
f 538 562 574
f 538 574 575
f 538 575 540
f 540 575 571
f 544 573 547
f 544 547 545
f 547 573 572
f 547 572 548
f 548 572 549
f 549 570 568
f 549 568 576
f 549 576 577
f 549 577 578
f 549 578 551
f 549 551 550
f 551 579 552
f 551 578 579
f 552 579 553
f 553 579 580
f 554 581 555
f 555 581 582
f 555 582 556
f 556 582 583
f 556 583 557
f 557 583 584
f 557 584 558
f 558 584 578
f 558 578 559
f 559 578 577
f 559 577 576
f 559 576 585
f 559 585 588
f 559 588 574
f 560 565 561
f 567 571 586
f 567 586 568
f 568 586 587
f 568 587 585
f 568 585 576
f 568 570 569
f 571 588 585
f 571 585 586
f 571 575 574
f 571 574 588
f 578 584 580
f 578 580 579
f 580 584 582
f 580 582 589
f 581 589 582
f 582 584 583
f 585 587 586

