# https://github.com/mikedh/trimesh
v -0.04304674 0.02376549 -0.01762933
v -0.04567879 0.01424764 -0.01762933
v -0.05289214 0.02376549 -0.01762933
v -0.06618592 0.02376549 0.02321548
v -0.07114486 0.00088682 0.02480677
v -0.07110672 0.00088682 0.02473444
v -0.04611365 0.01269343 -0.01762933
v -0.05299132 0.02353034 -0.01762933
v -0.05296462 0.02376549 -0.01755700
v -0.06662078 0.02376549 0.02391167
v -0.06962285 0.00892660 0.02459430
v -0.07154921 0.00243431 0.02581489
v -0.07170560 0.00088682 0.02562050
v -0.04951625 0.00088682 -0.01762933
v -0.04668584 0.01069356 -0.01762933
v -0.05334607 0.02262111 -0.01762933
v -0.05317061 0.02353034 -0.01744398
v -0.05312101 0.02376549 -0.01739877
v -0.06734555 0.02376549 0.02483390
v -0.07144622 0.00346448 0.02592339
v -0.07247996 0.00088682 0.02623985
v -0.05758788 0.00088682 -0.01762933
v -0.05349103 0.02223144 -0.01762933
v -0.05518470 0.02110721 -0.01623242
v -0.05391063 0.02353034 -0.01663477
v -0.05327360 0.02376549 -0.01723603
v -0.06752484 0.02376549 0.02505993
v -0.06984791 0.01341231 0.02589175
v -0.06976399 0.01449398 0.02597764
v -0.07135848 0.00454615 0.02600025
v -0.07251811 0.00088682 0.02626245
v -0.05763365 0.00243431 -0.01762933
v -0.06158174 0.00088682 -0.01281927
v -0.05469643 0.01866168 -0.01762933
v -0.05482613 0.01866168 -0.01749823
v -0.05563101 0.01866168 -0.01668450
v -0.05533728 0.02028531 -0.01639065
v -0.05643969 0.01866168 -0.01582104
v -0.05624515 0.02035922 -0.01535088
v -0.05674486 0.02095044 -0.01454167
v -0.05386486 0.02376549 -0.01658504
v -0.06811991 0.02376549 0.02574709
v -0.06838311 0.02190671 0.02572900
v -0.06906593 0.02376549 0.02659246
v -0.07207944 0.00402659 0.02635738
v -0.07236171 0.00243431 0.02634382
v -0.06996235 0.02376549 0.02727961
v -0.07010730 0.02376549 0.02738359
v -0.07135466 0.01920812 0.02761415
v -0.07157209 0.01703805 0.02750113
v -0.07384176 0.00088682 0.02697220
v -0.05763365 0.00340849 -0.01762933
v -0.06221496 0.00088682 -0.01204623
v -0.06155122 0.00405794 -0.01285544
v -0.05495583 0.01788234 -0.01762933
v -0.05665712 0.01734934 -0.01606516
v -0.05541739 0.01647817 -0.01762933
v -0.05558523 0.01596533 -0.01762933
v -0.05714158 0.01866168 -0.01501183
v -0.05694322 0.01986877 -0.01476771
v -0.05856441 0.02312275 -0.01152634
v -0.05779005 0.02376549 -0.01209596
v -0.07089310 0.02376549 0.02783114
v -0.07271647 0.01379302 0.02774073
v -0.07309792 0.01009562 0.02755086
v -0.07371970 0.00405794 0.02723893
v -0.07561935 0.00088682 0.02786279
v -0.06154359 0.00568158 -0.01282831
v -0.05758025 0.00497166 -0.01762933
v -0.06302364 0.00088682 -0.01095673
v -0.06302364 0.00243431 -0.01095673
v -0.06221496 0.00243431 -0.01204170
v -0.06220732 0.00405794 -0.01204170
v -0.05628329 0.01379302 -0.01762933
v -0.05644732 0.01379302 -0.01745302
v -0.05680971 0.01626766 -0.01623695
v -0.05970497 0.01703805 -0.01257515
v -0.05863688 0.01866168 -0.01323066
v -0.05847667 0.01962914 -0.01304079
v -0.05829357 0.02071082 -0.01282379
v -0.05877040 0.02190671 -0.01177498
v -0.06001013 0.01935816 -0.01130935
v -0.05985373 0.02028531 -0.01110591
v -0.05958290 0.02190671 -0.01073521
v -0.05886957 0.02376549 -0.01083467
v -0.07403249 0.00892660 0.02788991
v -0.07255244 0.01541665 0.02781758
v -0.07198026 0.02376549 0.02821992
v -0.07221295 0.02028531 0.02806170
v -0.07383795 0.01379302 0.02818828
v -0.07545914 0.00568158 0.02819732
v -0.07545914 0.00405794 0.02807526
v -0.07566513 0.00088682 0.02788539
v -0.07453220 0.00405794 0.02764579
v -0.06215774 0.00568158 -0.01201910
v -0.06148256 0.00730297 -0.01272434
v -0.05748489 0.00652139 -0.01762933
v -0.06491567 0.00088682 -0.00811771
v -0.06356149 0.00243431 -0.01014752
v -0.06301220 0.00405794 -0.01092508
v -0.05660753 0.01262401 -0.01762933
v -0.05992621 0.01541665 -0.01283736
v -0.06036870 0.01703805 -0.01176142
v -0.06018560 0.01827425 -0.01152634
v -0.05954475 0.01875350 -0.01210952
v -0.05894968 0.02021589 -0.01224062
v -0.06065861 0.01875350 -0.01068097
v -0.06044881 0.02028531 -0.01029670
v -0.06018179 0.02190671 -0.00992600
v -0.06004828 0.02271964 -0.00973613
v -0.05913278 0.02376549 -0.01046397
v -0.07221295 0.02376549 0.02829226
v -0.07383795 0.01541665 0.02829226
v -0.07545914 0.00730297 0.02829226
v -0.07708415 0.00088682 0.02836911
v -0.07700786 0.00088682 0.02834651
v -0.06296643 0.00568158 -0.01084371
v -0.06206619 0.00730297 -0.01191513
v -0.06195175 0.00892660 -0.01174786
v -0.06136431 0.00892660 -0.01256159
v -0.06041829 0.01055024 -0.01345217
v -0.06055562 0.00892660 -0.01358779
v -0.05830502 0.01055024 -0.01607420
v -0.05733993 0.00804648 -0.01762933
v -0.06543445 0.00088682 -0.00730850
v -0.06491185 0.00166840 -0.00811319
v -0.06353098 0.00405794 -0.01011587
v -0.05672197 0.01217163 -0.01762933
v -0.06002920 0.01453205 -0.01295941
v -0.06055943 0.01541665 -0.01202814
v -0.06136812 0.01541665 -0.01092508
v -0.06126512 0.01714778 -0.01048657
v -0.06164658 0.01776364 -0.00969997
v -0.06151688 0.01866168 -0.00950105
v -0.06126131 0.02028531 -0.00912131
v -0.06166947 0.02109601 -0.00811319
v -0.06147874 0.02217769 -0.00779222
v -0.05989569 0.02376549 -0.00936995
v -0.05978507 0.02376549 -0.00953270
v -0.07383795 0.01866168 0.02842336
v -0.07383795 0.01703805 0.02836911
v -0.07360145 0.02376549 0.02850925
v -0.07383795 0.02028531 0.02846404
v -0.07545914 0.00892660 0.02837363
v -0.07708415 0.00243431 0.02844144
v -0.07862905 0.00088682 0.02851829
v -0.06287106 0.00730297 -0.01073974
v -0.06347376 0.00568158 -0.01003450
v -0.06340891 0.00730297 -0.00992600
v -0.06334788 0.00861307 -0.00982655
v -0.06328303 0.00969475 -0.00972709
v -0.06181824 0.01055024 -0.01156251
v -0.06122698 0.01055024 -0.01237172
v -0.06026571 0.01217163 -0.01325326
v -0.05976600 0.01055024 -0.01426591
v -0.05687837 0.01134749 -0.01762933
v -0.05694703 0.01097798 -0.01762933
v -0.05738189 0.01057935 -0.01717726
v -0.05705002 0.01025686 -0.01762933
v -0.05713013 0.00966563 -0.01762933
v -0.06013983 0.01345038 -0.01309956
v -0.06624696 0.00088682 -0.00596584
v -0.06530476 0.00229994 -0.00743960
v -0.06488897 0.00275008 -0.00807250
v -0.06427864 0.00405794 -0.00892240
v -0.06152452 0.01379302 -0.01115112
v -0.06063572 0.01391171 -0.01231747
v -0.06192886 0.01541665 -0.01011135
v -0.06178391 0.01667973 -0.00990340
v -0.06210052 0.01379302 -0.01034191
v -0.06363779 0.01217163 -0.00860595
v -0.06333644 0.01478960 -0.00818552
v -0.06219970 0.01714778 -0.00906254
v -0.06305416 0.01703805 -0.00772441
v -0.06290921 0.01874006 -0.00724069
v -0.06203567 0.01866168 -0.00868732
v -0.06179916 0.02028531 -0.00830758
v -0.06243620 0.02028531 -0.00729946
v -0.06311519 0.02028531 -0.00619188
v -0.06340891 0.02141850 -0.00507526
v -0.06195556 0.02174546 -0.00727233
v -0.06287869 0.02193806 -0.00564035
v -0.06180298 0.02305109 -0.00671176
v -0.06126131 0.02356617 -0.00727233
v -0.06117358 0.02376549 -0.00728138
v -0.07545914 0.01055024 0.02843692
v -0.07545914 0.01217163 0.02848213
v -0.07708415 0.00405794 0.02850021
v -0.07383795 0.02376549 0.02852734
v -0.07708415 0.00568158 0.02854090
v -0.07870534 0.00088682 0.02852281
v -0.06403069 0.00730297 -0.00892240
v -0.06484701 0.00405794 -0.00800469
v -0.06465628 0.00892660 -0.00767468
v -0.06457617 0.01055024 -0.00755714
v -0.06321056 0.01055024 -0.00962764
v -0.06376367 0.01055024 -0.00881390
v -0.06216918 0.01217387 -0.01066740
v -0.06171906 0.01163415 -0.01142689
v -0.06116594 0.01217387 -0.01204623
v -0.06668944 0.00088682 -0.00515663
v -0.06724637 0.00243431 -0.00405357
v -0.06666656 0.00243431 -0.00510690
v -0.06621263 0.00243431 -0.00592064
v -0.06306560 0.01217163 -0.00941968
v -0.06345469 0.01379302 -0.00835731
v -0.06498814 0.01174165 -0.00662135
v -0.06452277 0.01223881 -0.00721809
v -0.06411842 0.01379302 -0.00729946
v -0.06368356 0.01536515 -0.00737631
v -0.06319911 0.01587127 -0.00796853
v -0.06354242 0.01703805 -0.00691520
v -0.06338984 0.01825409 -0.00666204
v -0.06325251 0.01933577 -0.00642696
v -0.06358820 0.02028531 -0.00538267
v -0.06480505 0.02073545 -0.00306353
v -0.06376367 0.02193806 -0.00413495
v -0.06320674 0.02250017 -0.00472716
v -0.06651779 0.02103330 0.00003317
v -0.07304452 0.02114304 0.01132595
v -0.06216918 0.02356617 -0.00575789
v -0.06196701 0.02376549 -0.00596132
v -0.07545914 0.02190671 0.02853637
v -0.07545914 0.02028531 0.02855446
v -0.07545914 0.01703805 0.02855446
v -0.07545914 0.01541665 0.02854090
v -0.07522646 0.02376549 0.02847761
v -0.07708415 0.00730297 0.02854994
v -0.07708415 0.00892660 0.02855446
v -0.07870534 0.00568158 0.02852281
v -0.08025406 0.00088682 0.02810238
v -0.06472112 0.00730297 -0.00778770
v -0.06533527 0.00405794 -0.00719096
v -0.06526661 0.00568158 -0.00708698
v -0.06519795 0.00730297 -0.00697849
v -0.06512929 0.00892660 -0.00686547
v -0.06506062 0.01055024 -0.00674341
v -0.06671615 0.00088682 -0.00510690
v -0.06836404 0.00243431 -0.00200116
v -0.07629453 0.00845855 0.01293533
v -0.07125167 0.00568158 0.00352317
v -0.06832971 0.00405794 -0.00192883
v -0.06614396 0.00405794 -0.00581214
v -0.06787578 0.00405794 -0.00274256
v -0.06660934 0.00405794 -0.00499841
v -0.06667800 0.01217163 -0.00350204
v -0.06658645 0.01318836 -0.00333026
v -0.06487753 0.01282108 -0.00643148
v -0.06566332 0.01055024 -0.00567652
v -0.06975254 0.01105412 0.00167419
v -0.07144240 0.01160280 0.00479802
v -0.06476309 0.01379302 -0.00622805
v -0.06376748 0.01874006 -0.00580310
v -0.06496144 0.01965378 -0.00333026
v -0.06806651 0.01910510 0.00178269
v -0.07785851 0.02094821 0.01953108
v -0.06518269 0.02338029 -0.00077152
v -0.06466391 0.02376549 -0.00141347
v -0.06973729 0.02259871 0.00656562
v -0.06350046 0.02376549 -0.00338903
v -0.06300075 0.02353034 -0.00438811
v -0.07475345 0.02136251 0.01442265
v -0.07243800 0.02177234 0.01068853
v -0.06223784 0.02376549 -0.00550925
v -0.07708415 0.01703805 0.02852281
v -0.07708415 0.01541665 0.02854542
v -0.07545914 0.02353034 0.02846404
v -0.07708415 0.01866168 0.02845952
v -0.07708415 0.01379302 0.02855446
v -0.07545914 0.02376549 0.02844596
v -0.07870534 0.00730297 0.02851377
v -0.08033035 0.00568158 0.02807978
v -0.08033035 0.00088682 0.02807978
v -0.06580447 0.00892660 -0.00567652
v -0.06639954 0.00892660 -0.00462319
v -0.06651397 0.00625713 -0.00483114
v -0.06730740 0.00088682 -0.00399933
v -0.07677517 0.00730297 0.01378975
v -0.07128219 0.00405794 0.00347344
v -0.07587112 0.00730297 0.01210352
v -0.08089872 0.01055024 0.02155185
v -0.08021210 0.01055024 0.02028152
v -0.07964373 0.01055024 0.01924175
v -0.07843069 0.01055024 0.01703564
v -0.07793861 0.01055024 0.01614505
v -0.07290720 0.00730297 0.00669672
v -0.06953130 0.00568158 0.00044455
v -0.06826486 0.00568158 -0.00181129
v -0.06794826 0.01217163 -0.00124620
v -0.07135085 0.01268223 0.00496076
v -0.07304071 0.01306295 0.00808459
v -0.06523228 0.01379302 -0.00541884
v -0.07335732 0.01368105 0.00885763
v -0.06951986 0.01379302 0.00208558
v -0.07153777 0.01541665 0.00624917
v -0.07143859 0.01636844 0.00643000
v -0.06678481 0.01055024 -0.00368739
v -0.07790047 0.01140124 0.01621286
v -0.06478597 0.01734710 -0.00465031
v -0.06509114 0.01866168 -0.00355177
v -0.07030566 0.01880501 0.00552133
v -0.07629072 0.01954180 0.01619478
v -0.07798439 0.01986653 0.01930957
v -0.07835059 0.02035698 0.02015946
v -0.07920887 0.02028531 0.02166486
v -0.07954073 0.02115424 0.02266847
v -0.07811790 0.02190671 0.02070647
v -0.07765634 0.02190671 0.01989274
v -0.07173994 0.02376549 0.01086032
v -0.07144622 0.02281146 0.00966232
v -0.07284235 0.02222471 0.01168309
v -0.06624314 0.02376549 0.00130349
v -0.06477453 0.02376549 -0.00122360
v -0.06308468 0.02376549 -0.00408974
v -0.07870534 0.00892660 0.02847761
v -0.07870534 0.01055024 0.02841884
v -0.07708415 0.02028531 0.02834651
v -0.07870534 0.01541665 0.02820636
v -0.07870534 0.01379302 0.02828321
v -0.07708415 0.02190671 0.02818376
v -0.07685528 0.02376549 0.02799841
v -0.08023117 0.00892660 0.02799389
v -0.08048675 0.00743062 0.02795772
v -0.08116574 0.00697152 0.02761415
v -0.08118100 0.00568158 0.02762771
v -0.08118100 0.00088682 0.02762771
v -0.07007297 0.00088682 0.00119499
v -0.07465427 0.00088682 0.00980247
v -0.07677517 0.00088682 0.01378975
v -0.08022736 0.00892660 0.02028152
v -0.07630598 0.00730297 0.01291273
v -0.08089872 0.00088682 0.02155185
v -0.08132595 0.01055024 0.02236106
v -0.08082624 0.01217163 0.02168295
v -0.07959032 0.01179763 0.01934121
v -0.07748468 0.01055024 0.01533584
v -0.07456272 0.00892660 0.00988836
v -0.07667218 0.01055024 0.01388921
v -0.07312081 0.01217163 0.00794445
v -0.07949877 0.01287931 0.01950396
v -0.07473437 0.01340111 0.01120841
v -0.07941104 0.01379302 0.01966218
v -0.07852225 0.01541665 0.01865858
v -0.07878545 0.01866168 0.02028152
v -0.07545914 0.01703805 0.01378975
v -0.07482593 0.01703805 0.01266409
v -0.07280801 0.01541665 0.00850050
v -0.07471149 0.01811748 0.01286752
v -0.07162169 0.01866168 0.00773649
v -0.07996034 0.01227240 0.02014138
v -0.07656918 0.01217163 0.01407456
v -0.07765634 0.01866168 0.01827432
v -0.07938052 0.01866168 0.02134841
v -0.07963991 0.02028531 0.02247860
v -0.08116956 0.01313461 0.02265491
v -0.08106275 0.01421629 0.02297588
v -0.08065459 0.01703805 0.02352741
v -0.08031509 0.01866168 0.02352741
v -0.07994126 0.02028531 0.02352741
v -0.07962847 0.02135579 0.02352741
v -0.07857565 0.02376549 0.02351384
v -0.07812934 0.02376549 0.02229325
v -0.07807976 0.02376549 0.02217571
v -0.07891133 0.02177906 0.02204009
v -0.07703838 0.02376549 0.02028152
v -0.07342598 0.02376549 0.01384852
v -0.07086259 0.02376549 0.00932779
v -0.06701368 0.02376549 0.00263711
v -0.07859853 0.01866168 0.02797581
v -0.07886555 0.01718585 0.02798937
v -0.07715663 0.02346540 0.02792608
v -0.07835440 0.02028531 0.02786279
v -0.07707652 0.02376549 0.02791251
v -0.07968950 0.01541665 0.02772717
v -0.08113523 0.00805320 0.02757798
v -0.08148616 0.00743062 0.02693152
v -0.08160823 0.00568158 0.02677329
v -0.08158916 0.00088682 0.02681398
v -0.08022736 0.00088682 0.02028152
v -0.08132595 0.00088682 0.02236106
v -0.08177226 0.00892660 0.02352741
v -0.08174937 0.01055024 0.02352741
v -0.08125347 0.01217163 0.02249216
v -0.08072325 0.01372360 0.02203105
v -0.07986497 0.01379302 0.02047591
v -0.07970476 0.01541665 0.02076524
v -0.07947970 0.01766063 0.02116306
v -0.07980775 0.01866168 0.02215762
v -0.08160060 0.01217163 0.02352741
v -0.08131833 0.01372360 0.02351837
v -0.08121914 0.01500683 0.02405633
v -0.08096357 0.01549504 0.02351837
v -0.08034180 0.01866168 0.02515035
v -0.07963991 0.02138267 0.02485198
v -0.07865194 0.02376549 0.02516843
v -0.07715281 0.02376549 0.02048947
v -0.07951022 0.01782635 0.02757798
v -0.07959414 0.01674467 0.02765483
v -0.07793861 0.02288089 0.02762319
v -0.07778222 0.02376549 0.02741975
v -0.08127637 0.01217163 0.02623532
v -0.08139080 0.01055024 0.02646136
v -0.08148998 0.00892660 0.02666479
v -0.08193629 0.00892660 0.02515035
v -0.08160823 0.00088682 0.02677329
v -0.08199732 0.00730297 0.02515035
v -0.08201639 0.00568158 0.02515035
v -0.08199732 0.00088682 0.02522720
v -0.08177226 0.00088682 0.02352741
v -0.08181803 0.01055024 0.02515035
v -0.08162349 0.01217163 0.02515035
v -0.08121914 0.01500683 0.02471184
v -0.07984209 0.02043088 0.02529501
v -0.08071562 0.01703805 0.02515035
v -0.07965898 0.01998746 0.02632122
v -0.07951022 0.02106914 0.02593243
v -0.07860235 0.02376549 0.02535830
v -0.07941104 0.01866168 0.02744688
v -0.07997178 0.01718585 0.02693152
v -0.08118863 0.01328466 0.02606354
v -0.07793099 0.02376549 0.02714851
v -0.07923175 0.02043088 0.02682754
v -0.08201639 0.00088682 0.02515035
v -0.08110089 0.01436633 0.02579681
v -0.08132977 0.01381094 0.02521364
v -0.08101697 0.01549504 0.02521364
v -0.07983064 0.01866168 0.02663315
v -0.07816749 0.02376549 0.02669644
f 1 2 7
f 1 7 15
f 1 15 14
f 1 14 22
f 1 22 32
f 1 32 52
f 1 52 69
f 1 69 97
f 1 97 124
f 1 124 160
f 1 160 159
f 1 159 157
f 1 157 156
f 1 156 128
f 1 128 101
f 1 101 74
f 1 74 58
f 1 58 57
f 1 57 55
f 1 55 34
f 1 34 23
f 1 23 16
f 1 16 8
f 1 8 3
f 1 3 9
f 1 9 18
f 1 18 26
f 1 26 41
f 1 41 62
f 1 62 85
f 1 85 111
f 1 111 139
f 1 139 138
f 1 138 185
f 1 185 222
f 1 222 264
f 1 264 314
f 1 314 260
f 1 260 258
f 1 258 313
f 1 313 312
f 1 312 368
f 1 368 367
f 1 367 309
f 1 309 366
f 1 366 365
f 1 365 396
f 1 396 363
f 1 363 362
f 1 362 361
f 1 361 395
f 1 395 417
f 1 417 428
f 1 428 421
f 1 421 400
f 1 400 373
f 1 373 321
f 1 321 270
f 1 270 227
f 1 227 189
f 1 189 142
f 1 142 112
f 1 112 88
f 1 88 63
f 1 63 48
f 1 48 47
f 1 47 44
f 1 44 42
f 1 42 27
f 1 27 19
f 1 19 10
f 1 10 4
f 1 4 5
f 1 5 6
f 1 6 2
f 2 6 7
f 3 8 9
f 4 10 5
f 5 10 11
f 5 11 12
f 5 12 13
f 5 13 21
f 5 21 31
f 5 31 51
f 5 51 67
f 5 67 93
f 5 93 116
f 5 116 115
f 5 115 146
f 5 146 191
f 5 191 231
f 5 231 273
f 5 273 326
f 5 326 378
f 5 378 405
f 5 405 408
f 5 408 423
f 5 423 409
f 5 409 380
f 5 380 332
f 5 332 379
f 5 379 329
f 5 329 328
f 5 328 327
f 5 327 277
f 5 277 238
f 5 238 201
f 5 201 162
f 5 162 125
f 5 125 98
f 5 98 70
f 5 70 53
f 5 53 33
f 5 33 22
f 5 22 14
f 5 14 6
f 6 14 15
f 6 15 7
f 8 16 17
f 8 17 18
f 8 18 9
f 10 19 20
f 10 20 12
f 10 12 11
f 12 20 21
f 12 21 13
f 16 23 24
f 16 24 25
f 16 25 26
f 16 26 17
f 17 26 18
f 19 27 20
f 20 27 28
f 20 28 29
f 20 29 30
f 20 30 21
f 21 30 31
f 22 33 32
f 23 34 35
f 23 35 36
f 23 36 37
f 23 37 24
f 24 37 38
f 24 38 39
f 24 39 40
f 24 40 25
f 25 41 26
f 25 40 41
f 27 42 43
f 27 43 28
f 28 43 29
f 29 44 30
f 29 43 42
f 29 42 44
f 30 45 46
f 30 46 31
f 30 44 47
f 30 47 48
f 30 48 49
f 30 49 50
f 30 50 45
f 31 46 50
f 31 50 51
f 32 33 52
f 33 53 54
f 33 54 52
f 34 55 35
f 35 55 36
f 36 56 38
f 36 38 37
f 36 55 57
f 36 57 58
f 36 58 56
f 38 56 59
f 38 59 60
f 38 60 39
f 39 60 40
f 40 61 41
f 40 60 61
f 41 61 62
f 45 50 46
f 48 63 49
f 49 63 64
f 49 64 50
f 50 64 65
f 50 65 51
f 51 65 66
f 51 66 67
f 52 54 68
f 52 68 69
f 53 70 71
f 53 71 72
f 53 72 54
f 54 72 73
f 54 73 68
f 56 58 74
f 56 74 75
f 56 75 76
f 56 76 77
f 56 77 59
f 59 77 78
f 59 78 79
f 59 79 60
f 60 79 80
f 60 80 81
f 60 81 61
f 61 81 82
f 61 82 83
f 61 83 84
f 61 84 85
f 61 85 62
f 63 86 87
f 63 87 64
f 63 88 89
f 63 89 90
f 63 90 91
f 63 91 92
f 63 92 86
f 64 87 86
f 64 86 93
f 64 93 67
f 64 67 65
f 65 67 94
f 65 94 66
f 66 94 67
f 68 73 95
f 68 95 96
f 68 96 97
f 68 97 69
f 70 98 71
f 71 99 100
f 71 100 73
f 71 73 72
f 71 98 99
f 73 100 95
f 74 101 75
f 75 101 102
f 75 102 76
f 76 102 77
f 77 102 103
f 77 103 104
f 77 104 105
f 77 105 78
f 78 105 79
f 79 105 106
f 79 106 81
f 79 81 80
f 81 106 82
f 82 106 105
f 82 105 104
f 82 104 107
f 82 107 108
f 82 108 83
f 83 108 109
f 83 109 84
f 84 109 110
f 84 110 85
f 85 110 111
f 86 92 93
f 88 112 113
f 88 113 90
f 88 90 89
f 90 113 91
f 91 113 114
f 91 114 115
f 91 115 116
f 91 116 92
f 92 116 93
f 95 100 117
f 95 117 118
f 95 118 96
f 96 118 119
f 96 119 120
f 96 120 121
f 96 121 122
f 96 122 123
f 96 123 124
f 96 124 97
f 98 125 126
f 98 126 99
f 99 126 100
f 100 126 127
f 100 127 117
f 101 128 102
f 102 129 130
f 102 130 103
f 102 128 129
f 103 130 131
f 103 131 132
f 103 132 104
f 104 132 107
f 107 132 133
f 107 133 134
f 107 134 108
f 108 134 135
f 108 135 109
f 109 135 110
f 110 135 136
f 110 136 137
f 110 137 138
f 110 138 139
f 110 139 111
f 112 140 141
f 112 141 113
f 112 142 143
f 112 143 140
f 113 141 144
f 113 144 114
f 114 144 115
f 115 144 145
f 115 145 146
f 117 147 118
f 117 127 148
f 117 148 149
f 117 149 150
f 117 150 147
f 118 147 150
f 118 150 151
f 118 151 119
f 119 151 152
f 119 152 120
f 120 153 121
f 120 152 153
f 121 153 154
f 121 154 155
f 121 155 122
f 122 155 123
f 123 128 156
f 123 156 157
f 123 157 158
f 123 158 159
f 123 159 160
f 123 160 124
f 123 155 161
f 123 161 128
f 125 162 163
f 125 163 126
f 126 163 164
f 126 164 127
f 127 165 148
f 127 164 165
f 128 161 129
f 129 161 130
f 130 166 131
f 130 161 167
f 130 167 166
f 131 168 169
f 131 169 132
f 131 166 170
f 131 170 171
f 131 171 168
f 132 169 133
f 133 169 172
f 133 172 173
f 133 173 174
f 133 174 175
f 133 175 176
f 133 176 134
f 134 176 177
f 134 177 135
f 135 177 136
f 136 177 178
f 136 178 179
f 136 179 180
f 136 180 181
f 136 181 137
f 137 181 182
f 137 182 183
f 137 183 184
f 137 184 138
f 138 184 185
f 140 186 141
f 140 143 187
f 140 187 188
f 140 188 186
f 141 186 144
f 142 189 190
f 142 190 143
f 143 190 187
f 144 186 145
f 145 186 188
f 145 188 146
f 146 188 190
f 146 190 191
f 148 192 149
f 148 165 193
f 148 193 192
f 149 192 194
f 149 194 150
f 150 194 195
f 150 195 151
f 151 196 152
f 151 195 197
f 151 197 196
f 152 196 198
f 152 198 199
f 152 199 153
f 153 199 166
f 153 166 200
f 153 200 154
f 154 161 155
f 154 200 161
f 157 159 158
f 161 200 167
f 162 201 202
f 162 202 203
f 162 203 204
f 162 204 163
f 163 193 164
f 163 204 193
f 164 193 165
f 166 198 205
f 166 205 170
f 166 167 200
f 166 199 198
f 168 171 206
f 168 206 169
f 169 206 172
f 170 205 171
f 171 197 195
f 171 195 207
f 171 207 208
f 171 208 206
f 171 205 196
f 171 196 197
f 172 206 208
f 172 208 209
f 172 209 210
f 172 210 211
f 172 211 173
f 173 211 174
f 174 211 210
f 174 210 212
f 174 212 213
f 174 213 175
f 175 213 214
f 175 214 176
f 176 214 178
f 176 178 177
f 178 214 179
f 179 214 215
f 179 215 216
f 179 216 180
f 180 217 218
f 180 218 182
f 180 182 181
f 180 216 219
f 180 219 220
f 180 220 217
f 182 218 183
f 183 221 184
f 183 218 221
f 184 221 222
f 184 222 185
f 187 190 188
f 189 223 224
f 189 224 225
f 189 225 226
f 189 226 190
f 189 227 223
f 190 226 225
f 190 225 228
f 190 228 191
f 191 228 229
f 191 229 269
f 191 269 230
f 191 230 231
f 192 193 232
f 192 232 194
f 193 204 233
f 193 233 232
f 194 232 234
f 194 234 235
f 194 235 236
f 194 236 237
f 194 237 195
f 195 237 207
f 196 205 198
f 201 238 239
f 201 239 202
f 202 239 240
f 202 240 203
f 203 240 241
f 203 241 242
f 203 242 244
f 203 244 204
f 204 243 234
f 204 234 233
f 204 244 245
f 204 245 243
f 207 246 247
f 207 247 248
f 207 248 208
f 207 237 249
f 207 249 250
f 207 250 251
f 207 251 246
f 208 248 209
f 209 248 252
f 209 252 210
f 210 252 212
f 212 252 213
f 213 252 253
f 213 253 214
f 214 254 215
f 214 253 255
f 214 255 256
f 214 256 254
f 215 254 220
f 215 220 219
f 215 219 216
f 217 257 258
f 217 258 218
f 217 220 259
f 217 259 257
f 218 260 261
f 218 261 221
f 218 258 260
f 220 256 262
f 220 262 263
f 220 263 259
f 220 254 256
f 221 261 264
f 221 264 222
f 223 265 266
f 223 266 224
f 223 227 267
f 223 267 268
f 223 268 265
f 224 266 269
f 224 269 229
f 224 229 225
f 225 229 228
f 227 270 267
f 230 269 266
f 230 266 271
f 230 271 272
f 230 272 231
f 231 272 273
f 232 233 234
f 234 243 235
f 235 243 236
f 236 243 245
f 236 245 237
f 237 274 275
f 237 275 249
f 237 245 276
f 237 276 274
f 238 277 278
f 238 278 279
f 238 279 239
f 239 279 280
f 239 280 240
f 240 280 281
f 240 281 282
f 240 282 283
f 240 283 284
f 240 284 285
f 240 285 286
f 240 286 241
f 241 286 242
f 242 286 244
f 244 287 288
f 244 288 245
f 244 286 287
f 245 288 276
f 246 251 289
f 246 289 290
f 246 290 291
f 246 291 247
f 247 292 248
f 247 291 293
f 247 293 294
f 247 294 295
f 247 295 296
f 247 296 292
f 248 292 252
f 249 275 297
f 249 297 250
f 250 297 298
f 250 298 251
f 251 298 289
f 252 292 299
f 252 299 253
f 253 299 300
f 253 300 255
f 255 300 301
f 255 301 302
f 255 302 256
f 256 302 303
f 256 303 304
f 256 304 305
f 256 305 306
f 256 306 307
f 256 307 308
f 256 308 309
f 256 309 310
f 256 310 311
f 256 311 262
f 257 312 313
f 257 313 258
f 257 259 312
f 259 263 311
f 259 311 312
f 260 314 261
f 261 314 264
f 262 311 263
f 265 315 271
f 265 271 266
f 265 268 316
f 265 316 315
f 267 270 317
f 267 317 268
f 268 317 318
f 268 318 319
f 268 319 316
f 270 320 317
f 270 321 320
f 271 315 272
f 272 315 322
f 272 322 323
f 272 323 324
f 272 324 325
f 272 325 326
f 272 326 273
f 274 276 275
f 275 276 288
f 275 288 297
f 277 327 278
f 278 328 329
f 278 329 379
f 278 379 330
f 278 330 281
f 278 281 331
f 278 331 279
f 278 327 328
f 279 331 280
f 280 331 281
f 281 330 379
f 281 379 332
f 281 332 380
f 281 380 333
f 281 333 383
f 281 383 334
f 281 334 282
f 282 334 335
f 282 335 283
f 283 335 284
f 284 298 285
f 284 335 298
f 285 298 336
f 285 336 286
f 286 336 337
f 286 337 288
f 286 288 287
f 288 337 338
f 288 338 297
f 289 298 339
f 289 339 290
f 290 339 291
f 291 339 340
f 291 340 341
f 291 341 293
f 292 296 301
f 292 301 299
f 293 341 342
f 293 342 343
f 293 343 344
f 293 344 345
f 293 345 346
f 293 346 347
f 293 347 294
f 294 347 295
f 295 347 346
f 295 346 296
f 296 346 348
f 296 348 302
f 296 302 349
f 296 349 301
f 297 338 298
f 298 338 336
f 298 335 350
f 298 350 351
f 298 351 339
f 299 301 300
f 301 349 302
f 302 348 352
f 302 352 303
f 303 352 344
f 303 344 305
f 303 305 304
f 305 353 354
f 305 354 306
f 305 344 353
f 306 354 355
f 306 355 356
f 306 356 357
f 306 357 358
f 306 358 359
f 306 359 360
f 306 360 361
f 306 361 362
f 306 362 363
f 306 363 364
f 306 364 307
f 307 364 365
f 307 365 366
f 307 366 309
f 307 309 308
f 309 367 310
f 310 367 368
f 310 368 312
f 310 312 311
f 315 316 322
f 316 319 322
f 317 320 369
f 317 369 318
f 318 369 370
f 318 370 322
f 318 322 319
f 320 321 371
f 320 371 372
f 320 372 369
f 321 373 371
f 322 370 374
f 322 374 375
f 322 375 323
f 323 375 324
f 324 375 376
f 324 376 377
f 324 377 325
f 325 377 378
f 325 378 326
f 333 381 382
f 333 382 383
f 333 380 409
f 333 409 381
f 334 383 355
f 334 355 384
f 334 384 385
f 334 385 340
f 334 340 350
f 334 350 335
f 336 338 337
f 339 351 340
f 340 385 342
f 340 342 341
f 340 351 350
f 342 385 386
f 342 386 387
f 342 387 344
f 342 344 343
f 344 387 353
f 344 352 346
f 344 346 345
f 346 352 348
f 353 387 384
f 353 384 388
f 353 388 354
f 354 388 355
f 355 388 384
f 355 383 389
f 355 389 390
f 355 390 356
f 356 390 391
f 356 391 392
f 356 392 357
f 357 392 391
f 357 391 358
f 358 391 359
f 359 391 393
f 359 393 394
f 359 394 360
f 360 394 395
f 360 395 361
f 363 396 364
f 364 396 365
f 369 372 397
f 369 397 398
f 369 398 370
f 370 398 374
f 371 373 399
f 371 399 372
f 372 399 397
f 373 400 399
f 374 398 375
f 375 398 397
f 375 397 401
f 375 401 402
f 375 402 403
f 375 403 376
f 376 403 404
f 376 404 377
f 377 405 378
f 377 404 406
f 377 406 407
f 377 407 408
f 377 408 405
f 381 407 406
f 381 406 382
f 381 409 423
f 381 423 407
f 382 389 383
f 382 406 404
f 382 404 410
f 382 410 389
f 384 387 386
f 384 386 385
f 389 410 411
f 389 411 391
f 389 391 390
f 391 411 412
f 391 412 393
f 393 413 394
f 393 412 414
f 393 414 415
f 393 415 416
f 393 416 413
f 394 413 416
f 394 416 395
f 395 416 417
f 397 399 418
f 397 418 419
f 397 419 420
f 397 420 401
f 399 400 418
f 400 421 416
f 400 416 422
f 400 422 418
f 401 420 411
f 401 411 410
f 401 410 402
f 402 410 403
f 403 410 404
f 407 423 408
f 411 424 425
f 411 425 412
f 411 420 424
f 412 425 424
f 412 424 426
f 412 426 414
f 414 426 424
f 414 424 415
f 415 427 418
f 415 418 422
f 415 422 416
f 415 424 427
f 416 421 428
f 416 428 417
f 418 427 419
f 419 427 420
f 420 427 424

