# https://github.com/mikedh/trimesh
v -0.06367954 0.00080680 -0.00997715
v -0.06367600 0.00088682 -0.00997715
v -0.06360862 0.00088682 -0.01007923
v -0.06302350 0.00088682 -0.01096035
v -0.06302350 -0.00081651 -0.01096035
v -0.06356252 -0.00243982 -0.01014845
v -0.06367600 -0.00243982 -0.00997715
v -0.05679282 0.00088682 -0.00997715
v -0.06221141 0.00088682 -0.01204680
v -0.06221141 -0.00081651 -0.01205266
v -0.06221141 -0.00243982 -0.01205735
v -0.06221141 -0.00405741 -0.01205735
v -0.06301995 -0.00405741 -0.01095683
v -0.06366890 -0.00383449 -0.00997715
v -0.05528923 0.00088682 -0.00998654
v -0.05529277 0.00088110 -0.00997715
v -0.05657295 0.00088682 -0.01921546
v -0.06155891 -0.00568072 -0.01285870
v -0.06219014 -0.00568072 -0.01204797
v -0.06355542 -0.00405741 -0.01014493
v -0.06300221 -0.00568072 -0.01089934
v -0.06366536 -0.00404026 -0.00997715
v -0.04306192 0.00088110 -0.02196207
v -0.04455487 0.00088682 -0.02182480
v -0.02745509 -0.04756090 -0.00997715
v -0.05833187 -0.01055064 -0.01613328
v -0.05995248 -0.00892733 -0.01450244
v -0.06151636 -0.00730402 -0.01278830
v -0.05576442 0.00088682 -0.01995696
v -0.05239198 -0.01217394 -0.02196207
v -0.05262958 -0.01217394 -0.02174385
v -0.05344166 -0.01217394 -0.02099530
v -0.05427502 -0.01217394 -0.02018340
v -0.05508710 -0.01217394 -0.01938441
v -0.05586371 -0.01217394 -0.01857251
v -0.05667579 -0.01217394 -0.01771485
v -0.06210857 -0.00730402 -0.01197757
v -0.06357670 -0.00568072 -0.00997715
v -0.06358734 -0.00553210 -0.00997715
v -0.06292065 -0.00730402 -0.01077497
v -0.06342067 -0.00730402 -0.00997715
v -0.04183494 -0.00126807 -0.02196207
v -0.04455842 0.00088682 -0.02196207
v -0.02745509 -0.05750651 -0.00997715
v -0.02745509 -0.03317977 -0.02196207
v -0.02765013 -0.03251101 -0.02196207
v -0.03219991 -0.02246251 -0.02196207
v -0.05906238 -0.01055064 -0.01532373
v -0.05741695 -0.01217394 -0.01690295
v -0.05987092 -0.01055064 -0.01437690
v -0.06140997 -0.00892733 -0.01261466
v -0.05479631 0.00088682 -0.02073014
v -0.05253737 -0.01055064 -0.02196207
v -0.05201253 -0.01379725 -0.02196207
v -0.05247354 -0.01379725 -0.02156551
v -0.05328562 -0.01379725 -0.02086507
v -0.05415799 -0.01379725 -0.02005317
v -0.05497007 -0.01379725 -0.01925887
v -0.06197737 -0.00892733 -0.01180393
v -0.06288164 -0.00904165 -0.01044881
v -0.06325045 -0.00867583 -0.00997715
v -0.05311186 0.00088682 -0.02196207
v -0.02840547 -0.05711783 -0.00997715
v -0.02762176 -0.05518587 -0.01300066
v -0.02745509 -0.05522016 -0.01304407
v -0.02745509 -0.04588614 -0.02196207
v -0.05822903 -0.01217394 -0.01600188
v -0.05571123 -0.01379725 -0.01844697
v -0.05889217 -0.01217394 -0.01519232
v -0.05970425 -0.01217394 -0.01414342
v -0.06161565 -0.01273410 -0.01129590
v -0.06044540 -0.01055064 -0.01356618
v -0.05474666 0.00088682 -0.02076769
v -0.05397359 0.00088682 -0.02134611
v -0.05147351 -0.01542056 -0.02196207
v -0.05301611 -0.01542056 -0.02063745
v -0.05393812 -0.01542056 -0.01982673
v -0.05474666 -0.01542056 -0.01901835
v -0.06216531 -0.01218538 -0.01067173
v -0.06255185 -0.01055064 -0.01054853
v -0.06294547 -0.01055064 -0.00997715
v -0.06305187 -0.00993332 -0.00997715
v -0.06313697 -0.00943604 -0.00997715
v -0.02946933 -0.05660340 -0.00997715
v -0.02870335 -0.05490579 -0.01266276
v -0.02821043 -0.05426561 -0.01367764
v -0.02771751 -0.05361972 -0.01467609
v -0.02745509 -0.05391695 -0.01449423
v -0.02745509 -0.04696645 -0.02111380
v -0.02840192 -0.04537172 -0.02196207
v -0.05652331 -0.01379725 -0.01753182
v -0.05721836 -0.01379725 -0.01671992
v -0.05803044 -0.01379725 -0.01576253
v -0.05548072 -0.01542056 -0.01820645
v -0.05869004 -0.01379725 -0.01495180
v -0.05853400 -0.01504903 -0.01474766
v -0.05959432 -0.01388871 -0.01371870
v -0.06150927 -0.01379725 -0.01113869
v -0.05113662 -0.01643227 -0.02196207
v -0.05184232 -0.01759831 -0.02102229
v -0.05372181 -0.01674664 -0.01963197
v -0.05354450 -0.01782694 -0.01946536
v -0.05514738 -0.01775835 -0.01781809
v -0.06207666 -0.01379725 -0.01032679
v -0.06264405 -0.01217966 -0.00997715
v -0.03192330 -0.05536877 -0.00997715
v -0.03269992 -0.05494008 -0.00997715
v -0.03290915 -0.05058459 -0.01490018
v -0.02879910 -0.05332821 -0.01435461
v -0.02745509 -0.05368831 -0.01474414
v -0.03094455 -0.05036738 -0.01629050
v -0.02745509 -0.04702360 -0.02106687
v -0.02749764 -0.04701217 -0.02105748
v -0.03000126 -0.04446289 -0.02196207
v -0.02840192 -0.04594331 -0.02150333
v -0.05629280 -0.01542056 -0.01726197
v -0.05698786 -0.01542056 -0.01645007
v -0.05734957 -0.01698671 -0.01550676
v -0.05839215 -0.01612933 -0.01457166
v -0.05901983 -0.01552344 -0.01393575
v -0.06001277 -0.01448887 -0.01294317
v -0.05989574 -0.01542056 -0.01277422
v -0.06048441 -0.01542056 -0.01196349
v -0.06129649 -0.01542056 -0.01081252
v -0.05095577 -0.01696956 -0.02196207
v -0.05165082 -0.01866717 -0.02086155
v -0.05258347 -0.01866717 -0.02004965
v -0.05339555 -0.01866717 -0.01931870
v -0.05418990 -0.01866717 -0.01850798
v -0.05669352 -0.01748970 -0.01610513
v -0.05599847 -0.01708388 -0.01705195
v -0.05500198 -0.01866717 -0.01766088
v -0.05570059 -0.01866717 -0.01684898
v -0.06231071 -0.01379725 -0.00997715
v -0.06243482 -0.01320280 -0.00997715
v -0.06186034 -0.01541484 -0.00997715
v -0.03467870 -0.05378548 -0.00997715
v -0.03399074 -0.05024735 -0.01454233
v -0.03345172 -0.04961289 -0.01553492
v -0.03290915 -0.04897843 -0.01652164
v -0.03202615 -0.05005873 -0.01598076
v -0.02745509 -0.05169918 -0.01673400
v -0.03148358 -0.04940141 -0.01694753
v -0.03094101 -0.04874408 -0.01790609
v -0.03002254 -0.04979008 -0.01733705
v -0.02745509 -0.04880695 -0.01958152
v -0.02769978 -0.04874408 -0.01952754
v -0.02840192 -0.04675496 -0.02084747
v -0.03060057 -0.04530313 -0.02098357
v -0.03171408 -0.04342260 -0.02196207
v -0.05719708 -0.01866717 -0.01507852
v -0.05826094 -0.01704387 -0.01439568
v -0.05885670 -0.01704387 -0.01358377
v -0.05966524 -0.01704387 -0.01243045
v -0.05859428 -0.01866717 -0.01323414
v -0.05844535 -0.01955885 -0.01302295
v -0.05034227 -0.01866717 -0.02196207
v -0.05083874 -0.01866717 -0.02154791
v -0.05052668 -0.02029048 -0.02127923
v -0.05223949 -0.02029048 -0.01975398
v -0.05034227 -0.02118216 -0.02112788
v -0.05305157 -0.02029048 -0.01897494
v -0.05386011 -0.02029048 -0.01816304
v -0.05467219 -0.02029048 -0.01733354
v -0.05651267 -0.01866717 -0.01588924
v -0.05542398 -0.02029048 -0.01652281
v -0.05634599 -0.02044481 -0.01538239
v -0.05697367 -0.02000469 -0.01481688
v -0.06149863 -0.01650657 -0.00997715
v -0.05989220 -0.01902156 -0.01113165
v -0.03545887 -0.05330535 -0.00997715
v -0.03584895 -0.05038453 -0.01308162
v -0.03693054 -0.05005302 -0.01268153
v -0.03640925 -0.04942999 -0.01372457
v -0.03696600 -0.04844114 -0.01436634
v -0.03642698 -0.04781240 -0.01535775
v -0.03399074 -0.04862405 -0.01616848
v -0.03344463 -0.04798387 -0.01715285
v -0.03289496 -0.04734941 -0.01811141
v -0.03202615 -0.04842971 -0.01760456
v -0.02745509 -0.05067605 -0.01775591
v -0.03154741 -0.04788099 -0.01834841
v -0.02745509 -0.04902416 -0.01937854
v -0.02745509 -0.05007016 -0.01835428
v -0.02745509 -0.05044169 -0.01798939
v -0.03164670 -0.04677211 -0.01924244
v -0.02969629 -0.04734941 -0.01972113
v -0.02830618 -0.04788099 -0.01995579
v -0.03164670 -0.04497732 -0.02072193
v -0.03164670 -0.04416567 -0.02139069
v -0.03253680 -0.04387416 -0.02114313
v -0.03231339 -0.04299963 -0.02196207
v -0.03271765 -0.04562893 -0.01962845
v -0.05800916 -0.01866717 -0.01404604
v -0.05724318 -0.02191379 -0.01360724
v -0.05697367 -0.02353138 -0.01323062
v -0.05826804 -0.02063915 -0.01275310
v -0.04966850 -0.02030191 -0.02196207
v -0.04945573 -0.02081062 -0.02196207
v -0.05200190 -0.02124503 -0.01954632
v -0.05010468 -0.02226246 -0.02089909
v -0.04953729 -0.02179947 -0.02155847
v -0.04898408 -0.02353138 -0.02134728
v -0.05267922 -0.02178804 -0.01860066
v -0.05335655 -0.02233105 -0.01765384
v -0.05430338 -0.02178804 -0.01697804
v -0.05524313 -0.02124503 -0.01630106
v -0.05664388 -0.02191379 -0.01441797
v -0.05679282 -0.02108499 -0.01460100
v -0.06103407 -0.01790696 -0.00997715
v -0.05805526 -0.02191379 -0.01243632
v -0.05859783 -0.02191379 -0.01162442
v -0.05944538 -0.02179947 -0.01041243
v -0.06022199 -0.02029048 -0.01000296
v -0.03610782 -0.05288809 -0.00997715
v -0.03771070 -0.04897271 -0.01328459
v -0.03760786 -0.05191067 -0.00997715
v -0.03835611 -0.05140196 -0.00997715
v -0.03934196 -0.05061317 -0.01007923
v -0.03771070 -0.04736084 -0.01490722
v -0.03696600 -0.04681212 -0.01598780
v -0.03588441 -0.04717793 -0.01634682
v -0.03489148 -0.04750945 -0.01667299
v -0.03398010 -0.04698359 -0.01778407
v -0.03315384 -0.04295390 -0.02150450
v -0.03499431 -0.04466295 -0.01903829
v -0.03740573 -0.04225085 -0.01952050
v -0.03661493 -0.04141634 -0.02065975
v -0.03321412 -0.04232516 -0.02196207
v -0.03578157 -0.04549747 -0.01789670
v -0.05682473 -0.02440591 -0.01301826
v -0.04898762 -0.02185091 -0.02196207
v -0.04979616 -0.02353138 -0.02059756
v -0.05061888 -0.02353138 -0.01978566
v -0.04874649 -0.02446306 -0.02115134
v -0.04815427 -0.02354853 -0.02196207
v -0.04734219 -0.02510324 -0.02196207
v -0.04789185 -0.02506323 -0.02155964
v -0.05010822 -0.02557194 -0.01927646
v -0.05335655 -0.02557766 -0.01603121
v -0.05430338 -0.02503465 -0.01535658
v -0.05497716 -0.02233105 -0.01603121
v -0.05548427 -0.02353138 -0.01492013
v -0.05629635 -0.02353138 -0.01404252
v -0.06020426 -0.02039337 -0.00997715
v -0.05844889 -0.02279975 -0.01140150
v -0.05917587 -0.02346850 -0.00997715
v -0.03879230 -0.04854402 -0.01283758
v -0.03825327 -0.04795529 -0.01387709
v -0.03921784 -0.05079036 -0.00997715
v -0.03938806 -0.05066461 -0.00997715
v -0.03957246 -0.05051600 -0.00997715
v -0.03770716 -0.04573182 -0.01648996
v -0.03879230 -0.04692644 -0.01447076
v -0.03878875 -0.04529741 -0.01609105
v -0.03686316 -0.04509164 -0.01757288
v -0.03613974 -0.04089619 -0.02135432
v -0.03803695 -0.04292533 -0.01860066
v -0.03848732 -0.04181644 -0.01919551
v -0.03722133 -0.04047322 -0.02103284
v -0.03444465 -0.04138776 -0.02196207
v -0.05859428 -0.02515469 -0.00998889
v -0.05590627 -0.02498892 -0.01370931
v -0.05543108 -0.02677799 -0.01326465
v -0.05521121 -0.02766395 -0.01302295
v -0.05656231 -0.02549192 -0.01266628
v -0.05787795 -0.02689231 -0.00997715
v -0.05819002 -0.02621212 -0.00997715
v -0.04942736 -0.02501751 -0.02021508
v -0.04641308 -0.02680657 -0.02196207
v -0.04736346 -0.02649220 -0.02135315
v -0.04844506 -0.02554337 -0.02088384
v -0.04874649 -0.02770396 -0.01953106
v -0.04898762 -0.02677799 -0.01976220
v -0.04979971 -0.02677799 -0.01897494
v -0.05010822 -0.02881284 -0.01765266
v -0.05037774 -0.02773826 -0.01792369
v -0.05267922 -0.02828127 -0.01535541
v -0.05524667 -0.02449165 -0.01467961
v -0.05362606 -0.02773826 -0.01467961
v -0.05860138 -0.02515469 -0.00997715
v -0.04022496 -0.04996156 -0.00997715
v -0.04082073 -0.04938997 -0.00997715
v -0.03935614 -0.04746373 -0.01338901
v -0.03866818 -0.04359980 -0.01766674
v -0.03935614 -0.04584042 -0.01501047
v -0.04043773 -0.04367982 -0.01609222
v -0.04041291 -0.04204508 -0.01771367
v -0.03933132 -0.04251950 -0.01811376
v -0.03468579 -0.04119913 -0.02196207
v -0.03912564 -0.04073043 -0.01959090
v -0.04020723 -0.04020457 -0.01923071
v -0.03824618 -0.03986162 -0.02076651
v -0.03885613 -0.03884991 -0.02103402
v -0.03777454 -0.03939292 -0.02137544
v -0.03634896 -0.03976445 -0.02196207
v -0.05858365 -0.02520041 -0.00997715
v -0.05497716 -0.02557766 -0.01440037
v -0.05358705 -0.03090485 -0.01302295
v -0.05494170 -0.02873854 -0.01266745
v -0.05660841 -0.02946445 -0.00997715
v -0.05723254 -0.02820696 -0.00997715
v -0.04629961 -0.02700663 -0.02196207
v -0.04550526 -0.02839558 -0.02196207
v -0.04705140 -0.02757250 -0.02108799
v -0.04789185 -0.02693232 -0.02067382
v -0.04789185 -0.02830985 -0.01998512
v -0.04844506 -0.02878426 -0.01926004
v -0.04874294 -0.03093915 -0.01790726
v -0.04898762 -0.03001889 -0.01813957
v -0.04942736 -0.02826412 -0.01859245
v -0.05173239 -0.02881284 -0.01603004
v -0.04979616 -0.03001889 -0.01734292
v -0.05061179 -0.03001889 -0.01653219
v -0.05223240 -0.03001889 -0.01491074
v -0.05335300 -0.02881284 -0.01439920
v -0.04128173 -0.04893271 -0.00997715
v -0.04244843 -0.04777238 -0.00997715
v -0.04043773 -0.04530313 -0.01447076
v -0.04368251 -0.04043321 -0.01609105
v -0.04260092 -0.04097050 -0.01663192
v -0.04151578 -0.04150779 -0.01717280
v -0.04205126 -0.04041034 -0.01771367
v -0.04096966 -0.04096478 -0.01814896
v -0.03976750 -0.04138776 -0.01867223
v -0.04139876 -0.03976445 -0.01868279
v -0.04183139 -0.03855840 -0.01921663
v -0.04074980 -0.03912427 -0.01959090
v -0.04048029 -0.03722660 -0.02103402
v -0.03939515 -0.03776961 -0.02137544
v -0.03976396 -0.03637494 -0.02196207
v -0.03800504 -0.03813543 -0.02196207
v -0.03651918 -0.03959869 -0.02196207
v -0.05304448 -0.03001889 -0.01407537
v -0.05199126 -0.03093915 -0.01466905
v -0.05264731 -0.03146501 -0.01369172
v -0.05222176 -0.03290541 -0.01327755
v -0.05330335 -0.03198515 -0.01266393
v -0.05462609 -0.03339697 -0.00997715
v -0.05497716 -0.03271107 -0.00997715
v -0.05536725 -0.03193942 -0.00997715
v -0.04467190 -0.02979597 -0.02196207
v -0.04439175 -0.03026467 -0.02196207
v -0.04502297 -0.03164220 -0.02074657
v -0.04705140 -0.03081340 -0.01946536
v -0.04736346 -0.02973310 -0.01973521
v -0.04789185 -0.03017322 -0.01905002
v -0.05036710 -0.03093915 -0.01629050
v -0.04788476 -0.03154503 -0.01836132
v -0.04843442 -0.03201945 -0.01760339
v -0.04940253 -0.03148215 -0.01694636
v -0.04939189 -0.04082189 -0.00997715
v -0.04476410 -0.04151351 -0.01392871
v -0.04368251 -0.04205652 -0.01446959
v -0.04476410 -0.03989020 -0.01555134
v -0.04530667 -0.03878704 -0.01609105
v -0.04253709 -0.03933004 -0.01813488
v -0.04361868 -0.03869558 -0.01767378
v -0.04232077 -0.03747810 -0.01957565
v -0.04209026 -0.03558043 -0.02102111
v -0.04100867 -0.03614630 -0.02137427
v -0.04130301 -0.03480307 -0.02196207
v -0.05102669 -0.03148215 -0.01532490
v -0.05168274 -0.03202516 -0.01435930
v -0.05060115 -0.03290541 -0.01490018
v -0.05123592 -0.03344841 -0.01391229
v -0.05186714 -0.03398570 -0.01291736
v -0.05166501 -0.03691223 -0.01107298
v -0.05200544 -0.03583193 -0.01144726
v -0.05320761 -0.03591767 -0.00997715
v -0.05344520 -0.03551756 -0.00997715
v -0.05375372 -0.03498027 -0.00997715
v -0.05406579 -0.03442011 -0.00997715
v -0.04350874 -0.03173365 -0.02196207
v -0.04391656 -0.03261961 -0.02117833
v -0.04680316 -0.03164220 -0.01925769
v -0.04734928 -0.03289397 -0.01811258
v -0.05005858 -0.03202516 -0.01598076
v -0.04798760 -0.03344270 -0.01715285
v -0.04897699 -0.03290541 -0.01652164
v -0.04997347 -0.04023315 -0.00997715
v -0.04746276 -0.03934719 -0.01338784
v -0.04530312 -0.04043321 -0.01446959
v -0.04584215 -0.03934719 -0.01501047
v -0.04898408 -0.03770674 -0.01328342
v -0.04735992 -0.03770674 -0.01490722
v -0.04573576 -0.03770674 -0.01650521
v -0.04692374 -0.03878704 -0.01446959
v -0.04296972 -0.03808970 -0.01863117
v -0.04404777 -0.03761528 -0.01804571
v -0.04340236 -0.03679220 -0.01912746
v -0.04382436 -0.03571190 -0.01947944
v -0.04303356 -0.03498027 -0.02061164
v -0.04251226 -0.03450013 -0.02135432
v -0.04139521 -0.03470019 -0.02196207
v -0.04135266 -0.03484880 -0.02190575
v -0.04862237 -0.03398570 -0.01616731
v -0.05024653 -0.03398570 -0.01454585
v -0.05075718 -0.03488881 -0.01343477
v -0.05042739 -0.03587766 -0.01310391
v -0.05006567 -0.03696367 -0.01272729
v -0.05058342 -0.03767244 -0.01164554
v -0.05116499 -0.03818687 -0.01059781
v -0.05211892 -0.03765529 -0.00997715
v -0.05212956 -0.03762100 -0.00999123
v -0.04303356 -0.03252244 -0.02196207
v -0.04303356 -0.03320263 -0.02162065
v -0.04359386 -0.03369991 -0.02089792
v -0.04564356 -0.03276823 -0.01964604
v -0.04529248 -0.03384852 -0.01934334
v -0.04699111 -0.03397427 -0.01778524
v -0.04751241 -0.03488881 -0.01667416
v -0.05052668 -0.03965585 -0.00997715
v -0.04854435 -0.03878704 -0.01284110
v -0.04956566 -0.03823260 -0.01224273
v -0.04844151 -0.03696367 -0.01436634
v -0.04681735 -0.03696367 -0.01598780
v -0.04616840 -0.03639209 -0.01696630
v -0.04512936 -0.03690080 -0.01758696
v -0.04493077 -0.03488881 -0.01902539
v -0.04411869 -0.03488881 -0.01973521
v -0.04552653 -0.03581478 -0.01792486
v -0.04256191 -0.03322549 -0.02196207
v -0.04832449 -0.03488881 -0.01586812
v -0.04781383 -0.03642066 -0.01535775
v -0.05014369 -0.03875274 -0.01120556
v -0.05066498 -0.03934719 -0.01012381
v -0.05092030 -0.03919858 -0.00997715
v -0.05149479 -0.03847838 -0.00997715
v -0.04718261 -0.03587766 -0.01634682
v -0.05073591 -0.03941578 -0.00997715
f 1 2 3
f 1 3 4
f 1 4 5
f 1 5 6
f 1 6 7
f 1 7 14
f 1 14 22
f 1 22 39
f 1 39 38
f 1 38 41
f 1 41 61
f 1 61 83
f 1 83 82
f 1 82 81
f 1 81 105
f 1 105 135
f 1 135 134
f 1 134 136
f 1 136 169
f 1 169 210
f 1 210 245
f 1 245 247
f 1 247 281
f 1 281 297
f 1 297 268
f 1 268 267
f 1 267 302
f 1 302 301
f 1 301 341
f 1 341 340
f 1 340 339
f 1 339 373
f 1 373 372
f 1 372 371
f 1 371 370
f 1 370 404
f 1 404 429
f 1 429 428
f 1 428 431
f 1 431 413
f 1 413 381
f 1 381 352
f 1 352 318
f 1 318 317
f 1 317 283
f 1 283 282
f 1 282 252
f 1 252 251
f 1 251 250
f 1 250 218
f 1 218 217
f 1 217 215
f 1 215 171
f 1 171 137
f 1 137 107
f 1 107 106
f 1 106 84
f 1 84 63
f 1 63 44
f 1 44 25
f 1 25 16
f 1 16 8
f 1 8 2
f 2 8 15
f 2 15 24
f 2 24 43
f 2 43 62
f 2 62 74
f 2 74 73
f 2 73 52
f 2 52 29
f 2 29 17
f 2 17 9
f 2 9 4
f 2 4 3
f 4 9 10
f 4 10 11
f 4 11 12
f 4 12 5
f 5 12 13
f 5 13 6
f 6 13 7
f 7 13 14
f 8 16 15
f 9 17 10
f 10 17 11
f 11 17 12
f 12 18 19
f 12 19 13
f 12 17 18
f 13 20 14
f 13 19 21
f 13 21 20
f 14 20 22
f 15 16 23
f 15 23 24
f 16 25 23
f 17 26 27
f 17 27 28
f 17 28 18
f 17 29 30
f 17 30 31
f 17 31 32
f 17 32 33
f 17 33 34
f 17 34 35
f 17 35 36
f 17 36 26
f 18 28 19
f 19 28 37
f 19 37 21
f 20 21 22
f 21 38 39
f 21 39 22
f 21 37 40
f 21 40 41
f 21 41 38
f 23 42 47
f 23 47 46
f 23 46 45
f 23 45 66
f 23 66 90
f 23 90 114
f 23 114 150
f 23 150 192
f 23 192 229
f 23 229 261
f 23 261 290
f 23 290 296
f 23 296 333
f 23 333 332
f 23 332 331
f 23 331 362
f 23 362 395
f 23 395 423
f 23 423 406
f 23 406 374
f 23 374 343
f 23 343 342
f 23 342 304
f 23 304 303
f 23 303 270
f 23 270 237
f 23 237 236
f 23 236 232
f 23 232 199
f 23 199 198
f 23 198 157
f 23 157 125
f 23 125 99
f 23 99 75
f 23 75 54
f 23 54 30
f 23 30 53
f 23 53 62
f 23 62 43
f 23 43 24
f 23 25 42
f 25 44 65
f 25 65 88
f 25 88 110
f 25 110 142
f 25 142 181
f 25 181 185
f 25 185 184
f 25 184 183
f 25 183 146
f 25 146 112
f 25 112 89
f 25 89 66
f 25 66 45
f 25 45 46
f 25 46 47
f 25 47 42
f 26 48 27
f 26 36 49
f 26 49 48
f 27 48 50
f 27 50 28
f 28 50 51
f 28 51 37
f 29 52 53
f 29 53 30
f 30 54 55
f 30 55 56
f 30 56 31
f 31 56 32
f 32 56 57
f 32 57 33
f 33 57 58
f 33 58 34
f 34 58 35
f 35 58 36
f 36 58 68
f 36 68 49
f 37 51 59
f 37 59 60
f 37 60 40
f 40 60 61
f 40 61 41
f 44 63 64
f 44 64 65
f 48 49 67
f 48 67 50
f 49 68 67
f 50 67 69
f 50 69 70
f 50 70 71
f 50 71 72
f 50 72 51
f 51 72 59
f 52 73 53
f 53 73 74
f 53 74 62
f 54 75 76
f 54 76 55
f 55 76 56
f 56 76 77
f 56 77 57
f 57 77 58
f 58 77 78
f 58 78 68
f 59 72 79
f 59 79 80
f 59 80 81
f 59 81 82
f 59 82 83
f 59 83 60
f 60 83 61
f 63 84 64
f 64 84 85
f 64 85 86
f 64 86 87
f 64 87 88
f 64 88 65
f 66 89 90
f 67 68 91
f 67 91 92
f 67 92 93
f 67 93 69
f 68 78 94
f 68 94 91
f 69 93 95
f 69 95 70
f 70 95 96
f 70 96 97
f 70 97 98
f 70 98 71
f 71 98 79
f 71 79 72
f 75 99 76
f 76 99 100
f 76 100 101
f 76 101 77
f 77 101 78
f 78 101 102
f 78 102 103
f 78 103 94
f 79 98 104
f 79 104 105
f 79 105 81
f 79 81 80
f 84 106 85
f 85 106 107
f 85 107 108
f 85 108 86
f 86 108 109
f 86 109 87
f 87 110 88
f 87 109 108
f 87 108 111
f 87 111 110
f 89 112 113
f 89 113 114
f 89 114 115
f 89 115 90
f 90 115 114
f 91 94 116
f 91 116 117
f 91 117 92
f 92 117 118
f 92 118 119
f 92 119 93
f 93 119 96
f 93 96 95
f 94 103 116
f 96 119 120
f 96 120 97
f 97 121 98
f 97 120 121
f 98 121 122
f 98 122 123
f 98 123 124
f 98 124 104
f 99 125 100
f 100 102 101
f 100 125 126
f 100 126 127
f 100 127 102
f 102 127 128
f 102 128 129
f 102 129 103
f 103 130 131
f 103 131 116
f 103 129 132
f 103 132 133
f 103 133 130
f 104 134 135
f 104 135 105
f 104 124 136
f 104 136 134
f 107 137 108
f 108 138 139
f 108 139 140
f 108 140 141
f 108 141 111
f 108 137 138
f 110 111 142
f 111 141 143
f 111 143 144
f 111 144 145
f 111 145 142
f 112 146 147
f 112 147 113
f 113 147 148
f 113 148 114
f 114 149 150
f 114 148 149
f 116 131 118
f 116 118 117
f 118 131 130
f 118 130 151
f 118 151 119
f 119 151 152
f 119 152 153
f 119 153 122
f 119 122 120
f 120 122 121
f 122 153 123
f 123 153 124
f 124 153 154
f 124 154 155
f 124 155 156
f 124 156 136
f 125 157 158
f 125 158 126
f 126 158 159
f 126 159 127
f 127 160 128
f 127 159 161
f 127 161 160
f 128 160 162
f 128 162 163
f 128 163 129
f 129 163 164
f 129 164 132
f 130 133 165
f 130 165 151
f 132 164 166
f 132 166 133
f 133 166 167
f 133 167 168
f 133 168 165
f 136 156 170
f 136 170 169
f 137 171 172
f 137 172 138
f 138 172 173
f 138 173 174
f 138 174 175
f 138 175 176
f 138 176 177
f 138 177 139
f 139 177 140
f 140 177 178
f 140 178 179
f 140 179 180
f 140 180 141
f 141 180 143
f 142 145 181
f 143 180 144
f 144 180 179
f 144 179 182
f 144 182 147
f 144 147 183
f 144 183 184
f 144 184 185
f 144 185 145
f 145 185 181
f 146 183 147
f 147 182 186
f 147 186 187
f 147 187 188
f 147 188 148
f 148 188 187
f 148 187 149
f 149 189 190
f 149 190 150
f 149 187 186
f 149 186 189
f 150 191 192
f 150 190 193
f 150 193 191
f 151 165 168
f 151 168 152
f 152 168 194
f 152 194 153
f 153 194 155
f 153 155 154
f 155 194 195
f 155 195 196
f 155 196 156
f 156 197 170
f 156 196 197
f 157 198 159
f 157 159 158
f 159 198 199
f 159 199 161
f 160 200 162
f 160 161 201
f 160 201 200
f 161 199 202
f 161 202 203
f 161 203 201
f 162 200 204
f 162 204 205
f 162 205 206
f 162 206 163
f 163 206 207
f 163 207 164
f 164 207 166
f 166 207 208
f 166 208 209
f 166 209 167
f 167 209 168
f 168 209 194
f 169 170 210
f 170 197 211
f 170 211 212
f 170 212 213
f 170 213 214
f 170 214 210
f 171 215 173
f 171 173 172
f 173 216 174
f 173 215 217
f 173 217 218
f 173 218 219
f 173 219 216
f 174 216 175
f 175 216 220
f 175 220 221
f 175 221 176
f 176 221 222
f 176 222 177
f 177 222 223
f 177 223 224
f 177 224 178
f 178 224 179
f 179 186 182
f 179 224 193
f 179 193 186
f 186 193 189
f 189 193 190
f 191 225 192
f 191 193 226
f 191 226 227
f 191 227 228
f 191 228 225
f 192 225 229
f 193 230 226
f 193 224 230
f 194 209 195
f 195 209 196
f 196 231 197
f 196 209 208
f 196 208 231
f 197 231 211
f 199 232 202
f 200 201 233
f 200 233 234
f 200 234 204
f 201 203 235
f 201 235 233
f 202 232 203
f 203 236 237
f 203 237 238
f 203 238 235
f 203 232 236
f 204 234 239
f 204 239 205
f 205 239 240
f 205 240 241
f 205 241 206
f 206 241 242
f 206 242 207
f 207 242 243
f 207 243 244
f 207 244 208
f 208 244 231
f 210 214 245
f 211 231 246
f 211 246 212
f 212 246 247
f 212 247 213
f 213 247 214
f 214 247 245
f 216 248 249
f 216 249 220
f 216 219 248
f 218 250 219
f 219 250 251
f 219 251 252
f 219 252 248
f 220 253 221
f 220 249 254
f 220 254 255
f 220 255 253
f 221 224 222
f 221 253 224
f 222 224 223
f 224 253 256
f 224 256 230
f 225 228 257
f 225 257 229
f 226 230 256
f 226 256 227
f 227 256 258
f 227 258 259
f 227 259 260
f 227 260 228
f 228 260 257
f 229 257 261
f 231 262 247
f 231 247 246
f 231 244 263
f 231 263 264
f 231 264 265
f 231 265 266
f 231 266 267
f 231 267 268
f 231 268 262
f 233 235 269
f 233 269 239
f 233 239 234
f 235 238 270
f 235 270 271
f 235 271 272
f 235 272 273
f 235 273 274
f 235 274 269
f 237 270 238
f 239 269 275
f 239 275 276
f 239 276 277
f 239 277 278
f 239 278 240
f 240 278 241
f 241 279 242
f 241 278 280
f 241 280 279
f 242 279 243
f 243 279 263
f 243 263 244
f 247 262 281
f 248 282 283
f 248 283 284
f 248 284 254
f 248 254 249
f 248 252 282
f 253 255 285
f 253 285 256
f 254 284 286
f 254 286 255
f 255 287 288
f 255 288 289
f 255 289 285
f 255 286 287
f 256 285 258
f 257 260 290
f 257 290 261
f 258 285 289
f 258 289 259
f 259 291 260
f 259 289 291
f 260 291 292
f 260 292 293
f 260 293 294
f 260 294 295
f 260 295 296
f 260 296 290
f 262 268 297
f 262 297 281
f 263 279 298
f 263 298 264
f 264 298 299
f 264 299 265
f 265 299 300
f 265 300 301
f 265 301 266
f 266 301 302
f 266 302 267
f 269 274 275
f 270 303 271
f 271 303 304
f 271 304 305
f 271 305 272
f 272 305 306
f 272 306 307
f 272 307 308
f 272 308 273
f 273 308 309
f 273 309 310
f 273 310 274
f 274 310 311
f 274 311 275
f 275 311 276
f 276 312 278
f 276 278 277
f 276 311 310
f 276 310 313
f 276 313 314
f 276 314 312
f 278 312 315
f 278 315 280
f 279 280 298
f 280 315 316
f 280 316 298
f 283 317 284
f 284 317 318
f 284 318 319
f 284 319 287
f 284 287 286
f 287 319 354
f 287 354 320
f 287 320 321
f 287 321 322
f 287 322 288
f 288 322 323
f 288 323 324
f 288 324 289
f 289 324 325
f 289 325 291
f 291 325 292
f 292 326 327
f 292 327 328
f 292 328 293
f 292 325 324
f 292 324 326
f 293 328 329
f 293 329 294
f 294 329 295
f 295 329 330
f 295 330 331
f 295 331 332
f 295 332 333
f 295 333 296
f 298 316 299
f 299 334 335
f 299 335 336
f 299 336 337
f 299 337 338
f 299 338 339
f 299 339 340
f 299 340 341
f 299 341 301
f 299 301 300
f 299 316 334
f 304 342 305
f 305 342 343
f 305 343 344
f 305 344 345
f 305 345 346
f 305 346 306
f 306 346 307
f 307 346 347
f 307 347 308
f 308 347 309
f 309 348 314
f 309 314 313
f 309 313 310
f 309 347 349
f 309 349 350
f 309 350 351
f 309 351 348
f 312 314 315
f 314 348 335
f 314 335 315
f 315 335 334
f 315 334 316
f 318 352 353
f 318 353 319
f 319 353 354
f 320 355 356
f 320 356 323
f 320 323 321
f 320 354 355
f 321 323 322
f 323 357 324
f 323 356 358
f 323 358 357
f 324 357 326
f 326 357 327
f 327 359 360
f 327 360 328
f 327 357 359
f 328 360 329
f 329 360 361
f 329 361 330
f 330 361 331
f 331 361 362
f 335 348 351
f 335 351 363
f 335 363 364
f 335 364 336
f 336 364 337
f 337 365 366
f 337 366 367
f 337 367 368
f 337 368 369
f 337 369 370
f 337 370 338
f 337 364 365
f 338 370 371
f 338 371 372
f 338 372 373
f 338 373 339
f 343 374 344
f 344 374 375
f 344 375 376
f 344 376 345
f 345 376 349
f 345 349 347
f 345 347 346
f 349 376 377
f 349 377 350
f 350 378 351
f 350 377 379
f 350 379 380
f 350 380 378
f 351 378 364
f 351 364 363
f 352 381 382
f 352 382 383
f 352 383 353
f 353 383 354
f 354 383 355
f 355 383 382
f 355 382 384
f 355 384 356
f 356 385 386
f 356 386 387
f 356 387 358
f 356 384 382
f 356 382 388
f 356 388 385
f 357 358 389
f 357 389 359
f 358 387 390
f 358 390 389
f 359 389 360
f 360 389 391
f 360 391 392
f 360 392 393
f 360 393 394
f 360 394 395
f 360 395 396
f 360 396 361
f 361 396 362
f 362 396 395
f 364 378 380
f 364 380 365
f 365 380 366
f 366 397 398
f 366 398 399
f 366 399 367
f 366 380 397
f 367 399 400
f 367 400 401
f 367 401 368
f 368 401 402
f 368 402 403
f 368 403 404
f 368 404 405
f 368 405 370
f 368 370 369
f 370 405 404
f 374 406 375
f 375 406 407
f 375 407 408
f 375 408 376
f 376 408 409
f 376 409 377
f 377 408 410
f 377 410 411
f 377 411 379
f 377 409 408
f 379 411 412
f 379 412 397
f 379 397 380
f 381 413 414
f 381 414 382
f 382 414 388
f 385 415 402
f 385 402 401
f 385 401 416
f 385 416 386
f 385 388 414
f 385 414 415
f 386 416 417
f 386 417 387
f 387 417 418
f 387 418 419
f 387 419 390
f 389 390 391
f 390 419 392
f 390 392 391
f 392 420 421
f 392 421 393
f 392 419 422
f 392 422 420
f 393 421 394
f 394 421 410
f 394 410 408
f 394 408 407
f 394 407 423
f 394 423 395
f 397 412 424
f 397 424 398
f 398 424 399
f 399 424 425
f 399 425 416
f 399 416 400
f 400 416 401
f 402 415 426
f 402 426 403
f 403 426 427
f 403 427 428
f 403 428 429
f 403 429 404
f 406 423 407
f 410 421 411
f 411 421 420
f 411 420 422
f 411 422 419
f 411 419 418
f 411 418 417
f 411 417 430
f 411 430 412
f 412 430 424
f 413 431 427
f 413 427 414
f 414 427 426
f 414 426 415
f 416 425 417
f 417 425 430
f 424 430 425
f 427 431 428

