# https://github.com/mikedh/trimesh
v -0.04563638 -0.06862302 0.02512987
v -0.04563638 -0.06845540 0.02650649
v -0.04563638 -0.06837652 0.02388147
v -0.04380523 -0.06977172 0.02440572
v -0.04450986 -0.06937238 0.02502803
v -0.04389051 -0.06982101 0.02548816
v -0.04389051 -0.06982101 0.02605767
v -0.04563638 -0.06829764 0.02684593
v -0.04563638 -0.06835680 0.02379850
v -0.04055136 -0.07139368 0.02280280
v -0.04065459 -0.07144791 0.02388524
v -0.04315895 -0.07018091 0.02502803
v -0.04150732 -0.07106337 0.02515250
v -0.04065459 -0.07144791 0.02605767
v -0.04300186 -0.07004779 0.02642729
v -0.04300186 -0.06954986 0.02724195
v -0.04539402 -0.06812510 0.02754745
v -0.04563638 -0.06797720 0.02741921
v -0.04563638 -0.06805115 0.02290840
v -0.04542095 -0.06814481 0.02274246
v -0.04244085 -0.06994426 0.02244827
v -0.04138615 -0.07030908 0.02190516
v -0.04084757 -0.06996398 0.02080387
v -0.03990956 -0.07116198 0.02178070
v -0.03946973 -0.07167962 0.02223706
v -0.03736032 -0.07304523 0.02268211
v -0.03822652 -0.07266069 0.02353072
v -0.03741867 -0.07306988 0.02353072
v -0.04069947 -0.07146763 0.02515250
v -0.04217156 -0.06976678 0.02757385
v -0.03651207 -0.07356288 0.02515250
v -0.03091990 -0.07631382 0.02605767
v -0.03002228 -0.07654060 0.02643106
v -0.04431239 -0.06840610 0.02775488
v -0.04476120 -0.06748912 0.02801889
v -0.04563638 -0.06715882 0.02786803
v -0.04563638 -0.06784901 0.02253879
v -0.04563638 -0.06676441 0.02086421
v -0.04519205 -0.06636016 0.01973274
v -0.04502599 -0.06787859 0.02190516
v -0.04421814 -0.06842089 0.02190516
v -0.04382318 -0.06816453 0.02108673
v -0.04192921 -0.06960409 0.02136583
v -0.04285824 -0.06839131 0.02043802
v -0.04061868 -0.06818918 0.01779792
v -0.03901194 -0.06819904 0.01615728
v -0.04031798 -0.06961888 0.01972142
v -0.03887281 -0.07136410 0.02115462
v -0.03923635 -0.06995413 0.01918209
v -0.03825345 -0.07110774 0.02021550
v -0.03713592 -0.07130987 0.01962713
v -0.03605429 -0.07157609 0.01918586
v -0.03651207 -0.07276422 0.02152801
v -0.03559650 -0.07298114 0.02116594
v -0.03651207 -0.07323750 0.02233890
v -0.03289915 -0.07482989 0.02240301
v -0.03398078 -0.07460804 0.02296498
v -0.03091541 -0.07631382 0.02419828
v -0.03096029 -0.07633354 0.02515250
v -0.03177264 -0.07592928 0.02515250
v -0.03326718 -0.07518485 0.02515250
v -0.03892667 -0.07138876 0.02757385
v -0.03135076 -0.07489891 0.02775488
v -0.04108544 -0.07002807 0.02775488
v -0.02761217 -0.07790621 0.02598978
v -0.02840208 -0.07708290 0.02678182
v -0.02918750 -0.07625466 0.02757385
v -0.03002228 -0.07604267 0.02724195
v -0.04300186 -0.06873641 0.02790952
v -0.04300186 -0.06734615 0.02839228
v -0.04462655 -0.06572419 0.02847525
v -0.04563638 -0.06580306 0.02823387
v -0.04563638 -0.06485158 0.01797518
v -0.04544339 -0.06491567 0.01783941
v -0.04241392 -0.05211246 -0.00514459
v -0.04218503 -0.05355202 -0.00323617
v -0.04364814 -0.06317538 0.01315511
v -0.04388153 -0.06495511 0.01615728
v -0.04391744 -0.06174075 0.01123914
v -0.04214912 -0.05677131 0.00167065
v -0.04411042 -0.06673483 0.01916323
v -0.04290761 -0.06728207 0.01875967
v -0.04056034 -0.05679596 0.00001116
v -0.03981082 -0.06611365 0.01373216
v -0.03665569 -0.05980819 0.00065610
v -0.03746804 -0.06500440 0.00958719
v -0.03863943 -0.06961888 0.01809965
v -0.03709552 -0.06641932 0.01154464
v -0.03653900 -0.06705035 0.01211792
v -0.03582090 -0.06984073 0.01612711
v -0.03326718 -0.07122113 0.01653444
v -0.03323127 -0.07343470 0.02026076
v -0.02999535 -0.07579124 0.02197305
v -0.03337040 -0.07432703 0.02187877
v -0.03499060 -0.07359246 0.02178825
v -0.03403913 -0.06976185 0.01462979
v -0.02909324 -0.06324439 0.00007527
v -0.03196563 -0.06795255 0.01007750
v -0.03151233 -0.06844554 0.01059043
v -0.02943883 -0.07636312 0.02255765
v -0.03052046 -0.07614127 0.02311584
v -0.02999535 -0.07652088 0.02360615
v -0.02824948 -0.07753646 0.02528073
v -0.02761217 -0.07790621 0.02591058
v -0.03002228 -0.07677724 0.02515250
v -0.02810586 -0.07650116 0.02775488
v -0.03002228 -0.07522922 0.02790952
v -0.03651207 -0.07198528 0.02790952
v -0.02275605 -0.07953311 0.02599733
v -0.02454231 -0.07796537 0.02765305
v -0.02677290 -0.07754139 0.02703451
v -0.04152977 -0.06912095 0.02803775
v -0.04138166 -0.06734615 0.02850543
v -0.03503998 -0.07236982 0.02803775
v -0.03002228 -0.07383896 0.02839228
v -0.04300186 -0.06572419 0.02855446
v -0.04563638 -0.06409728 0.02849788
v -0.04563638 -0.06025682 0.01109583
v -0.04544339 -0.05193991 -0.00163325
v -0.04522796 -0.05338440 0.00026008
v -0.04458167 -0.05433096 0.00087108
v -0.04393090 -0.05527752 0.00147830
v -0.04371547 -0.05347314 -0.00149747
v -0.04349556 -0.05166876 -0.00446948
v -0.04522796 -0.05012567 -0.00460902
v -0.04414633 -0.05058909 -0.00525019
v -0.04304674 -0.05117083 -0.00573673
v -0.04194716 -0.05174764 -0.00622703
v -0.04059624 -0.05357667 -0.00489566
v -0.04099120 -0.05385275 -0.00405460
v -0.04151181 -0.05445914 -0.00257237
v -0.04032247 -0.05501130 -0.00298725
v -0.03964028 -0.05591349 -0.00230836
v -0.03843298 -0.05646072 -0.00271192
v -0.03735135 -0.05682061 -0.00327011
v -0.03597799 -0.05860527 -0.00191235
v -0.03568626 -0.06003497 0.00001116
v -0.03591964 -0.06179991 0.00302088
v -0.03554264 -0.06321481 0.00499341
v -0.03324474 -0.06571432 0.00732048
v -0.03379677 -0.06802649 0.01157104
v -0.03398527 -0.06000046 -0.00155027
v -0.03326718 -0.06196260 0.00113509
v -0.03165146 -0.06934280 0.01220844
v -0.03105454 -0.07474115 0.02093964
v -0.02920545 -0.07464748 0.01947627
v -0.03090195 -0.06332328 0.00156882
v -0.03008063 -0.06221403 -0.00089402
v -0.03114879 -0.06505371 0.00462757
v -0.02420122 -0.06323454 -0.00315320
v -0.02926828 -0.06980622 0.01131458
v -0.02933560 -0.06496496 0.00315665
v -0.02957796 -0.06183442 -0.00189726
v -0.02839759 -0.05980326 -0.00609125
v -0.02745958 -0.06000539 -0.00642693
v -0.02839759 -0.07708783 0.02353072
v -0.02839759 -0.07608211 0.02141486
v -0.02839759 -0.07655046 0.02222952
v -0.02458271 -0.07801467 0.02250862
v -0.02338887 -0.07920280 0.02526564
v -0.02275605 -0.07953311 0.02588041
v -0.02723068 -0.07779282 0.02482814
v -0.02677290 -0.07672794 0.02789820
v -0.02854570 -0.07561376 0.02803775
v -0.01491983 -0.08119945 0.02610293
v -0.02191229 -0.07965143 0.02625757
v -0.02191229 -0.07918308 0.02706846
v -0.02062869 -0.07937535 0.02740036
v -0.01954706 -0.07953311 0.02760025
v -0.02352800 -0.07812313 0.02776997
v -0.02839759 -0.07383896 0.02850543
v -0.02677290 -0.07546093 0.02838097
v -0.04462655 -0.06247532 0.02855446
v -0.04563638 -0.06247532 0.02854692
v -0.04462655 -0.06409728 0.02854692
v -0.02677290 -0.07383896 0.02855446
v -0.04563638 -0.05374429 0.00134630
v -0.04563638 -0.05049542 -0.00351527
v -0.04562291 -0.05050035 -0.00352658
v -0.04501253 -0.05158002 -0.00271569
v -0.04458167 -0.05108209 -0.00399803
v -0.04393090 -0.05202865 -0.00339081
v -0.04563638 -0.04986931 -0.00437896
v -0.04563638 -0.04929743 -0.00511064
v -0.04563638 -0.04911009 -0.00533317
v -0.04472529 -0.04960802 -0.00580084
v -0.04367956 -0.05017497 -0.00633264
v -0.04259793 -0.05066797 -0.00689460
v -0.04032696 -0.05175257 -0.00787144
v -0.04086553 -0.05213218 -0.00678900
v -0.04005767 -0.05321678 -0.00597811
v -0.03802905 -0.05591842 -0.00394900
v -0.03924083 -0.05537612 -0.00354167
v -0.03681277 -0.05646072 -0.00435256
v -0.03636845 -0.05704739 -0.00391128
v -0.03544839 -0.05825524 -0.00299102
v -0.03436676 -0.05859048 -0.00350772
v -0.03530477 -0.06145974 0.00193843
v -0.03136422 -0.06191330 -0.00040749
v -0.03337489 -0.05972438 -0.00247808
v -0.02989661 -0.07007244 0.01220844
v -0.02360879 -0.06293381 -0.00404329
v -0.02311958 -0.06343667 -0.00349641
v -0.03065959 -0.06158298 -0.00148993
v -0.03111289 -0.06017301 -0.00345492
v -0.02991905 -0.06037513 -0.00402066
v -0.03219452 -0.05992157 -0.00304759
v -0.02844696 -0.05897995 -0.00737736
v -0.02793532 -0.05859048 -0.00835420
v -0.02387807 -0.06151397 -0.00623835
v -0.02352800 -0.07875910 0.02353072
v -0.02417878 -0.07459818 0.01631569
v -0.02441216 -0.07630889 0.01940838
v -0.02352800 -0.07819708 0.02218426
v -0.02235661 -0.07943451 0.02479797
v -0.02185394 -0.07964650 0.02526564
v -0.02028759 -0.07998667 0.02515250
v -0.01491983 -0.08119945 0.02569937
v -0.02352800 -0.07708290 0.02824519
v -0.02191229 -0.07836963 0.02791329
v -0.01217311 -0.08159385 0.02515250
v -0.01055291 -0.08179105 0.02515250
v -0.01379780 -0.08131284 0.02634431
v -0.02016642 -0.07978947 0.02682708
v -0.01866290 -0.07961199 0.02767945
v -0.02016642 -0.07878375 0.02792838
v -0.01143706 -0.08115508 0.02760025
v -0.02515269 -0.07546093 0.02848657
v -0.02352800 -0.07546093 0.02854314
v -0.02191229 -0.07708290 0.02839605
v -0.04300186 -0.06247532 0.02855446
v -0.04563638 -0.06085335 0.02854692
v -0.02191229 -0.07546093 0.02855446
v -0.04529977 -0.04854807 -0.00635149
v -0.04563638 -0.04835580 -0.00615914
v -0.04421814 -0.04909037 -0.00689460
v -0.04205487 -0.05017497 -0.00797704
v -0.04097324 -0.05067290 -0.00851638
v -0.03983326 -0.05118562 -0.00898783
v -0.03924532 -0.05213218 -0.00837306
v -0.03735135 -0.05357667 -0.00813922
v -0.03964925 -0.05267448 -0.00719633
v -0.03843298 -0.05321678 -0.00759989
v -0.03653003 -0.05467606 -0.00731702
v -0.03600043 -0.05538105 -0.00678900
v -0.03572665 -0.05682061 -0.00489566
v -0.03320434 -0.05882219 -0.00405083
v -0.03488738 -0.05654453 -0.00609880
v -0.03407055 -0.05679596 -0.00648350
v -0.03370701 -0.05823552 -0.00458639
v -0.02341580 -0.06200697 -0.00568770
v -0.02191229 -0.06315566 -0.00463542
v -0.02244188 -0.06483186 -0.00147861
v -0.02272912 -0.06653763 0.00161785
v -0.03262538 -0.05850174 -0.00499373
v -0.02973953 -0.05867429 -0.00688706
v -0.02901695 -0.05832426 -0.00796950
v -0.02476672 -0.05864964 -0.00997598
v -0.02345619 -0.05916729 -0.00997598
v -0.02439869 -0.06006948 -0.00815054
v -0.03118470 -0.05697344 -0.00835420
v -0.03037235 -0.05657411 -0.00943664
v -0.02844696 -0.05792493 -0.00890485
v -0.02840208 -0.05711641 -0.00997598
v -0.02341580 -0.06106534 -0.00716238
v -0.02279644 -0.06169145 -0.00652876
v -0.02191229 -0.06251476 -0.00567638
v -0.02185394 -0.07921266 0.02362124
v -0.02127498 -0.07955776 0.02422469
v -0.02282337 -0.07306002 0.01292127
v -0.02352800 -0.07645186 0.01915946
v -0.02352800 -0.07710262 0.02028339
v -0.02352800 -0.07773366 0.02137338
v -0.02260794 -0.07787170 0.02113577
v -0.02200205 -0.07834005 0.02176939
v -0.01427354 -0.08107127 0.02461693
v -0.01375741 -0.08130298 0.02515627
v -0.01866290 -0.07870487 0.02814713
v -0.01319191 -0.08117973 0.02425486
v -0.01217311 -0.08126354 0.02409268
v -0.01055291 -0.08137199 0.02387016
v -0.00892822 -0.08147553 0.02365895
v -0.00568332 -0.08172203 0.02353072
v -0.00892822 -0.08189951 0.02515250
v -0.01055291 -0.08158892 0.02677427
v -0.01205642 -0.08141144 0.02683462
v -0.01704270 -0.07975496 0.02779637
v -0.01055291 -0.08116987 0.02761911
v -0.01055291 -0.08032684 0.02807170
v -0.01205642 -0.08041065 0.02793215
v -0.02028759 -0.07708290 0.02848657
v -0.01866290 -0.07708290 0.02853560
v -0.01704270 -0.07708290 0.02855446
v -0.01704270 -0.07870487 0.02827913
v -0.00568332 -0.07546093 0.02855446
v -0.04462655 -0.06085335 0.02854314
v -0.04563638 -0.05923138 0.02841868
v -0.04529977 -0.04530413 -0.00959505
v -0.04476120 -0.04801070 -0.00743394
v -0.04563638 -0.04511186 -0.00940270
v -0.04367956 -0.04855300 -0.00797704
v -0.04151630 -0.04963267 -0.00905949
v -0.04041672 -0.05017497 -0.00959882
v -0.03859455 -0.05169834 -0.00945550
v -0.03938446 -0.05067290 -0.00997598
v -0.03651207 -0.05385768 -0.00849375
v -0.03544839 -0.05501623 -0.00787144
v -0.03490085 -0.05572615 -0.00731702
v -0.03436676 -0.05535640 -0.00835043
v -0.03342426 -0.05652481 -0.00737736
v -0.03164248 -0.05821087 -0.00617423
v -0.02042672 -0.06297818 -0.00566507
v -0.02105955 -0.06327891 -0.00484663
v -0.02191229 -0.06841103 0.00443522
v -0.02254062 -0.07134931 0.00982480
v -0.03082116 -0.05841300 -0.00648350
v -0.03017488 -0.05814185 -0.00737736
v -0.03226633 -0.05670722 -0.00796950
v -0.02202000 -0.05965536 -0.00997598
v -0.02352800 -0.05967508 -0.00918772
v -0.02352800 -0.06021738 -0.00837683
v -0.03315048 -0.05557825 -0.00890485
v -0.03169185 -0.05630789 -0.00890862
v -0.02946576 -0.05660862 -0.00997598
v -0.02929072 -0.05684033 -0.00978740
v -0.03253561 -0.05521836 -0.00978363
v -0.02191229 -0.06130198 -0.00756594
v -0.02191229 -0.06183934 -0.00675128
v -0.02017539 -0.06202669 -0.00732456
v -0.02028759 -0.07934084 0.02316110
v -0.02116277 -0.06979636 0.00646056
v -0.02191229 -0.07271985 0.01188408
v -0.02086656 -0.07459818 0.01469014
v -0.02119419 -0.07629410 0.01780923
v -0.02028759 -0.07638284 0.01764706
v -0.02152631 -0.07797523 0.02094341
v -0.01946627 -0.06653271 0.00000362
v -0.01977146 -0.06823849 0.00310762
v -0.01775182 -0.06326412 -0.00644955
v -0.02028759 -0.07872459 0.02190516
v -0.01906234 -0.07944437 0.02288200
v -0.01541801 -0.07988807 0.02787935
v -0.01541801 -0.07975989 0.02227478
v -0.01217311 -0.08083956 0.02328179
v -0.01798071 -0.07953804 0.02267834
v -0.01055291 -0.08095788 0.02305550
v -0.00698038 -0.08120931 0.02259159
v -0.00743368 -0.08151004 0.02337608
v -0.00405863 -0.08166287 0.02353072
v -0.00405863 -0.08198825 0.02515250
v -0.00568332 -0.08201290 0.02515250
v -0.00730353 -0.08197839 0.02515250
v -0.00568332 -0.08127833 0.02245582
v -0.00892822 -0.08160864 0.02677427
v -0.00892822 -0.08117973 0.02762665
v -0.00892822 -0.08032684 0.02808301
v -0.01055291 -0.07870487 0.02852429
v -0.01217311 -0.07870487 0.02849411
v -0.01379780 -0.07870487 0.02842999
v -0.01541801 -0.07870487 0.02836211
v -0.00243843 -0.07708290 0.02855446
v 0.00020955 -0.07708290 0.02854692
v -0.00243843 -0.07546093 0.02849411
v 0.00020955 -0.07546093 0.02841491
v -0.04563638 -0.05760941 0.02802267
v -0.04563638 -0.04452026 -0.00997221
v -0.04510678 -0.04510693 -0.00997598
v -0.04367956 -0.04693103 -0.00959882
v -0.04476120 -0.04638873 -0.00905571
v -0.04205487 -0.04855300 -0.00959882
v -0.04104954 -0.04916925 -0.00997598
v -0.04081616 -0.04939603 -0.00997598
v -0.04021924 -0.04996791 -0.00997598
v -0.03956847 -0.05052007 -0.00997598
v -0.03921391 -0.05079615 -0.00997598
v -0.03835219 -0.05140747 -0.00997598
v -0.03760268 -0.05191526 -0.00997598
v -0.03560996 -0.05350272 -0.00967425
v -0.03651207 -0.05320692 -0.00930464
v -0.03361725 -0.05491270 -0.00943287
v -0.01866290 -0.06250489 -0.00730193
v -0.01866290 -0.06314579 -0.00624212
v -0.01997792 -0.06343174 -0.00511442
v -0.02042672 -0.06383107 -0.00420547
v -0.02085758 -0.06809058 0.00336409
v -0.02028759 -0.06023710 -0.00997598
v -0.03192074 -0.05537612 -0.00997598
v -0.03269719 -0.05494721 -0.00997598
v -0.01860007 -0.06079912 -0.00997598
v -0.01866290 -0.06130198 -0.00918772
v -0.02063767 -0.06151397 -0.00788275
v -0.01955603 -0.06169145 -0.00815431
v -0.01866290 -0.06183442 -0.00837683
v -0.02028759 -0.07339033 0.01234045
v -0.01944832 -0.07302058 0.01136738
v -0.01978493 -0.07471650 0.01448647
v -0.01714144 -0.06376205 -0.00581593
v -0.01704270 -0.07281352 0.01011144
v -0.01704270 -0.07326708 0.01092610
v -0.01157171 -0.06819904 -0.00007182
v -0.01434984 -0.07135918 0.00657370
v -0.02028759 -0.07808862 0.02074352
v -0.01688562 -0.06198232 -0.00894634
v -0.01714144 -0.06294367 -0.00724159
v -0.01667019 -0.06338244 -0.00666076
v -0.01601941 -0.07461297 0.01304573
v -0.01493778 -0.07470664 0.01287601
v -0.01364970 -0.07905983 0.02044179
v -0.01364970 -0.07982398 0.02184105
v -0.01055291 -0.08033670 0.02190516
v -0.01217311 -0.07958734 0.02096604
v -0.00723172 -0.07986342 0.02018156
v -0.00664377 -0.07953804 0.01943478
v -0.00568332 -0.08084449 0.02164493
v -0.00989316 -0.07467213 0.01131835
v 0.00020955 -0.08157413 0.02469990
v 0.00020955 -0.08173189 0.02515250
v -0.00243843 -0.08190444 0.02515250
v -0.00405863 -0.08124382 0.02251616
v 0.00020955 -0.08130298 0.02401725
v 0.00020955 -0.08167272 0.02617836
v 0.00020955 -0.08160864 0.02677427
v -0.00436382 -0.07958734 0.01934427
v 0.00020955 -0.08133749 0.02731361
v 0.00020955 -0.08117973 0.02762665
v 0.00020955 -0.08064236 0.02791706
v 0.00020955 -0.08032684 0.02808301
v 0.00020955 -0.07930140 0.02836211
v 0.00020955 -0.07870487 0.02852429
v 0.00020955 -0.07767943 0.02853937
v 0.00020955 -0.07605746 0.02846394
v 0.00020955 -0.07383896 0.02789443
v -0.04563638 -0.05665299 0.02763042
v -0.04563638 -0.04451040 -0.00997598
v -0.04452333 -0.04569360 -0.00997598
v -0.04267423 -0.04754728 -0.00997598
v -0.03610366 -0.05289633 -0.00997598
v -0.03545288 -0.05331045 -0.00997598
v -0.03467195 -0.05378866 -0.00997598
v -0.03333898 -0.05457253 -0.00997598
v -0.03445652 -0.05391684 -0.00997598
v -0.01732545 -0.06151397 -0.00950453
v -0.01786402 -0.06103083 -0.00997598
v -0.01704270 -0.06507835 -0.00353790
v -0.01379780 -0.06624183 -0.00272701
v -0.01217311 -0.06583758 -0.00405460
v -0.01125305 -0.06651298 -0.00320977
v -0.01541801 -0.06421561 -0.00567638
v -0.01017142 -0.06661158 -0.00338703
v -0.01055291 -0.06783916 -0.00103734
v -0.01055291 -0.06828285 -0.00022645
v -0.01189036 -0.06987031 0.00308122
v -0.01326821 -0.07145284 0.00640398
v -0.01624382 -0.06166679 -0.00973837
v -0.01541801 -0.06304719 -0.00770172
v -0.01541801 -0.06352048 -0.00689083
v -0.01379780 -0.07362697 0.01054518
v -0.01217311 -0.07449958 0.01163516
v -0.01300790 -0.07951832 0.02108673
v -0.01131589 -0.07626452 0.01461471
v -0.01068306 -0.07595393 0.01387925
v -0.00892822 -0.07429745 0.01038300
v -0.00568332 -0.07958734 0.01934804
v -0.00568332 -0.08010006 0.02028339
v -0.00847492 -0.07307481 0.00802576
v -0.00809792 -0.07139861 0.00487272
v -0.00730353 -0.07314383 0.00790507
v -0.00501011 -0.07790621 0.01620631
v -0.00474082 -0.07790621 0.01620631
v -0.01048110 -0.07424322 0.01068472
v -0.00955655 -0.07300086 0.00816154
v 0.00020955 -0.07949367 0.02054363
v 0.00020955 -0.08088393 0.02320636
v 0.00020955 -0.08115015 0.02371929
v -0.00405863 -0.08081491 0.02170527
v 0.00020955 -0.06915053 0.00086353
v 0.00020955 -0.07006751 0.00260223
v 0.00020955 -0.06339723 -0.00997598
v 0.00020955 -0.07315862 0.02750596
v -0.04563638 -0.05611069 0.02730984
v -0.04563638 -0.03164804 -0.00997598
v -0.01647271 -0.06144988 -0.00997598
v -0.01709207 -0.06127240 -0.00997598
v -0.01342978 -0.06500933 -0.00503521
v -0.01217311 -0.06514245 -0.00526905
v -0.01040031 -0.06523611 -0.00573295
v -0.01064716 -0.06619254 -0.00397917
v -0.00975403 -0.06491567 -0.00649481
v -0.00892822 -0.06549741 -0.00567638
v -0.00892822 -0.06624677 -0.00434501
v -0.00892822 -0.06669539 -0.00353412
v -0.00892822 -0.07009216 0.00267766
v -0.00892822 -0.07084645 0.00405806
v -0.00898207 -0.07267055 0.00741099
v -0.01055291 -0.07061967 0.00405806
v -0.01097479 -0.07459325 0.01145790
v -0.01217311 -0.07154651 0.00623426
v -0.01541801 -0.06169145 -0.00997598
v -0.01541801 -0.06175061 -0.00987792
v -0.01408504 -0.06318524 -0.00793556
v -0.01541801 -0.06232248 -0.00892371
v -0.01217311 -0.06467410 -0.00607994
v -0.01390103 -0.06457550 -0.00561604
v -0.00898207 -0.07342484 0.00879516
v -0.00560254 -0.07750688 0.01556514
v -0.00730353 -0.07269520 0.00709041
v -0.00745612 -0.07181766 0.00552143
v -0.00701629 -0.07144791 0.00478598
v -0.00405863 -0.07027950 0.00243628
v -0.00246535 -0.06342188 -0.00997598
v -0.00243843 -0.06760744 -0.00243282
v -0.00243843 -0.06855400 -0.00072053
v -0.00730353 -0.06631085 -0.00446193
v -0.00730353 -0.06460015 -0.00755086
v -0.00613662 -0.06976678 0.00164802
v -0.00568332 -0.07103872 0.00390343
v -0.00405863 -0.06466423 -0.00766777
v 0.00020955 -0.06464944 -0.00761874
v 0.00020955 -0.06675455 -0.00365481
v -0.00081822 -0.06341695 -0.00997598
v 0.00020955 -0.05457253 -0.00997598
v 0.00020955 -0.07270013 0.02718915
v -0.04563638 -0.05579517 0.02707977
v 0.00020955 -0.05535147 -0.00820334
v -0.04563638 -0.04804521 0.01657970
v 0.00020955 -0.06990976 0.02410777
v 0.00020955 -0.06964354 0.02359483
v 0.00020955 -0.06949070 0.02329311
v 0.00020955 -0.06906180 0.02241810
v 0.00020955 -0.06848992 0.02121497
v 0.00020955 -0.06805607 0.02028339
v 0.00020955 -0.06791803 0.01998543
v 0.00020955 -0.06752857 0.01913683
v 0.00020955 -0.06604463 0.01581407
v 0.00020955 -0.06246546 0.00779947
v -0.01084015 -0.06480720 -0.00631378
v -0.00892822 -0.06497482 -0.00660042
v -0.01217311 -0.06394939 -0.00730193
v -0.01040031 -0.06439802 -0.00714352
v -0.01055291 -0.06353527 -0.00851638
v -0.00892822 -0.06450647 -0.00741508
v -0.00730353 -0.06675949 -0.00365104
v -0.01377985 -0.06201683 -0.00997598
v -0.01364521 -0.06277604 -0.00876530
v -0.00405863 -0.06396418 -0.00892371
v -0.00405863 -0.06340216 -0.00993072
v -0.00405863 -0.06337257 -0.00997598
v -0.00191332 -0.06342188 -0.00997598
v -0.00243843 -0.06468396 -0.00770172
v -0.00727660 -0.06370782 -0.00904817
v -0.00672007 -0.06331834 -0.00977986
v -0.00568332 -0.06335778 -0.00985152
v -0.00568332 -0.06463465 -0.00761120
v 0.00020955 -0.07230573 0.02688742
v -0.04563638 -0.05483382 0.02633677
v -0.04563638 -0.05299000 0.02439064
v 0.00020955 -0.07063447 0.02515250
v -0.01217311 -0.06288451 -0.00906703
v -0.01055291 -0.06303734 -0.00932727
v -0.00892822 -0.06369303 -0.00873513
v -0.01354647 -0.06206120 -0.00997598
v -0.00568332 -0.06327891 -0.00997598
v -0.00415288 -0.06336765 -0.00997598
v -0.00780170 -0.06324439 -0.00967048
v -0.00689062 -0.06315566 -0.00997598
v 0.00020955 -0.07131480 0.02605013
v -0.04563638 -0.05445914 0.02599733
v 0.00020955 -0.07088589 0.02548439
v -0.01156722 -0.06243588 -0.00997598
v -0.00892822 -0.06316059 -0.00954602
v -0.00953411 -0.06277112 -0.00997598
v -0.00819217 -0.06297324 -0.00997598
f 1 2 8
f 1 8 18
f 1 18 36
f 1 36 72
f 1 72 117
f 1 117 174
f 1 174 232
f 1 232 297
f 1 297 365
f 1 365 433
f 1 433 480
f 1 480 523
f 1 523 555
f 1 555 567
f 1 567 556
f 1 556 525
f 1 525 481
f 1 481 434
f 1 434 366
f 1 366 300
f 1 300 235
f 1 235 185
f 1 185 184
f 1 184 183
f 1 183 178
f 1 178 177
f 1 177 118
f 1 118 73
f 1 73 38
f 1 38 37
f 1 37 19
f 1 19 9
f 1 9 3
f 1 3 4
f 1 4 5
f 1 5 6
f 1 6 7
f 1 7 2
f 2 7 8
f 3 9 4
f 4 10 11
f 4 11 12
f 4 12 6
f 4 6 5
f 4 9 10
f 6 12 11
f 6 11 13
f 6 13 7
f 7 13 14
f 7 14 15
f 7 15 16
f 7 16 17
f 7 17 8
f 8 17 18
f 9 19 20
f 9 20 10
f 10 21 22
f 10 22 23
f 10 23 24
f 10 24 25
f 10 25 26
f 10 26 11
f 10 20 21
f 11 26 27
f 11 27 28
f 11 28 13
f 13 28 29
f 13 29 14
f 14 30 15
f 14 29 31
f 14 31 61
f 14 61 32
f 14 32 33
f 14 33 30
f 15 30 16
f 16 30 17
f 17 34 35
f 17 35 36
f 17 36 18
f 17 30 34
f 19 37 20
f 20 37 38
f 20 38 39
f 20 39 40
f 20 40 41
f 20 41 22
f 20 22 21
f 22 41 42
f 22 42 43
f 22 43 23
f 23 43 44
f 23 44 45
f 23 45 46
f 23 46 47
f 23 47 24
f 24 48 25
f 24 47 49
f 24 49 48
f 25 48 26
f 26 28 27
f 26 48 50
f 26 50 51
f 26 51 52
f 26 52 53
f 26 53 54
f 26 54 55
f 26 55 56
f 26 56 57
f 26 57 58
f 26 58 28
f 28 31 29
f 28 58 59
f 28 59 60
f 28 60 61
f 28 61 31
f 30 33 62
f 30 62 63
f 30 63 64
f 30 64 34
f 32 61 60
f 32 60 59
f 32 59 65
f 32 65 33
f 33 65 66
f 33 66 67
f 33 67 68
f 33 68 62
f 34 69 35
f 34 64 69
f 35 69 70
f 35 70 71
f 35 71 72
f 35 72 36
f 38 73 74
f 38 74 75
f 38 75 76
f 38 76 39
f 39 77 78
f 39 78 40
f 39 76 79
f 39 79 80
f 39 80 77
f 40 42 41
f 40 78 81
f 40 81 42
f 42 81 82
f 42 82 44
f 42 44 43
f 44 82 45
f 45 82 83
f 45 83 84
f 45 84 85
f 45 85 86
f 45 86 46
f 46 86 49
f 46 49 47
f 48 49 87
f 48 87 88
f 48 88 50
f 49 86 87
f 50 88 89
f 50 89 51
f 51 90 52
f 51 89 90
f 52 90 54
f 52 54 53
f 54 91 92
f 54 92 93
f 54 93 94
f 54 94 56
f 54 56 95
f 54 95 55
f 54 90 96
f 54 96 97
f 54 97 98
f 54 98 99
f 54 99 91
f 55 95 56
f 56 93 100
f 56 100 101
f 56 101 57
f 56 94 93
f 57 101 58
f 58 101 102
f 58 102 103
f 58 103 104
f 58 104 105
f 58 105 59
f 59 105 65
f 62 68 67
f 62 67 63
f 63 67 106
f 63 106 107
f 63 107 108
f 63 108 64
f 64 108 69
f 65 104 161
f 65 161 109
f 65 109 110
f 65 110 111
f 65 111 66
f 65 105 104
f 66 111 67
f 67 111 110
f 67 110 106
f 69 112 70
f 69 108 114
f 69 114 112
f 70 113 71
f 70 112 114
f 70 114 115
f 70 115 113
f 71 113 116
f 71 116 117
f 71 117 72
f 73 118 119
f 73 119 120
f 73 120 121
f 73 121 122
f 73 122 75
f 73 75 74
f 75 122 123
f 75 123 124
f 75 124 125
f 75 125 126
f 75 126 127
f 75 127 128
f 75 128 76
f 76 128 129
f 76 129 130
f 76 130 131
f 76 131 80
f 76 80 79
f 77 80 83
f 77 83 78
f 78 82 81
f 78 83 82
f 80 131 83
f 83 131 132
f 83 132 133
f 83 133 134
f 83 134 85
f 83 85 84
f 85 134 135
f 85 135 136
f 85 136 137
f 85 137 86
f 86 88 87
f 86 137 138
f 86 138 88
f 88 138 139
f 88 139 89
f 89 139 90
f 90 140 141
f 90 141 96
f 90 139 142
f 90 142 143
f 90 143 140
f 91 99 144
f 91 144 92
f 92 145 93
f 92 144 145
f 93 145 146
f 93 146 100
f 96 141 147
f 96 147 148
f 96 148 149
f 96 149 97
f 97 150 146
f 97 146 151
f 97 151 152
f 97 152 98
f 97 149 148
f 97 148 153
f 97 153 154
f 97 154 155
f 97 155 150
f 98 152 99
f 99 152 144
f 100 156 102
f 100 102 101
f 100 146 157
f 100 157 158
f 100 158 159
f 100 159 156
f 102 156 103
f 103 156 104
f 104 160 161
f 104 156 162
f 104 162 160
f 106 163 164
f 106 164 107
f 106 110 163
f 107 164 114
f 107 114 108
f 109 161 218
f 109 218 165
f 109 165 166
f 109 166 167
f 109 167 110
f 110 167 168
f 110 168 169
f 110 169 170
f 110 170 163
f 113 115 171
f 113 171 116
f 114 164 115
f 115 164 172
f 115 172 171
f 116 173 174
f 116 174 175
f 116 175 117
f 116 171 176
f 116 176 233
f 116 233 293
f 116 293 361
f 116 361 295
f 116 295 231
f 116 231 173
f 117 175 174
f 118 177 119
f 119 177 178
f 119 178 179
f 119 179 125
f 119 125 180
f 119 180 120
f 120 180 121
f 121 180 123
f 121 123 122
f 123 180 181
f 123 181 182
f 123 182 124
f 124 181 125
f 124 182 181
f 125 183 184
f 125 184 185
f 125 185 186
f 125 186 187
f 125 187 126
f 125 181 180
f 125 179 178
f 125 178 183
f 126 187 127
f 127 187 128
f 128 187 188
f 128 188 189
f 128 189 190
f 128 190 129
f 129 190 191
f 129 191 192
f 129 192 135
f 129 135 193
f 129 193 132
f 129 132 130
f 130 132 131
f 132 193 133
f 133 193 134
f 134 193 135
f 135 192 194
f 135 194 195
f 135 195 196
f 135 196 136
f 136 196 137
f 137 196 197
f 137 197 138
f 138 197 198
f 138 198 139
f 139 198 142
f 140 147 141
f 140 143 199
f 140 199 147
f 142 198 197
f 142 197 200
f 142 200 143
f 143 200 199
f 144 152 201
f 144 201 146
f 144 146 145
f 146 201 151
f 146 150 202
f 146 202 203
f 146 203 157
f 147 199 148
f 148 199 200
f 148 200 204
f 148 204 153
f 150 155 202
f 151 201 152
f 153 204 200
f 153 200 205
f 153 205 206
f 153 206 154
f 154 205 207
f 154 207 200
f 154 200 208
f 154 208 155
f 154 206 205
f 155 208 209
f 155 209 210
f 155 210 202
f 156 159 211
f 156 211 162
f 157 212 213
f 157 213 158
f 157 203 212
f 158 213 214
f 158 214 159
f 159 214 211
f 160 211 215
f 160 215 161
f 160 162 211
f 161 215 216
f 161 216 217
f 161 217 218
f 163 219 172
f 163 172 164
f 163 170 220
f 163 220 219
f 165 218 221
f 165 221 222
f 165 222 223
f 165 223 224
f 165 224 166
f 166 168 167
f 166 224 168
f 168 224 169
f 169 225 226
f 169 226 220
f 169 220 170
f 169 224 223
f 169 223 227
f 169 227 225
f 171 172 228
f 171 228 229
f 171 229 176
f 172 219 230
f 172 230 228
f 173 231 232
f 173 232 174
f 176 229 233
f 185 234 186
f 185 235 234
f 186 234 187
f 187 234 236
f 187 236 237
f 187 237 188
f 188 238 189
f 188 237 238
f 189 238 239
f 189 239 240
f 189 240 241
f 189 241 242
f 189 242 190
f 190 242 191
f 191 242 243
f 191 243 244
f 191 244 245
f 191 245 194
f 191 194 192
f 194 245 246
f 194 246 195
f 195 246 196
f 196 246 197
f 197 247 200
f 197 246 248
f 197 248 249
f 197 249 250
f 197 250 247
f 200 207 205
f 200 247 208
f 202 210 203
f 203 210 251
f 203 251 252
f 203 252 253
f 203 253 254
f 203 254 212
f 208 247 255
f 208 255 256
f 208 256 257
f 208 257 209
f 209 258 259
f 209 259 260
f 209 260 210
f 209 257 318
f 209 318 261
f 209 261 262
f 209 262 263
f 209 263 264
f 209 264 258
f 210 260 265
f 210 265 266
f 210 266 267
f 210 267 252
f 210 252 251
f 211 214 268
f 211 268 269
f 211 269 215
f 212 270 271
f 212 271 272
f 212 272 273
f 212 273 213
f 212 254 270
f 213 273 214
f 214 273 274
f 214 274 275
f 214 275 268
f 215 269 217
f 215 217 216
f 217 276 218
f 217 269 276
f 218 276 277
f 218 277 221
f 219 220 278
f 219 278 230
f 220 226 278
f 221 277 279
f 221 279 280
f 221 280 222
f 222 280 281
f 222 281 282
f 222 282 283
f 222 283 284
f 222 284 285
f 222 285 223
f 223 285 286
f 223 286 227
f 225 278 226
f 225 227 287
f 225 287 278
f 227 286 285
f 227 285 288
f 227 288 289
f 227 289 290
f 227 290 287
f 228 230 291
f 228 291 229
f 229 291 292
f 229 292 293
f 229 293 233
f 230 278 294
f 230 294 291
f 231 295 232
f 232 296 297
f 232 295 296
f 234 235 300
f 234 300 298
f 234 298 369
f 234 369 299
f 234 299 301
f 234 301 236
f 236 301 237
f 237 301 302
f 237 302 303
f 237 303 238
f 238 303 239
f 239 304 240
f 239 303 305
f 239 305 304
f 240 306 241
f 240 304 306
f 241 243 242
f 241 306 307
f 241 307 244
f 241 244 243
f 244 307 245
f 245 307 246
f 246 307 248
f 247 250 255
f 248 307 308
f 248 308 249
f 249 308 309
f 249 309 310
f 249 310 311
f 249 311 250
f 250 311 255
f 252 267 312
f 252 312 313
f 252 313 314
f 252 314 253
f 253 314 315
f 253 315 270
f 253 270 254
f 255 316 256
f 255 311 316
f 256 316 257
f 257 311 317
f 257 317 310
f 257 310 318
f 257 316 311
f 258 264 324
f 258 324 387
f 258 387 388
f 258 388 440
f 258 440 441
f 258 441 439
f 258 439 438
f 258 438 437
f 258 437 377
f 258 377 376
f 258 376 375
f 258 375 305
f 258 305 374
f 258 374 373
f 258 373 372
f 258 372 371
f 258 371 436
f 258 436 435
f 258 435 367
f 258 367 434
f 258 434 481
f 258 481 521
f 258 521 478
f 258 478 520
f 258 520 548
f 258 548 510
f 258 510 547
f 258 547 563
f 258 563 562
f 258 562 565
f 258 565 572
f 258 572 571
f 258 571 569
f 258 569 561
f 258 561 543
f 258 543 498
f 258 498 482
f 258 482 483
f 258 483 443
f 258 443 389
f 258 389 386
f 258 386 319
f 258 319 259
f 259 319 320
f 259 320 260
f 260 320 321
f 260 321 265
f 261 318 322
f 261 322 323
f 261 323 262
f 262 324 325
f 262 325 263
f 262 323 322
f 262 322 326
f 262 326 324
f 263 325 264
f 264 325 324
f 265 321 327
f 265 327 266
f 266 327 328
f 266 328 267
f 267 329 312
f 267 328 329
f 268 275 330
f 268 330 279
f 268 279 269
f 269 279 276
f 270 315 314
f 270 314 331
f 270 331 332
f 270 332 274
f 270 274 273
f 270 273 272
f 270 272 271
f 274 333 334
f 274 334 335
f 274 335 336
f 274 336 275
f 274 332 331
f 274 331 337
f 274 337 338
f 274 338 339
f 274 339 333
f 275 336 340
f 275 340 341
f 275 341 330
f 276 279 277
f 278 287 342
f 278 342 290
f 278 290 294
f 279 343 344
f 279 344 280
f 279 330 341
f 279 341 345
f 279 345 343
f 280 344 346
f 280 346 281
f 281 346 347
f 281 347 282
f 282 348 283
f 282 347 348
f 283 349 350
f 283 350 351
f 283 351 352
f 283 352 284
f 283 348 353
f 283 353 349
f 284 352 285
f 285 352 351
f 285 351 354
f 285 354 288
f 287 290 342
f 288 354 355
f 288 355 289
f 289 355 356
f 289 356 357
f 289 357 358
f 289 358 359
f 289 359 360
f 289 360 294
f 289 294 290
f 291 294 360
f 291 360 359
f 291 359 358
f 291 358 292
f 292 358 357
f 292 357 293
f 293 357 429
f 293 429 361
f 295 361 362
f 295 362 296
f 296 362 363
f 296 363 364
f 296 364 297
f 297 364 365
f 298 300 366
f 298 366 367
f 298 367 368
f 298 368 369
f 299 369 368
f 299 368 301
f 301 368 302
f 302 368 370
f 302 370 371
f 302 371 303
f 303 371 372
f 303 372 373
f 303 373 374
f 303 374 305
f 304 305 375
f 304 375 376
f 304 376 377
f 304 377 378
f 304 378 379
f 304 379 306
f 306 379 378
f 306 378 309
f 306 309 307
f 307 309 308
f 309 380 322
f 309 322 318
f 309 318 310
f 309 378 380
f 310 317 311
f 312 329 381
f 312 381 382
f 312 382 313
f 313 382 383
f 313 383 384
f 313 384 314
f 314 384 385
f 314 385 331
f 319 386 327
f 319 327 321
f 319 321 320
f 322 380 326
f 324 326 387
f 326 380 388
f 326 388 387
f 327 386 389
f 327 389 390
f 327 390 391
f 327 391 328
f 328 391 392
f 328 392 393
f 328 393 329
f 329 393 381
f 331 385 382
f 331 382 337
f 333 394 395
f 333 395 396
f 333 396 334
f 333 339 397
f 333 397 394
f 334 396 335
f 335 396 398
f 335 398 399
f 335 399 400
f 335 400 401
f 335 401 336
f 336 402 340
f 336 401 402
f 337 382 339
f 337 339 338
f 339 382 381
f 339 381 403
f 339 403 404
f 339 404 405
f 339 405 397
f 340 343 345
f 340 345 341
f 340 402 401
f 340 401 406
f 340 406 407
f 340 407 343
f 343 408 409
f 343 409 344
f 343 407 408
f 344 410 346
f 344 409 411
f 344 411 410
f 346 410 347
f 347 412 413
f 347 413 414
f 347 414 353
f 347 353 348
f 347 410 415
f 347 415 412
f 349 416 417
f 349 417 418
f 349 418 350
f 349 353 419
f 349 419 420
f 349 420 416
f 350 418 421
f 350 421 422
f 350 422 351
f 351 422 354
f 353 414 423
f 353 423 419
f 354 422 424
f 354 424 355
f 355 425 426
f 355 426 356
f 355 424 425
f 356 426 427
f 356 427 428
f 356 428 357
f 357 428 429
f 361 429 430
f 361 430 362
f 362 430 429
f 362 429 428
f 362 428 427
f 362 427 426
f 362 426 425
f 362 425 424
f 362 424 422
f 362 422 421
f 362 421 417
f 362 417 416
f 362 416 420
f 362 420 474
f 362 474 473
f 362 473 472
f 362 472 477
f 362 477 476
f 362 476 519
f 362 519 518
f 362 518 478
f 362 478 521
f 362 521 524
f 362 524 535
f 362 535 534
f 362 534 533
f 362 533 532
f 362 532 531
f 362 531 530
f 362 530 529
f 362 529 528
f 362 528 527
f 362 527 526
f 362 526 557
f 362 557 568
f 362 568 566
f 362 566 554
f 362 554 522
f 362 522 479
f 362 479 432
f 362 432 364
f 362 364 431
f 362 431 363
f 363 431 364
f 364 432 365
f 365 432 433
f 366 434 367
f 367 435 368
f 368 435 436
f 368 436 371
f 368 371 370
f 377 437 378
f 378 437 438
f 378 438 439
f 378 439 380
f 380 440 388
f 380 439 441
f 380 441 440
f 381 393 442
f 381 442 403
f 382 385 383
f 383 385 384
f 389 443 442
f 389 442 390
f 390 442 393
f 390 393 392
f 390 392 391
f 394 397 444
f 394 444 395
f 395 444 445
f 395 445 446
f 395 446 396
f 396 446 447
f 396 447 398
f 397 405 448
f 397 448 444
f 398 447 400
f 398 400 399
f 400 447 449
f 400 449 450
f 400 450 451
f 400 451 452
f 400 452 453
f 400 453 401
f 401 453 407
f 401 407 406
f 403 442 454
f 403 454 404
f 404 455 456
f 404 456 405
f 404 454 455
f 405 456 448
f 407 453 457
f 407 457 458
f 407 458 408
f 408 458 409
f 409 458 459
f 409 459 411
f 410 411 460
f 410 460 461
f 410 461 415
f 411 459 460
f 412 415 462
f 412 462 413
f 413 463 464
f 413 464 414
f 413 462 465
f 413 465 466
f 413 466 467
f 413 467 463
f 414 464 468
f 414 468 469
f 414 469 423
f 415 461 460
f 415 460 470
f 415 470 471
f 415 471 462
f 417 421 418
f 419 472 473
f 419 473 474
f 419 474 420
f 419 423 475
f 419 475 476
f 419 476 477
f 419 477 472
f 423 469 478
f 423 478 475
f 432 479 433
f 433 479 480
f 442 482 454
f 442 443 483
f 442 483 482
f 444 448 445
f 445 448 484
f 445 484 446
f 446 484 485
f 446 485 447
f 447 485 486
f 447 486 487
f 447 487 449
f 448 456 484
f 449 451 450
f 449 487 488
f 449 488 489
f 449 489 490
f 449 490 491
f 449 491 492
f 449 492 493
f 449 493 494
f 449 494 471
f 449 471 451
f 451 471 495
f 451 495 496
f 451 496 460
f 451 460 458
f 451 458 452
f 452 458 497
f 452 497 453
f 453 497 457
f 454 482 498
f 454 498 499
f 454 499 500
f 454 500 501
f 454 501 455
f 455 501 500
f 455 500 502
f 455 502 456
f 456 502 485
f 456 485 503
f 456 503 484
f 457 497 458
f 458 460 459
f 460 496 470
f 462 471 504
f 462 504 465
f 463 505 468
f 463 468 464
f 463 467 506
f 463 506 507
f 463 507 508
f 463 508 505
f 465 504 494
f 465 494 493
f 465 493 492
f 465 492 491
f 465 491 466
f 466 491 467
f 467 491 507
f 467 507 506
f 468 509 510
f 468 510 511
f 468 511 512
f 468 512 469
f 468 505 508
f 468 508 513
f 468 513 514
f 468 514 515
f 468 515 516
f 468 516 517
f 468 517 509
f 469 512 478
f 470 495 471
f 470 496 495
f 471 494 504
f 475 478 518
f 475 518 519
f 475 519 476
f 478 512 520
f 479 522 480
f 480 522 523
f 481 524 521
f 481 525 526
f 481 526 527
f 481 527 528
f 481 528 529
f 481 529 530
f 481 530 531
f 481 531 532
f 481 532 533
f 481 533 534
f 481 534 535
f 481 535 524
f 484 503 485
f 485 502 486
f 486 502 536
f 486 536 488
f 486 488 487
f 488 537 489
f 488 536 538
f 488 538 539
f 488 539 540
f 488 540 541
f 488 541 537
f 489 537 514
f 489 514 490
f 490 513 542
f 490 542 491
f 490 514 513
f 491 542 508
f 491 508 507
f 498 543 544
f 498 544 499
f 499 544 500
f 500 544 538
f 500 538 536
f 500 536 502
f 508 542 513
f 509 517 510
f 510 517 545
f 510 545 546
f 510 546 547
f 510 548 549
f 510 549 511
f 511 549 548
f 511 548 520
f 511 520 512
f 514 537 541
f 514 541 550
f 514 550 551
f 514 551 552
f 514 552 546
f 514 546 553
f 514 553 515
f 515 553 516
f 516 553 517
f 517 553 545
f 522 554 523
f 523 554 555
f 525 556 526
f 526 556 557
f 538 544 539
f 539 544 558
f 539 558 540
f 540 558 543
f 540 543 559
f 540 559 541
f 541 559 560
f 541 560 550
f 543 561 559
f 543 558 544
f 545 553 546
f 546 552 562
f 546 562 563
f 546 563 547
f 550 560 551
f 551 564 565
f 551 565 562
f 551 562 552
f 551 560 564
f 554 566 555
f 555 566 567
f 556 567 566
f 556 566 568
f 556 568 557
f 559 561 569
f 559 569 570
f 559 570 560
f 560 570 564
f 564 570 571
f 564 571 572
f 564 572 565
f 569 571 570

