# https://github.com/mikedh/trimesh
v 0.08201648 0.00015824 0.02515034
v 0.08201224 0.00730395 0.02515034
v 0.08160917 0.00730395 0.02677329
v 0.08160917 0.00015824 0.02677329
v 0.08177040 0.00015824 0.02352739
v 0.08177040 0.01217187 0.02352739
v 0.08200375 0.00892659 0.02515034
v 0.08193586 0.01054923 0.02515034
v 0.08149038 0.00893212 0.02690891
v 0.08116794 0.00839584 0.02761414
v 0.08118067 0.00730395 0.02762770
v 0.08118067 0.00015824 0.02762770
v 0.08132491 0.00015824 0.02236104
v 0.08132491 0.01379452 0.02236104
v 0.08174919 0.01379452 0.02352739
v 0.08182132 0.01217187 0.02515034
v 0.08149038 0.01054923 0.02660602
v 0.08110005 0.00947668 0.02754181
v 0.08017513 0.01054923 0.02798485
v 0.08046364 0.00893212 0.02795772
v 0.08032787 0.00730395 0.02807978
v 0.08032787 0.00405866 0.02808430
v 0.08032787 0.00015824 0.02808430
v 0.08090064 0.00015824 0.02154731
v 0.08123582 0.01541440 0.02253283
v 0.08090064 0.01217187 0.02154731
v 0.08023453 0.01217187 0.02028150
v 0.08089640 0.01379452 0.02155183
v 0.08154554 0.01541440 0.02352739
v 0.08167282 0.01379452 0.02515034
v 0.08137582 0.01217187 0.02638902
v 0.07947933 0.01770047 0.02755538
v 0.07959388 0.01661963 0.02764579
v 0.07970419 0.01541440 0.02772264
v 0.07985269 0.01379452 0.02781758
v 0.08000542 0.01217187 0.02790799
v 0.08124855 0.01379452 0.02616750
v 0.08117217 0.01475926 0.02602284
v 0.08098550 0.01054923 0.02741523
v 0.07884716 0.01711167 0.02798936
v 0.07870715 0.01541440 0.02820636
v 0.07870715 0.01379452 0.02830129
v 0.07870715 0.01217187 0.02839171
v 0.07870715 0.01054923 0.02846856
v 0.07870715 0.00892659 0.02851377
v 0.07870715 0.00730395 0.02852281
v 0.07870715 0.00405866 0.02852281
v 0.07870715 0.00015824 0.02851377
v 0.08023453 0.00015824 0.02028150
v 0.08114671 0.01625198 0.02270462
v 0.08079457 0.01541440 0.02171910
v 0.07966177 0.01217187 0.01920105
v 0.07966177 0.00015824 0.01919653
v 0.07680641 0.00015824 0.01378972
v 0.07270793 0.00015824 0.00603214
v 0.06648384 0.00015824 -0.00573987
v 0.06630990 0.00081337 -0.00606536
v 0.08020059 0.01379452 0.02028150
v 0.07957691 0.01485877 0.01936832
v 0.07851198 0.01217187 0.01703561
v 0.07798589 0.01217187 0.01605009
v 0.07754888 0.01217187 0.01524088
v 0.07795194 0.01334670 0.01611790
v 0.08125279 0.01662239 0.02352739
v 0.08128248 0.01673020 0.02469375
v 0.08140552 0.01534529 0.02520007
v 0.07936902 0.01866244 0.02742879
v 0.07780769 0.02408600 0.02751921
v 0.07796043 0.02300239 0.02763223
v 0.07811741 0.02190773 0.02772716
v 0.07835076 0.02028509 0.02786278
v 0.07855441 0.01866244 0.02797580
v 0.08106186 0.01584010 0.02577420
v 0.07991208 0.01866244 0.02661506
v 0.07708218 0.02028509 0.02834650
v 0.07708218 0.01866244 0.02845952
v 0.07708218 0.01703704 0.02852733
v 0.07708218 0.01541440 0.02854993
v 0.07708218 0.01379452 0.02855446
v 0.07708218 0.00730395 0.02855446
v 0.07708218 0.00568130 0.02854089
v 0.07708218 0.00405866 0.02850925
v 0.07805377 0.00015824 0.02847760
v 0.07801983 0.02677566 0.02248763
v 0.07790103 0.02761048 0.02270462
v 0.07944538 0.02247165 0.02298943
v 0.07944963 0.01594238 0.01958983
v 0.07976783 0.01703704 0.02065673
v 0.08060365 0.01689053 0.02206268
v 0.07945387 0.01925124 0.02120825
v 0.07975935 0.02028509 0.02227967
v 0.07992481 0.01540610 0.02019109
v 0.07298371 0.00730395 0.00657011
v 0.06506677 0.00015824 -0.00839806
v 0.06506677 0.00081337 -0.00840258
v 0.07463837 0.01617458 0.01137565
v 0.07625910 0.01282978 0.01300312
v 0.06662386 0.00855894 -0.00501655
v 0.07664518 0.01379452 0.01396151
v 0.07560147 0.01379452 0.01216678
v 0.06810881 0.01599213 0.00008285
v 0.06982287 0.01637913 0.00317503
v 0.07464685 0.00964254 0.00973462
v 0.07340798 0.00892659 0.00739740
v 0.07507537 0.01054923 0.01056192
v 0.07463837 0.01054923 0.00974818
v 0.07129086 0.00892659 0.00345532
v 0.07073506 0.00892659 0.00243815
v 0.06668325 0.00730395 -0.00513409
v 0.06622928 0.00730395 -0.00594782
v 0.07958115 0.02294987 0.02406988
v 0.07958115 0.02294987 0.02455812
v 0.07941568 0.02235555 0.02563858
v 0.07956418 0.02127194 0.02607709
v 0.07916112 0.02028509 0.02713494
v 0.07819802 0.02515301 0.02648396
v 0.07801558 0.02632231 0.02618559
v 0.07760404 0.02515301 0.02729317
v 0.07633546 0.02773763 0.02763223
v 0.07650093 0.02677566 0.02772264
v 0.07679368 0.02515301 0.02786278
v 0.07719249 0.02353867 0.02793060
v 0.07708218 0.02190773 0.02819280
v 0.07969994 0.02028509 0.02632121
v 0.07546146 0.02515301 0.02834650
v 0.07546146 0.02353037 0.02846856
v 0.07546146 0.02190773 0.02853637
v 0.07546146 0.02028509 0.02855446
v 0.07383650 0.02353037 0.02855446
v 0.07383650 0.02190773 0.02854089
v 0.07383650 0.02028509 0.02850925
v 0.07383650 0.01866244 0.02845952
v 0.07546146 0.01054923 0.02845952
v 0.07708218 0.00015824 0.02838719
v 0.07818954 0.02502033 0.02189089
v 0.07756586 0.02677566 0.02167841
v 0.07732402 0.02824903 0.02206268
v 0.07725614 0.02839830 0.02205816
v 0.07774829 0.02839830 0.02331944
v 0.07779920 0.02839830 0.02352739
v 0.07800286 0.02785373 0.02352739
v 0.07834652 0.02677566 0.02352739
v 0.07881321 0.02515301 0.02352739
v 0.07620394 0.02735063 0.01958983
v 0.07930113 0.01703704 0.01984751
v 0.07862654 0.02028509 0.02028150
v 0.07790952 0.02439007 0.02107263
v 0.06479948 0.00015824 -0.00888178
v 0.06462129 0.00081337 -0.00921631
v 0.06505405 0.00243602 -0.00836641
v 0.06627171 0.00568130 -0.00600207
v 0.06628868 0.00405866 -0.00602919
v 0.07801983 0.01703704 0.01763235
v 0.07861381 0.01703704 0.01865856
v 0.06485888 0.01765348 -0.00477695
v 0.06656870 0.01797137 -0.00168024
v 0.06827852 0.01827268 0.00141646
v 0.06533406 0.00728183 -0.00743062
v 0.06530012 0.00892659 -0.00710965
v 0.06618685 0.00903163 -0.00560876
v 0.06641172 0.01541440 -0.00303194
v 0.06512617 0.01541440 -0.00523354
v 0.06499889 0.01657264 -0.00501655
v 0.06793910 0.00730395 -0.00284207
v 0.06727724 0.00730395 -0.00405363
v 0.06553348 0.00568130 -0.00729952
v 0.06498192 0.00568130 -0.00822175
v 0.07803256 0.02792008 0.02472087
v 0.07876231 0.02515301 0.02515034
v 0.07925022 0.02350550 0.02511870
v 0.07676822 0.02839830 0.02682754
v 0.07783315 0.02740315 0.02580133
v 0.07558874 0.02839830 0.02785374
v 0.07548692 0.02839830 0.02792155
v 0.07667488 0.02839830 0.02693151
v 0.07550389 0.02832643 0.02792607
v 0.07546146 0.02677566 0.02819280
v 0.07383650 0.02839830 0.02845952
v 0.07383650 0.02677566 0.02853637
v 0.07383650 0.02515301 0.02855446
v 0.07221577 0.02839830 0.02849117
v 0.07221577 0.02677566 0.02845952
v 0.07221577 0.02353037 0.02835102
v 0.07383650 0.01541440 0.02835102
v 0.07221577 0.02190773 0.02828773
v 0.07383650 0.01379452 0.02827869
v 0.07642032 0.00015824 0.02818376
v 0.07775254 0.02547091 0.02134388
v 0.07650517 0.02839830 0.02072002
v 0.07718401 0.02839830 0.02191349
v 0.07768465 0.02839830 0.02518199
v 0.07480808 0.02798918 0.01757810
v 0.07735796 0.02502033 0.02043069
v 0.07465110 0.02597125 0.01622188
v 0.07493536 0.02661809 0.01703561
v 0.07294128 0.02566994 0.01312518
v 0.07448563 0.02705209 0.01649765
v 0.07392983 0.02028509 0.01216678
v 0.07278006 0.02353037 0.01178252
v 0.06461705 0.00015824 -0.00920727
v 0.06380668 0.00015824 -0.01049568
v 0.06381093 0.00081337 -0.01050020
v 0.06457462 0.00243602 -0.00917563
v 0.06502859 0.00405866 -0.00830765
v 0.07308978 0.01807089 0.00962612
v 0.06451522 0.01708403 -0.00560424
v 0.06327210 0.01614970 -0.00808613
v 0.06364546 0.01703704 -0.00705992
v 0.06471463 0.01866244 -0.00453283
v 0.06518981 0.01866244 -0.00372362
v 0.06846096 0.02028509 0.00272296
v 0.07154118 0.01995061 0.00787660
v 0.06493949 0.00672344 -0.00815394
v 0.06487585 0.00780705 -0.00805900
v 0.06479100 0.00892659 -0.00791886
v 0.06464675 0.01054923 -0.00767926
v 0.06513890 0.01054923 -0.00686553
v 0.06490131 0.01293206 -0.00647223
v 0.06540195 0.01230456 -0.00583028
v 0.06465099 0.01541440 -0.00604276
v 0.06451098 0.00405866 -0.00911686
v 0.06376426 0.00243602 -0.01043239
v 0.06370061 0.00405866 -0.01034650
v 0.06363273 0.00568130 -0.01025156
v 0.07766344 0.02839830 0.02524076
v 0.07822772 0.02682818 0.02521815
v 0.07059081 0.02839830 0.02817471
v 0.07059081 0.02677566 0.02809334
v 0.07221577 0.02028509 0.02820184
v 0.07383650 0.01217187 0.02817019
v 0.07221577 0.01866244 0.02808882
v 0.07555904 0.00015824 0.02789895
v 0.07472747 0.02839830 0.01771825
v 0.07154542 0.02634166 0.01111797
v 0.07307705 0.02771552 0.01451756
v 0.06997986 0.02190773 0.00614516
v 0.06983560 0.02290841 0.00639380
v 0.06967862 0.02398925 0.00666504
v 0.06798577 0.02353037 0.00353669
v 0.06325088 0.00015824 -0.01130489
v 0.06325513 0.00081337 -0.01130942
v 0.06312785 0.01703704 -0.00786913
v 0.06345030 0.01833902 -0.00673443
v 0.06378971 0.01553050 -0.00744871
v 0.06338665 0.01506886 -0.00827600
v 0.06302602 0.01379452 -0.00930221
v 0.06291571 0.01553050 -0.00885918
v 0.06202474 0.01541440 -0.01026964
v 0.06182957 0.01671914 -0.00998032
v 0.06387881 0.01879237 -0.00582576
v 0.06452795 0.02034590 -0.00400390
v 0.06486312 0.02092640 -0.00315852
v 0.06502010 0.01984280 -0.00342977
v 0.06538922 0.02034590 -0.00254370
v 0.06308966 0.00568130 -0.01106530
v 0.06301330 0.00730395 -0.01094324
v 0.06412913 0.00892659 -0.00892247
v 0.06289874 0.00892659 -0.01077145
v 0.06343757 0.00892659 -0.00996224
v 0.06325513 0.01115185 -0.00968195
v 0.06317028 0.01217187 -0.00954633
v 0.06351818 0.01379452 -0.00849300
v 0.06457037 0.01230456 -0.00723623
v 0.06320846 0.00243602 -0.01124160
v 0.06315330 0.00405866 -0.01116023
v 0.06929678 0.02839830 0.02774977
v 0.06947497 0.02677566 0.02770456
v 0.07059081 0.02515301 0.02798485
v 0.06972953 0.02409429 0.02760962
v 0.06985682 0.02301345 0.02755538
v 0.07387044 0.00015824 0.02704905
v 0.06992894 0.02795325 0.00948598
v 0.07163028 0.02839830 0.01260529
v 0.06981439 0.02605418 0.00805291
v 0.06501586 0.02300239 -0.00179326
v 0.06655173 0.02438730 0.00159277
v 0.06837186 0.02677566 0.00613611
v 0.07134177 0.02742250 0.01146154
v 0.06819367 0.02767406 0.00642996
v 0.06641596 0.02230855 0.00020943
v 0.06518981 0.02190773 -0.00209163
v 0.06286480 0.00015824 -0.01182026
v 0.06261023 0.00081337 -0.01216836
v 0.06169805 0.00536894 -0.01302278
v 0.06165138 0.01780275 -0.00970907
v 0.06327210 0.01941986 -0.00646318
v 0.06365395 0.02028509 -0.00543246
v 0.06213929 0.01380281 -0.01066295
v 0.06161319 0.01434461 -0.01128229
v 0.06147742 0.01541440 -0.01107886
v 0.06042523 0.01703704 -0.01189259
v 0.06131196 0.01717249 -0.01053185
v 0.06021309 0.01834179 -0.01160326
v 0.06470614 0.02190773 -0.00290536
v 0.06166411 0.00644978 -0.01297757
v 0.06220293 0.00730395 -0.01210959
v 0.06152834 0.00892659 -0.01278318
v 0.06208838 0.00892659 -0.01197396
v 0.06140954 0.01054923 -0.01259783
v 0.06195261 0.01054923 -0.01178861
v 0.06181685 0.01217187 -0.01158518
v 0.06250841 0.01217187 -0.01054541
v 0.06172350 0.01326377 -0.01144052
v 0.06848217 0.02839830 0.02744235
v 0.06963195 0.02515301 0.02765031
v 0.07251277 0.00015824 0.02628957
v 0.06016642 0.02786756 -0.00667566
v 0.06494374 0.02839830 0.00157469
v 0.06983560 0.02839830 0.00964421
v 0.06510072 0.02515301 -0.00031046
v 0.06361152 0.02353037 -0.00375074
v 0.06446431 0.02353867 -0.00237192
v 0.06481646 0.02408600 -0.00146325
v 0.06429884 0.02664297 -0.00066760
v 0.06157077 0.02734510 -0.00470914
v 0.05846085 0.00015824 -0.01762941
v 0.05980155 0.00081337 -0.01590249
v 0.06150713 0.01866244 -0.00949660
v 0.06312785 0.02028509 -0.00624619
v 0.06021309 0.02158707 -0.00998032
v 0.06344605 0.02154284 -0.00510696
v 0.06045068 0.01217187 -0.01353814
v 0.06026825 0.01379452 -0.01327594
v 0.05999247 0.01600872 -0.01290976
v 0.05985670 0.01703704 -0.01270632
v 0.05969123 0.01879513 -0.01215479
v 0.05880450 0.01866244 -0.01349293
v 0.05988640 0.02028509 -0.01111954
v 0.06386608 0.02201277 -0.00418473
v 0.06024279 0.00568130 -0.01484463
v 0.06004338 0.00969783 -0.01460051
v 0.06162168 0.00730395 -0.01292332
v 0.05899119 0.00081337 -0.01696034
v 0.05847781 0.00081337 -0.01762941
v 0.05999247 0.01054923 -0.01453270
v 0.06059918 0.01054923 -0.01372349
v 0.06126105 0.01217187 -0.01239439
v 0.06726451 0.02839830 0.02651560
v 0.06773121 0.02515301 0.02639354
v 0.07140541 0.00325978 0.02595955
v 0.07170240 0.00015824 0.02561146
v 0.06178290 0.02626426 -0.00505271
v 0.06340787 0.02463886 -0.00342977
v 0.06037007 0.02677566 -0.00699663
v 0.05985670 0.02677566 -0.00781036
v 0.05837175 0.02746121 -0.00966387
v 0.05871965 0.02839830 -0.00854724
v 0.05956820 0.02839830 -0.00725431
v 0.06005187 0.02839830 -0.00649031
v 0.06325513 0.02262645 -0.00481763
v 0.06309390 0.02353037 -0.00456447
v 0.04952142 0.00015824 -0.01762941
v 0.06204171 0.02190773 -0.00705992
v 0.06020885 0.02479366 -0.00835737
v 0.06003066 0.02267068 -0.00970907
v 0.05988640 0.02353037 -0.00949208
v 0.05969123 0.02204042 -0.01053185
v 0.05985246 0.01217187 -0.01434735
v 0.05966154 0.01379452 -0.01408967
v 0.05954274 0.01544757 -0.01369637
v 0.05896997 0.01705362 -0.01390432
v 0.05858813 0.01995061 -0.01320813
v 0.05840145 0.02103145 -0.01295044
v 0.05904210 0.02040948 -0.01231302
v 0.05835053 0.01760648 -0.01451914
v 0.05817234 0.01866244 -0.01430666
v 0.05904210 0.02365477 -0.01069007
v 0.05906755 0.01068468 -0.01557247
v 0.05786262 0.00568130 -0.01762941
v 0.05841842 0.01131771 -0.01621894
v 0.05835902 0.01217187 -0.01615113
v 0.05904210 0.01217187 -0.01534191
v 0.06712450 0.02839830 0.02637998
v 0.06664083 0.02801406 0.02584653
v 0.06788395 0.02353037 0.02624888
v 0.06803244 0.02190773 0.02609518
v 0.06812578 0.02090982 0.02600024
v 0.06616140 0.02839830 0.02536281
v 0.06604684 0.02839830 0.02522267
v 0.06513042 0.02839830 0.02400659
v 0.07114661 0.00015824 0.02479772
v 0.05968275 0.02526082 -0.00890890
v 0.05901665 0.02686135 -0.00904000
v 0.06225809 0.02363818 -0.00581220
v 0.05858389 0.02637760 -0.00996224
v 0.05822749 0.02515301 -0.01109694
v 0.05796445 0.02686135 -0.01051829
v 0.05707772 0.02677566 -0.01170724
v 0.05686982 0.02772934 -0.01144504
v 0.05717105 0.02839830 -0.01064487
v 0.05813840 0.02839830 -0.00937906
v 0.03895702 0.02739763 -0.01762941
v 0.07048898 0.00015824 0.02352739
v 0.06042098 0.02353037 -0.00868287
v 0.05880450 0.02515301 -0.01028773
v 0.05885118 0.01379452 -0.01513848
v 0.05864752 0.01541440 -0.01487176
v 0.05850327 0.01652288 -0.01469545
v 0.05798142 0.02040948 -0.01376870
v 0.05688679 0.02130788 -0.01469545
v 0.05734501 0.02187179 -0.01385459
v 0.05840145 0.02427673 -0.01132750
v 0.05707772 0.02028509 -0.01488984
v 0.05816810 0.01379452 -0.01594769
v 0.05602552 0.01541440 -0.01762941
v 0.05558428 0.01678825 -0.01762941
v 0.05444722 0.02028509 -0.01762941
v 0.05398477 0.02167553 -0.01762941
v 0.05765048 0.00730395 -0.01762941
v 0.05742138 0.00892659 -0.01762941
v 0.05717105 0.01059070 -0.01762941
v 0.05700135 0.01161625 -0.01762941
v 0.05686558 0.01239578 -0.01762941
v 0.06461280 0.02839830 0.02319738
v 0.03867276 0.02814122 -0.01762941
v 0.05734501 0.02511708 -0.01223165
v 0.05644131 0.02677566 -0.01251645
v 0.05536789 0.02796707 -0.01322169
v 0.05600006 0.02839830 -0.01214575
v 0.05537214 0.02482407 -0.01484463
v 0.05667041 0.02238872 -0.01443777
v 0.05491816 0.02353037 -0.01594317
v 0.05602128 0.02523042 -0.01383199
v 0.05510060 0.02248270 -0.01614661
v 0.05735774 0.01379452 -0.01677499
v 0.05648374 0.01390785 -0.01762941
v 0.05327623 0.02352484 -0.01762941
v 0.05410781 0.02353037 -0.01677951
v 0.05659404 0.01348215 -0.01762941
v 0.03867276 0.02839830 -0.01756612
v 0.03867276 0.02837895 -0.01757064
v 0.03867276 0.02839830 -0.01762941
v 0.05667041 0.02563400 -0.01281482
v 0.05562670 0.02677566 -0.01354266
v 0.05496059 0.02677566 -0.01435639
v 0.05383203 0.02804447 -0.01488080
v 0.05469330 0.02839830 -0.01371445
v 0.05525758 0.02839830 -0.01308607
v 0.05515576 0.02590491 -0.01457339
v 0.05468057 0.02528017 -0.01539616
v 0.05376414 0.02515301 -0.01643141
v 0.05651343 0.01379452 -0.01762941
v 0.05257194 0.02515301 -0.01762941
v 0.05088333 0.02839830 -0.01762941
v 0.05403568 0.02662086 -0.01541877
v 0.05372596 0.02839830 -0.01477230
v 0.05427327 0.02839830 -0.01418008
v 0.05328896 0.02705762 -0.01596126
v 0.05157065 0.02714884 -0.01762941
v 0.05356049 0.02597677 -0.01623250
v 0.05210099 0.02610946 -0.01762941
v 0.05171491 0.02687241 -0.01762941
f 1 2 3
f 1 3 4
f 1 4 12
f 1 12 23
f 1 23 48
f 1 48 83
f 1 83 134
f 1 134 187
f 1 187 232
f 1 232 271
f 1 271 306
f 1 306 341
f 1 341 381
f 1 381 393
f 1 393 352
f 1 352 316
f 1 316 282
f 1 282 240
f 1 240 201
f 1 201 200
f 1 200 148
f 1 148 94
f 1 94 56
f 1 56 55
f 1 55 54
f 1 54 53
f 1 53 49
f 1 49 24
f 1 24 13
f 1 13 5
f 1 5 6
f 1 6 2
f 2 7 3
f 2 6 7
f 3 7 8
f 3 8 9
f 3 9 10
f 3 10 11
f 3 11 12
f 3 12 4
f 5 13 14
f 5 14 6
f 6 14 15
f 6 15 7
f 7 15 8
f 8 16 17
f 8 17 9
f 8 15 16
f 9 17 18
f 9 18 10
f 10 18 19
f 10 19 20
f 10 20 21
f 10 21 11
f 11 21 22
f 11 22 23
f 11 23 12
f 13 24 26
f 13 26 14
f 14 25 15
f 14 26 27
f 14 27 28
f 14 28 25
f 15 25 29
f 15 29 30
f 15 30 16
f 16 30 17
f 17 30 31
f 17 31 18
f 18 32 33
f 18 33 34
f 18 34 35
f 18 35 36
f 18 36 19
f 18 31 37
f 18 37 38
f 18 38 39
f 18 39 32
f 19 40 41
f 19 41 42
f 19 42 43
f 19 43 44
f 19 44 21
f 19 21 20
f 19 36 40
f 21 44 45
f 21 45 46
f 21 46 22
f 22 46 47
f 22 47 23
f 23 47 48
f 24 49 27
f 24 27 26
f 25 50 29
f 25 28 51
f 25 51 50
f 27 52 28
f 27 49 53
f 27 53 54
f 27 54 55
f 27 55 56
f 27 56 57
f 27 57 52
f 28 58 59
f 28 59 51
f 28 52 60
f 28 60 61
f 28 61 62
f 28 62 63
f 28 63 58
f 29 50 64
f 29 64 65
f 29 65 30
f 30 65 66
f 30 66 38
f 30 38 37
f 30 37 31
f 32 39 38
f 32 38 67
f 32 67 68
f 32 68 69
f 32 69 70
f 32 70 71
f 32 71 33
f 33 71 72
f 33 72 34
f 34 72 40
f 34 40 35
f 35 40 36
f 38 66 73
f 38 73 74
f 38 74 67
f 40 72 41
f 41 75 76
f 41 76 42
f 41 72 75
f 42 76 43
f 43 76 44
f 44 76 77
f 44 77 45
f 45 77 78
f 45 78 46
f 46 78 79
f 46 79 80
f 46 80 47
f 47 80 48
f 48 80 81
f 48 81 82
f 48 82 83
f 50 84 85
f 50 85 86
f 50 86 64
f 50 51 87
f 50 87 88
f 50 88 89
f 50 89 90
f 50 90 91
f 50 91 84
f 51 59 92
f 51 92 87
f 52 57 93
f 52 93 60
f 56 94 95
f 56 95 57
f 57 95 93
f 58 63 59
f 59 96 92
f 59 63 97
f 59 97 98
f 59 98 99
f 59 99 100
f 59 100 101
f 59 101 102
f 59 102 96
f 60 93 103
f 60 103 61
f 61 103 104
f 61 104 105
f 61 105 106
f 61 106 62
f 62 106 107
f 62 107 108
f 62 108 63
f 63 108 109
f 63 109 110
f 63 110 98
f 63 98 97
f 64 86 111
f 64 111 65
f 65 111 112
f 65 112 113
f 65 113 114
f 65 114 73
f 65 73 66
f 67 74 115
f 67 115 68
f 68 115 116
f 68 116 117
f 68 117 118
f 68 118 119
f 68 119 120
f 68 120 121
f 68 121 69
f 69 121 122
f 69 122 70
f 70 122 71
f 71 122 123
f 71 123 72
f 72 123 75
f 73 114 124
f 73 124 74
f 74 124 115
f 75 123 177
f 75 177 125
f 75 125 126
f 75 126 76
f 76 126 127
f 76 127 77
f 77 127 78
f 78 127 128
f 78 128 79
f 79 128 180
f 79 180 129
f 79 129 80
f 80 129 130
f 80 130 81
f 81 130 131
f 81 131 82
f 82 131 132
f 82 132 133
f 82 133 134
f 82 134 83
f 84 91 135
f 84 135 136
f 84 136 85
f 85 137 138
f 85 138 139
f 85 139 140
f 85 140 141
f 85 141 142
f 85 142 143
f 85 143 86
f 85 136 144
f 85 144 137
f 86 143 111
f 87 145 88
f 87 92 96
f 87 96 145
f 88 90 89
f 88 145 146
f 88 146 90
f 90 147 135
f 90 135 91
f 90 146 147
f 93 104 103
f 93 95 104
f 94 148 149
f 94 149 95
f 95 149 150
f 95 150 151
f 95 151 152
f 95 152 104
f 96 153 154
f 96 154 145
f 96 102 155
f 96 155 156
f 96 156 157
f 96 157 153
f 98 110 158
f 98 158 159
f 98 159 160
f 98 160 100
f 98 100 99
f 100 160 161
f 100 161 101
f 101 161 162
f 101 162 163
f 101 163 102
f 102 163 155
f 104 106 105
f 104 152 107
f 104 107 106
f 107 152 164
f 107 164 165
f 107 165 108
f 108 165 109
f 109 165 151
f 109 151 110
f 110 151 166
f 110 166 167
f 110 167 158
f 111 168 112
f 111 143 142
f 111 142 168
f 112 168 169
f 112 169 170
f 112 170 113
f 113 170 169
f 113 169 117
f 113 117 114
f 114 117 116
f 114 116 124
f 115 124 116
f 117 171 118
f 117 169 172
f 117 172 171
f 118 171 119
f 119 173 174
f 119 174 120
f 119 171 175
f 119 175 173
f 120 174 176
f 120 176 121
f 121 176 177
f 121 177 122
f 122 177 123
f 125 177 178
f 125 178 126
f 126 178 179
f 126 179 127
f 127 179 180
f 127 180 128
f 129 180 181
f 129 181 130
f 130 181 182
f 130 182 131
f 131 182 132
f 132 182 134
f 132 134 133
f 134 183 184
f 134 184 185
f 134 185 186
f 134 186 187
f 134 182 183
f 135 147 188
f 135 188 136
f 136 188 144
f 137 189 190
f 137 190 138
f 137 144 189
f 138 190 189
f 138 189 233
f 138 233 273
f 138 273 309
f 138 309 308
f 138 308 349
f 138 349 348
f 138 348 347
f 138 347 391
f 138 391 390
f 138 390 419
f 138 419 438
f 138 438 437
f 138 437 447
f 138 447 446
f 138 446 444
f 138 444 432
f 138 432 430
f 138 430 414
f 138 414 380
f 138 380 379
f 138 379 378
f 138 378 373
f 138 373 338
f 138 338 304
f 138 304 266
f 138 266 227
f 138 227 181
f 138 181 178
f 138 178 174
f 138 174 173
f 138 173 175
f 138 175 171
f 138 171 225
f 138 225 191
f 138 191 140
f 138 140 139
f 140 191 168
f 140 168 141
f 141 168 142
f 144 192 189
f 144 188 147
f 144 147 193
f 144 193 194
f 144 194 195
f 144 195 196
f 144 196 197
f 144 197 192
f 145 154 146
f 146 193 147
f 146 154 198
f 146 198 199
f 146 199 194
f 146 194 193
f 148 200 149
f 149 200 201
f 149 201 202
f 149 202 203
f 149 203 204
f 149 204 150
f 150 204 151
f 151 204 166
f 151 165 164
f 151 164 152
f 153 205 198
f 153 198 154
f 153 157 205
f 155 163 206
f 155 206 207
f 155 207 208
f 155 208 209
f 155 209 210
f 155 210 156
f 156 210 157
f 157 210 211
f 157 211 212
f 157 212 205
f 158 167 213
f 158 213 214
f 158 214 159
f 159 214 215
f 159 215 216
f 159 216 217
f 159 217 160
f 160 217 218
f 160 218 219
f 160 219 161
f 161 219 218
f 161 218 162
f 162 218 220
f 162 220 163
f 163 220 207
f 163 207 206
f 166 204 167
f 167 204 221
f 167 221 222
f 167 222 223
f 167 223 224
f 167 224 213
f 168 191 225
f 168 225 172
f 168 172 226
f 168 226 169
f 169 226 172
f 171 172 225
f 174 178 177
f 174 177 176
f 178 181 179
f 179 181 180
f 181 227 182
f 182 227 183
f 183 227 185
f 183 185 184
f 185 227 228
f 185 228 229
f 185 229 186
f 186 229 187
f 187 229 230
f 187 230 231
f 187 231 232
f 189 192 233
f 192 197 234
f 192 234 235
f 192 235 233
f 194 199 236
f 194 236 237
f 194 237 196
f 194 196 195
f 196 237 238
f 196 238 197
f 197 238 239
f 197 239 234
f 198 205 212
f 198 212 236
f 198 236 199
f 201 240 241
f 201 241 202
f 202 222 203
f 202 241 264
f 202 264 222
f 203 221 204
f 203 222 221
f 207 242 243
f 207 243 208
f 207 220 244
f 207 244 245
f 207 245 246
f 207 246 247
f 207 247 248
f 207 248 249
f 207 249 242
f 208 243 250
f 208 250 209
f 209 250 251
f 209 251 252
f 209 252 253
f 209 253 210
f 210 253 254
f 210 254 236
f 210 236 211
f 211 236 212
f 213 224 255
f 213 255 256
f 213 256 214
f 214 257 215
f 214 256 258
f 214 258 259
f 214 259 257
f 215 257 260
f 215 260 261
f 215 261 216
f 216 262 217
f 216 261 246
f 216 246 262
f 217 262 263
f 217 263 218
f 218 263 262
f 218 262 244
f 218 244 220
f 222 264 265
f 222 265 223
f 223 265 255
f 223 255 224
f 227 266 228
f 228 266 267
f 228 267 268
f 228 268 229
f 229 268 231
f 229 231 230
f 231 268 269
f 231 269 232
f 232 269 270
f 232 270 271
f 233 235 272
f 233 272 273
f 234 274 235
f 234 239 275
f 234 275 276
f 234 276 274
f 235 274 277
f 235 277 278
f 235 278 279
f 235 279 272
f 236 254 237
f 237 254 252
f 237 252 238
f 238 252 280
f 238 280 239
f 239 280 281
f 239 281 275
f 240 282 241
f 241 282 283
f 241 283 284
f 241 284 264
f 242 249 285
f 242 285 243
f 243 286 287
f 243 287 250
f 243 285 286
f 244 262 245
f 245 262 246
f 246 261 288
f 246 288 289
f 246 289 247
f 247 289 248
f 248 289 290
f 248 290 249
f 249 290 291
f 249 291 292
f 249 292 293
f 249 293 285
f 250 287 251
f 251 294 252
f 251 287 294
f 252 254 253
f 252 294 281
f 252 281 280
f 255 265 295
f 255 295 296
f 255 296 256
f 256 296 297
f 256 297 298
f 256 298 258
f 257 259 260
f 258 298 299
f 258 299 300
f 258 300 259
f 259 300 260
f 260 300 301
f 260 301 302
f 260 302 261
f 261 302 303
f 261 303 288
f 264 284 295
f 264 295 265
f 266 304 267
f 267 304 305
f 267 305 268
f 268 305 269
f 269 304 270
f 269 305 304
f 270 304 271
f 271 304 306
f 272 279 307
f 272 307 308
f 272 308 309
f 272 309 273
f 274 276 310
f 274 310 277
f 275 281 294
f 275 294 311
f 275 311 312
f 275 312 313
f 275 313 276
f 276 313 310
f 277 279 278
f 277 310 314
f 277 314 315
f 277 315 279
f 279 315 307
f 282 316 317
f 282 317 283
f 283 317 284
f 284 317 295
f 285 293 318
f 285 318 286
f 286 319 287
f 286 318 320
f 286 320 319
f 287 321 294
f 287 319 321
f 288 303 289
f 289 303 322
f 289 322 323
f 289 323 324
f 289 324 290
f 290 324 325
f 290 325 291
f 291 326 293
f 291 293 292
f 291 325 327
f 291 327 326
f 293 326 328
f 293 328 320
f 293 320 318
f 294 321 329
f 294 329 311
f 295 330 331
f 295 331 332
f 295 332 296
f 295 317 333
f 295 333 334
f 295 334 330
f 296 332 297
f 297 332 335
f 297 335 336
f 297 336 299
f 297 299 298
f 299 336 322
f 299 322 337
f 299 337 303
f 299 303 301
f 299 301 300
f 301 303 302
f 303 337 322
f 304 338 339
f 304 339 340
f 304 340 306
f 306 340 341
f 307 315 342
f 307 342 343
f 307 343 344
f 307 344 345
f 307 345 346
f 307 346 347
f 307 347 348
f 307 348 349
f 307 349 308
f 310 313 343
f 310 343 315
f 310 315 314
f 311 343 312
f 311 329 350
f 311 350 351
f 311 351 345
f 311 345 343
f 312 343 313
f 315 343 342
f 316 352 392
f 316 392 415
f 316 415 432
f 316 432 444
f 316 444 449
f 316 449 452
f 316 452 451
f 316 451 443
f 316 443 427
f 316 427 408
f 316 408 407
f 316 407 406
f 316 406 405
f 316 405 426
f 316 426 442
f 316 442 429
f 316 429 413
f 316 413 412
f 316 412 411
f 316 411 410
f 316 410 409
f 316 409 369
f 316 369 334
f 316 334 333
f 316 333 317
f 319 353 354
f 319 354 321
f 319 320 355
f 319 355 356
f 319 356 394
f 319 394 353
f 320 357 355
f 320 328 357
f 321 350 329
f 321 354 350
f 322 336 358
f 322 358 323
f 323 358 359
f 323 359 324
f 324 359 360
f 324 360 361
f 324 361 325
f 325 361 327
f 326 327 362
f 326 362 363
f 326 363 364
f 326 364 328
f 327 361 365
f 327 365 366
f 327 366 362
f 328 364 367
f 328 367 357
f 330 334 331
f 331 335 332
f 331 334 368
f 331 368 335
f 334 369 370
f 334 370 368
f 335 358 336
f 335 368 370
f 335 370 371
f 335 371 372
f 335 372 358
f 338 373 374
f 338 374 339
f 339 374 375
f 339 375 340
f 340 375 376
f 340 376 377
f 340 377 374
f 340 374 378
f 340 378 341
f 341 378 379
f 341 379 380
f 341 380 381
f 343 345 344
f 345 354 382
f 345 382 383
f 345 383 346
f 345 351 384
f 345 384 354
f 346 385 386
f 346 386 387
f 346 387 388
f 346 388 389
f 346 389 390
f 346 390 391
f 346 391 347
f 346 383 385
f 350 354 384
f 350 384 351
f 352 393 392
f 353 394 354
f 354 394 356
f 354 356 395
f 354 395 382
f 355 357 367
f 355 367 356
f 356 367 395
f 358 372 396
f 358 396 359
f 359 396 397
f 359 397 398
f 359 398 360
f 360 398 361
f 361 398 365
f 362 366 399
f 362 399 363
f 363 399 400
f 363 400 401
f 363 401 416
f 363 416 402
f 363 402 367
f 363 367 364
f 365 403 366
f 365 398 404
f 365 404 405
f 365 405 406
f 365 406 407
f 365 407 408
f 365 408 403
f 366 403 400
f 366 400 399
f 367 402 395
f 369 409 370
f 370 409 410
f 370 410 371
f 371 410 411
f 371 411 412
f 371 412 413
f 371 413 404
f 371 404 396
f 371 396 372
f 373 378 374
f 374 377 376
f 374 376 375
f 380 414 381
f 381 414 415
f 381 415 393
f 382 395 385
f 382 385 383
f 385 395 402
f 385 402 386
f 386 402 416
f 386 416 417
f 386 417 388
f 386 388 387
f 388 417 389
f 389 417 418
f 389 418 419
f 389 419 390
f 392 393 415
f 396 398 397
f 396 404 398
f 400 420 421
f 400 421 401
f 400 403 422
f 400 422 420
f 401 421 420
f 401 420 423
f 401 423 416
f 403 408 424
f 403 424 422
f 404 413 425
f 404 425 405
f 405 425 426
f 408 427 428
f 408 428 422
f 408 422 424
f 413 429 425
f 414 430 431
f 414 431 415
f 415 431 430
f 415 430 432
f 416 423 433
f 416 433 434
f 416 434 417
f 417 434 418
f 418 434 435
f 418 435 436
f 418 436 437
f 418 437 438
f 418 438 419
f 420 439 423
f 420 422 440
f 420 440 439
f 422 428 441
f 422 441 440
f 423 439 434
f 423 434 433
f 425 429 442
f 425 442 426
f 427 443 441
f 427 441 428
f 434 439 435
f 435 439 440
f 435 440 445
f 435 445 436
f 436 446 447
f 436 447 437
f 436 445 448
f 436 448 449
f 436 449 444
f 436 444 446
f 440 441 445
f 441 450 445
f 441 443 450
f 443 451 450
f 445 450 448
f 448 450 451
f 448 451 452
f 448 452 449

