# https://github.com/mikedh/trimesh
v 0.02405357 0.03896309 -0.01762941
v 0.00021404 0.04851824 -0.01632635
v 0.00021404 0.04787370 -0.01762941
v 0.02405357 0.05312213 -0.01762941
v 0.02405357 0.06776249 0.02478505
v 0.00021404 0.07161719 0.02399019
v 0.00021404 0.07144141 0.02369483
v 0.00021404 0.07084291 0.02267845
v 0.00021404 0.05857564 -0.01762941
v 0.02286346 0.05372482 -0.01762941
v 0.02380622 0.05491346 -0.01596150
v 0.02405357 0.05482138 -0.01592675
v 0.02405357 0.06814754 0.02514556
v 0.00021404 0.07242915 0.02495445
v 0.00021404 0.07212781 0.02460262
v 0.00021404 0.05983962 -0.01594847
v 0.00201320 0.05857564 -0.01762941
v 0.02190671 0.05418940 -0.01762941
v 0.02272345 0.05518132 -0.01622645
v 0.02405357 0.05554126 -0.01518401
v 0.02405357 0.06864141 0.02559729
v 0.00021404 0.07301929 0.02546699
v 0.00021404 0.06289911 -0.01186990
v 0.00243558 0.06328416 -0.01135302
v 0.00243558 0.05857146 -0.01762941
v 0.02048791 0.05477534 -0.01762941
v 0.02190671 0.05457863 -0.01722981
v 0.02190671 0.05534036 -0.01641757
v 0.02353086 0.05656667 -0.01431965
v 0.02336984 0.05564171 -0.01541856
v 0.02405357 0.05618581 -0.01447601
v 0.00021404 0.07336667 0.02576669
v 0.02405357 0.06940315 0.02609680
v 0.00021404 0.06328416 -0.01135302
v 0.00021404 0.06348506 -0.01105766
v 0.00243558 0.06383244 -0.01054079
v 0.00405739 0.06326324 -0.01132262
v 0.00405739 0.05980613 -0.01590937
v 0.00405739 0.05848356 -0.01762941
v 0.02028489 0.05485905 -0.01762941
v 0.02028489 0.05491765 -0.01756425
v 0.02028489 0.05563334 -0.01675202
v 0.02256944 0.05675083 -0.01454117
v 0.02405357 0.05708566 -0.01337710
v 0.02405357 0.05647878 -0.01415025
v 0.00021404 0.07388147 0.02604033
v 0.02405357 0.07059178 0.02644862
v 0.00021404 0.07545934 0.02658761
v 0.00021404 0.07417863 0.02619670
v 0.00021404 0.06382826 -0.01054513
v 0.00405739 0.06381151 -0.01051038
v 0.00243558 0.06464440 -0.00922904
v 0.00405739 0.06462347 -0.00921167
v 0.00568154 0.06320464 -0.01123575
v 0.00568154 0.06250987 -0.01216961
v 0.00568154 0.06117056 -0.01394610
v 0.00568154 0.06035860 -0.01501027
v 0.00568154 0.05823244 -0.01762941
v 0.00819478 0.06167699 -0.01299487
v 0.00730336 0.06027071 -0.01487996
v 0.01993253 0.05497624 -0.01762941
v 0.01895244 0.05665038 -0.01604837
v 0.02028489 0.05644530 -0.01580513
v 0.01907611 0.05524829 -0.01762941
v 0.02148667 0.05693080 -0.01475834
v 0.01866074 0.05820315 -0.01431096
v 0.02041791 0.05803155 -0.01377236
v 0.01996520 0.05858820 -0.01321639
v 0.02353086 0.05717773 -0.01350741
v 0.02405357 0.05767161 -0.01253012
v 0.02405357 0.07221570 0.02667883
v 0.02028489 0.07221570 0.02662670
v 0.01217114 0.07383543 0.02666145
v 0.00405739 0.07545934 0.02668317
v 0.00021404 0.07708326 0.02674398
v 0.00021404 0.06464022 -0.00922904
v 0.00568154 0.06373618 -0.01042351
v 0.00568154 0.06454814 -0.00913349
v 0.00021404 0.06507131 -0.00841680
v 0.00021404 0.06697564 -0.00481603
v 0.00243558 0.06631436 -0.00607130
v 0.00405739 0.06631436 -0.00607130
v 0.00405739 0.06565725 -0.00730052
v 0.00405739 0.06506712 -0.00839943
v 0.00568154 0.06629761 -0.00604524
v 0.00568154 0.06560703 -0.00730052
v 0.00568154 0.06503364 -0.00832125
v 0.00730336 0.06236339 -0.01216961
v 0.00730336 0.06312512 -0.01110110
v 0.00730336 0.06171466 -0.01304700
v 0.00730336 0.05959687 -0.01568786
v 0.00892751 0.05946712 -0.01553149
v 0.01148041 0.05844590 -0.01624817
v 0.00892751 0.05769672 -0.01762941
v 0.00927521 0.06160165 -0.01289497
v 0.00881083 0.06209971 -0.01227819
v 0.00892751 0.06014515 -0.01471925
v 0.01786967 0.05680524 -0.01623080
v 0.01761298 0.05835801 -0.01451945
v 0.02028489 0.05713170 -0.01499289
v 0.01824537 0.05547848 -0.01762941
v 0.01379296 0.05819059 -0.01595715
v 0.01541478 0.05796877 -0.01569220
v 0.01866074 0.05880583 -0.01350307
v 0.02104563 0.05840823 -0.01295578
v 0.01879376 0.05969313 -0.01215223
v 0.01834105 0.06021211 -0.01160495
v 0.02190671 0.05826592 -0.01273861
v 0.02365920 0.05806503 -0.01215223
v 0.02405357 0.05827848 -0.01163970
v 0.02405357 0.07383543 0.02670923
v 0.01541478 0.07383543 0.02670923
v 0.01379296 0.07383543 0.02669620
v 0.00568154 0.07545934 0.02670488
v 0.02190671 0.07545934 0.02670923
v 0.01866074 0.07708326 0.02670923
v 0.00021404 0.07810867 0.02672226
v 0.00696500 0.06497086 -0.00821266
v 0.00730336 0.06363573 -0.01028886
v 0.00021404 0.07341690 0.00737189
v 0.00243558 0.07852302 0.01703621
v 0.00568154 0.06841122 -0.00209699
v 0.01054933 0.07852302 0.01703621
v 0.00892751 0.07422886 0.00890949
v 0.01054933 0.07632571 0.01287947
v 0.00730336 0.06839447 -0.00205789
v 0.00730336 0.06795501 -0.00287013
v 0.01051432 0.07499896 0.01039063
v 0.01103237 0.07463902 0.00974779
v 0.00730336 0.06730210 -0.00405591
v 0.00730336 0.06669522 -0.00515048
v 0.00730336 0.06623484 -0.00596272
v 0.00892751 0.06301212 -0.01090564
v 0.00987026 0.06006981 -0.01462804
v 0.01046765 0.05943783 -0.01526653
v 0.01255851 0.05834126 -0.01613089
v 0.01095303 0.05998192 -0.01451945
v 0.01054933 0.05737026 -0.01762941
v 0.01054933 0.06205367 -0.01191334
v 0.01054933 0.06147191 -0.01272558
v 0.01705759 0.05783483 -0.01530997
v 0.01653021 0.05850449 -0.01470188
v 0.01705759 0.05896906 -0.01390701
v 0.01703893 0.05580913 -0.01762941
v 0.01379296 0.05884769 -0.01514492
v 0.01541478 0.05864679 -0.01488430
v 0.01703893 0.05985636 -0.01270386
v 0.01703893 0.06042557 -0.01189162
v 0.02041791 0.05904440 -0.01231728
v 0.02190671 0.05880583 -0.01193071
v 0.01717194 0.06131286 -0.01053210
v 0.02028489 0.06312930 -0.00624505
v 0.02266744 0.06003215 -0.00971117
v 0.02320650 0.05858820 -0.01160495
v 0.02405357 0.05864679 -0.01109241
v 0.02405357 0.07545934 0.02665711
v 0.02353086 0.07545934 0.02667014
v 0.02028489 0.07708326 0.02669620
v 0.01379296 0.07870718 0.02668317
v 0.00021404 0.07870718 0.02670054
v 0.00742470 0.06453558 -0.00882075
v 0.00742470 0.06536009 -0.00745254
v 0.00804543 0.06490389 -0.00809539
v 0.00021404 0.07772363 0.01552467
v 0.00021404 0.07987489 0.01959889
v 0.01217114 0.07799149 0.01604589
v 0.00021404 0.08105935 0.02184449
v 0.01217114 0.07923453 0.01838705
v 0.01217114 0.07851884 0.01703621
v 0.01379296 0.08089612 0.02154913
v 0.01335425 0.07795800 0.01611105
v 0.00857748 0.06662407 -0.00502017
v 0.00892751 0.06351017 -0.01009775
v 0.01023663 0.06338880 -0.00990229
v 0.01068701 0.06294515 -0.01048432
v 0.01541478 0.05621511 -0.01762941
v 0.01175577 0.05709821 -0.01762941
v 0.01217114 0.05985217 -0.01435005
v 0.01217114 0.06187789 -0.01165273
v 0.01217114 0.06259358 -0.01054513
v 0.01217114 0.06127938 -0.01246496
v 0.01217114 0.06046742 -0.01353781
v 0.01544511 0.05954246 -0.01369418
v 0.01600750 0.05999029 -0.01290800
v 0.01379296 0.05965965 -0.01408510
v 0.01438568 0.06161002 -0.01128353
v 0.01541478 0.06147609 -0.01107938
v 0.01671923 0.06182766 -0.00998047
v 0.01941681 0.06327160 -0.00646222
v 0.02028489 0.06364829 -0.00543715
v 0.02154734 0.06344739 -0.00511139
v 0.02190671 0.06204530 -0.00705728
v 0.02405357 0.05953827 -0.00975027
v 0.02190671 0.07708326 0.02662236
v 0.02405357 0.07714186 0.02630528
v 0.01541478 0.07870718 0.02663973
v 0.01379296 0.08020553 0.02630963
v 0.01217114 0.08023065 0.02630963
v 0.00021404 0.07966981 0.02646599
v 0.00892751 0.06530150 -0.00714415
v 0.00892751 0.06481600 -0.00795639
v 0.00021404 0.08132721 0.02236137
v 0.01379296 0.08132721 0.02236137
v 0.01217114 0.08090031 0.02154913
v 0.01217114 0.08023483 0.02028517
v 0.01541478 0.08123932 0.02252642
v 0.01486172 0.07957773 0.01936868
v 0.01379296 0.07963633 0.01925575
v 0.01285954 0.07625875 0.01300109
v 0.01119572 0.06812661 -0.00156708
v 0.01217114 0.06627250 -0.00442077
v 0.00904185 0.06618880 -0.00560655
v 0.01217114 0.07329552 0.00764987
v 0.01217114 0.07154186 0.00463113
v 0.01293655 0.06490389 -0.00647525
v 0.01217114 0.06368177 -0.00876863
v 0.01217114 0.06319627 -0.00957652
v 0.01379296 0.06303304 -0.00930288
v 0.01330291 0.06174395 -0.01146595
v 0.01382330 0.06215830 -0.01066240
v 0.01379296 0.06027071 -0.01327720
v 0.01541478 0.06202437 -0.01026714
v 0.01703893 0.06310838 -0.00782609
v 0.01833638 0.06342646 -0.00671849
v 0.02091495 0.06486204 -0.00316115
v 0.02190671 0.06470718 -0.00290488
v 0.02405357 0.06166862 -0.00649263
v 0.02201639 0.06292422 -0.00566301
v 0.02201639 0.06387011 -0.00418622
v 0.02262778 0.06325487 -0.00481603
v 0.02353086 0.06042138 -0.00868176
v 0.02405357 0.06019956 -0.00874691
v 0.01703893 0.07870718 0.02654852
v 0.02190671 0.07839328 0.02624882
v 0.01866074 0.07870718 0.02643559
v 0.02405357 0.07762317 0.02607073
v 0.02319249 0.07812123 0.02610982
v 0.01541478 0.08005486 0.02627053
v 0.01379296 0.08101749 0.02584921
v 0.01217114 0.08104260 0.02587527
v 0.00021404 0.08023065 0.02631397
v 0.01054933 0.06514246 -0.00687051
v 0.01230415 0.06541032 -0.00583241
v 0.00021404 0.08171644 0.02352977
v 0.00243558 0.08172063 0.02352977
v 0.01379296 0.08172063 0.02352977
v 0.01541478 0.08079567 0.02171853
v 0.01541478 0.08154485 0.02352977
v 0.01626419 0.08114724 0.02270016
v 0.01540778 0.07992512 0.02018961
v 0.01594216 0.07944799 0.01958586
v 0.01541478 0.07775292 0.01646721
v 0.01465637 0.07304021 0.00808857
v 0.01335892 0.06662407 -0.00339570
v 0.01443702 0.07786592 0.01627610
v 0.01217114 0.06743185 -0.00243144
v 0.01272886 0.06972960 0.00170794
v 0.01385830 0.06616368 -0.00398642
v 0.01379296 0.06480763 -0.00631020
v 0.01498074 0.06338042 -0.00826913
v 0.01547778 0.06290330 -0.00885550
v 0.01606117 0.06324649 -0.00804326
v 0.01983218 0.06500852 -0.00340438
v 0.02028489 0.06623484 -0.00111535
v 0.02125798 0.06658222 -0.00008159
v 0.02184370 0.06604231 -0.00069837
v 0.02190671 0.06519268 -0.00209264
v 0.02298014 0.06501690 -0.00179294
v 0.02353086 0.06360643 -0.00374318
v 0.02405357 0.06218341 -0.00568907
v 0.02405357 0.06090270 -0.00766972
v 0.02405357 0.06033349 -0.00854277
v 0.02353086 0.06309582 -0.00455542
v 0.02022655 0.07880763 0.02627053
v 0.02073060 0.07941869 0.02587093
v 0.01964783 0.07954843 0.02599255
v 0.02405357 0.07816308 0.02569719
v 0.02190671 0.07920524 0.02564941
v 0.01541478 0.08086682 0.02567547
v 0.01541478 0.08144441 0.02486324
v 0.01379296 0.08153229 0.02503697
v 0.00021404 0.08074544 0.02603599
v 0.01217114 0.08153229 0.02506304
v 0.00021404 0.08135232 0.02536274
v 0.00021404 0.08104260 0.02587527
v 0.00021404 0.08164948 0.02409443
v 0.00021404 0.08153229 0.02506304
v 0.01689891 0.08063244 0.02205732
v 0.01703893 0.07978700 0.02062830
v 0.01703893 0.08126443 0.02455485
v 0.01793034 0.08115979 0.02437676
v 0.01793034 0.08115979 0.02426383
v 0.01689891 0.08124350 0.02364705
v 0.01734462 0.08101331 0.02318229
v 0.02274212 0.07952751 0.02270016
v 0.02190671 0.07963214 0.02250905
v 0.01703893 0.07802915 0.01762259
v 0.01611251 0.07462228 0.01140701
v 0.01541478 0.06637714 -0.00297438
v 0.01547778 0.06375711 -0.00742214
v 0.01866074 0.06468207 -0.00447289
v 0.01703893 0.06723932 -0.00081130
v 0.02028489 0.07105217 0.00708956
v 0.01896410 0.06640643 -0.00140202
v 0.02078194 0.06970031 0.00500032
v 0.02244576 0.07782407 0.01958586
v 0.02257410 0.07298581 0.01142439
v 0.02234075 0.06641899 0.00020074
v 0.02266511 0.06813917 0.00327595
v 0.02405357 0.06510897 -0.00093292
v 0.02405357 0.06422168 -0.00241406
v 0.02405357 0.06394545 -0.00287448
v 0.02405357 0.06335950 -0.00382571
v 0.02292647 0.06986353 0.00634682
v 0.02405357 0.06905158 0.00570397
v 0.02405357 0.06789223 0.00374939
v 0.02405357 0.06761600 0.00328463
v 0.02405357 0.06274007 -0.00481603
v 0.02190671 0.07982467 0.02483717
v 0.02405357 0.07866533 0.02519334
v 0.02300348 0.07964888 0.02455919
v 0.02190671 0.07918013 0.02169681
v 0.01938648 0.07949403 0.02113215
v 0.01830371 0.07963214 0.02090194
v 0.01877275 0.07918013 0.02032860
v 0.02190671 0.07994186 0.02352977
v 0.02294980 0.07962377 0.02352977
v 0.02405357 0.07914246 0.02352977
v 0.02405357 0.07854814 0.02200520
v 0.02405357 0.07668984 0.01876928
v 0.02305715 0.07642617 0.01758350
v 0.01703893 0.07322019 0.00940465
v 0.01664456 0.07150837 0.00631207
v 0.01954516 0.07466832 0.01294896
v 0.02028489 0.07762317 0.01831321
v 0.02136533 0.07796219 0.01935565
v 0.02190671 0.07747250 0.01875190
v 0.02190671 0.07831376 0.02018961
v 0.02285880 0.07470598 0.01450394
v 0.02405357 0.06993468 0.00720249
v 0.01866074 0.07653917 0.01576791
v 0.02405357 0.07475621 0.01543780
v 0.02405357 0.07244171 0.01147651
f 1 2 3
f 1 3 9
f 1 9 17
f 1 17 25
f 1 25 39
f 1 39 58
f 1 58 94
f 1 94 138
f 1 138 177
f 1 177 176
f 1 176 144
f 1 144 101
f 1 101 64
f 1 64 61
f 1 61 40
f 1 40 26
f 1 26 18
f 1 18 10
f 1 10 4
f 1 4 12
f 1 12 20
f 1 20 31
f 1 31 45
f 1 45 44
f 1 44 70
f 1 70 110
f 1 110 155
f 1 155 193
f 1 193 232
f 1 232 272
f 1 272 271
f 1 271 227
f 1 227 270
f 1 270 318
f 1 318 313
f 1 313 312
f 1 312 311
f 1 311 310
f 1 310 317
f 1 317 316
f 1 316 315
f 1 315 340
f 1 340 343
f 1 343 342
f 1 342 330
f 1 330 329
f 1 329 328
f 1 328 320
f 1 320 277
f 1 277 236
f 1 236 195
f 1 195 156
f 1 156 111
f 1 111 71
f 1 71 47
f 1 47 33
f 1 33 21
f 1 21 13
f 1 13 5
f 1 5 6
f 1 6 7
f 1 7 8
f 1 8 2
f 2 8 7
f 2 7 6
f 2 6 15
f 2 15 14
f 2 14 22
f 2 22 32
f 2 32 46
f 2 46 49
f 2 49 48
f 2 48 75
f 2 75 117
f 2 117 160
f 2 160 199
f 2 199 241
f 2 241 282
f 2 282 285
f 2 285 284
f 2 284 287
f 2 287 286
f 2 286 244
f 2 244 202
f 2 202 167
f 2 167 165
f 2 165 164
f 2 164 120
f 2 120 80
f 2 80 79
f 2 79 76
f 2 76 50
f 2 50 35
f 2 35 34
f 2 34 23
f 2 23 16
f 2 16 9
f 2 9 3
f 4 10 11
f 4 11 12
f 5 13 14
f 5 14 15
f 5 15 6
f 9 16 17
f 10 18 19
f 10 19 11
f 11 19 20
f 11 20 12
f 13 21 14
f 14 21 22
f 16 23 24
f 16 24 17
f 17 24 25
f 18 26 27
f 18 27 19
f 19 27 28
f 19 28 29
f 19 29 30
f 19 30 20
f 20 30 31
f 21 32 22
f 21 33 32
f 23 34 24
f 24 34 35
f 24 35 36
f 24 36 51
f 24 51 37
f 24 37 25
f 25 38 39
f 25 37 38
f 26 40 27
f 27 40 28
f 28 40 41
f 28 41 42
f 28 42 43
f 28 43 29
f 29 31 30
f 29 43 44
f 29 44 45
f 29 45 31
f 32 33 46
f 33 47 48
f 33 48 49
f 33 49 46
f 35 50 36
f 36 50 52
f 36 52 53
f 36 53 51
f 37 51 54
f 37 54 55
f 37 55 38
f 38 55 56
f 38 56 57
f 38 57 39
f 39 57 59
f 39 59 60
f 39 60 58
f 40 61 41
f 41 61 42
f 42 62 63
f 42 63 43
f 42 61 64
f 42 64 62
f 43 65 66
f 43 66 67
f 43 67 68
f 43 68 69
f 43 69 44
f 43 63 65
f 44 69 70
f 47 71 72
f 47 72 48
f 48 72 73
f 48 73 74
f 48 74 75
f 50 76 52
f 51 77 54
f 51 53 78
f 51 78 77
f 52 76 79
f 52 79 80
f 52 80 81
f 52 81 82
f 52 82 83
f 52 83 84
f 52 84 53
f 53 84 85
f 53 85 86
f 53 86 87
f 53 87 78
f 54 88 59
f 54 59 55
f 54 77 89
f 54 89 88
f 55 59 90
f 55 90 56
f 56 90 59
f 56 59 57
f 58 60 91
f 58 91 92
f 58 92 93
f 58 93 94
f 59 95 60
f 59 88 89
f 59 89 96
f 59 96 95
f 60 95 97
f 60 97 91
f 62 64 98
f 62 98 99
f 62 99 63
f 63 99 100
f 63 100 65
f 64 101 102
f 64 102 103
f 64 103 98
f 65 100 66
f 66 100 99
f 66 99 104
f 66 104 67
f 67 104 68
f 68 105 69
f 68 104 106
f 68 106 107
f 68 107 105
f 69 105 108
f 69 108 70
f 70 108 109
f 70 109 110
f 71 111 112
f 71 112 113
f 71 113 72
f 72 113 73
f 73 113 74
f 74 113 114
f 74 114 75
f 75 114 113
f 75 113 112
f 75 112 111
f 75 111 115
f 75 115 116
f 75 116 117
f 77 78 89
f 78 87 118
f 78 118 119
f 78 119 89
f 80 120 81
f 81 120 121
f 81 121 123
f 81 123 82
f 82 122 83
f 82 123 124
f 82 124 125
f 82 125 122
f 83 122 85
f 83 85 84
f 85 126 127
f 85 127 86
f 85 122 128
f 85 128 129
f 85 129 126
f 86 127 130
f 86 130 131
f 86 131 87
f 87 131 132
f 87 132 118
f 89 119 133
f 89 133 96
f 91 97 92
f 92 97 134
f 92 134 135
f 92 135 93
f 93 136 94
f 93 135 137
f 93 137 136
f 94 136 138
f 95 137 134
f 95 134 97
f 95 96 139
f 95 139 140
f 95 140 137
f 96 133 139
f 98 103 141
f 98 141 99
f 99 141 103
f 99 103 142
f 99 142 143
f 99 143 104
f 101 144 102
f 102 144 136
f 102 136 145
f 102 145 146
f 102 146 142
f 102 142 103
f 104 143 147
f 104 147 148
f 104 148 106
f 105 107 149
f 105 149 150
f 105 150 108
f 106 148 107
f 107 150 149
f 107 148 151
f 107 151 152
f 107 152 153
f 107 153 150
f 108 150 154
f 108 154 155
f 108 155 110
f 108 110 109
f 111 156 157
f 111 157 115
f 115 157 158
f 115 158 116
f 116 158 159
f 116 159 117
f 117 159 160
f 118 161 119
f 118 132 162
f 118 162 163
f 118 163 161
f 119 161 163
f 119 163 133
f 120 164 121
f 121 164 165
f 121 165 123
f 122 125 166
f 122 166 128
f 123 165 167
f 123 167 168
f 123 168 125
f 123 125 124
f 125 168 169
f 125 169 166
f 126 129 127
f 127 129 130
f 128 166 129
f 129 166 170
f 129 170 171
f 129 171 131
f 129 131 130
f 131 172 132
f 131 171 172
f 132 172 162
f 133 163 173
f 133 173 174
f 133 174 175
f 133 175 139
f 134 137 135
f 136 144 176
f 136 176 177
f 136 177 138
f 136 137 178
f 136 178 145
f 137 140 178
f 139 179 140
f 139 175 180
f 139 180 179
f 140 179 181
f 140 181 182
f 140 182 178
f 142 146 183
f 142 183 143
f 143 183 184
f 143 184 147
f 145 178 185
f 145 185 146
f 146 185 183
f 147 186 187
f 147 187 148
f 147 184 186
f 148 187 151
f 150 153 155
f 150 155 154
f 151 187 188
f 151 188 189
f 151 189 152
f 152 189 190
f 152 190 191
f 152 191 192
f 152 192 153
f 153 193 155
f 153 192 193
f 156 194 158
f 156 158 157
f 156 195 194
f 158 194 196
f 158 196 159
f 159 196 197
f 159 197 198
f 159 198 199
f 159 199 160
f 162 172 163
f 163 172 200
f 163 200 201
f 163 201 174
f 163 174 173
f 166 169 170
f 167 202 203
f 167 203 204
f 167 204 205
f 167 205 168
f 168 205 203
f 168 203 169
f 169 203 170
f 170 203 206
f 170 206 207
f 170 207 208
f 170 208 171
f 171 208 207
f 171 207 209
f 171 209 172
f 172 210 211
f 172 211 212
f 172 212 200
f 172 209 207
f 172 207 213
f 172 213 214
f 172 214 210
f 174 201 215
f 174 215 216
f 174 216 217
f 174 217 175
f 175 217 218
f 175 218 180
f 178 182 185
f 179 219 181
f 179 180 220
f 179 220 219
f 180 218 220
f 181 219 221
f 181 221 185
f 181 185 182
f 183 185 221
f 183 221 184
f 184 221 186
f 186 219 220
f 186 220 222
f 186 222 187
f 186 221 219
f 187 222 188
f 188 222 223
f 188 223 189
f 189 223 224
f 189 224 225
f 189 225 190
f 190 225 226
f 190 226 191
f 191 227 228
f 191 228 192
f 191 226 229
f 191 229 230
f 191 230 227
f 192 228 231
f 192 231 193
f 193 231 232
f 194 233 196
f 194 195 234
f 194 234 235
f 194 235 233
f 195 236 237
f 195 237 234
f 196 233 238
f 196 238 197
f 197 238 239
f 197 239 240
f 197 240 198
f 198 241 199
f 198 240 241
f 200 242 215
f 200 215 201
f 200 212 211
f 200 211 243
f 200 243 242
f 202 244 245
f 202 245 246
f 202 246 203
f 203 205 204
f 203 246 206
f 206 247 207
f 206 246 248
f 206 248 249
f 206 249 247
f 207 247 250
f 207 250 251
f 207 251 252
f 207 252 253
f 207 253 254
f 207 254 255
f 207 255 213
f 210 256 211
f 210 214 256
f 211 254 215
f 211 215 243
f 211 256 257
f 211 257 254
f 213 255 214
f 214 255 257
f 214 257 256
f 215 254 258
f 215 258 259
f 215 259 260
f 215 260 218
f 215 218 216
f 215 242 243
f 216 218 217
f 218 260 261
f 218 261 222
f 218 222 220
f 222 261 223
f 223 261 262
f 223 262 224
f 224 262 263
f 224 263 225
f 225 264 265
f 225 265 266
f 225 266 267
f 225 267 226
f 225 263 264
f 226 267 268
f 226 268 269
f 226 269 229
f 227 230 270
f 227 271 228
f 228 271 272
f 228 272 232
f 228 232 231
f 229 269 273
f 229 273 230
f 230 273 270
f 233 235 238
f 234 274 235
f 234 237 275
f 234 275 276
f 234 276 274
f 235 274 238
f 236 277 237
f 237 277 278
f 237 278 275
f 238 274 276
f 238 276 239
f 239 279 280
f 239 280 281
f 239 281 240
f 239 276 279
f 240 282 241
f 240 281 283
f 240 283 284
f 240 284 285
f 240 285 282
f 244 286 245
f 245 286 287
f 245 287 283
f 245 283 246
f 246 283 281
f 246 281 280
f 246 280 248
f 247 249 288
f 247 288 289
f 247 289 250
f 248 280 290
f 248 290 291
f 248 291 292
f 248 292 293
f 248 293 249
f 249 293 292
f 249 292 294
f 249 294 295
f 249 295 296
f 249 296 288
f 250 289 251
f 251 289 297
f 251 297 298
f 251 298 253
f 251 253 252
f 253 298 299
f 253 299 258
f 253 258 254
f 254 257 255
f 258 299 300
f 258 300 260
f 258 260 259
f 260 300 262
f 260 262 261
f 262 301 263
f 262 300 302
f 262 302 303
f 262 303 304
f 262 304 301
f 263 301 305
f 263 305 264
f 264 305 265
f 265 305 306
f 265 306 307
f 265 307 266
f 266 308 267
f 266 307 309
f 266 309 308
f 267 308 268
f 268 310 311
f 268 311 312
f 268 312 313
f 268 313 269
f 268 308 309
f 268 309 314
f 268 314 315
f 268 315 316
f 268 316 317
f 268 317 310
f 269 313 318
f 269 318 273
f 270 273 318
f 275 278 319
f 275 319 291
f 275 291 290
f 275 290 279
f 275 279 276
f 277 320 278
f 278 320 321
f 278 321 319
f 279 290 280
f 283 287 284
f 288 296 322
f 288 322 323
f 288 323 324
f 288 324 289
f 289 324 325
f 289 325 297
f 291 319 321
f 291 321 292
f 292 326 295
f 292 295 294
f 292 321 326
f 295 326 327
f 295 327 328
f 295 328 329
f 295 329 330
f 295 330 331
f 295 331 306
f 295 306 322
f 295 322 296
f 297 325 332
f 297 332 298
f 298 332 333
f 298 333 299
f 299 302 300
f 299 333 302
f 301 304 305
f 302 333 334
f 302 334 303
f 303 334 335
f 303 335 336
f 303 336 337
f 303 337 306
f 303 306 305
f 303 305 304
f 306 337 338
f 306 338 322
f 306 331 339
f 306 339 307
f 307 339 314
f 307 314 309
f 314 339 315
f 315 339 340
f 320 328 321
f 321 328 327
f 321 327 326
f 322 338 323
f 323 338 324
f 324 338 325
f 325 338 336
f 325 336 335
f 325 335 341
f 325 341 332
f 330 342 331
f 331 342 343
f 331 343 339
f 332 341 335
f 332 335 334
f 332 334 333
f 336 338 337
f 339 343 340

