# https://github.com/mikedh/trimesh
v -0.02745154 -0.05750608 -0.00997715
v -0.02745154 -0.05522357 -0.01304407
v -0.02386336 -0.05820770 -0.01110114
v -0.02475431 -0.05862808 -0.01001822
v -0.02477056 -0.05864881 -0.00997715
v -0.02745154 -0.04756195 -0.00997715
v -0.02278284 -0.05844750 -0.01139329
v -0.02745154 -0.05391506 -0.01449423
v -0.02677453 -0.05466701 -0.01403196
v -0.02548549 -0.05496898 -0.01436517
v -0.02440497 -0.05519989 -0.01463619
v -0.02340570 -0.05879387 -0.01055557
v -0.02469203 -0.05868137 -0.00997715
v -0.02416937 -0.03392022 -0.02196207
v -0.02745154 -0.03318307 -0.02196207
v 0.00021404 -0.05456932 -0.00997715
v -0.02353027 -0.05537160 -0.01485090
v -0.02190814 -0.05648176 -0.01420795
v -0.02028330 -0.05823435 -0.01275310
v -0.02190814 -0.05859552 -0.01159039
v -0.01792999 -0.06006982 -0.01139798
v -0.01901322 -0.05988923 -0.01113047
v -0.02028330 -0.05967904 -0.01081252
v -0.02179169 -0.05944221 -0.01041126
v -0.02201646 -0.05965832 -0.00997715
v -0.02345986 -0.05916688 -0.00997715
v -0.02745154 -0.05368710 -0.01474414
v -0.02677453 -0.05385585 -0.01491543
v -0.02498721 -0.05429695 -0.01533429
v -0.02353027 -0.05466405 -0.01566280
v -0.01935172 -0.03558695 -0.02196207
v -0.02745154 -0.04588929 -0.02196207
v 0.00021404 -0.06339736 -0.00997715
v 0.00021404 -0.04293477 -0.02196207
v -0.00150017 -0.04212657 -0.02196207
v -0.02190814 -0.05567060 -0.01520758
v -0.02190814 -0.05498970 -0.01601713
v -0.02074908 -0.05668307 -0.01446373
v -0.01937610 -0.05838829 -0.01294434
v -0.01703904 -0.06021784 -0.01159391
v -0.01708778 -0.06127472 -0.00997715
v -0.01859618 -0.06079809 -0.00997715
v -0.01854743 -0.06041619 -0.01057317
v -0.02677453 -0.05305061 -0.01572733
v -0.02556944 -0.05335553 -0.01603004
v -0.02745154 -0.05230162 -0.01613328
v -0.02448621 -0.05362493 -0.01629989
v -0.02353027 -0.05385289 -0.01652750
v -0.02696409 -0.04615277 -0.02196207
v -0.02745154 -0.04696986 -0.02111380
v -0.00081503 -0.06341808 -0.00997715
v 0.00021404 -0.06297402 -0.01077028
v 0.00021404 -0.05244668 -0.02196207
v -0.01866117 -0.05702944 -0.01489079
v -0.01966586 -0.05686366 -0.01468547
v -0.02190814 -0.05417854 -0.01685484
v -0.02099823 -0.05514364 -0.01619195
v -0.01866117 -0.05633966 -0.01570152
v -0.01829287 -0.05857183 -0.01316375
v -0.01703904 -0.05958727 -0.01240464
v -0.01541691 -0.05983003 -0.01271790
v -0.01541691 -0.06044284 -0.01190718
v -0.01688197 -0.06106453 -0.01039014
v -0.01647034 -0.06144939 -0.00997715
v -0.02745154 -0.05067929 -0.01775591
v -0.02677453 -0.05061712 -0.01815952
v -0.02502783 -0.05105527 -0.01859949
v -0.02448621 -0.05200261 -0.01792252
v -0.02353027 -0.05304173 -0.01733940
v -0.02684223 -0.04621790 -0.02196207
v -0.02641165 -0.04728958 -0.02127688
v -0.02745154 -0.04707643 -0.02102815
v -0.02679078 -0.04624455 -0.02196207
v -0.00243445 -0.06342400 -0.00997715
v -0.00081232 -0.06297698 -0.01078671
v 0.00021404 -0.06216285 -0.01203858
v 0.00021404 -0.05313350 -0.02127571
v -0.00892568 -0.05244668 -0.02196207
v -0.01703904 -0.05660610 -0.01601244
v -0.01703904 -0.05729292 -0.01520171
v -0.01703904 -0.05810408 -0.01422320
v -0.01703904 -0.05877611 -0.01341130
v -0.02190814 -0.05336738 -0.01766674
v -0.01504861 -0.05532423 -0.01799878
v -0.01866117 -0.05552850 -0.01658499
v -0.01608851 -0.05675709 -0.01618139
v -0.01578250 -0.05829652 -0.01445668
v -0.01531129 -0.05891525 -0.01386771
v -0.01470198 -0.05844750 -0.01463854
v -0.01427681 -0.05997508 -0.01289741
v -0.01375957 -0.06051685 -0.01228262
v -0.01379207 -0.06141386 -0.01095331
v -0.01541691 -0.06125400 -0.01069167
v -0.01541691 -0.06169214 -0.00997715
v -0.02745154 -0.05044542 -0.01798939
v -0.02556673 -0.05010201 -0.01927529
v -0.02448621 -0.05037733 -0.01953928
v -0.02353027 -0.05223057 -0.01815013
v -0.02515240 -0.04760635 -0.02153031
v -0.02515240 -0.04841455 -0.02088032
v -0.02688285 -0.04784911 -0.02062924
v -0.02677453 -0.04898000 -0.01973052
v -0.02745154 -0.04880533 -0.01958152
v -0.02343278 -0.04792608 -0.02196207
v -0.00405929 -0.06337664 -0.00997715
v -0.00243445 -0.06296809 -0.01078905
v -0.00081232 -0.06216581 -0.01203506
v 0.00021404 -0.06154412 -0.01284931
v 0.00021404 -0.05962575 -0.01478637
v -0.00081232 -0.05911360 -0.01529909
v -0.00081232 -0.05749127 -0.01692054
v -0.00243445 -0.05668011 -0.01773127
v -0.00892568 -0.05668011 -0.01773127
v -0.01055052 -0.05504595 -0.01934921
v -0.01055052 -0.05423479 -0.02013060
v -0.01055052 -0.05232826 -0.02196207
v -0.01055052 -0.05586599 -0.01853848
v -0.02190814 -0.05255621 -0.01847747
v -0.01866117 -0.05228681 -0.01983025
v -0.01379207 -0.05553146 -0.01820410
v -0.01703904 -0.05579494 -0.01685484
v -0.01866117 -0.05147565 -0.02064098
v -0.01703904 -0.05174505 -0.02091200
v -0.01504861 -0.05369894 -0.01962023
v -0.01379207 -0.05634262 -0.01736873
v -0.01379207 -0.05707977 -0.01655683
v -0.01539524 -0.05760377 -0.01541055
v -0.01379207 -0.05789093 -0.01558889
v -0.01379207 -0.05855703 -0.01477816
v -0.01319900 -0.06008462 -0.01303938
v -0.01217265 -0.05808928 -0.01581885
v -0.01217265 -0.05873762 -0.01500695
v -0.01217265 -0.06017936 -0.01317196
v -0.01217265 -0.06086618 -0.01217233
v -0.01217265 -0.06154116 -0.01117271
v -0.01156875 -0.06243522 -0.00997715
v -0.01354563 -0.06206516 -0.00997715
v -0.02745154 -0.04962242 -0.01879543
v -0.02677453 -0.04979116 -0.01897142
v -0.02745154 -0.04902441 -0.01937854
v -0.02363859 -0.04946847 -0.02063745
v -0.02190814 -0.05003688 -0.02087798
v -0.02353027 -0.05060232 -0.01973873
v -0.02353027 -0.05141348 -0.01896203
v -0.02190814 -0.04868395 -0.02196207
v -0.02190814 -0.04922571 -0.02152914
v -0.00568142 -0.06327894 -0.00997715
v -0.00405929 -0.06292073 -0.01074564
v -0.00405929 -0.06210957 -0.01198930
v -0.00243445 -0.06215693 -0.01202568
v -0.00243445 -0.06153524 -0.01283758
v -0.00081232 -0.06154116 -0.01284696
v -0.00568142 -0.05992476 -0.01448719
v 0.00021404 -0.06124512 -0.01315436
v 0.00021404 -0.05992476 -0.01448719
v -0.00730355 -0.05911360 -0.01529909
v -0.00892568 -0.05749127 -0.01692054
v -0.01217265 -0.05493641 -0.01924596
v -0.01217265 -0.05576830 -0.01843523
v -0.01217265 -0.05243484 -0.02156199
v -0.01217265 -0.05199965 -0.02196207
v -0.01217265 -0.05412525 -0.02000154
v -0.01217265 -0.05324600 -0.02081345
v -0.01055052 -0.05667715 -0.01772541
v -0.01866117 -0.05066153 -0.02145287
v -0.02190814 -0.05173913 -0.01928820
v -0.01989875 -0.05045430 -0.02124403
v -0.01217265 -0.05657946 -0.01761277
v -0.01379207 -0.05470846 -0.01901600
v -0.01703904 -0.05093389 -0.02171451
v -0.01611830 -0.05189603 -0.02106335
v -0.01217265 -0.05727812 -0.01680087
v -0.01217265 -0.05954878 -0.01398269
v -0.01055052 -0.05971753 -0.01418566
v -0.01055052 -0.05824027 -0.01601009
v -0.01055052 -0.05890636 -0.01520054
v -0.01055052 -0.06031258 -0.01337376
v -0.00892568 -0.05986259 -0.01437221
v -0.00953499 -0.06277271 -0.00997715
v -0.02098198 -0.05026187 -0.02105748
v -0.02190814 -0.05092797 -0.02006607
v -0.02027788 -0.04947439 -0.02196207
v -0.00689192 -0.06315756 -0.00997715
v -0.00568142 -0.06145827 -0.01267684
v -0.00405929 -0.06152044 -0.01280003
v -0.00730355 -0.05992476 -0.01447428
v 0.00021404 -0.06043692 -0.01397447
v 0.00021404 -0.06073296 -0.01367529
v -0.00892568 -0.05830244 -0.01610395
v -0.01379207 -0.05389730 -0.01980091
v -0.01503507 -0.05206182 -0.02121940
v -0.01379207 -0.05223057 -0.02137427
v -0.01321254 -0.05174209 -0.02196207
v -0.01055052 -0.05742911 -0.01691468
v -0.01703904 -0.05068225 -0.02196207
v -0.01866117 -0.05012273 -0.02196207
v -0.00892568 -0.05905143 -0.01529322
v -0.00892568 -0.06042804 -0.01356031
v -0.00892568 -0.06286448 -0.00997715
v -0.02007478 -0.04956024 -0.02196207
v -0.00758789 -0.06305987 -0.00997715
v -0.01554689 -0.05112928 -0.02196207
v -0.01379207 -0.05159407 -0.02196207
v -0.00818908 -0.06297402 -0.00997715
f 1 2 3
f 1 3 4
f 1 4 5
f 1 5 13
f 1 13 26
f 1 26 25
f 1 25 42
f 1 42 41
f 1 41 64
f 1 64 94
f 1 94 137
f 1 137 136
f 1 136 179
f 1 179 199
f 1 199 204
f 1 204 201
f 1 201 183
f 1 183 147
f 1 147 105
f 1 105 74
f 1 74 51
f 1 51 33
f 1 33 16
f 1 16 6
f 1 6 15
f 1 15 32
f 1 32 50
f 1 50 72
f 1 72 103
f 1 103 140
f 1 140 138
f 1 138 95
f 1 95 65
f 1 65 46
f 1 46 27
f 1 27 8
f 1 8 2
f 2 7 3
f 2 8 9
f 2 9 10
f 2 10 11
f 2 11 7
f 3 7 4
f 4 7 12
f 4 12 13
f 4 13 5
f 6 14 15
f 6 16 14
f 7 17 18
f 7 18 19
f 7 19 20
f 7 20 21
f 7 21 22
f 7 22 23
f 7 23 24
f 7 24 25
f 7 25 26
f 7 26 12
f 7 11 17
f 8 27 9
f 9 27 28
f 9 28 10
f 10 28 29
f 10 29 30
f 10 30 11
f 11 30 17
f 12 26 13
f 14 31 35
f 14 35 34
f 14 34 53
f 14 53 78
f 14 78 116
f 14 116 161
f 14 161 193
f 14 193 203
f 14 203 202
f 14 202 195
f 14 195 196
f 14 196 200
f 14 200 182
f 14 182 145
f 14 145 104
f 14 104 73
f 14 73 70
f 14 70 49
f 14 49 32
f 14 32 15
f 14 16 31
f 16 33 52
f 16 52 76
f 16 76 108
f 16 108 154
f 16 154 188
f 16 188 187
f 16 187 155
f 16 155 109
f 16 109 77
f 16 77 53
f 16 53 34
f 16 34 35
f 16 35 31
f 17 36 18
f 17 30 37
f 17 37 36
f 18 36 38
f 18 38 19
f 19 38 39
f 19 39 40
f 19 40 20
f 20 40 21
f 21 40 41
f 21 41 42
f 21 42 43
f 21 43 22
f 22 43 42
f 22 42 23
f 23 42 25
f 23 25 24
f 27 44 45
f 27 45 28
f 27 46 44
f 28 45 47
f 28 47 29
f 29 47 30
f 30 47 48
f 30 48 37
f 32 49 50
f 33 51 52
f 36 54 55
f 36 55 38
f 36 37 54
f 37 48 56
f 37 56 57
f 37 57 58
f 37 58 54
f 38 55 59
f 38 59 39
f 39 59 60
f 39 60 40
f 40 60 61
f 40 61 62
f 40 62 63
f 40 63 41
f 41 63 64
f 44 46 65
f 44 65 66
f 44 66 45
f 45 66 67
f 45 67 68
f 45 68 47
f 47 69 48
f 47 68 69
f 48 69 83
f 48 83 56
f 49 70 50
f 50 71 72
f 50 70 73
f 50 73 71
f 51 74 75
f 51 75 52
f 52 75 76
f 53 77 78
f 54 58 79
f 54 79 80
f 54 80 81
f 54 81 82
f 54 82 59
f 54 59 55
f 56 83 84
f 56 84 57
f 57 84 85
f 57 85 86
f 57 86 79
f 57 79 58
f 59 82 60
f 60 82 61
f 61 82 87
f 61 87 88
f 61 88 89
f 61 89 90
f 61 90 62
f 62 90 91
f 62 91 92
f 62 92 93
f 62 93 63
f 63 93 64
f 64 93 94
f 65 95 66
f 66 95 96
f 66 96 67
f 67 96 97
f 67 97 68
f 68 98 69
f 68 97 98
f 69 98 118
f 69 118 83
f 71 99 100
f 71 100 72
f 71 73 99
f 72 100 101
f 72 101 102
f 72 102 103
f 73 104 99
f 74 105 106
f 74 106 75
f 75 106 107
f 75 107 76
f 76 107 108
f 77 109 110
f 77 110 111
f 77 111 112
f 77 112 113
f 77 113 78
f 78 114 115
f 78 115 116
f 78 113 117
f 78 117 114
f 79 86 80
f 80 87 81
f 80 86 87
f 81 87 82
f 83 118 122
f 83 122 119
f 83 119 84
f 84 120 121
f 84 121 85
f 84 119 122
f 84 122 123
f 84 123 124
f 84 124 120
f 85 121 86
f 86 121 120
f 86 120 125
f 86 125 126
f 86 126 127
f 86 127 87
f 87 89 88
f 87 127 89
f 89 127 126
f 89 126 128
f 89 128 129
f 89 129 90
f 90 130 91
f 90 129 131
f 90 131 132
f 90 132 130
f 91 130 133
f 91 133 134
f 91 134 92
f 92 135 136
f 92 136 137
f 92 137 93
f 92 134 135
f 93 137 94
f 95 138 139
f 95 139 96
f 96 139 140
f 96 140 97
f 97 140 103
f 97 103 102
f 97 102 101
f 97 101 100
f 97 100 141
f 97 141 142
f 97 142 143
f 97 143 144
f 97 144 98
f 98 144 118
f 99 104 142
f 99 142 100
f 100 142 141
f 104 145 146
f 104 146 142
f 105 147 148
f 105 148 106
f 106 148 149
f 106 149 150
f 106 150 107
f 107 150 151
f 107 151 152
f 107 152 108
f 108 152 153
f 108 153 154
f 109 155 110
f 110 155 153
f 110 153 156
f 110 156 157
f 110 157 113
f 110 113 112
f 110 112 111
f 113 157 117
f 114 158 115
f 114 117 159
f 114 159 158
f 115 158 116
f 116 160 161
f 116 158 162
f 116 162 163
f 116 163 160
f 117 157 164
f 117 164 159
f 118 165 122
f 118 144 166
f 118 166 167
f 118 167 165
f 120 159 168
f 120 168 125
f 120 124 169
f 120 169 159
f 122 165 123
f 123 165 170
f 123 170 171
f 123 171 124
f 124 171 169
f 125 168 126
f 126 168 172
f 126 172 128
f 128 172 131
f 128 131 129
f 130 132 173
f 130 173 174
f 130 174 133
f 131 172 175
f 131 175 176
f 131 176 174
f 131 174 132
f 132 174 173
f 133 177 134
f 133 174 178
f 133 178 177
f 134 177 179
f 134 179 135
f 135 179 136
f 138 140 139
f 142 180 143
f 142 146 180
f 143 181 144
f 143 180 181
f 144 181 166
f 145 182 146
f 146 182 180
f 147 183 149
f 147 149 148
f 149 184 185
f 149 185 150
f 149 183 184
f 150 185 151
f 151 185 186
f 151 186 152
f 152 186 153
f 153 155 187
f 153 187 188
f 153 188 154
f 153 186 156
f 156 186 189
f 156 189 157
f 157 189 164
f 158 169 190
f 158 190 191
f 158 191 192
f 158 192 162
f 158 159 169
f 159 164 168
f 160 193 161
f 160 163 193
f 162 192 193
f 162 193 163
f 164 189 194
f 164 194 168
f 165 195 170
f 165 167 196
f 165 196 195
f 166 181 180
f 166 180 167
f 167 180 196
f 168 194 175
f 168 175 172
f 169 171 191
f 169 191 190
f 170 195 171
f 171 195 191
f 174 176 178
f 175 194 197
f 175 197 178
f 175 178 176
f 177 178 198
f 177 198 199
f 177 199 179
f 178 197 186
f 178 186 185
f 178 185 184
f 178 184 198
f 180 182 200
f 180 200 196
f 183 201 198
f 183 198 184
f 186 197 189
f 189 197 194
f 191 195 202
f 191 202 192
f 192 202 203
f 192 203 193
f 198 201 204
f 198 204 199

