# https://github.com/mikedh/trimesh
v 0.05845692 0.00015823 -0.01763048
v 0.05844552 -0.00081156 -0.01763048
v 0.05836000 0.00015823 -0.01777057
v 0.04951753 0.00015823 -0.01763048
v 0.05841701 -0.00103451 -0.01763048
v 0.05835430 -0.00081156 -0.01776201
v 0.05754474 -0.00081156 -0.01865497
v 0.05754474 0.00015823 -0.01865497
v 0.00021404 0.00015823 -0.02278715
v 0.00021404 -0.04788029 -0.01763048
v 0.05825738 -0.00219381 -0.01763048
v 0.05731669 -0.00406095 -0.01845820
v 0.05743072 -0.00243904 -0.01858973
v 0.05673518 -0.00243904 -0.01940141
v 0.05822887 -0.00240003 -0.01763048
v 0.05720267 -0.00981287 -0.01763048
v 0.05516736 -0.00243904 -0.02108894
v 0.05678649 -0.00081156 -0.01946665
v 0.05709435 0.00015823 -0.01913941
v 0.00021404 0.00015823 -0.02855018
v 0.00021404 -0.05678126 -0.01763048
v 0.05662115 -0.00406095 -0.01926881
v 0.05711145 -0.01045383 -0.01763048
v 0.05701453 -0.01113380 -0.01763048
v 0.05650713 -0.00568286 -0.01913406
v 0.05581159 -0.00406095 -0.02021202
v 0.05510465 -0.00406095 -0.02102370
v 0.05353683 -0.00081156 -0.02270695
v 0.05386750 0.00015823 -0.02238292
v 0.05468277 0.00015823 -0.02157338
v 0.05516736 0.00015823 -0.02108894
v 0.05027008 0.00015823 -0.02592800
v 0.05678649 0.00015823 -0.01946558
v 0.00021404 -0.03915766 -0.02855125
v 0.00243749 0.00015823 -0.02855446
v 0.00730626 -0.05677569 -0.01763048
v 0.00021404 -0.05475806 -0.01965379
v 0.00243749 -0.05424529 -0.02016711
v 0.00893109 -0.05424529 -0.02016711
v 0.00893109 -0.05586720 -0.01854375
v 0.05684919 -0.01217606 -0.01763048
v 0.05672947 -0.01217606 -0.01777485
v 0.05679219 -0.01135117 -0.01784971
v 0.05496782 -0.00568286 -0.02088147
v 0.05415256 -0.00568286 -0.02163540
v 0.04801813 -0.00730476 -0.02697387
v 0.04814925 -0.00568286 -0.02710862
v 0.04827468 -0.00406095 -0.02724443
v 0.04839440 -0.00243904 -0.02737490
v 0.04928378 -0.00243904 -0.02656322
v 0.04942061 -0.00081156 -0.02664129
v 0.05023017 -0.00081156 -0.02588629
v 0.05353683 0.00015823 -0.02270909
v 0.04946052 0.00015823 -0.02664985
v 0.00021404 -0.04138151 -0.02855125
v 0.00243749 -0.04300342 -0.02855446
v 0.04462594 0.00015823 -0.02855446
v 0.00893109 -0.05667536 -0.01772459
v 0.00893109 -0.05676454 -0.01763048
v 0.00021404 -0.05424529 -0.02016604
v 0.00243749 -0.05180965 -0.02260108
v 0.00730626 -0.05180965 -0.02260108
v 0.00730626 -0.04856026 -0.02583603
v 0.00893109 -0.05342598 -0.02097772
v 0.01055021 -0.05499772 -0.01930303
v 0.01055021 -0.05580589 -0.01849242
v 0.05679789 -0.01240457 -0.01763048
v 0.05660405 -0.01326290 -0.01763048
v 0.05509325 -0.01258850 -0.01939393
v 0.05578879 -0.01209803 -0.01877688
v 0.05544672 -0.00892667 -0.01976073
v 0.05480819 -0.00730476 -0.02072855
v 0.05383899 -0.00892667 -0.02136377
v 0.05399862 -0.00730476 -0.02150600
v 0.04779578 -0.01054858 -0.02665305
v 0.04711165 -0.00840276 -0.02762514
v 0.04720856 -0.00730476 -0.02769465
v 0.04733969 -0.00568286 -0.02778556
v 0.04746512 -0.00406095 -0.02785400
v 0.04845712 -0.00081156 -0.02745297
v 0.04845712 0.00015823 -0.02746152
v 0.00021404 -0.04300342 -0.02854804
v 0.00243749 -0.04462533 -0.02831063
v 0.00021404 -0.04462533 -0.02830635
v 0.01055021 -0.04300342 -0.02855446
v 0.04625077 0.00015823 -0.02836624
v 0.04462594 -0.00568286 -0.02855446
v 0.01055021 -0.05662520 -0.01763048
v 0.00021404 -0.04856026 -0.02583817
v 0.00568144 -0.04856026 -0.02583710
v 0.00081266 -0.04856026 -0.02583817
v 0.00730626 -0.04775210 -0.02658675
v 0.00893109 -0.04769636 -0.02656536
v 0.01055021 -0.05418956 -0.02008797
v 0.01217504 -0.05484166 -0.01914583
v 0.01217504 -0.05563311 -0.01833415
v 0.05647292 -0.01379796 -0.01763048
v 0.05520157 -0.01150723 -0.01950301
v 0.05572607 -0.01379796 -0.01841114
v 0.05492221 -0.01379796 -0.01922282
v 0.05411265 -0.01379796 -0.02003343
v 0.05346842 -0.01258850 -0.02101729
v 0.05464856 -0.00892667 -0.02057241
v 0.05367366 -0.01054858 -0.02121406
v 0.04759624 -0.01217606 -0.02649264
v 0.04670116 -0.01217606 -0.02730432
v 0.04688360 -0.01054858 -0.02746473
v 0.04699762 -0.00948403 -0.02754814
v 0.05357674 -0.01150165 -0.02112423
v 0.04589160 -0.01217606 -0.02786683
v 0.04606834 -0.01054858 -0.02794597
v 0.04637620 -0.00893782 -0.02795131
v 0.04625077 -0.00730476 -0.02816412
v 0.04758484 -0.00243904 -0.02788287
v 0.04625077 -0.00568286 -0.02826892
v 0.04764185 -0.00081156 -0.02788287
v 0.04764755 0.00015823 -0.02788287
v 0.00021404 -0.04591839 -0.02782726
v 0.01055021 -0.04462533 -0.02831063
v 0.01541899 -0.04138151 -0.02855446
v 0.01217504 -0.04300342 -0.02854269
v 0.04625077 -0.00243904 -0.02836624
v 0.04462594 -0.00730476 -0.02853948
v 0.04300112 -0.01217606 -0.02855446
v 0.01063003 -0.05660849 -0.01763048
v 0.00021404 -0.04774652 -0.02658354
v 0.00243749 -0.04775210 -0.02658675
v 0.00730626 -0.04672656 -0.02739843
v 0.00893109 -0.04671541 -0.02737704
v 0.01055021 -0.04665410 -0.02726903
v 0.01055021 -0.04754030 -0.02645735
v 0.01217504 -0.05403349 -0.01992007
v 0.01379416 -0.05383285 -0.01973828
v 0.01509973 -0.05367122 -0.01958963
v 0.01617724 -0.05353745 -0.01946023
v 0.01379416 -0.05540459 -0.01810529
v 0.01217504 -0.05626292 -0.01763048
v 0.05570897 -0.01617230 -0.01763048
v 0.05546382 -0.01541987 -0.01814379
v 0.05384470 -0.01541987 -0.01976715
v 0.05329739 -0.01379796 -0.02084511
v 0.05248782 -0.01379796 -0.02160225
v 0.05039550 -0.01651786 -0.02279571
v 0.04647882 -0.01379796 -0.02707012
v 0.04549822 -0.01477334 -0.02763263
v 0.04566926 -0.01379796 -0.02774064
v 0.04462594 -0.01379796 -0.02820048
v 0.04462594 -0.01217606 -0.02835020
v 0.04625077 -0.00406095 -0.02833737
v 0.04462594 -0.01054858 -0.02842934
v 0.00243749 -0.04672656 -0.02739843
v 0.00021404 -0.04643116 -0.02755349
v 0.00730626 -0.04591839 -0.02782726
v 0.01379416 -0.04300342 -0.02848602
v 0.01217504 -0.04462533 -0.02824540
v 0.01055021 -0.04584593 -0.02782726
v 0.00893109 -0.04590725 -0.02782726
v 0.01704382 -0.04138151 -0.02852986
v 0.02515654 -0.03651022 -0.02855446
v 0.04462594 -0.00892667 -0.02849671
v 0.04300112 -0.01379796 -0.02852986
v 0.04138200 -0.01541987 -0.02855446
v 0.00021404 -0.04737309 -0.02688191
v 0.00021404 -0.04672656 -0.02739415
v 0.01217504 -0.04570660 -0.02777272
v 0.01339508 -0.04555611 -0.02767541
v 0.01217504 -0.04651476 -0.02707333
v 0.01704382 -0.05260667 -0.02009867
v 0.01704382 -0.05341483 -0.01932442
v 0.01487168 -0.05524853 -0.01793847
v 0.01385688 -0.05579474 -0.01763048
v 0.05519016 -0.01777749 -0.01763048
v 0.05509895 -0.01762700 -0.01777485
v 0.05365656 -0.02141145 -0.01795665
v 0.05275578 -0.01708636 -0.02030078
v 0.05203174 -0.01654573 -0.02120122
v 0.05022447 -0.01759913 -0.02264385
v 0.04525307 -0.01585461 -0.02746687
v 0.04390190 -0.01803944 -0.02764118
v 0.04414705 -0.01704177 -0.02776844
v 0.04467726 -0.01535856 -0.02790212
v 0.05004203 -0.01866368 -0.02247061
v 0.04922677 -0.01866368 -0.02316144
v 0.04300112 -0.01704177 -0.02822829
v 0.04300112 -0.01541987 -0.02842934
v 0.01866294 -0.04138151 -0.02842934
v 0.01541899 -0.04300342 -0.02838121
v 0.01704382 -0.04300342 -0.02822829
v 0.01387968 -0.04475352 -0.02797163
v 0.02028777 -0.03975403 -0.02852986
v 0.02191259 -0.03975403 -0.02842934
v 0.02678137 -0.03488832 -0.02855446
v 0.03001962 -0.03326641 -0.02854162
v 0.02840049 -0.03488832 -0.02852986
v 0.02353172 -0.03813213 -0.02852879
v 0.04138200 -0.01704177 -0.02852986
v 0.03651322 -0.02515688 -0.02855446
v 0.01541899 -0.04439681 -0.02789784
v 0.01704382 -0.04411256 -0.02776844
v 0.01812703 -0.04392306 -0.02766150
v 0.01447260 -0.04537776 -0.02755135
v 0.01541899 -0.04610789 -0.02660921
v 0.01866294 -0.05233913 -0.01986340
v 0.01866294 -0.05315288 -0.01903461
v 0.01866294 -0.05386072 -0.01822293
v 0.01704382 -0.05411710 -0.01851381
v 0.01584087 -0.05523739 -0.01763048
v 0.05495642 -0.01848533 -0.01763048
v 0.05347412 -0.02249272 -0.01776736
v 0.05275578 -0.02195208 -0.01867743
v 0.05086870 -0.01866368 -0.02165893
v 0.04496231 -0.01704177 -0.02725299
v 0.04363395 -0.01912071 -0.02747329
v 0.04888470 -0.02028559 -0.02288982
v 0.04228278 -0.02128325 -0.02764011
v 0.04252793 -0.02028559 -0.02776844
v 0.04143331 -0.02186290 -0.02790640
v 0.04305243 -0.01861352 -0.02790640
v 0.05039550 -0.02129440 -0.02117984
v 0.04969997 -0.02028559 -0.02218401
v 0.05184360 -0.02249272 -0.01939820
v 0.04138200 -0.02028559 -0.02822829
v 0.04138200 -0.01866368 -0.02842934
v 0.02028777 -0.04138151 -0.02824326
v 0.01866294 -0.04307588 -0.02791923
v 0.02515654 -0.03813213 -0.02841543
v 0.02353172 -0.03975403 -0.02824112
v 0.03164444 -0.03164450 -0.02854162
v 0.03164444 -0.03326641 -0.02842934
v 0.02678137 -0.03651022 -0.02848708
v 0.03001962 -0.03488832 -0.02840474
v 0.03975717 -0.02191307 -0.02842934
v 0.03813234 -0.02353497 -0.02852986
v 0.03488839 -0.02839512 -0.02853093
v 0.03326357 -0.03001703 -0.02854162
v 0.02137098 -0.04230672 -0.02766150
v 0.01920455 -0.04366110 -0.02749040
v 0.01988869 -0.05210505 -0.01963775
v 0.01704382 -0.04582364 -0.02633865
v 0.01704382 -0.04492073 -0.02715033
v 0.01541899 -0.04520498 -0.02742089
v 0.02090919 -0.05348172 -0.01777485
v 0.01982597 -0.05366565 -0.01799194
v 0.01943830 -0.05410038 -0.01763048
v 0.01866294 -0.05435676 -0.01763048
v 0.01704382 -0.05487511 -0.01763048
v 0.05363375 -0.02237567 -0.01763048
v 0.05335440 -0.02311696 -0.01763048
v 0.05318906 -0.02353497 -0.01763048
v 0.05246502 -0.02353497 -0.01837585
v 0.05203174 -0.02141145 -0.01957893
v 0.04333749 -0.02028559 -0.02725834
v 0.04869086 -0.02111047 -0.02272513
v 0.04171836 -0.02353497 -0.02725620
v 0.04200912 -0.02237010 -0.02747329
v 0.04065795 -0.02451592 -0.02764011
v 0.04090310 -0.02353497 -0.02776844
v 0.03980278 -0.02510114 -0.02790105
v 0.03975717 -0.02353497 -0.02822722
v 0.05013325 -0.02237567 -0.02094777
v 0.05159274 -0.02353497 -0.01918646
v 0.05217996 -0.02484476 -0.01808497
v 0.02191259 -0.04145397 -0.02791923
v 0.02840049 -0.03651022 -0.02829780
v 0.02678137 -0.03813213 -0.02815236
v 0.02515654 -0.03982092 -0.02790747
v 0.03326357 -0.03164450 -0.02842934
v 0.03326357 -0.03326641 -0.02810424
v 0.03164444 -0.03488832 -0.02809247
v 0.03813234 -0.02515688 -0.02842185
v 0.03651322 -0.02677879 -0.02848922
v 0.03488839 -0.03001703 -0.02841116
v 0.02461493 -0.04068482 -0.02766043
v 0.02245420 -0.04203920 -0.02748933
v 0.02639939 -0.04727277 -0.02129640
v 0.02515654 -0.04758489 -0.02155841
v 0.02422156 -0.04862714 -0.02104188
v 0.02314404 -0.04888353 -0.02126860
v 0.02097190 -0.05187095 -0.01941959
v 0.02077806 -0.05364892 -0.01763048
v 0.02191259 -0.05244503 -0.01837799
v 0.02191259 -0.05316402 -0.01763048
v 0.02151921 -0.05334238 -0.01763048
v 0.02104602 -0.05354859 -0.01763048
v 0.05216856 -0.02574768 -0.01763048
v 0.04841721 -0.02219175 -0.02249414
v 0.04733399 -0.02321171 -0.02293901
v 0.04274457 -0.02353497 -0.02644452
v 0.04242531 -0.02477788 -0.02617931
v 0.04037289 -0.02560276 -0.02745404
v 0.03921556 -0.02677879 -0.02773208
v 0.03813234 -0.02677879 -0.02815022
v 0.05078318 -0.02353497 -0.01988158
v 0.05119366 -0.02530179 -0.01873197
v 0.05048102 -0.02467755 -0.01962599
v 0.05190631 -0.02592603 -0.01782939
v 0.03007093 -0.03659940 -0.02792672
v 0.02678137 -0.03926356 -0.02773636
v 0.03488839 -0.03164450 -0.02809782
v 0.03473446 -0.03311035 -0.02770856
v 0.03310964 -0.03473226 -0.02770856
v 0.03246541 -0.03571320 -0.02759413
v 0.03164444 -0.03601975 -0.02772246
v 0.03651322 -0.02839512 -0.02830315
v 0.02569815 -0.04040614 -0.02748933
v 0.02840049 -0.04596298 -0.02155306
v 0.02748261 -0.04700524 -0.02104295
v 0.02191259 -0.05164244 -0.01918967
v 0.02515654 -0.04839863 -0.02081196
v 0.02315544 -0.05214406 -0.01806786
v 0.02339489 -0.05245061 -0.01763048
v 0.02295590 -0.05266240 -0.01763048
v 0.05199183 -0.02608766 -0.01763048
v 0.04787560 -0.02366874 -0.02228774
v 0.04983109 -0.02353497 -0.02069326
v 0.04901583 -0.02353497 -0.02138516
v 0.04703183 -0.02429855 -0.02269732
v 0.04105133 -0.02677879 -0.02637715
v 0.04003083 -0.02677879 -0.02718882
v 0.03896471 -0.02762039 -0.02760055
v 0.03808674 -0.02826135 -0.02779946
v 0.03657593 -0.03003932 -0.02793206
v 0.04991661 -0.02677879 -0.01914476
v 0.05019027 -0.02575882 -0.01937896
v 0.04947762 -0.02512901 -0.02027298
v 0.04876498 -0.02449363 -0.02116593
v 0.05172387 -0.02657256 -0.01763048
v 0.05022447 -0.02906394 -0.01776201
v 0.04914125 -0.03001703 -0.01826677
v 0.04952323 -0.02845085 -0.01869560
v 0.02956353 -0.03753018 -0.02768931
v 0.02766505 -0.03899046 -0.02761445
v 0.02828647 -0.03809311 -0.02780480
v 0.03598872 -0.03164450 -0.02772674
v 0.03570936 -0.03246382 -0.02759413
v 0.03409023 -0.03409130 -0.02759413
v 0.03798982 -0.04286965 -0.01858118
v 0.03755653 -0.04401224 -0.01803364
v 0.03651322 -0.04339357 -0.01918219
v 0.03564665 -0.04377257 -0.01944419
v 0.03435819 -0.04242377 -0.02127608
v 0.03064674 -0.03719577 -0.02751499
v 0.03919276 -0.04244049 -0.01804755
v 0.02678137 -0.04007730 -0.02720059
v 0.03067525 -0.04533317 -0.02101515
v 0.02959203 -0.04565086 -0.02128891
v 0.02832068 -0.04999824 -0.01763048
v 0.02763084 -0.05034380 -0.01763048
v 0.02639939 -0.04890024 -0.01969015
v 0.02315544 -0.05052215 -0.01969015
v 0.02840049 -0.04677115 -0.02081303
v 0.03072086 -0.04700524 -0.01942066
v 0.02438119 -0.05196571 -0.01763048
v 0.02515654 -0.05083427 -0.01837799
v 0.02515654 -0.05158113 -0.01763048
v 0.04846852 -0.02558047 -0.02091890
v 0.04881629 -0.02784334 -0.01958963
v 0.04851413 -0.02891903 -0.01934153
v 0.04707744 -0.02762039 -0.02111032
v 0.04073777 -0.02787678 -0.02610766
v 0.03968876 -0.02828922 -0.02673005
v 0.03808674 -0.03003932 -0.02708296
v 0.03715745 -0.03059110 -0.02748719
v 0.03751092 -0.02950983 -0.02769145
v 0.03926687 -0.03001703 -0.02622101
v 0.04910705 -0.02677879 -0.01983238
v 0.05040121 -0.02894133 -0.01763048
v 0.05027008 -0.02917542 -0.01763048
v 0.05011044 -0.02944852 -0.01763048
v 0.04883339 -0.03105371 -0.01799728
v 0.04817776 -0.03001703 -0.01907845
v 0.03899322 -0.03088093 -0.02600072
v 0.04336600 -0.03651022 -0.01913834
v 0.04400452 -0.03753576 -0.01800584
v 0.04221437 -0.03734626 -0.01948910
v 0.04243671 -0.03919111 -0.01804755
v 0.04081758 -0.04081858 -0.01804755
v 0.03859414 -0.04347717 -0.01763048
v 0.03776177 -0.04422960 -0.01763048
v 0.03674127 -0.04501548 -0.01763048
v 0.03383368 -0.04525514 -0.01931265
v 0.03456913 -0.04417387 -0.01976822
v 0.03363984 -0.04350504 -0.02085046
v 0.03164444 -0.04500990 -0.02076277
v 0.03255663 -0.04388962 -0.02115417
v 0.04023037 -0.04185527 -0.01763048
v 0.03275047 -0.04563414 -0.01965272
v 0.03164444 -0.04595183 -0.01995216
v 0.03058403 -0.04886123 -0.01763048
v 0.02963764 -0.04890024 -0.01806786
v 0.03072086 -0.04862714 -0.01779623
v 0.03164444 -0.04676000 -0.01917684
v 0.03164444 -0.04757374 -0.01836516
v 0.03164444 -0.04830945 -0.01763048
v 0.03086909 -0.04871632 -0.01763048
v 0.04905003 -0.03122649 -0.01763048
v 0.04708884 -0.03087535 -0.01949873
v 0.04566926 -0.03594172 -0.01763048
v 0.04548682 -0.03577451 -0.01789569
v 0.04458034 -0.03639318 -0.01825822
v 0.04502503 -0.03680005 -0.01763048
v 0.04422116 -0.03774755 -0.01763048
v 0.04347431 -0.03857244 -0.01763048
v 0.04286430 -0.03798164 -0.01856728
v 0.04265905 -0.03941405 -0.01763048
v 0.04185519 -0.04023336 -0.01763048
v 0.03545851 -0.04587938 -0.01763048
v 0.03572646 -0.04545579 -0.01787002
v 0.03488839 -0.04573446 -0.01815021
v 0.03329208 -0.04626396 -0.01868170
v 0.03319515 -0.04457516 -0.02025159
v 0.03275047 -0.04725605 -0.01805075
v 0.03297851 -0.04752358 -0.01763048
v 0.03454633 -0.04648690 -0.01763048
v 0.03389069 -0.04692163 -0.01763048
v 0.03329208 -0.04731736 -0.01763048
f 1 2 3
f 1 3 8
f 1 8 19
f 1 19 33
f 1 33 31
f 1 31 30
f 1 30 29
f 1 29 53
f 1 53 32
f 1 32 54
f 1 54 81
f 1 81 117
f 1 117 86
f 1 86 57
f 1 57 35
f 1 35 20
f 1 20 9
f 1 9 4
f 1 4 10
f 1 10 21
f 1 21 36
f 1 36 59
f 1 59 88
f 1 88 125
f 1 125 137
f 1 137 171
f 1 171 207
f 1 207 246
f 1 246 245
f 1 245 244
f 1 244 280
f 1 280 284
f 1 284 283
f 1 283 282
f 1 282 312
f 1 312 311
f 1 311 353
f 1 353 355
f 1 355 348
f 1 348 347
f 1 347 389
f 1 389 395
f 1 395 394
f 1 394 413
f 1 413 416
f 1 416 415
f 1 415 414
f 1 414 407
f 1 407 380
f 1 380 379
f 1 379 378
f 1 378 386
f 1 386 406
f 1 406 405
f 1 405 403
f 1 403 402
f 1 402 401
f 1 401 398
f 1 398 396
f 1 396 369
f 1 369 368
f 1 368 367
f 1 367 327
f 1 327 313
f 1 313 285
f 1 285 249
f 1 249 248
f 1 248 247
f 1 247 208
f 1 208 172
f 1 172 138
f 1 138 97
f 1 97 68
f 1 68 67
f 1 67 41
f 1 41 24
f 1 24 23
f 1 23 16
f 1 16 15
f 1 15 11
f 1 11 5
f 1 5 2
f 2 5 6
f 2 6 3
f 3 6 7
f 3 7 8
f 4 9 10
f 5 11 6
f 6 12 13
f 6 13 14
f 6 14 7
f 6 11 15
f 6 15 16
f 6 16 12
f 7 14 17
f 7 17 18
f 7 18 19
f 7 19 8
f 9 20 34
f 9 34 55
f 9 55 82
f 9 82 84
f 9 84 118
f 9 118 152
f 9 152 164
f 9 164 163
f 9 163 126
f 9 126 89
f 9 89 60
f 9 60 37
f 9 37 21
f 9 21 10
f 12 22 14
f 12 14 13
f 12 16 23
f 12 23 24
f 12 24 25
f 12 25 22
f 14 22 26
f 14 26 27
f 14 27 17
f 17 28 29
f 17 29 30
f 17 30 31
f 17 31 18
f 17 27 32
f 17 32 28
f 18 33 19
f 18 31 33
f 20 35 34
f 21 37 38
f 21 38 39
f 21 39 40
f 21 40 36
f 22 25 26
f 24 41 42
f 24 42 43
f 24 43 26
f 24 26 25
f 26 43 27
f 27 43 42
f 27 42 44
f 27 44 45
f 27 45 46
f 27 46 47
f 27 47 48
f 27 48 49
f 27 49 50
f 27 50 51
f 27 51 52
f 27 52 32
f 28 53 29
f 28 32 53
f 32 52 51
f 32 51 54
f 34 35 56
f 34 56 55
f 35 57 87
f 35 87 124
f 35 124 162
f 35 162 197
f 35 197 192
f 35 192 159
f 35 159 120
f 35 120 85
f 35 85 56
f 36 40 58
f 36 58 59
f 37 60 61
f 37 61 38
f 38 61 62
f 38 62 39
f 39 62 63
f 39 63 64
f 39 64 65
f 39 65 40
f 40 65 66
f 40 66 58
f 41 67 42
f 42 67 68
f 42 68 69
f 42 69 70
f 42 70 71
f 42 71 44
f 44 71 72
f 44 72 73
f 44 73 74
f 44 74 45
f 45 74 75
f 45 75 76
f 45 76 46
f 46 76 47
f 47 76 48
f 48 76 49
f 49 76 77
f 49 77 78
f 49 78 79
f 49 79 80
f 49 80 51
f 49 51 50
f 51 80 54
f 54 80 81
f 55 56 82
f 56 83 84
f 56 84 82
f 56 85 119
f 56 119 83
f 57 86 122
f 57 122 87
f 58 66 88
f 58 88 59
f 60 89 61
f 61 89 91
f 61 91 62
f 62 90 63
f 62 91 90
f 63 92 93
f 63 93 64
f 63 90 92
f 64 93 65
f 65 94 95
f 65 95 66
f 65 93 94
f 66 95 96
f 66 96 88
f 68 97 69
f 69 98 70
f 69 97 99
f 69 99 100
f 69 100 101
f 69 101 102
f 69 102 98
f 70 98 71
f 71 98 103
f 71 103 72
f 72 103 104
f 72 104 73
f 73 104 75
f 73 75 74
f 75 105 106
f 75 106 107
f 75 107 108
f 75 108 76
f 75 104 109
f 75 109 102
f 75 102 105
f 76 108 110
f 76 110 77
f 77 110 111
f 77 111 112
f 77 112 78
f 78 112 113
f 78 113 79
f 79 114 80
f 79 113 115
f 79 115 114
f 80 114 116
f 80 116 81
f 81 116 117
f 83 118 84
f 83 119 153
f 83 153 118
f 85 120 121
f 85 121 119
f 86 117 122
f 87 122 123
f 87 123 124
f 88 96 125
f 89 126 127
f 89 127 92
f 89 92 91
f 90 91 92
f 92 128 129
f 92 129 93
f 92 127 151
f 92 151 128
f 93 129 130
f 93 130 131
f 93 131 94
f 94 131 132
f 94 132 95
f 95 132 133
f 95 133 134
f 95 134 135
f 95 135 96
f 96 136 137
f 96 137 125
f 96 135 136
f 97 138 139
f 97 139 99
f 98 102 103
f 99 139 100
f 100 139 140
f 100 140 101
f 101 140 141
f 101 141 102
f 102 109 103
f 102 141 142
f 102 142 105
f 103 109 104
f 105 142 143
f 105 143 106
f 106 144 145
f 106 145 146
f 106 146 107
f 106 143 144
f 107 146 110
f 107 110 108
f 110 146 147
f 110 147 148
f 110 148 111
f 111 148 113
f 111 113 112
f 113 148 115
f 114 115 149
f 114 149 122
f 114 122 116
f 115 148 150
f 115 150 149
f 116 122 117
f 118 151 152
f 118 153 128
f 118 128 151
f 119 121 154
f 119 154 155
f 119 155 156
f 119 156 157
f 119 157 153
f 120 158 121
f 120 159 158
f 121 158 154
f 122 149 123
f 123 160 161
f 123 161 124
f 123 149 160
f 124 161 196
f 124 196 162
f 126 163 127
f 127 163 164
f 127 164 151
f 128 153 157
f 128 157 129
f 129 157 156
f 129 156 165
f 129 165 130
f 130 165 166
f 130 166 167
f 130 167 131
f 131 167 132
f 132 167 133
f 133 167 134
f 134 167 135
f 135 167 166
f 135 166 168
f 135 168 169
f 135 169 136
f 136 169 170
f 136 170 137
f 137 170 171
f 138 172 139
f 139 172 173
f 139 173 140
f 140 174 175
f 140 175 176
f 140 176 141
f 140 173 174
f 141 176 177
f 141 177 143
f 141 143 142
f 143 177 144
f 144 177 145
f 145 178 179
f 145 179 180
f 145 180 181
f 145 181 146
f 145 177 182
f 145 182 183
f 145 183 178
f 146 181 147
f 147 184 185
f 147 185 148
f 147 181 184
f 148 185 161
f 148 161 150
f 149 150 160
f 150 161 160
f 151 164 152
f 154 158 186
f 154 186 187
f 154 187 155
f 155 187 188
f 155 188 189
f 155 189 165
f 155 165 156
f 158 190 191
f 158 191 186
f 158 159 190
f 159 192 228
f 159 228 193
f 159 193 194
f 159 194 195
f 159 195 190
f 161 185 223
f 161 223 196
f 162 196 197
f 165 189 166
f 166 189 198
f 166 198 199
f 166 199 200
f 166 200 201
f 166 201 168
f 168 201 202
f 168 202 203
f 168 203 169
f 169 203 204
f 169 204 205
f 169 205 206
f 169 206 207
f 169 207 170
f 170 207 171
f 172 208 173
f 173 208 174
f 174 209 210
f 174 210 175
f 174 208 209
f 175 210 211
f 175 211 176
f 176 211 177
f 177 211 182
f 178 212 213
f 178 213 179
f 178 183 214
f 178 214 212
f 179 213 215
f 179 215 216
f 179 216 180
f 180 216 217
f 180 217 218
f 180 218 181
f 181 218 184
f 182 219 220
f 182 220 214
f 182 214 183
f 182 211 221
f 182 221 219
f 184 218 217
f 184 217 222
f 184 222 223
f 184 223 185
f 186 191 224
f 186 224 188
f 186 188 187
f 188 199 198
f 188 198 189
f 188 224 225
f 188 225 200
f 188 200 199
f 190 195 191
f 191 195 226
f 191 226 227
f 191 227 224
f 192 197 228
f 193 228 229
f 193 229 194
f 194 230 195
f 194 229 231
f 194 231 230
f 195 230 226
f 196 223 232
f 196 232 233
f 196 233 197
f 197 233 234
f 197 234 235
f 197 235 228
f 200 225 236
f 200 236 237
f 200 237 238
f 200 238 239
f 200 239 240
f 200 240 241
f 200 241 201
f 201 241 202
f 202 241 240
f 202 240 239
f 202 239 203
f 203 238 204
f 203 239 238
f 204 238 242
f 204 242 243
f 204 243 205
f 205 243 244
f 205 244 245
f 205 245 246
f 205 246 206
f 206 246 207
f 208 247 209
f 209 247 248
f 209 248 249
f 209 249 250
f 209 250 221
f 209 221 210
f 210 221 251
f 210 251 211
f 211 251 221
f 212 252 213
f 212 214 253
f 212 253 252
f 213 252 254
f 213 254 255
f 213 255 215
f 214 220 219
f 214 219 253
f 215 255 256
f 215 256 257
f 215 257 216
f 216 257 217
f 217 257 258
f 217 258 259
f 217 259 222
f 219 260 253
f 219 221 261
f 219 261 260
f 221 250 262
f 221 262 261
f 222 259 232
f 222 232 223
f 224 227 263
f 224 263 225
f 225 263 236
f 226 230 231
f 226 231 264
f 226 264 265
f 226 265 227
f 227 265 266
f 227 266 263
f 228 235 267
f 228 267 229
f 229 267 268
f 229 268 269
f 229 269 231
f 231 269 264
f 232 259 270
f 232 270 233
f 233 270 271
f 233 271 234
f 234 272 267
f 234 267 235
f 234 271 272
f 236 263 273
f 236 273 274
f 236 274 237
f 237 274 275
f 237 275 276
f 237 276 277
f 237 277 278
f 237 278 238
f 238 278 279
f 238 279 242
f 242 280 243
f 242 279 281
f 242 281 282
f 242 282 283
f 242 283 284
f 242 284 280
f 243 280 244
f 249 285 262
f 249 262 250
f 252 253 254
f 253 260 286
f 253 286 287
f 253 287 288
f 253 288 254
f 254 288 289
f 254 289 290
f 254 290 255
f 255 290 256
f 256 290 291
f 256 291 258
f 256 258 257
f 258 291 292
f 258 292 259
f 259 292 270
f 260 261 293
f 260 293 286
f 261 262 294
f 261 294 295
f 261 295 293
f 262 285 296
f 262 296 294
f 263 266 273
f 264 269 297
f 264 297 265
f 265 298 266
f 265 297 298
f 266 298 273
f 267 272 299
f 267 299 268
f 268 299 300
f 268 300 301
f 268 301 269
f 269 301 302
f 269 302 303
f 269 303 297
f 270 292 304
f 270 304 272
f 270 272 271
f 272 304 299
f 273 298 305
f 273 305 274
f 274 305 275
f 275 305 306
f 275 306 307
f 275 307 277
f 275 277 276
f 277 308 279
f 277 279 278
f 277 307 309
f 277 309 308
f 279 308 281
f 281 308 310
f 281 310 311
f 281 311 312
f 281 312 282
f 285 313 296
f 286 314 287
f 286 293 315
f 286 315 316
f 286 316 314
f 287 314 317
f 287 317 289
f 287 289 288
f 289 318 290
f 289 317 318
f 290 319 320
f 290 320 291
f 290 318 319
f 291 320 321
f 291 321 292
f 292 321 322
f 292 322 304
f 293 295 315
f 294 323 324
f 294 324 295
f 294 296 323
f 295 324 325
f 295 325 326
f 295 326 315
f 296 313 327
f 296 327 328
f 296 328 329
f 296 329 330
f 296 330 323
f 297 303 331
f 297 331 332
f 297 332 333
f 297 333 298
f 298 333 332
f 298 332 305
f 299 304 322
f 299 322 334
f 299 334 335
f 299 335 300
f 300 336 302
f 300 302 301
f 300 335 336
f 302 337 338
f 302 338 339
f 302 339 340
f 302 340 341
f 302 341 342
f 302 342 303
f 302 336 377
f 302 377 343
f 302 343 337
f 303 342 331
f 305 332 344
f 305 344 345
f 305 345 346
f 305 346 306
f 306 346 307
f 307 347 348
f 307 348 349
f 307 349 350
f 307 350 309
f 307 346 351
f 307 351 352
f 307 352 347
f 308 309 350
f 308 350 310
f 310 353 311
f 310 350 354
f 310 354 355
f 310 355 353
f 314 316 326
f 314 326 356
f 314 356 317
f 315 326 316
f 317 356 357
f 317 357 358
f 317 358 359
f 317 359 318
f 318 360 319
f 318 359 358
f 318 358 360
f 319 360 361
f 319 361 320
f 320 362 363
f 320 363 335
f 320 335 364
f 320 364 321
f 320 361 365
f 320 365 362
f 321 364 322
f 322 364 334
f 323 330 357
f 323 357 366
f 323 366 325
f 323 325 324
f 325 366 326
f 326 366 356
f 327 367 328
f 328 367 368
f 328 368 369
f 328 369 370
f 328 370 329
f 329 370 371
f 329 371 358
f 329 358 330
f 330 358 357
f 331 342 332
f 332 342 345
f 332 345 344
f 334 364 335
f 335 363 372
f 335 372 373
f 335 373 374
f 335 374 375
f 335 375 376
f 335 376 377
f 335 377 336
f 337 343 338
f 338 340 339
f 338 343 378
f 338 378 379
f 338 379 380
f 338 380 381
f 338 381 340
f 340 381 382
f 340 382 383
f 340 383 341
f 341 383 342
f 342 384 345
f 342 383 385
f 342 385 384
f 343 377 406
f 343 406 386
f 343 386 378
f 345 384 387
f 345 387 388
f 345 388 346
f 346 388 352
f 346 352 351
f 347 352 390
f 347 390 391
f 347 391 389
f 348 355 354
f 348 354 349
f 349 354 350
f 352 388 392
f 352 392 393
f 352 393 394
f 352 394 395
f 352 395 391
f 352 391 390
f 356 366 357
f 358 371 360
f 360 365 361
f 360 371 365
f 362 365 372
f 362 372 363
f 365 371 372
f 369 396 370
f 370 397 371
f 370 396 398
f 370 398 399
f 370 399 400
f 370 400 372
f 370 372 397
f 371 397 372
f 372 400 373
f 373 400 374
f 374 400 401
f 374 401 402
f 374 402 403
f 374 403 376
f 374 376 404
f 374 404 375
f 375 404 376
f 376 403 405
f 376 405 406
f 376 406 377
f 380 407 408
f 380 408 381
f 381 409 410
f 381 410 387
f 381 387 382
f 381 408 409
f 382 387 411
f 382 411 383
f 383 411 385
f 384 385 387
f 385 411 387
f 387 410 412
f 387 412 392
f 387 392 388
f 389 391 395
f 392 412 393
f 393 412 394
f 394 412 413
f 398 401 399
f 399 401 400
f 407 414 410
f 407 410 409
f 407 409 408
f 410 414 415
f 410 415 412
f 412 415 416
f 412 416 413

