# https://github.com/mikedh/trimesh
v -0.02850510 0.07221297 0.02849569
v -0.03164709 0.07059187 0.02854994
v -0.02850510 0.07210883 0.02849569
v -0.02850510 0.07373341 0.02833746
v -0.03002366 0.07221297 0.02847761
v -0.03651739 0.06734618 0.02855446
v -0.03814082 0.06572161 0.02855446
v -0.06572240 0.04156125 0.02852281
v -0.03327052 0.07059187 0.02848665
v -0.03814082 0.06734618 0.02854994
v -0.06554202 0.04156125 0.02851377
v -0.03164709 0.06896729 0.02838719
v -0.02850510 0.07045301 0.02810238
v -0.02850510 0.07384796 0.02830582
v -0.03164709 0.07221297 0.02834198
v -0.04300693 0.06410050 0.02855446
v -0.05111570 0.05598804 0.02855446
v -0.05760943 0.05112125 0.02855446
v -0.06085630 0.04949668 0.02849117
v -0.06716545 0.04156125 0.02847761
v -0.03489396 0.07059187 0.02834198
v -0.03651739 0.06896729 0.02848665
v -0.04138350 0.06572161 0.02853185
v -0.04625379 0.06247593 0.02854994
v -0.03976006 0.06734618 0.02847309
v -0.06409897 0.04156125 0.02826965
v -0.02850510 0.07019961 0.02803005
v -0.02850510 0.07499350 0.02785827
v -0.03017468 0.07399028 0.02799389
v -0.03341735 0.07236918 0.02799841
v -0.04787722 0.06085483 0.02855446
v -0.04950066 0.05923372 0.02855446
v -0.05923287 0.05112125 0.02849117
v -0.06247554 0.04787557 0.02847761
v -0.06085630 0.05112125 0.02825157
v -0.06247554 0.04949668 0.02824705
v -0.06734584 0.04156125 0.02844596
v -0.03814082 0.06896729 0.02834198
v -0.03666421 0.07074807 0.02799841
v -0.04463036 0.06410050 0.02850473
v -0.04787722 0.06247593 0.02847309
v -0.04950066 0.06085483 0.02849117
v -0.04300693 0.06572161 0.02842788
v -0.06391020 0.04156125 0.02821540
v -0.02850510 0.06980735 0.02787635
v -0.02850510 0.07503862 0.02783566
v -0.02973002 0.07483728 0.02771360
v -0.03164709 0.07359455 0.02785827
v -0.03081230 0.07463595 0.02757798
v -0.05436257 0.05761262 0.02825157
v -0.05595244 0.05757790 0.02784018
v -0.06244198 0.05108654 0.02784018
v -0.06344456 0.05052072 0.02767744
v -0.06380952 0.04949668 0.02782662
v -0.06734584 0.04300532 0.02820636
v -0.06902380 0.04156125 0.02800293
v -0.04138350 0.06734618 0.02828321
v -0.03991108 0.06912350 0.02798485
v -0.03814082 0.07034888 0.02785827
v -0.04625379 0.06410050 0.02836459
v -0.04950066 0.06247593 0.02823801
v -0.05111570 0.06085483 0.02825157
v -0.06279016 0.04156125 0.02780402
v -0.02850510 0.06947063 0.02774073
v -0.02850510 0.07578495 0.02717111
v -0.03297688 0.07325436 0.02771360
v -0.03405917 0.07301484 0.02757798
v -0.02850510 0.07584397 0.02710330
v -0.03012853 0.07550725 0.02682754
v -0.03164709 0.07516706 0.02657438
v -0.03294752 0.07489282 0.02624436
v -0.03489396 0.07359455 0.02657438
v -0.05108214 0.06244122 0.02784018
v -0.05538613 0.05863665 0.02767744
v -0.06187986 0.05214529 0.02767744
v -0.06461914 0.04949668 0.02730221
v -0.06490859 0.04868439 0.02758702
v -0.06828130 0.04393216 0.02765031
v -0.06861689 0.04300532 0.02779950
v -0.06296215 0.05160377 0.02729318
v -0.06503863 0.05044782 0.02612682
v -0.06907834 0.04156125 0.02798485
v -0.04463036 0.06572161 0.02819280
v -0.04305307 0.06743644 0.02792608
v -0.03946642 0.07000869 0.02771360
v -0.04054871 0.06976569 0.02757798
v -0.04138350 0.06868264 0.02782210
v -0.04803663 0.06426018 0.02799389
v -0.04950066 0.06382280 0.02781758
v -0.05051583 0.06346178 0.02767744
v -0.06266011 0.04156125 0.02774977
v -0.02850510 0.06921722 0.02760511
v -0.03730604 0.07139027 0.02757798
v -0.02850510 0.07644103 0.02634382
v -0.02944476 0.07633342 0.02607258
v -0.03618180 0.07326825 0.02624436
v -0.03052286 0.07617722 0.02566119
v -0.03402980 0.07462206 0.02591435
v -0.05213926 0.06187886 0.02767744
v -0.05809185 0.05647402 0.02729318
v -0.06133872 0.05322834 0.02729318
v -0.06539520 0.04949668 0.02648848
v -0.06943071 0.04300532 0.02721180
v -0.06972855 0.04211319 0.02754634
v -0.06986278 0.04156125 0.02763675
v -0.06183371 0.05372127 0.02621272
v -0.06345295 0.05210017 0.02621272
v -0.06375079 0.05242994 0.02515035
v -0.06456460 0.05155170 0.02515035
v -0.06524838 0.05074288 0.02515035
v -0.06650685 0.04864968 0.02589175
v -0.06982083 0.04386968 0.02604545
v -0.04618248 0.06573549 0.02785374
v -0.04868265 0.06490932 0.02758250
v -0.03814082 0.07195957 0.02656986
v -0.03938252 0.07163673 0.02623985
v -0.04138350 0.07026209 0.02652465
v -0.04362777 0.06804045 0.02751017
v -0.05159812 0.06295844 0.02729318
v -0.04950066 0.06463162 0.02731578
v -0.05045290 0.06504123 0.02614943
v -0.06190503 0.04156125 0.02738811
v -0.02850510 0.06867570 0.02731126
v -0.02850510 0.06877984 0.02737003
v -0.02850510 0.07648269 0.02628957
v -0.02850510 0.07691313 0.02524528
v -0.03726409 0.07299401 0.02590079
v -0.02850510 0.07694437 0.02515035
v -0.03102205 0.07633342 0.02458074
v -0.03159675 0.07596199 0.02513227
v -0.03340057 0.07516359 0.02528145
v -0.03447447 0.07484423 0.02482938
v -0.03771714 0.07322313 0.02482034
v -0.05752973 0.05753278 0.02675069
v -0.06021028 0.05534584 0.02621272
v -0.07008512 0.04300532 0.02640259
v -0.07057173 0.04156125 0.02681850
v -0.07046266 0.04156125 0.02696316
v -0.06216511 0.05405452 0.02515035
v -0.06297473 0.05324223 0.02515035
v -0.06306283 0.05332901 0.02352741
v -0.06381371 0.05251672 0.02352741
v -0.06667045 0.04889961 0.02480677
v -0.06614189 0.04946197 0.02527241
v -0.06462753 0.05155170 0.02352741
v -0.06991312 0.04397729 0.02515035
v -0.07052978 0.04300532 0.02515035
v -0.07120935 0.04184590 0.02515035
v -0.07129326 0.04156125 0.02542159
v -0.04750807 0.06680119 0.02631218
v -0.04950066 0.06537101 0.02650657
v -0.04046481 0.07134514 0.02585106
v -0.04246159 0.06993926 0.02617655
v -0.05265943 0.06239609 0.02675069
v -0.05209312 0.06345484 0.02620820
v -0.04859036 0.06647489 0.02585558
v -0.04953841 0.06617288 0.02524980
v -0.05078850 0.06531546 0.02515035
v -0.05159812 0.06459690 0.02515035
v -0.06086469 0.04156125 0.02685918
v -0.06067172 0.04156125 0.02675973
v -0.02850510 0.06733230 0.02646136
v -0.03821214 0.07277532 0.02527693
v -0.02850510 0.07702421 0.02363590
v -0.03102205 0.07633342 0.02415127
v -0.03530087 0.07449363 0.02352741
v -0.03651739 0.07395210 0.02352741
v -0.03787655 0.07329602 0.02352741
v -0.04090108 0.07158466 0.02476609
v -0.03868616 0.07288988 0.02352741
v -0.05696342 0.05859153 0.02621272
v -0.05810863 0.05811248 0.02515035
v -0.06225321 0.05414477 0.02352741
v -0.06195117 0.05384276 0.02233393
v -0.06353265 0.05221472 0.02235202
v -0.06667045 0.04889961 0.02400208
v -0.06991312 0.04398076 0.02402017
v -0.06500088 0.05044782 0.02256901
v -0.06522321 0.05073941 0.02352741
v -0.07136037 0.04156125 0.02515035
v -0.07126808 0.04156125 0.02352741
v -0.04552388 0.06820707 0.02603189
v -0.03986074 0.07192832 0.02524528
v -0.04142125 0.07106397 0.02524528
v -0.04397595 0.06987330 0.02455361
v -0.04354388 0.06961295 0.02563407
v -0.05242452 0.06378461 0.02515035
v -0.05323833 0.06297580 0.02515035
v -0.04902244 0.06673523 0.02477061
v -0.04991596 0.06623883 0.02352741
v -0.05088918 0.06542655 0.02352741
v -0.05170299 0.06468716 0.02352741
v -0.05960622 0.04156125 0.02619464
v -0.02850510 0.06727676 0.02642519
v -0.02850510 0.07702074 0.02353193
v -0.03423536 0.07469843 0.02262326
v -0.03327052 0.07531633 0.02352741
v -0.03449125 0.07483381 0.02352741
v -0.03766680 0.07318841 0.02242887
v -0.03976006 0.07232405 0.02352741
v -0.04101014 0.07165062 0.02352741
v -0.04082557 0.07154995 0.02246955
v -0.05738710 0.05901156 0.02352741
v -0.05708507 0.05870955 0.02232941
v -0.06255524 0.05282567 0.02180049
v -0.05830579 0.05668577 0.02124896
v -0.06154846 0.05344009 0.02124896
v -0.06168270 0.05195090 0.01944971
v -0.06315931 0.05177386 0.02127156
v -0.06409058 0.05111084 0.02192255
v -0.06607897 0.04946197 0.02348672
v -0.06644393 0.04855248 0.02292163
v -0.06968241 0.04367528 0.02293971
v -0.07029906 0.04308516 0.02350028
v -0.07113804 0.04177994 0.02352741
v -0.06650685 0.04215138 0.01627163
v -0.06948944 0.04156125 0.02030865
v -0.07039134 0.04156125 0.02172363
v -0.07052558 0.04156125 0.02194063
v -0.07004736 0.04259570 0.02228421
v -0.05362426 0.04156125 -0.00418468
v -0.05483659 0.04156125 -0.00235830
v -0.05574270 0.04156125 -0.00097948
v -0.05708507 0.04156125 0.00107746
v -0.05806249 0.04156125 0.00258286
v -0.05997537 0.04156125 0.00553038
v -0.06277337 0.04156125 0.00986124
v -0.07083181 0.04156125 0.02258709
v -0.04181977 0.07117852 0.02352741
v -0.04399273 0.06988372 0.02352741
v -0.04696693 0.06809946 0.02352741
v -0.04787722 0.06754752 0.02352741
v -0.04910214 0.06679425 0.02352741
v -0.05251680 0.06387487 0.02352741
v -0.04890498 0.06668316 0.02246955
v -0.05059134 0.06518703 0.02233393
v -0.05221477 0.06357287 0.02233393
v -0.05948876 0.04156125 0.02612682
v -0.02850510 0.06723163 0.02639355
v -0.02850510 0.07654517 0.02222092
v -0.02850510 0.07650699 0.02214406
v -0.03482265 0.07414996 0.02201296
v -0.03648803 0.07343140 0.02189542
v -0.03592591 0.07312940 0.02091894
v -0.03700820 0.07286905 0.02134841
v -0.03817858 0.07261564 0.02189542
v -0.03972650 0.07182418 0.02191802
v -0.04389625 0.06982470 0.02263682
v -0.04024248 0.07121670 0.02138458
v -0.04137511 0.07087651 0.02191802
v -0.05119960 0.06418382 0.02179145
v -0.05181206 0.06317019 0.02124896
v -0.05713121 0.05713357 0.02028152
v -0.05956426 0.05470018 0.02028152
v -0.06118770 0.05307561 0.02028152
v -0.05991244 0.05015276 0.01477979
v -0.04894693 0.04732711 -0.00359246
v -0.05517638 0.04868786 0.00648877
v -0.05705151 0.04896210 0.00937300
v -0.05202600 0.04555673 -0.00176608
v -0.06176240 0.05043046 0.01770471
v -0.06628033 0.04156125 0.01530872
v -0.06727452 0.04156125 0.01685481
v -0.05325930 0.04182507 -0.00443332
v -0.05294888 0.04156125 -0.00517924
v -0.04785206 0.06699211 0.02191802
v -0.04837223 0.06633603 0.02138910
v -0.04864909 0.06488155 0.01951300
v -0.04954680 0.06575979 0.02185926
v -0.05018023 0.06479477 0.02125348
v -0.05880498 0.04156125 0.02566119
v -0.02850510 0.06657555 0.02590079
v -0.02850510 0.07545171 0.02027700
v -0.03568260 0.07139374 0.01786293
v -0.02850510 0.07181030 0.01396154
v -0.02850510 0.07003646 0.01088744
v -0.02850510 0.06423589 0.00090115
v -0.02850510 0.06223988 -0.00252105
v -0.02850510 0.06046604 -0.00555446
v -0.03254061 0.06495098 0.00480254
v -0.03411370 0.06817236 0.01133047
v -0.03651739 0.07118893 0.01819746
v -0.03804015 0.07173393 0.02033125
v -0.03851837 0.07118546 0.01982493
v -0.03916019 0.07151871 0.02090538
v -0.04332574 0.06948452 0.02155637
v -0.04530994 0.06807863 0.02121731
v -0.03892108 0.06976569 0.01787197
v -0.04122828 0.07001563 0.02041714
v -0.04224345 0.06981082 0.02105005
v -0.05063748 0.06361799 0.02028152
v -0.05579304 0.05255144 0.01242449
v -0.05417799 0.05904974 0.01890722
v -0.04882947 0.05856723 0.01116773
v -0.04896371 0.05707804 0.00936848
v -0.04678655 0.05003126 -0.00287366
v -0.04732769 0.04894821 -0.00359246
v -0.05179947 0.04203335 -0.00630490
v -0.04515473 0.04677864 -0.00935187
v -0.04806600 0.04644192 -0.00592968
v -0.04867006 0.04542135 -0.00646764
v -0.05054939 0.04569906 -0.00357890
v -0.05015087 0.04526862 -0.00466387
v -0.04877494 0.04391133 -0.00823525
v -0.04838061 0.04346700 -0.00932023
v -0.05032286 0.04221733 -0.00813579
v -0.05248324 0.04156125 -0.00584830
v -0.04729413 0.06667275 0.02088278
v -0.04537706 0.06487461 0.01628519
v -0.04702985 0.06488849 0.01788101
v -0.04881689 0.06340624 0.01768662
v -0.04910214 0.06525298 0.02059345
v -0.04726896 0.06344096 0.01600039
v -0.04395498 0.05690447 0.00309370
v -0.04229799 0.05363449 -0.00336190
v -0.04698790 0.06160810 0.01306191
v -0.04551549 0.05686281 0.00478446
v -0.04688723 0.05827216 0.00831967
v -0.04705921 0.05679686 0.00649781
v -0.04869523 0.06005295 0.01296698
v -0.05032286 0.06330558 0.01944971
v -0.05789469 0.04156125 0.02485650
v -0.05773108 0.04156125 0.02470732
v -0.02850510 0.06583964 0.02506897
v -0.02850510 0.05953572 -0.00710959
v -0.03486459 0.06733230 0.01056647
v -0.03069904 0.05998700 -0.00477689
v -0.03519599 0.06790507 0.01176898
v -0.03561548 0.06648877 0.00980699
v -0.04671523 0.06632562 0.01979780
v -0.04033057 0.06801268 0.01645246
v -0.03110595 0.05857070 -0.00672081
v -0.03733120 0.06653737 0.01135308
v -0.03447447 0.05865748 -0.00361054
v -0.03803595 0.06566260 0.01064332
v -0.04542739 0.04867398 -0.00647217
v -0.05153100 0.04156125 -0.00716384
v -0.04407244 0.04730281 -0.01003902
v -0.04569168 0.04569559 -0.01003902
v -0.04677396 0.04514018 -0.00934735
v -0.04718087 0.04556021 -0.00826690
v -0.04528477 0.05016317 -0.00467291
v -0.04778074 0.04452575 -0.00879130
v -0.04729833 0.04405713 -0.01002094
v -0.04883786 0.04238742 -0.00992148
v -0.04992015 0.04167927 -0.00921625
v -0.05049485 0.04156125 -0.00856074
v -0.04403049 0.06342360 0.01277259
v -0.04046900 0.06160116 0.00658823
v -0.04674460 0.06306605 0.01491993
v -0.03555675 0.05833118 -0.00310422
v -0.03420180 0.05687669 -0.00660779
v -0.03583362 0.05688711 -0.00499389
v -0.04312858 0.06135817 0.00880791
v -0.03968875 0.05719953 -0.00073988
v -0.03881201 0.05508550 -0.00473168
v -0.04537706 0.06162199 0.01142089
v -0.04372006 0.05835548 0.00496981
v -0.04205888 0.05508550 -0.00148580
v -0.04069133 0.05363449 -0.00498484
v -0.04176942 0.05325264 -0.00444236
v -0.04198756 0.05177733 -0.00627325
v -0.04248676 0.05216959 -0.00519280
v -0.04366553 0.05506120 0.00016427
v -0.04385850 0.05358589 -0.00166663
v -0.04477718 0.05448843 0.00064347
v -0.04356905 0.05172527 -0.00457798
v -0.04540642 0.05352688 0.00004221
v -0.04392142 0.04877812 -0.00823977
v -0.04556583 0.05205157 -0.00178417
v -0.05707248 0.04156125 0.02398852
v -0.02850510 0.06582575 0.02505089
v -0.02850510 0.05870955 -0.00843868
v -0.02935247 0.05848739 -0.00820813
v -0.03043476 0.05822704 -0.00780126
v -0.03269582 0.06179208 -0.00020191
v -0.03906370 0.06335764 0.00800774
v -0.03938671 0.06192746 0.00608191
v -0.03581265 0.06010849 -0.00009793
v -0.03164709 0.05792503 -0.00727686
v -0.03218824 0.05827564 -0.00625517
v -0.03414726 0.06008072 -0.00168019
v -0.03388718 0.05831382 -0.00469100
v -0.04296917 0.04784780 -0.01050466
v -0.04359002 0.04684807 -0.01111948
v -0.04464714 0.04627183 -0.01057699
v -0.04343061 0.04838586 -0.00932023
v -0.04522604 0.04522002 -0.01111948
v -0.04626638 0.04463684 -0.01057247
v -0.04683688 0.04356073 -0.01110591
v -0.04837642 0.04177994 -0.01100646
v -0.04919024 0.04156125 -0.01023793
v -0.05008795 0.04156125 -0.00910323
v -0.04978591 0.04156125 -0.00948749
v -0.03254900 0.05685587 -0.00819004
v -0.03363129 0.05651568 -0.00768824
v -0.03446607 0.05543263 -0.00848389
v -0.03554837 0.05507508 -0.00795949
v -0.03528408 0.05652262 -0.00607434
v -0.03806112 0.05718911 -0.00235830
v -0.03642091 0.05390872 -0.00883199
v -0.03744447 0.05363449 -0.00822621
v -0.03906790 0.05363449 -0.00660779
v -0.04015019 0.05325958 -0.00606530
v -0.04090528 0.05217653 -0.00682478
v -0.04153871 0.05123581 -0.00745316
v -0.04216795 0.05028814 -0.00808607
v -0.04374943 0.05024996 -0.00640887
v -0.05699278 0.04156125 0.02388454
v -0.02850510 0.06465244 0.02336918
v -0.02850510 0.06508636 0.02405181
v -0.02850510 0.05867831 -0.00848841
v -0.02850510 0.05810207 -0.00931118
v -0.03003625 0.05761956 -0.00893144
v -0.03164709 0.05709886 -0.00852006
v -0.04234833 0.04880241 -0.00988984
v -0.04180718 0.04839627 -0.01097029
v -0.04250773 0.04731322 -0.01165744
v -0.04189527 0.04679946 -0.01274242
v -0.04303210 0.04628224 -0.01220445
v -0.04414375 0.04576502 -0.01167100
v -0.04575460 0.04413697 -0.01166197
v -0.04729413 0.04247768 -0.01158511
v -0.04873299 0.04156125 -0.01077590
v -0.04813311 0.04156125 -0.01142689
v -0.03164709 0.05650179 -0.00932927
v -0.03279650 0.05538056 -0.00998929
v -0.03387879 0.05505773 -0.00956435
v -0.03581265 0.05362754 -0.00983107
v -0.03689493 0.05325958 -0.00931118
v -0.03852675 0.05325958 -0.00768824
v -0.03809468 0.05271806 -0.00887719
v -0.03928184 0.05217653 -0.00844320
v -0.03874070 0.05177733 -0.00952818
v -0.04036413 0.05177733 -0.00790524
v -0.05644324 0.04156125 0.02316575
v -0.05632579 0.04156125 0.02300752
v -0.02850510 0.04156125 -0.01576679
v -0.02850510 0.05730020 -0.01038712
v -0.02964192 0.05701555 -0.01002094
v -0.03072421 0.05674479 -0.00965928
v -0.03891688 0.05028814 -0.01133195
v -0.04072489 0.04880241 -0.01149470
v -0.04131218 0.04781656 -0.01211856
v -0.04355227 0.04515754 -0.01275146
v -0.04081299 0.04723685 -0.01315381
v -0.03704176 0.04518531 -0.01762933
v -0.03886235 0.04534499 -0.01616461
v -0.04128282 0.04616769 -0.01370986
v -0.04246998 0.04571641 -0.01318545
v -0.04465134 0.04464725 -0.01220897
v -0.04515473 0.04351213 -0.01274694
v -0.04623282 0.04299490 -0.01216377
v -0.04671104 0.04177994 -0.01266557
v -0.04713053 0.04156125 -0.01242597
v -0.04764231 0.04156125 -0.01193321
v -0.03157158 0.05563396 -0.01053630
v -0.03097591 0.05525559 -0.01145853
v -0.03205819 0.05494665 -0.01106975
v -0.03405917 0.05354076 -0.01134099
v -0.03489396 0.05392608 -0.01020177
v -0.03489396 0.05326653 -0.01101098
v -0.03704595 0.05174262 -0.01113304
v -0.03766260 0.05217653 -0.01005258
v -0.02850510 0.04156125 -0.01762933
v -0.02850510 0.05702249 -0.01075330
v -0.02881972 0.05660940 -0.01110139
v -0.03012014 0.05637336 -0.01055438
v -0.03002366 0.05549858 -0.01177498
v -0.03596366 0.05210364 -0.01153086
v -0.03783459 0.05066304 -0.01171169
v -0.03893786 0.04867745 -0.01297298
v -0.03976006 0.04759093 -0.01351094
v -0.03893786 0.04705635 -0.01459592
v -0.03615663 0.04585527 -0.01762933
v -0.03818277 0.04410920 -0.01762933
v -0.04067036 0.04553591 -0.01467277
v -0.04035154 0.04197781 -0.01762933
v -0.04075845 0.04156125 -0.01762933
v -0.04562875 0.04242908 -0.01312216
v -0.04648451 0.04156125 -0.01299106
v -0.02907141 0.05510633 -0.01289160
v -0.03002366 0.05484598 -0.01258871
v -0.03157578 0.05433569 -0.01212308
v -0.03297688 0.05386707 -0.01170717
v -0.03109336 0.05372127 -0.01314929
v -0.03217565 0.05336720 -0.01278763
v -0.02850510 0.05078106 -0.01762933
v -0.02850510 0.05614078 -0.01191060
v -0.02850510 0.05601234 -0.01207787
v -0.03298947 0.05228415 -0.01333463
v -0.03489396 0.05084008 -0.01351094
v -0.03704595 0.05012152 -0.01279215
v -0.03785557 0.04741736 -0.01495758
v -0.03471358 0.04684112 -0.01762933
v -0.03704595 0.04687584 -0.01603803
v -0.03649642 0.04624406 -0.01702355
v -0.02850510 0.05585266 -0.01228130
v -0.02850510 0.05456480 -0.01381835
v -0.02856802 0.05446760 -0.01389069
v -0.03002366 0.05403369 -0.01348382
v -0.02914692 0.05351299 -0.01456427
v -0.03002366 0.05324570 -0.01429303
v -0.03002366 0.05243688 -0.01510676
v -0.03109336 0.05210364 -0.01477223
v -0.03163451 0.05273542 -0.01378219
v -0.02850510 0.05111779 -0.01732192
v -0.02899171 0.05053807 -0.01762933
v -0.03217565 0.05174609 -0.01441509
v -0.03298947 0.05066304 -0.01495758
v -0.03388718 0.04739306 -0.01762933
v -0.03489396 0.04759440 -0.01675683
v -0.02850510 0.05445372 -0.01394041
v -0.02850510 0.05439124 -0.01400822
v -0.02850510 0.05303742 -0.01541417
v -0.02860578 0.05286386 -0.01553171
v -0.02914692 0.05189189 -0.01618722
v -0.02974260 0.05008680 -0.01762933
v -0.03002366 0.05000002 -0.01754344
v -0.03109336 0.05047906 -0.01639517
v -0.03163451 0.04948974 -0.01702807
v -0.03228052 0.04846223 -0.01762933
v -0.02850510 0.05126011 -0.01718630
v -0.02850510 0.05274583 -0.01570802
v -0.02850510 0.05140937 -0.01704164
v -0.03130311 0.04910095 -0.01762933
f 1 2 3
f 1 3 13
f 1 13 27
f 1 27 45
f 1 45 64
f 1 64 92
f 1 92 124
f 1 124 123
f 1 123 162
f 1 162 194
f 1 194 239
f 1 239 272
f 1 272 324
f 1 324 372
f 1 372 411
f 1 411 410
f 1 410 438
f 1 438 465
f 1 465 488
f 1 488 507
f 1 507 523
f 1 523 525
f 1 525 524
f 1 524 515
f 1 515 514
f 1 514 513
f 1 513 499
f 1 499 498
f 1 498 490
f 1 490 489
f 1 489 466
f 1 466 439
f 1 439 413
f 1 413 412
f 1 412 373
f 1 373 325
f 1 325 279
f 1 279 278
f 1 278 277
f 1 277 276
f 1 276 275
f 1 275 273
f 1 273 241
f 1 241 240
f 1 240 195
f 1 195 164
f 1 164 128
f 1 128 126
f 1 126 125
f 1 125 94
f 1 94 68
f 1 68 65
f 1 65 46
f 1 46 28
f 1 28 14
f 1 14 4
f 1 4 5
f 1 5 2
f 2 6 7
f 2 7 8
f 2 8 3
f 2 5 9
f 2 9 10
f 2 10 6
f 3 8 11
f 3 11 12
f 3 12 13
f 4 14 15
f 4 15 5
f 5 15 9
f 6 10 16
f 6 16 31
f 6 31 32
f 6 32 18
f 6 18 17
f 6 17 7
f 7 17 8
f 8 17 18
f 8 18 19
f 8 19 20
f 8 20 37
f 8 37 56
f 8 56 82
f 8 82 105
f 8 105 138
f 8 138 137
f 8 137 149
f 8 149 180
f 8 180 181
f 8 181 228
f 8 228 219
f 8 219 218
f 8 218 217
f 8 217 263
f 8 263 262
f 8 262 227
f 8 227 226
f 8 226 225
f 8 225 224
f 8 224 223
f 8 223 222
f 8 222 221
f 8 221 265
f 8 265 307
f 8 307 337
f 8 337 347
f 8 347 393
f 8 393 394
f 8 394 392
f 8 392 424
f 8 424 425
f 8 425 456
f 8 456 455
f 8 455 481
f 8 481 479
f 8 479 465
f 8 465 438
f 8 438 437
f 8 437 436
f 8 436 409
f 8 409 371
f 8 371 323
f 8 323 322
f 8 322 271
f 8 271 238
f 8 238 193
f 8 193 161
f 8 161 160
f 8 160 122
f 8 122 91
f 8 91 63
f 8 63 44
f 8 44 26
f 8 26 11
f 9 15 21
f 9 21 38
f 9 38 22
f 9 22 10
f 10 23 24
f 10 24 16
f 10 22 25
f 10 25 23
f 11 26 12
f 12 26 13
f 13 26 27
f 14 28 29
f 14 29 15
f 15 29 30
f 15 30 39
f 15 39 21
f 16 24 31
f 18 32 33
f 18 33 19
f 19 34 20
f 19 33 35
f 19 35 36
f 19 36 34
f 20 34 37
f 21 39 38
f 22 38 25
f 23 25 40
f 23 40 24
f 24 40 41
f 24 41 42
f 24 42 31
f 25 41 40
f 25 38 43
f 25 43 41
f 26 44 27
f 27 44 45
f 28 46 47
f 28 47 29
f 29 48 30
f 29 47 49
f 29 49 48
f 30 48 39
f 31 42 32
f 32 42 33
f 33 42 35
f 34 36 37
f 35 50 51
f 35 51 52
f 35 52 36
f 35 42 50
f 36 52 53
f 36 53 54
f 36 54 55
f 36 55 37
f 37 55 56
f 38 57 43
f 38 39 58
f 38 58 57
f 39 48 59
f 39 59 58
f 41 43 60
f 41 60 61
f 41 61 42
f 42 61 62
f 42 62 50
f 43 57 60
f 44 63 64
f 44 64 45
f 46 65 47
f 47 65 49
f 48 49 66
f 48 66 59
f 49 67 66
f 49 65 68
f 49 68 69
f 49 69 70
f 49 70 71
f 49 71 72
f 49 72 67
f 50 62 73
f 50 73 51
f 51 73 99
f 51 99 74
f 51 74 75
f 51 75 52
f 52 75 53
f 53 76 77
f 53 77 78
f 53 78 79
f 53 79 54
f 53 75 80
f 53 80 81
f 53 81 76
f 54 79 55
f 55 79 56
f 56 79 82
f 57 58 83
f 57 83 60
f 58 84 83
f 58 59 85
f 58 85 86
f 58 86 87
f 58 87 84
f 59 66 85
f 60 83 88
f 60 88 61
f 61 88 89
f 61 89 90
f 61 90 73
f 61 73 62
f 63 91 64
f 64 91 92
f 66 67 85
f 67 93 85
f 67 72 93
f 68 94 69
f 69 94 95
f 69 95 70
f 70 95 71
f 71 96 72
f 71 95 97
f 71 97 98
f 71 98 96
f 72 96 86
f 72 86 93
f 73 90 99
f 74 99 119
f 74 119 100
f 74 100 101
f 74 101 75
f 75 101 80
f 76 102 103
f 76 103 104
f 76 104 77
f 76 81 102
f 77 104 78
f 78 104 79
f 79 104 105
f 79 105 82
f 80 101 135
f 80 135 106
f 80 106 107
f 80 107 81
f 81 107 108
f 81 108 109
f 81 109 110
f 81 110 111
f 81 111 112
f 81 112 103
f 81 103 102
f 83 84 88
f 84 113 88
f 84 87 114
f 84 114 113
f 85 93 86
f 86 96 115
f 86 115 116
f 86 116 117
f 86 117 118
f 86 118 114
f 86 114 87
f 88 113 89
f 89 113 114
f 89 114 90
f 90 119 99
f 90 114 120
f 90 120 121
f 90 121 119
f 91 122 123
f 91 123 124
f 91 124 92
f 94 125 95
f 95 126 97
f 95 125 126
f 96 98 127
f 96 127 116
f 96 116 115
f 97 126 128
f 97 128 129
f 97 129 130
f 97 130 131
f 97 131 98
f 98 131 132
f 98 132 133
f 98 133 127
f 100 119 154
f 100 154 134
f 100 134 101
f 101 134 135
f 103 112 136
f 103 136 104
f 104 136 137
f 104 137 138
f 104 138 105
f 106 135 139
f 106 139 107
f 107 139 140
f 107 140 108
f 108 140 141
f 108 141 109
f 109 141 142
f 109 142 110
f 110 143 144
f 110 144 111
f 110 142 145
f 110 145 143
f 111 144 112
f 112 144 143
f 112 143 146
f 112 146 147
f 112 147 148
f 112 148 149
f 112 149 136
f 114 118 150
f 114 150 151
f 114 151 120
f 116 127 152
f 116 152 153
f 116 153 117
f 117 153 118
f 118 153 150
f 119 121 155
f 119 155 154
f 120 151 121
f 121 156 157
f 121 157 158
f 121 158 159
f 121 159 155
f 121 151 156
f 122 160 123
f 123 160 161
f 123 161 162
f 127 133 163
f 127 163 152
f 128 164 129
f 129 164 165
f 129 165 166
f 129 166 132
f 129 132 130
f 130 132 131
f 132 166 167
f 132 167 168
f 132 168 133
f 133 169 163
f 133 168 170
f 133 170 169
f 134 154 171
f 134 171 135
f 135 171 172
f 135 172 139
f 136 149 137
f 139 172 173
f 139 173 140
f 140 173 141
f 141 173 174
f 141 174 175
f 141 175 142
f 142 175 145
f 143 145 176
f 143 176 177
f 143 177 146
f 145 175 178
f 145 178 179
f 145 179 176
f 146 177 147
f 147 177 148
f 148 180 149
f 148 177 181
f 148 181 180
f 150 153 182
f 150 182 156
f 150 156 151
f 152 156 182
f 152 182 153
f 152 163 183
f 152 183 169
f 152 169 184
f 152 184 185
f 152 185 186
f 152 186 156
f 154 155 171
f 155 159 187
f 155 187 188
f 155 188 171
f 156 186 185
f 156 185 189
f 156 189 157
f 157 189 158
f 158 189 190
f 158 190 191
f 158 191 159
f 159 191 192
f 159 192 187
f 161 193 162
f 162 193 194
f 163 169 183
f 164 195 165
f 165 195 196
f 165 196 197
f 165 197 198
f 165 198 166
f 166 198 196
f 166 196 199
f 166 199 167
f 167 199 168
f 168 199 170
f 169 185 184
f 169 170 200
f 169 200 201
f 169 201 185
f 170 199 202
f 170 202 200
f 171 188 172
f 172 188 234
f 172 234 203
f 172 203 173
f 173 203 204
f 173 204 174
f 174 205 175
f 174 204 206
f 174 206 207
f 174 207 205
f 175 205 208
f 175 208 209
f 175 209 210
f 175 210 178
f 176 179 211
f 176 211 212
f 176 212 213
f 176 213 214
f 176 214 177
f 177 214 215
f 177 215 181
f 178 216 217
f 178 217 218
f 178 218 219
f 178 219 220
f 178 220 212
f 178 212 211
f 178 211 179
f 178 210 221
f 178 221 222
f 178 222 223
f 178 223 224
f 178 224 225
f 178 225 226
f 178 226 227
f 178 227 216
f 181 215 228
f 185 201 229
f 185 229 230
f 185 230 231
f 185 231 232
f 185 232 233
f 185 233 189
f 187 192 188
f 188 192 234
f 189 233 190
f 190 233 235
f 190 235 191
f 191 235 236
f 191 236 192
f 192 236 237
f 192 237 204
f 192 204 234
f 193 238 239
f 193 239 194
f 195 240 196
f 196 240 241
f 196 241 242
f 196 242 243
f 196 243 199
f 196 198 197
f 199 243 244
f 199 244 245
f 199 245 246
f 199 246 247
f 199 247 202
f 200 202 201
f 201 202 248
f 201 248 229
f 202 247 249
f 202 249 250
f 202 250 248
f 203 234 204
f 204 237 251
f 204 251 252
f 204 252 206
f 205 207 208
f 206 252 291
f 206 291 253
f 206 253 254
f 206 254 255
f 206 255 207
f 207 255 208
f 208 256 209
f 208 255 257
f 208 257 258
f 208 258 259
f 208 259 260
f 208 260 256
f 209 256 261
f 209 261 210
f 210 261 221
f 212 220 213
f 213 220 215
f 213 215 214
f 215 220 228
f 216 262 263
f 216 263 217
f 216 227 262
f 219 228 220
f 221 264 265
f 221 261 264
f 229 248 230
f 230 248 231
f 231 248 232
f 232 248 233
f 233 248 235
f 235 248 266
f 235 266 267
f 235 267 268
f 235 268 269
f 235 269 236
f 236 269 270
f 236 270 251
f 236 251 237
f 238 271 272
f 238 272 239
f 241 273 242
f 242 273 244
f 242 244 243
f 244 274 245
f 244 273 275
f 244 275 276
f 244 276 277
f 244 277 278
f 244 278 279
f 244 279 280
f 244 280 281
f 244 281 274
f 245 274 282
f 245 282 283
f 245 283 246
f 246 283 284
f 246 284 285
f 246 285 247
f 247 285 249
f 248 250 249
f 248 249 286
f 248 286 287
f 248 287 266
f 249 285 288
f 249 288 289
f 249 289 290
f 249 290 286
f 251 270 291
f 251 291 252
f 253 292 254
f 253 291 293
f 253 293 294
f 253 294 295
f 253 295 296
f 253 296 292
f 254 292 255
f 255 292 297
f 255 297 257
f 256 260 298
f 256 298 261
f 257 297 299
f 257 299 300
f 257 300 258
f 258 300 301
f 258 301 302
f 258 302 260
f 258 260 259
f 260 302 303
f 260 303 304
f 260 304 305
f 260 305 306
f 260 306 298
f 261 298 264
f 264 298 265
f 265 298 307
f 266 287 308
f 266 308 267
f 267 308 309
f 267 309 310
f 267 310 268
f 268 311 270
f 268 270 312
f 268 312 269
f 268 310 313
f 268 313 314
f 268 314 315
f 268 315 316
f 268 316 317
f 268 317 318
f 268 318 319
f 268 319 311
f 269 312 270
f 270 320 321
f 270 321 291
f 270 311 319
f 270 319 320
f 271 322 272
f 272 322 323
f 272 323 324
f 274 281 282
f 279 325 280
f 280 326 281
f 280 325 327
f 280 327 326
f 281 326 328
f 281 328 282
f 282 284 283
f 282 328 284
f 284 288 285
f 284 328 329
f 284 329 288
f 286 290 287
f 287 290 289
f 287 289 330
f 287 330 308
f 288 331 289
f 288 329 332
f 288 332 333
f 288 333 334
f 288 334 379
f 288 379 335
f 288 335 331
f 289 331 330
f 291 321 320
f 291 320 294
f 291 294 293
f 292 296 297
f 294 336 299
f 294 299 296
f 294 296 295
f 294 320 336
f 296 299 297
f 298 306 337
f 298 337 307
f 299 338 339
f 299 339 340
f 299 340 341
f 299 341 300
f 299 336 342
f 299 342 338
f 300 341 301
f 301 341 340
f 301 340 343
f 301 343 304
f 301 304 303
f 301 303 302
f 304 343 305
f 305 343 344
f 305 344 345
f 305 345 306
f 306 345 346
f 306 346 347
f 306 347 337
f 308 330 309
f 309 348 310
f 309 330 349
f 309 349 348
f 310 350 313
f 310 348 351
f 310 351 352
f 310 352 353
f 310 353 354
f 310 354 355
f 310 355 356
f 310 356 357
f 310 357 350
f 313 350 357
f 313 357 358
f 313 358 314
f 314 358 315
f 315 358 359
f 315 359 360
f 315 360 361
f 315 361 362
f 315 362 363
f 315 363 364
f 315 364 316
f 316 364 365
f 316 365 317
f 317 365 366
f 317 366 318
f 318 366 367
f 318 367 368
f 318 368 319
f 319 368 369
f 319 369 370
f 319 370 320
f 320 370 342
f 320 342 336
f 323 371 372
f 323 372 324
f 325 373 374
f 325 374 327
f 326 327 329
f 326 329 328
f 327 374 375
f 327 375 332
f 327 332 376
f 327 376 329
f 329 376 332
f 330 331 377
f 330 377 378
f 330 378 349
f 331 335 379
f 331 379 377
f 332 375 380
f 332 380 381
f 332 381 333
f 333 381 382
f 333 382 383
f 333 383 334
f 334 383 351
f 334 351 349
f 334 349 378
f 334 378 379
f 338 384 385
f 338 385 386
f 338 386 339
f 338 342 370
f 338 370 369
f 338 369 387
f 338 387 384
f 339 386 388
f 339 388 389
f 339 389 344
f 339 344 340
f 340 344 343
f 344 389 390
f 344 390 345
f 345 390 391
f 345 391 392
f 345 392 346
f 346 393 347
f 346 392 394
f 346 394 393
f 348 349 351
f 351 383 395
f 351 395 352
f 352 395 396
f 352 396 397
f 352 397 398
f 352 398 399
f 352 399 353
f 353 399 400
f 353 400 354
f 354 400 355
f 355 400 401
f 355 401 356
f 356 401 402
f 356 402 403
f 356 403 357
f 357 403 358
f 358 403 360
f 358 360 359
f 360 403 431
f 360 431 404
f 360 404 361
f 361 404 405
f 361 405 362
f 362 405 406
f 362 406 407
f 362 407 387
f 362 387 363
f 363 387 369
f 363 369 408
f 363 408 367
f 363 367 365
f 363 365 364
f 365 367 366
f 367 408 368
f 368 408 369
f 371 409 410
f 371 410 411
f 371 411 372
f 373 412 374
f 374 412 413
f 374 413 414
f 374 414 415
f 374 415 375
f 375 415 395
f 375 395 380
f 377 379 378
f 380 395 381
f 381 395 382
f 382 395 383
f 384 387 416
f 384 416 417
f 384 417 418
f 384 418 385
f 385 418 419
f 385 419 420
f 385 420 421
f 385 421 388
f 385 388 386
f 387 407 416
f 388 421 422
f 388 422 390
f 388 390 389
f 390 422 423
f 390 423 391
f 391 424 392
f 391 423 425
f 391 425 424
f 395 415 426
f 395 426 427
f 395 427 428
f 395 428 396
f 396 428 397
f 397 401 398
f 397 428 429
f 397 429 401
f 398 401 399
f 399 401 400
f 401 430 402
f 401 429 430
f 402 430 431
f 402 431 403
f 404 431 405
f 405 431 432
f 405 432 433
f 405 433 434
f 405 434 435
f 405 435 406
f 406 435 416
f 406 416 407
f 409 436 410
f 410 436 437
f 410 437 438
f 413 439 440
f 413 440 441
f 413 441 414
f 414 441 415
f 415 441 426
f 416 434 417
f 416 435 434
f 417 442 443
f 417 443 418
f 417 434 442
f 418 443 444
f 418 444 419
f 419 445 420
f 419 444 446
f 419 446 447
f 419 447 448
f 419 448 449
f 419 449 450
f 419 450 445
f 420 445 421
f 421 445 451
f 421 451 422
f 422 451 452
f 422 452 453
f 422 453 423
f 423 453 454
f 423 454 455
f 423 455 456
f 423 456 425
f 426 441 457
f 426 457 427
f 427 457 458
f 427 458 459
f 427 459 460
f 427 460 428
f 428 460 461
f 428 461 429
f 429 461 462
f 429 462 463
f 429 463 464
f 429 464 430
f 430 432 431
f 430 464 432
f 432 464 433
f 433 464 434
f 434 464 442
f 439 466 467
f 439 467 440
f 440 467 468
f 440 468 441
f 441 468 469
f 441 469 458
f 441 458 457
f 442 464 463
f 442 463 470
f 442 470 471
f 442 471 446
f 442 446 444
f 442 444 443
f 445 452 451
f 445 450 452
f 446 471 470
f 446 470 472
f 446 472 473
f 446 473 474
f 446 474 475
f 446 475 447
f 447 475 495
f 447 495 511
f 447 511 522
f 447 522 526
f 447 526 518
f 447 518 508
f 447 508 488
f 447 488 465
f 447 465 479
f 447 479 478
f 447 478 476
f 447 476 448
f 448 476 477
f 448 477 449
f 449 477 450
f 450 477 476
f 450 476 478
f 450 478 479
f 450 479 452
f 452 480 454
f 452 454 453
f 452 479 480
f 454 480 481
f 454 481 455
f 458 469 482
f 458 482 483
f 458 483 484
f 458 484 485
f 458 485 460
f 458 460 459
f 460 470 463
f 460 463 462
f 460 462 461
f 460 485 486
f 460 486 487
f 460 487 470
f 466 489 467
f 467 489 490
f 467 490 469
f 467 469 468
f 469 490 482
f 470 487 491
f 470 491 492
f 470 492 493
f 470 493 472
f 472 493 474
f 472 474 473
f 474 494 495
f 474 495 496
f 474 496 497
f 474 497 475
f 474 493 492
f 474 492 494
f 475 497 495
f 479 481 480
f 482 498 499
f 482 499 500
f 482 500 501
f 482 501 483
f 482 490 498
f 483 501 486
f 483 486 484
f 484 486 485
f 486 501 502
f 486 502 503
f 486 503 504
f 486 504 505
f 486 505 506
f 486 506 487
f 487 506 491
f 488 508 507
f 491 506 509
f 491 509 510
f 491 510 492
f 492 510 511
f 492 511 512
f 492 512 494
f 494 512 495
f 495 497 496
f 495 512 511
f 499 513 500
f 500 513 514
f 500 514 502
f 500 502 501
f 502 515 516
f 502 516 517
f 502 517 504
f 502 504 503
f 502 514 515
f 504 517 518
f 504 518 519
f 504 519 505
f 505 519 520
f 505 520 521
f 505 521 522
f 505 522 509
f 505 509 506
f 507 508 523
f 508 518 517
f 508 517 516
f 508 516 524
f 508 524 525
f 508 525 523
f 509 522 510
f 510 522 511
f 515 524 516
f 518 526 519
f 519 526 520
f 520 526 521
f 521 526 522

