# https://github.com/mikedh/trimesh
v -0.05310812 0.00082939 -0.02196207
v -0.05310812 0.00088682 -0.02196207
v -0.04775241 -0.00405722 -0.02658823
v -0.04775241 -0.00892817 -0.02658758
v -0.04856151 -0.00892817 -0.02583774
v -0.05183966 -0.01055182 -0.02263835
v -0.05253913 -0.01055182 -0.02196207
v -0.04455256 0.00088682 -0.02196207
v -0.04775241 0.00088682 -0.02658823
v -0.04672929 -0.00892817 -0.02739937
v -0.04666143 -0.01055182 -0.02733420
v -0.04765845 -0.01055182 -0.02652241
v -0.05239298 -0.01217547 -0.02196207
v -0.04300222 0.00088682 -0.02196724
v -0.04305443 0.00088160 -0.02196207
v -0.04672929 0.00088682 -0.02739937
v -0.04591497 -0.00892817 -0.02782785
v -0.04584711 -0.01055182 -0.02780591
v -0.04595674 0.00088682 -0.02780849
v -0.04648396 -0.01217547 -0.02717674
v -0.04567486 -0.01217547 -0.02772589
v -0.04538775 -0.01444128 -0.02756328
v -0.04747053 -0.01217547 -0.02636496
v -0.05174048 -0.01217547 -0.02255639
v -0.05201192 -0.01379913 -0.02196207
v -0.00892615 0.00088682 -0.02210662
v 0.00020882 -0.04293085 -0.02196207
v -0.04462564 -0.00892817 -0.02831118
v -0.04462564 -0.01055182 -0.02828924
v -0.04591497 0.00088682 -0.02782785
v -0.04462564 -0.01217547 -0.02819761
v -0.04524682 -0.01541755 -0.02748520
v -0.04602459 -0.01704120 -0.02650886
v -0.04636911 -0.01542800 -0.02657403
v -0.04476136 -0.01385655 -0.02794917
v -0.04443772 -0.01541755 -0.02788786
v -0.04726695 -0.01379913 -0.02617201
v -0.04713123 -0.01489026 -0.02603521
v -0.05147426 -0.01541755 -0.02196207
v -0.00730796 0.00088682 -0.02211630
v 0.00020882 -0.05244304 -0.02196207
v 0.00020882 0.00088682 -0.02279580
v -0.00009916 0.00088682 -0.02273514
v -0.00087172 0.00088682 -0.02262028
v -0.00236985 0.00088682 -0.02239894
v -0.00243771 0.00088682 -0.02238926
v -0.00243771 0.00080851 -0.02238797
v -0.00406113 0.00088682 -0.02220858
v -0.00568454 0.00088682 -0.02213566
v -0.04300222 -0.01055182 -0.02855381
v -0.04300222 -0.01217547 -0.02854284
v -0.04462564 0.00088682 -0.02831118
v -0.04308052 0.00088682 -0.02854284
v -0.04300222 -0.01379913 -0.02848218
v -0.04300222 -0.01541755 -0.02837119
v -0.04300222 -0.01704120 -0.02821697
v -0.04417150 -0.01704120 -0.02775751
v -0.04395748 -0.01822109 -0.02765491
v -0.04498582 -0.01704120 -0.02732000
v -0.04454734 -0.01872228 -0.02711608
v -0.04569573 -0.01866485 -0.02621460
v -0.05034152 -0.01866485 -0.02196207
v -0.05095226 -0.01697333 -0.02196207
v -0.05113496 -0.01643038 -0.02196207
v -0.00243771 -0.05244826 -0.02196207
v 0.00020882 -0.05180611 -0.02260028
v 0.00020882 0.00088682 -0.02855059
v -0.04137881 -0.01541755 -0.02855446
v -0.04300222 0.00088682 -0.02855381
v -0.04137881 -0.01704120 -0.02853058
v -0.04137881 -0.01866485 -0.02842992
v -0.04137881 -0.02028850 -0.02824859
v -0.04311706 -0.01872228 -0.02791561
v -0.04373824 -0.01930701 -0.02755102
v -0.04347202 -0.02028850 -0.02737679
v -0.04464652 -0.02016843 -0.02646691
v -0.04302310 -0.02341573 -0.02646756
v -0.04407232 -0.02191215 -0.02621460
v -0.04815435 -0.02354625 -0.02196207
v -0.04898433 -0.02184950 -0.02196207
v -0.04945412 -0.02081058 -0.02196207
v -0.04966814 -0.02030417 -0.02196207
v -0.00730796 -0.05244826 -0.02196207
v -0.00243771 -0.04856404 -0.02583968
v 0.00020882 -0.04855881 -0.02583839
v 0.00020882 -0.03429053 -0.02855123
v -0.00243771 0.00088682 -0.02855381
v -0.04137881 -0.01379913 -0.02855446
v -0.03651378 -0.02515423 -0.02855446
v -0.03975539 -0.02028850 -0.02853058
v -0.03975539 -0.02191215 -0.02842992
v -0.03975539 -0.02353581 -0.02824729
v -0.04149887 -0.02198524 -0.02792335
v -0.04211482 -0.02257519 -0.02755166
v -0.04185383 -0.02353581 -0.02737679
v -0.04049141 -0.02581205 -0.02754973
v -0.04242803 -0.02515423 -0.02619524
v -0.04734003 -0.02510725 -0.02196207
v -0.00892615 -0.05244304 -0.02196207
v -0.00892615 -0.05180611 -0.02260028
v -0.00730796 -0.04856404 -0.02583968
v -0.00243771 -0.04774960 -0.02658758
v 0.00020882 -0.04774960 -0.02658307
v 0.00020882 -0.04826123 -0.02611264
v 0.00020882 -0.04138030 -0.02855123
v -0.00243771 -0.04300394 -0.02855446
v -0.03813198 -0.01541755 -0.02855446
v -0.00568454 -0.03975664 -0.02855446
v -0.02677329 -0.03489091 -0.02855446
v -0.03164353 -0.03164361 -0.02854091
v -0.03326695 -0.03001996 -0.02854091
v -0.03489037 -0.02839631 -0.02852994
v -0.03813198 -0.02353581 -0.02852929
v -0.03813198 -0.02515423 -0.02841701
v -0.03813198 -0.02677266 -0.02817244
v -0.03987023 -0.02522732 -0.02791303
v -0.04136315 -0.02662126 -0.02641658
v -0.03936911 -0.02677266 -0.02775622
v -0.03905069 -0.02777505 -0.02764007
v -0.03729678 -0.03079785 -0.02757747
v -0.03869573 -0.02885574 -0.02745551
v -0.04018343 -0.02677266 -0.02733290
v -0.04641087 -0.02679877 -0.02196207
v -0.01054957 -0.05232819 -0.02196207
v -0.01054957 -0.04771305 -0.02658629
v -0.00892615 -0.04856404 -0.02583581
v -0.00892615 -0.04774960 -0.02658758
v -0.00243771 -0.04672633 -0.02739937
v 0.00020882 -0.04737370 -0.02688184
v 0.00020882 -0.04240356 -0.02854930
v 0.00020882 -0.04300394 -0.02854800
v 0.00020882 -0.04462759 -0.02830602
v -0.00243771 -0.04462759 -0.02831118
v -0.01054957 -0.04300394 -0.02855446
v -0.02191348 -0.03813299 -0.02855446
v -0.02515509 -0.03650934 -0.02855059
v -0.03002012 -0.03326726 -0.02852994
v -0.03326695 -0.03164361 -0.02841636
v -0.03489037 -0.03001996 -0.02840346
v -0.03651378 -0.02677266 -0.02848735
v -0.03651378 -0.02839631 -0.02830537
v -0.03665994 -0.03016092 -0.02793174
v -0.03814764 -0.02834933 -0.02782592
v -0.04080983 -0.02797865 -0.02620428
v -0.04550260 -0.02839631 -0.02196207
v -0.04630125 -0.02699715 -0.02196207
v -0.03614838 -0.03164361 -0.02774461
v -0.03578298 -0.03255202 -0.02762652
v -0.03696270 -0.03164361 -0.02734516
v -0.04255853 -0.03322550 -0.02196207
v -0.04217746 -0.03243717 -0.02271256
v -0.03934301 -0.03001996 -0.02632946
v -0.03814764 -0.03016092 -0.02722450
v -0.03976061 -0.02841720 -0.02682957
v -0.01217298 -0.05199928 -0.02196207
v -0.01217298 -0.04756687 -0.02650692
v -0.01217298 -0.04660625 -0.02731806
v -0.01054957 -0.04672633 -0.02739808
v -0.00892615 -0.04672633 -0.02739937
v 0.00020882 -0.04591712 -0.02782785
v 0.00020882 -0.04642875 -0.02755424
v 0.00020882 -0.04672633 -0.02739485
v -0.00892615 -0.04462759 -0.02831118
v -0.01054957 -0.04462759 -0.02830924
v -0.01217298 -0.04300394 -0.02854284
v -0.01541982 -0.04138030 -0.02855446
v -0.02029006 -0.03975664 -0.02853058
v -0.02353168 -0.03813299 -0.02852929
v -0.03164353 -0.03326726 -0.02840023
v -0.02839670 -0.03489091 -0.02850025
v -0.03489037 -0.03164361 -0.02810339
v -0.03326695 -0.03326726 -0.02810017
v -0.04302832 -0.03252592 -0.02196207
v -0.04456822 -0.02996254 -0.02196207
v -0.03478597 -0.03316285 -0.02773815
v -0.03417523 -0.03416001 -0.02762652
v -0.03525576 -0.03363271 -0.02730193
v -0.03640938 -0.03316807 -0.02674762
v -0.03755778 -0.03270865 -0.02619266
v -0.04138925 -0.03470297 -0.02196207
v -0.01379640 -0.05159206 -0.02196207
v -0.01379640 -0.04736326 -0.02630752
v -0.01392690 -0.04618337 -0.02720772
v -0.01541982 -0.04527496 -0.02750520
v -0.01455852 -0.04542115 -0.02758006
v -0.01347276 -0.04559865 -0.02766330
v -0.01217298 -0.04579704 -0.02776267
v -0.01054957 -0.04591712 -0.02782656
v -0.00892615 -0.04591712 -0.02782785
v -0.01217298 -0.04462759 -0.02823439
v -0.01379640 -0.04300394 -0.02848218
v -0.01704323 -0.04138030 -0.02853058
v -0.02191348 -0.03975664 -0.02842992
v -0.02515509 -0.03813299 -0.02840991
v -0.02677329 -0.03650934 -0.02846541
v -0.03002012 -0.03489091 -0.02832860
v -0.03164353 -0.03489091 -0.02802467
v -0.03310513 -0.03477606 -0.02771105
v -0.03245263 -0.03570013 -0.02758844
v -0.03353839 -0.03524070 -0.02727870
v -0.03634152 -0.03976709 -0.02196207
v -0.03651378 -0.03960002 -0.02196207
v -0.03800147 -0.03813822 -0.02196207
v -0.03976061 -0.03637361 -0.02196207
v -0.04130051 -0.03480216 -0.02196207
v -0.01553466 -0.05113263 -0.02196207
v -0.01504920 -0.04719098 -0.02611264
v -0.01704323 -0.04604764 -0.02651595
v -0.01552422 -0.04639220 -0.02663663
v -0.01704323 -0.04498783 -0.02732710
v -0.01822295 -0.04395412 -0.02765491
v -0.01704323 -0.04417861 -0.02775687
v -0.01541982 -0.04446575 -0.02788786
v -0.01392690 -0.04477900 -0.02796207
v -0.01704323 -0.04300394 -0.02821632
v -0.01541982 -0.04300394 -0.02837119
v -0.01866665 -0.04138030 -0.02842992
v -0.02353168 -0.03975664 -0.02824729
v -0.02029006 -0.04138030 -0.02824794
v -0.02677329 -0.03813299 -0.02813953
v -0.02839670 -0.03650934 -0.02823697
v -0.03062042 -0.03716194 -0.02751940
v -0.03164353 -0.03679648 -0.02724643
v -0.03152347 -0.03808601 -0.02636754
v -0.03267187 -0.03751173 -0.02611910
v -0.02771810 -0.03903618 -0.02762974
v -0.03468156 -0.04119757 -0.02196207
v -0.01704323 -0.05067843 -0.02196207
v -0.01613495 -0.04702914 -0.02592615
v -0.01704323 -0.04686207 -0.02574998
v -0.01866665 -0.04569262 -0.02621396
v -0.01872407 -0.04454928 -0.02711608
v -0.01930349 -0.04373485 -0.02755102
v -0.01872407 -0.04311880 -0.02791497
v -0.02198656 -0.04149515 -0.02792271
v -0.02522817 -0.03987150 -0.02790916
v -0.02677329 -0.03935465 -0.02774461
v -0.03005666 -0.03810167 -0.02714577
v -0.02879864 -0.03861852 -0.02741679
v -0.03444145 -0.04139073 -0.02196207
v -0.03002012 -0.03930766 -0.02627526
v -0.03090229 -0.03899442 -0.02600875
v -0.03235345 -0.04210598 -0.02265835
v -0.02581803 -0.04048755 -0.02754908
v -0.02677329 -0.04016908 -0.02733226
v -0.01866665 -0.05012503 -0.02196207
v -0.02028484 -0.04947244 -0.02196207
v -0.02191348 -0.04406897 -0.02621396
v -0.02341683 -0.04302483 -0.02646691
v -0.02017000 -0.04464848 -0.02646627
v -0.02029006 -0.04347381 -0.02737614
v -0.02191348 -0.04868411 -0.02196207
v -0.02257120 -0.04211642 -0.02755166
v -0.02838626 -0.03974620 -0.02681021
v -0.03320953 -0.04232525 -0.02196207
v -0.02796866 -0.04080601 -0.02620363
v -0.03126769 -0.04249753 -0.02297326
v -0.03174271 -0.04302483 -0.02226988
v -0.03230647 -0.04299872 -0.02196207
v -0.02662191 -0.04135941 -0.02641529
v -0.02353168 -0.04185016 -0.02737679
v -0.02515509 -0.04242966 -0.02619395
v -0.02355255 -0.04786446 -0.02196207
v -0.02684115 -0.04621470 -0.02196207
v -0.02999924 -0.04446053 -0.02196207
v -0.03037508 -0.04358345 -0.02252542
v -0.03170617 -0.04342160 -0.02196207
v -0.02839670 -0.04537416 -0.02196207
f 1 2 9
f 1 9 3
f 1 3 4
f 1 4 5
f 1 5 6
f 1 6 7
f 1 7 13
f 1 13 25
f 1 25 39
f 1 39 64
f 1 64 63
f 1 63 62
f 1 62 82
f 1 82 81
f 1 81 80
f 1 80 79
f 1 79 98
f 1 98 123
f 1 123 146
f 1 146 145
f 1 145 174
f 1 174 173
f 1 173 150
f 1 150 180
f 1 180 205
f 1 205 204
f 1 204 203
f 1 203 202
f 1 202 201
f 1 201 227
f 1 227 240
f 1 240 255
f 1 255 259
f 1 259 267
f 1 267 265
f 1 265 268
f 1 268 264
f 1 264 263
f 1 263 252
f 1 252 247
f 1 247 246
f 1 246 228
f 1 228 206
f 1 206 181
f 1 181 155
f 1 155 124
f 1 124 99
f 1 99 83
f 1 83 65
f 1 65 41
f 1 41 27
f 1 27 15
f 1 15 8
f 1 8 2
f 2 8 14
f 2 14 26
f 2 26 40
f 2 40 49
f 2 49 48
f 2 48 46
f 2 46 45
f 2 45 44
f 2 44 43
f 2 43 42
f 2 42 67
f 2 67 87
f 2 87 69
f 2 69 53
f 2 53 52
f 2 52 30
f 2 30 19
f 2 19 16
f 2 16 9
f 3 9 16
f 3 16 10
f 3 10 4
f 4 10 11
f 4 11 12
f 4 12 5
f 5 12 6
f 6 12 13
f 6 13 7
f 8 15 14
f 10 17 18
f 10 18 11
f 10 16 19
f 10 19 17
f 11 20 12
f 11 18 21
f 11 21 22
f 11 22 20
f 12 20 23
f 12 23 24
f 12 24 13
f 13 24 25
f 14 15 26
f 15 27 26
f 17 28 29
f 17 29 18
f 17 19 30
f 17 30 52
f 17 52 28
f 18 29 31
f 18 31 21
f 20 22 32
f 20 32 33
f 20 33 34
f 20 34 23
f 21 31 35
f 21 35 22
f 22 35 36
f 22 36 32
f 23 34 33
f 23 33 37
f 23 37 25
f 23 25 24
f 25 37 38
f 25 38 33
f 25 33 39
f 26 27 40
f 27 41 66
f 27 66 85
f 27 85 104
f 27 104 103
f 27 103 129
f 27 129 162
f 27 162 161
f 27 161 160
f 27 160 132
f 27 132 131
f 27 131 130
f 27 130 105
f 27 105 86
f 27 86 67
f 27 67 42
f 27 42 43
f 27 43 44
f 27 44 45
f 27 45 46
f 27 46 47
f 27 47 48
f 27 48 49
f 27 49 40
f 28 50 51
f 28 51 29
f 28 52 53
f 28 53 50
f 29 51 54
f 29 54 31
f 31 54 55
f 31 55 56
f 31 56 36
f 31 36 35
f 32 36 57
f 32 57 58
f 32 58 59
f 32 59 33
f 33 59 60
f 33 60 61
f 33 61 62
f 33 62 63
f 33 63 64
f 33 64 39
f 33 38 37
f 36 56 57
f 41 65 66
f 46 48 47
f 50 68 51
f 50 53 69
f 50 69 88
f 50 88 68
f 51 68 70
f 51 70 54
f 54 70 71
f 54 71 55
f 55 71 56
f 56 71 72
f 56 72 73
f 56 73 57
f 57 73 58
f 58 73 74
f 58 74 59
f 59 74 60
f 60 74 61
f 61 74 75
f 61 75 76
f 61 76 77
f 61 77 78
f 61 78 79
f 61 79 80
f 61 80 81
f 61 81 82
f 61 82 62
f 65 83 101
f 65 101 84
f 65 84 66
f 66 84 85
f 67 86 87
f 68 88 107
f 68 107 108
f 68 108 106
f 68 106 134
f 68 134 166
f 68 166 135
f 68 135 109
f 68 109 89
f 68 89 70
f 69 87 88
f 70 89 90
f 70 90 91
f 70 91 71
f 71 91 72
f 72 91 92
f 72 92 93
f 72 93 73
f 73 93 74
f 74 93 94
f 74 94 75
f 75 94 95
f 75 95 76
f 76 95 77
f 77 95 96
f 77 96 97
f 77 97 98
f 77 98 79
f 77 79 78
f 83 99 100
f 83 100 101
f 84 101 127
f 84 127 102
f 84 102 103
f 84 103 104
f 84 104 85
f 86 105 106
f 86 106 87
f 87 107 88
f 87 106 108
f 87 108 107
f 89 109 110
f 89 110 111
f 89 111 112
f 89 112 113
f 89 113 90
f 90 113 91
f 91 113 114
f 91 114 92
f 92 114 115
f 92 115 116
f 92 116 93
f 93 116 96
f 93 96 94
f 94 96 95
f 96 117 97
f 96 116 118
f 96 118 119
f 96 119 120
f 96 120 121
f 96 121 122
f 96 122 117
f 97 117 123
f 97 123 98
f 99 124 100
f 100 124 125
f 100 125 126
f 100 126 101
f 101 126 127
f 102 127 159
f 102 159 128
f 102 128 129
f 102 129 103
f 105 130 106
f 106 130 131
f 106 131 132
f 106 132 133
f 106 133 163
f 106 163 134
f 109 135 136
f 109 136 110
f 110 137 138
f 110 138 111
f 110 136 137
f 111 138 112
f 112 138 139
f 112 139 140
f 112 140 113
f 113 140 114
f 114 140 139
f 114 139 141
f 114 141 115
f 115 141 142
f 115 142 143
f 115 143 118
f 115 118 116
f 117 122 144
f 117 144 145
f 117 145 146
f 117 146 123
f 118 143 120
f 118 120 119
f 120 143 142
f 120 142 147
f 120 147 148
f 120 148 149
f 120 149 150
f 120 150 151
f 120 151 152
f 120 152 153
f 120 153 121
f 121 154 122
f 121 153 154
f 122 154 144
f 124 155 156
f 124 156 125
f 125 127 126
f 125 156 157
f 125 157 158
f 125 158 127
f 127 158 159
f 128 159 189
f 128 189 160
f 128 160 161
f 128 161 162
f 128 162 129
f 132 160 133
f 133 160 189
f 133 189 163
f 134 163 164
f 134 164 165
f 134 165 166
f 135 166 192
f 135 192 167
f 135 167 168
f 135 168 136
f 136 168 137
f 137 169 138
f 137 168 170
f 137 170 169
f 138 171 139
f 138 169 172
f 138 172 171
f 139 171 141
f 141 171 142
f 142 171 147
f 144 154 152
f 144 152 151
f 144 151 173
f 144 173 174
f 144 174 145
f 147 171 148
f 148 175 176
f 148 176 177
f 148 177 178
f 148 178 179
f 148 179 149
f 148 171 175
f 149 179 180
f 149 180 150
f 150 173 151
f 152 154 153
f 155 181 182
f 155 182 156
f 156 182 157
f 157 183 184
f 157 184 185
f 157 185 186
f 157 186 187
f 157 187 158
f 157 182 183
f 158 187 188
f 158 188 189
f 158 189 159
f 163 189 188
f 163 188 164
f 164 190 191
f 164 191 165
f 164 188 190
f 165 191 192
f 165 192 166
f 167 192 217
f 167 217 193
f 167 193 168
f 168 194 195
f 168 195 170
f 168 193 194
f 169 170 195
f 169 195 194
f 169 194 196
f 169 196 172
f 171 172 175
f 172 196 197
f 172 197 198
f 172 198 176
f 172 176 175
f 176 198 199
f 176 199 200
f 176 200 177
f 177 200 201
f 177 201 202
f 177 202 203
f 177 203 204
f 177 204 205
f 177 205 178
f 178 205 179
f 179 205 180
f 181 206 182
f 182 206 207
f 182 207 208
f 182 208 209
f 182 209 183
f 183 209 208
f 183 208 210
f 183 210 184
f 184 210 211
f 184 211 212
f 184 212 185
f 185 212 213
f 185 213 186
f 186 213 187
f 187 213 214
f 187 214 190
f 187 190 188
f 190 214 215
f 190 215 216
f 190 216 191
f 191 216 217
f 191 217 192
f 193 218 194
f 193 217 219
f 193 219 218
f 194 220 221
f 194 221 196
f 194 218 220
f 196 221 197
f 197 221 220
f 197 220 199
f 197 199 198
f 199 222 223
f 199 223 224
f 199 224 225
f 199 225 200
f 199 220 226
f 199 226 222
f 200 225 201
f 201 225 227
f 206 228 207
f 207 228 229
f 207 229 208
f 208 229 230
f 208 230 231
f 208 231 232
f 208 232 233
f 208 233 210
f 210 233 211
f 211 233 234
f 211 234 212
f 212 234 215
f 212 215 213
f 213 215 214
f 215 234 219
f 215 219 217
f 215 217 216
f 218 219 235
f 218 235 236
f 218 236 220
f 219 234 235
f 220 236 237
f 220 237 226
f 222 238 223
f 222 226 239
f 222 239 238
f 223 238 224
f 224 240 225
f 224 238 241
f 224 241 242
f 224 242 243
f 224 243 240
f 225 240 227
f 226 237 244
f 226 244 245
f 226 245 239
f 228 246 229
f 229 246 230
f 230 246 247
f 230 247 231
f 231 248 249
f 231 249 250
f 231 250 251
f 231 251 233
f 231 233 232
f 231 247 252
f 231 252 263
f 231 263 248
f 233 251 253
f 233 253 235
f 233 235 234
f 235 244 236
f 235 253 244
f 236 244 237
f 238 239 245
f 238 245 254
f 238 254 241
f 240 243 255
f 241 254 256
f 241 256 257
f 241 257 243
f 241 243 242
f 243 257 258
f 243 258 259
f 243 259 255
f 244 260 256
f 244 256 245
f 244 253 261
f 244 261 249
f 244 249 262
f 244 262 260
f 245 256 254
f 248 263 264
f 248 264 249
f 249 261 253
f 249 253 251
f 249 251 250
f 249 264 262
f 256 260 265
f 256 265 266
f 256 266 267
f 256 267 257
f 257 267 258
f 258 267 259
f 260 262 268
f 260 268 265
f 262 264 268
f 265 267 266

